G04*
G04 #@! TF.GenerationSoftware,Altium Limited,Altium Designer,25.5.2 (35)*
G04*
G04 Layer_Color=8388736*
%FSLAX44Y44*%
%MOMM*%
G71*
G04*
G04 #@! TF.SameCoordinates,FF0ED309-3303-4A3F-BEF7-256A5107FC80*
G04*
G04*
G04 #@! TF.FilePolarity,Negative*
G04*
G01*
G75*
G04:AMPARAMS|DCode=23|XSize=2.1mm|YSize=3mm|CornerRadius=0mm|HoleSize=0mm|Usage=FLASHONLY|Rotation=315.000|XOffset=0mm|YOffset=0mm|HoleType=Round|Shape=Rectangle|*
%AMROTATEDRECTD23*
4,1,4,-1.8031,-0.3182,0.3182,1.8031,1.8031,0.3182,-0.3182,-1.8031,-1.8031,-0.3182,0.0*
%
%ADD23ROTATEDRECTD23*%

G04:AMPARAMS|DCode=24|XSize=0.8mm|YSize=1.3mm|CornerRadius=0mm|HoleSize=0mm|Usage=FLASHONLY|Rotation=315.000|XOffset=0mm|YOffset=0mm|HoleType=Round|Shape=Rectangle|*
%AMROTATEDRECTD24*
4,1,4,-0.7425,-0.1768,0.1768,0.7425,0.7425,0.1768,-0.1768,-0.7425,-0.7425,-0.1768,0.0*
%
%ADD24ROTATEDRECTD24*%

G04:AMPARAMS|DCode=39|XSize=1.55mm|YSize=1.45mm|CornerRadius=0mm|HoleSize=0mm|Usage=FLASHONLY|Rotation=315.000|XOffset=0mm|YOffset=0mm|HoleType=Round|Shape=Rectangle|*
%AMROTATEDRECTD39*
4,1,4,-1.0607,0.0354,-0.0354,1.0607,1.0607,-0.0354,0.0354,-1.0607,-1.0607,0.0354,0.0*
%
%ADD39ROTATEDRECTD39*%

G04:AMPARAMS|DCode=40|XSize=1mm|YSize=0.85mm|CornerRadius=0mm|HoleSize=0mm|Usage=FLASHONLY|Rotation=315.000|XOffset=0mm|YOffset=0mm|HoleType=Round|Shape=Rectangle|*
%AMROTATEDRECTD40*
4,1,4,-0.6541,0.0530,-0.0530,0.6541,0.6541,-0.0530,0.0530,-0.6541,-0.6541,0.0530,0.0*
%
%ADD40ROTATEDRECTD40*%

G04:AMPARAMS|DCode=41|XSize=2.23mm|YSize=1.65mm|CornerRadius=0mm|HoleSize=0mm|Usage=FLASHONLY|Rotation=225.000|XOffset=0mm|YOffset=0mm|HoleType=Round|Shape=Rectangle|*
%AMROTATEDRECTD41*
4,1,4,0.2051,1.3718,1.3718,0.2051,-0.2051,-1.3718,-1.3718,-0.2051,0.2051,1.3718,0.0*
%
%ADD41ROTATEDRECTD41*%

G04:AMPARAMS|DCode=42|XSize=0.939mm|YSize=1.3454mm|CornerRadius=0mm|HoleSize=0mm|Usage=FLASHONLY|Rotation=135.000|XOffset=0mm|YOffset=0mm|HoleType=Round|Shape=Rectangle|*
%AMROTATEDRECTD42*
4,1,4,0.8077,0.1437,-0.1437,-0.8077,-0.8077,-0.1437,0.1437,0.8077,0.8077,0.1437,0.0*
%
%ADD42ROTATEDRECTD42*%

G04:AMPARAMS|DCode=43|XSize=2.2598mm|YSize=3.1488mm|CornerRadius=0mm|HoleSize=0mm|Usage=FLASHONLY|Rotation=135.000|XOffset=0mm|YOffset=0mm|HoleType=Round|Shape=Rectangle|*
%AMROTATEDRECTD43*
4,1,4,1.9122,0.3143,-0.3143,-1.9122,-1.9122,-0.3143,0.3143,1.9122,1.9122,0.3143,0.0*
%
%ADD43ROTATEDRECTD43*%

G04:AMPARAMS|DCode=44|XSize=2.2598mm|YSize=3.1488mm|CornerRadius=0mm|HoleSize=0mm|Usage=FLASHONLY|Rotation=225.000|XOffset=0mm|YOffset=0mm|HoleType=Round|Shape=Rectangle|*
%AMROTATEDRECTD44*
4,1,4,-0.3143,1.9122,1.9122,-0.3143,0.3143,-1.9122,-1.9122,0.3143,-0.3143,1.9122,0.0*
%
%ADD44ROTATEDRECTD44*%

%ADD45R,0.9500X1.1000*%
%ADD46R,0.6500X1.5000*%
%ADD47P,1.1483X4X90.0*%
G04:AMPARAMS|DCode=48|XSize=1.1mm|YSize=0.95mm|CornerRadius=0mm|HoleSize=0mm|Usage=FLASHONLY|Rotation=45.000|XOffset=0mm|YOffset=0mm|HoleType=Round|Shape=Rectangle|*
%AMROTATEDRECTD48*
4,1,4,-0.0530,-0.7248,-0.7248,-0.0530,0.0530,0.7248,0.7248,0.0530,-0.0530,-0.7248,0.0*
%
%ADD48ROTATEDRECTD48*%

%ADD49R,1.1000X0.9500*%
%ADD50O,1.4500X0.3400*%
%ADD51O,0.3400X1.4500*%
%ADD52R,2.0500X1.4500*%
%ADD53R,1.1000X1.3500*%
%ADD54R,0.8500X1.0000*%
%ADD55R,1.0000X0.8500*%
G04:AMPARAMS|DCode=56|XSize=1.1mm|YSize=1.77mm|CornerRadius=0mm|HoleSize=0mm|Usage=FLASHONLY|Rotation=225.000|XOffset=0mm|YOffset=0mm|HoleType=Round|Shape=Rectangle|*
%AMROTATEDRECTD56*
4,1,4,-0.2369,1.0147,1.0147,-0.2369,0.2369,-1.0147,-1.0147,0.2369,-0.2369,1.0147,0.0*
%
%ADD56ROTATEDRECTD56*%

%ADD57R,0.8120X0.8120*%
G04:AMPARAMS|DCode=58|XSize=0.939mm|YSize=1.3454mm|CornerRadius=0mm|HoleSize=0mm|Usage=FLASHONLY|Rotation=225.000|XOffset=0mm|YOffset=0mm|HoleType=Round|Shape=Rectangle|*
%AMROTATEDRECTD58*
4,1,4,-0.1437,0.8077,0.8077,-0.1437,0.1437,-0.8077,-0.8077,0.1437,-0.1437,0.8077,0.0*
%
%ADD58ROTATEDRECTD58*%

%ADD59C,3.3500*%
D23*
X301593Y241514D02*
D03*
X239014Y304093D02*
D03*
D24*
X237600Y266616D02*
D03*
X246438Y257777D02*
D03*
X264116Y240100D02*
D03*
X255277Y248938D02*
D03*
D39*
X65429Y225429D02*
D03*
X79571Y239571D02*
D03*
X50429Y127929D02*
D03*
X64571Y142071D02*
D03*
D40*
X27904Y105404D02*
D03*
X119596Y297096D02*
D03*
X110404Y287904D02*
D03*
X99596Y262096D02*
D03*
X90404Y252904D02*
D03*
X37096Y114596D02*
D03*
D41*
X34973Y239973D02*
D03*
X100027Y305027D02*
D03*
D42*
X91032Y84693D02*
D03*
X82193Y93532D02*
D03*
D43*
X89618Y47216D02*
D03*
X44716Y92118D02*
D03*
D44*
X295284D02*
D03*
X250382Y47216D02*
D03*
D45*
X215500Y30000D02*
D03*
X228000Y135000D02*
D03*
X137000Y232500D02*
D03*
Y250000D02*
D03*
X152000Y265000D02*
D03*
X182000Y235000D02*
D03*
X198000D02*
D03*
X168000Y265000D02*
D03*
X153000Y250000D02*
D03*
Y232500D02*
D03*
X212000Y135000D02*
D03*
X199500Y30000D02*
D03*
D46*
X150950Y27750D02*
D03*
X163650D02*
D03*
X176350D02*
D03*
X150950Y82250D02*
D03*
X163650D02*
D03*
X176350D02*
D03*
X189050D02*
D03*
Y27750D02*
D03*
D47*
X270727Y133192D02*
D03*
X247827Y123763D02*
D03*
X261298Y110292D02*
D03*
D48*
X130657Y309343D02*
D03*
X119343Y320657D02*
D03*
D49*
X227500Y189500D02*
D03*
X115000Y129500D02*
D03*
Y145500D02*
D03*
X227500Y205500D02*
D03*
D50*
X210500Y197500D02*
D03*
X129500Y152500D02*
D03*
Y202500D02*
D03*
Y197500D02*
D03*
Y192500D02*
D03*
Y187500D02*
D03*
Y182500D02*
D03*
Y177500D02*
D03*
Y172500D02*
D03*
Y167500D02*
D03*
Y162500D02*
D03*
Y157500D02*
D03*
Y147500D02*
D03*
X210500D02*
D03*
Y152500D02*
D03*
Y157500D02*
D03*
Y162500D02*
D03*
Y167500D02*
D03*
Y172500D02*
D03*
Y177500D02*
D03*
Y182500D02*
D03*
Y187500D02*
D03*
Y192500D02*
D03*
Y202500D02*
D03*
D51*
X192500Y134500D02*
D03*
X162500Y215500D02*
D03*
X197500D02*
D03*
X192500D02*
D03*
X187500D02*
D03*
X182500D02*
D03*
X177500D02*
D03*
X172500D02*
D03*
X167500D02*
D03*
X157500D02*
D03*
X152500D02*
D03*
X147500D02*
D03*
X142500D02*
D03*
Y134500D02*
D03*
X147500D02*
D03*
X152500D02*
D03*
X157500D02*
D03*
X162500D02*
D03*
X167500D02*
D03*
X172500D02*
D03*
X177500D02*
D03*
X182500D02*
D03*
X187500D02*
D03*
X197500D02*
D03*
D52*
X95000Y117000D02*
D03*
Y153000D02*
D03*
D53*
X180000Y252000D02*
D03*
X198500Y275000D02*
D03*
Y252000D02*
D03*
X180000Y275000D02*
D03*
D54*
X259000Y172500D02*
D03*
X246000D02*
D03*
D55*
X227500Y163500D02*
D03*
Y176500D02*
D03*
D56*
X245728Y108228D02*
D03*
X225080Y87580D02*
D03*
D57*
X255025Y211610D02*
D03*
X245500Y188750D02*
D03*
X264550D02*
D03*
D58*
X257807Y93532D02*
D03*
X248968Y84693D02*
D03*
D59*
X305000Y175000D02*
D03*
X35000D02*
D03*
M02*
