G04*
G04 #@! TF.GenerationSoftware,Altium Limited,Altium Designer,25.5.2 (35)*
G04*
G04 Layer_Color=16776960*
%FSLAX44Y44*%
%MOMM*%
G71*
G04*
G04 #@! TF.SameCoordinates,B155DF0D-442F-4457-A768-46698C0FB055*
G04*
G04*
G04 #@! TF.FilePolarity,Positive*
G04*
G01*
G75*
%ADD11C,0.2500*%
%ADD12C,0.2000*%
%ADD14C,0.1500*%
%ADD15C,0.1524*%
%ADD16C,0.1270*%
%ADD89C,0.4200*%
G36*
X131380Y234842D02*
X124158Y227620D01*
X108620Y243158D01*
X115842Y250380D01*
X131380Y234842D01*
D02*
G37*
G36*
X124511Y223711D02*
X117289Y216489D01*
X99489Y234289D01*
X106711Y241511D01*
X124511Y223711D01*
D02*
G37*
G36*
X107490Y223627D02*
X100373Y216510D01*
X90510Y226373D01*
X97627Y233490D01*
X107490Y223627D01*
D02*
G37*
G36*
X219490Y230373D02*
X209627Y220510D01*
X202510Y227627D01*
X212373Y237490D01*
X219490Y230373D01*
D02*
G37*
G36*
X228726Y221714D02*
X212286Y205274D01*
X205274Y212286D01*
X221714Y228726D01*
X228726Y221714D01*
D02*
G37*
G36*
X238380Y212158D02*
X222842Y196620D01*
X215620Y203842D01*
X231158Y219380D01*
X238380Y212158D01*
D02*
G37*
%LPC*%
G36*
X115626Y246290D02*
X115345Y246257D01*
X115201Y246231D01*
X115057Y246191D01*
X115044D01*
X115025Y246185D01*
X114979Y246165D01*
X114920Y246146D01*
X114855Y246119D01*
X114770Y246087D01*
X114678Y246048D01*
X114580Y246002D01*
X114469Y245943D01*
X114352Y245878D01*
X114227Y245806D01*
X114103Y245721D01*
X113848Y245531D01*
X113711Y245420D01*
X113508Y245217D01*
X113469Y245165D01*
X113417Y245113D01*
X113312Y244982D01*
X113194Y244825D01*
X113077Y244642D01*
X112965Y244452D01*
X112861Y244243D01*
X112854Y244237D01*
X112848Y244217D01*
X112841Y244184D01*
X112828Y244145D01*
X112782Y244034D01*
X112743Y243890D01*
X112704Y243720D01*
X112658Y243531D01*
X112639Y243328D01*
X112632Y243125D01*
Y243099D01*
Y243034D01*
X112645Y242929D01*
X112671Y242798D01*
X112697Y242642D01*
X112743Y242478D01*
X112795Y242308D01*
X112874Y242138D01*
X112880Y242132D01*
Y242118D01*
X112900Y242099D01*
X112926Y242060D01*
X112952Y242020D01*
X112985Y241962D01*
X113037Y241896D01*
X113090Y241831D01*
X113155Y241739D01*
X113227Y241654D01*
X113319Y241550D01*
X113404Y241439D01*
X113515Y241314D01*
X113639Y241190D01*
X113770Y241046D01*
X111553Y243263D01*
X111553Y243263D01*
X114868Y239948D01*
X119052Y244132D01*
X118025Y245159D01*
X117954Y245217D01*
X117882Y245289D01*
X117784Y245374D01*
X117686Y245459D01*
X117575Y245557D01*
X117320Y245747D01*
X117058Y245930D01*
X116921Y246015D01*
X116790Y246093D01*
X116653Y246152D01*
X116529Y246198D01*
X116522Y246204D01*
X116496D01*
X116457Y246217D01*
X116411Y246224D01*
X116352Y246244D01*
X116273Y246257D01*
X116090Y246283D01*
X115875Y246290D01*
X115626D01*
D02*
G37*
G36*
X120013Y243171D02*
X115829Y238987D01*
X119176Y235640D01*
X123360Y239824D01*
X122608Y240576D01*
X118045Y239621D01*
X120804Y242380D01*
X120013Y243171D01*
D02*
G37*
G36*
X123720Y238104D02*
X123726Y236986D01*
X123740D01*
X123779D01*
X123831D01*
X123910D01*
X124001Y236973D01*
X124112Y236967D01*
X124230Y236941D01*
X124367Y236921D01*
X124504Y236888D01*
X124655Y236843D01*
X124805Y236784D01*
X124949Y236718D01*
X125106Y236640D01*
X125256Y236542D01*
X125400Y236437D01*
X125537Y236313D01*
X125596Y236254D01*
X125635Y236202D01*
X125681Y236143D01*
X125733Y236078D01*
X125792Y235993D01*
X125845Y235901D01*
X125962Y235692D01*
X126015Y235574D01*
X126054Y235443D01*
X126100Y235306D01*
X126132Y235169D01*
X126152Y235019D01*
X126158Y234868D01*
Y234855D01*
Y234829D01*
Y234790D01*
X126152Y234731D01*
X126145Y234659D01*
X126126Y234574D01*
X126113Y234482D01*
X126080Y234384D01*
X126054Y234280D01*
X126015Y234162D01*
X125910Y233927D01*
X125845Y233809D01*
X125766Y233692D01*
X125675Y233574D01*
X125577Y233463D01*
X125570Y233456D01*
X125550Y233437D01*
X125518Y233404D01*
X125472Y233371D01*
X125413Y233325D01*
X125335Y233273D01*
X125256Y233221D01*
X125171Y233162D01*
X124956Y233051D01*
X124838Y232999D01*
X124707Y232959D01*
X124570Y232913D01*
X124426Y232887D01*
X124276Y232868D01*
X124119D01*
X124106D01*
X124080D01*
X124034Y232874D01*
X123975Y232881D01*
X123903Y232887D01*
X123818Y232907D01*
X123720Y232927D01*
X123615Y232953D01*
X123504Y232985D01*
X123380Y233031D01*
X123262Y233083D01*
X123132Y233149D01*
X123007Y233221D01*
X122883Y233306D01*
X122759Y233404D01*
X122635Y233515D01*
X122563Y233587D01*
X122497Y233665D01*
X122412Y233776D01*
X122321Y233907D01*
X122242Y234051D01*
X122164Y234208D01*
X122112Y234378D01*
X122105Y234384D01*
Y234398D01*
X122099Y234456D01*
X122086Y234548D01*
X122079Y234672D01*
X122086Y234823D01*
X122099Y234992D01*
X122138Y235175D01*
X122197Y235378D01*
X123406Y234169D01*
X124151Y234914D01*
X122046Y237019D01*
X121864Y236850D01*
X121811Y236797D01*
X121778Y236751D01*
X121726Y236699D01*
X121674Y236633D01*
X121621Y236555D01*
X121556Y236476D01*
X121438Y236280D01*
X121314Y236052D01*
X121190Y235797D01*
X121144Y235659D01*
X121105Y235515D01*
X121098Y235509D01*
Y235483D01*
X121085Y235443D01*
X121079Y235385D01*
X121059Y235313D01*
X121046Y235234D01*
X121026Y235045D01*
X121007Y234816D01*
X121013Y234561D01*
X121033Y234293D01*
X121092Y234025D01*
X121098Y234018D01*
Y233992D01*
X121111Y233953D01*
X121131Y233907D01*
X121157Y233842D01*
X121190Y233770D01*
X121222Y233685D01*
X121268Y233600D01*
X121314Y233502D01*
X121373Y233391D01*
X121510Y233175D01*
X121687Y232946D01*
X121896Y232711D01*
X119810Y234796D01*
Y234796D01*
X124158Y230449D01*
X128551Y234842D01*
X128551D01*
X126413Y232704D01*
X126446Y232750D01*
X126505Y232809D01*
X126564Y232894D01*
X126642Y232985D01*
X126721Y233103D01*
X126799Y233221D01*
X126878Y233365D01*
X126963Y233515D01*
X127035Y233678D01*
X127106Y233855D01*
X127165Y234044D01*
X127218Y234241D01*
X127257Y234437D01*
X127276Y234653D01*
Y234666D01*
Y234718D01*
Y234783D01*
Y234888D01*
X127263Y235005D01*
X127244Y235143D01*
X127224Y235306D01*
X127185Y235476D01*
X127133Y235659D01*
X127080Y235855D01*
X126995Y236058D01*
X126904Y236267D01*
X126786Y236476D01*
X126649Y236679D01*
X126492Y236888D01*
X126309Y237084D01*
X126217Y237176D01*
X126158Y237222D01*
X126100Y237267D01*
X126028Y237326D01*
X125949Y237392D01*
X125766Y237523D01*
X125563Y237660D01*
X125335Y237784D01*
X125086Y237902D01*
X125080Y237908D01*
X125060Y237915D01*
X125027Y237921D01*
X124988Y237934D01*
X124929Y237954D01*
X124864Y237967D01*
X124700Y238013D01*
X124504Y238052D01*
X124276Y238085D01*
X124008Y238104D01*
X123720D01*
D02*
G37*
%LPD*%
G36*
X115816Y245159D02*
X115829D01*
X115868D01*
X115920Y245145D01*
X115979Y245139D01*
X116051Y245119D01*
X116136Y245100D01*
X116234Y245067D01*
X116332Y245021D01*
X116444Y244975D01*
X116555Y244917D01*
X116679Y244845D01*
X116803Y244760D01*
X116940Y244662D01*
X117071Y244544D01*
X117215Y244413D01*
X117483Y244145D01*
X114855Y241517D01*
X114397Y241975D01*
X114358Y242027D01*
X114306Y242079D01*
X114195Y242204D01*
X114083Y242354D01*
X113972Y242504D01*
X113881Y242661D01*
X113848Y242733D01*
X113815Y242805D01*
X113809Y242824D01*
X113802Y242870D01*
X113783Y242942D01*
X113770Y243047D01*
X113763Y243171D01*
X113770Y243308D01*
X113789Y243459D01*
X113828Y243629D01*
X113835Y243635D01*
Y243648D01*
X113855Y243707D01*
X113894Y243799D01*
X113953Y243910D01*
X114031Y244041D01*
X114129Y244191D01*
X114247Y244348D01*
X114397Y244511D01*
X114404Y244518D01*
X114423Y244537D01*
X114463Y244577D01*
X114515Y244616D01*
X114574Y244662D01*
X114646Y244720D01*
X114731Y244779D01*
X114822Y244845D01*
X115031Y244962D01*
X115149Y245015D01*
X115267Y245067D01*
X115398Y245106D01*
X115528Y245132D01*
X115666Y245152D01*
X115803Y245159D01*
X115816D01*
D02*
G37*
G36*
X118385Y236431D02*
X116594Y238222D01*
X121124Y239170D01*
X118385Y236431D01*
D02*
G37*
G36*
X124158Y230449D02*
X121961Y232645D01*
X122014Y232606D01*
X122066Y232554D01*
X122138Y232495D01*
X122229Y232430D01*
X122314Y232358D01*
X122537Y232214D01*
X122779Y232064D01*
X123053Y231933D01*
X123190Y231874D01*
X123341Y231828D01*
X123354D01*
X123373Y231822D01*
X123419Y231815D01*
X123478Y231796D01*
X123543Y231782D01*
X123635Y231769D01*
X123844Y231743D01*
X124080Y231730D01*
X124354D01*
X124648Y231763D01*
X124949Y231828D01*
X124956Y231835D01*
X124988Y231841D01*
X125027Y231854D01*
X125086Y231874D01*
X125152Y231900D01*
X125237Y231933D01*
X125328Y231972D01*
X125433Y232024D01*
X125544Y232070D01*
X125655Y232129D01*
X125897Y232279D01*
X126139Y232456D01*
X126257Y232560D01*
X126374Y232665D01*
X124158Y230449D01*
D02*
G37*
%LPC*%
G36*
X106711Y238682D02*
X102318Y234289D01*
X104946Y231661D01*
X104946Y231661D01*
X103652Y232955D01*
X103684Y232936D01*
X103723Y232896D01*
X103776Y232857D01*
X103893Y232766D01*
X104044Y232668D01*
X104214Y232576D01*
X104397Y232498D01*
X104600Y232439D01*
X104606Y232432D01*
X104626Y232439D01*
X104691Y232426D01*
X104815Y232419D01*
X104959D01*
X105149Y232426D01*
X105358Y232452D01*
X105600Y232498D01*
X105855Y232570D01*
X105855Y232570D01*
X105593Y233642D01*
X105580D01*
X105554Y233629D01*
X105508Y233622D01*
X105456Y233609D01*
X105299Y233583D01*
X105116Y233570D01*
X104913Y233563D01*
X104704Y233589D01*
X104606Y233622D01*
X104515Y233661D01*
X104423Y233714D01*
X104345Y233779D01*
X104312Y233812D01*
X104279Y233857D01*
X104240Y233910D01*
X104201Y233975D01*
X104168Y234060D01*
X104135Y234145D01*
X104122Y234237D01*
Y234250D01*
Y234276D01*
Y234328D01*
X104129Y234387D01*
X104142Y234452D01*
X104162Y234524D01*
X104201Y234590D01*
X104253Y234655D01*
X104260Y234662D01*
X104279Y234681D01*
X104312Y234701D01*
X104358Y234734D01*
X104410Y234760D01*
X104475Y234786D01*
X104554Y234812D01*
X104645Y234825D01*
X104658D01*
X104691Y234832D01*
X104756D01*
X104854Y234838D01*
X104972D01*
X105129D01*
X105312Y234825D01*
X105541Y234805D01*
X105554D01*
X105600Y234799D01*
X105659Y234792D01*
X105744Y234786D01*
X105842Y234779D01*
X105959Y234766D01*
X106221Y234753D01*
X106508Y234740D01*
X106796D01*
X106933Y234746D01*
X107064D01*
X107182Y234760D01*
X107280Y234779D01*
X107286Y234786D01*
X107299D01*
X107365Y234799D01*
X107450Y234832D01*
X107568Y234871D01*
X107692Y234930D01*
X107829Y235002D01*
X107966Y235086D01*
X108084Y235191D01*
X108091Y235198D01*
X108104Y235211D01*
X108123Y235230D01*
X108149Y235270D01*
X108182Y235315D01*
X108215Y235361D01*
X108300Y235485D01*
X108378Y235642D01*
X108444Y235825D01*
X108470Y235930D01*
X108483Y236035D01*
X108502Y236146D01*
Y236263D01*
Y236276D01*
Y236289D01*
X108496Y236322D01*
Y236374D01*
X108483Y236427D01*
X108470Y236492D01*
X108431Y236649D01*
X108372Y236826D01*
X108287Y237015D01*
X108162Y237205D01*
X108084Y237296D01*
X107999Y237394D01*
X107947Y237447D01*
X107881Y237499D01*
X107790Y237564D01*
X107679Y237636D01*
X107548Y237715D01*
X107411Y237787D01*
X107254Y237839D01*
X107247Y237845D01*
X107234D01*
X107175Y237865D01*
X107077Y237885D01*
X106953Y237904D01*
X106783Y237930D01*
X106587Y237943D01*
X106358Y237937D01*
X106103Y237930D01*
X106175Y236812D01*
X106188D01*
X106208Y236819D01*
X106247D01*
X106293Y236826D01*
X106424Y236839D01*
X106587Y236832D01*
X106757Y236819D01*
X106933Y236786D01*
X107018Y236754D01*
X107097Y236714D01*
X107169Y236669D01*
X107234Y236616D01*
X107260Y236590D01*
X107280Y236558D01*
X107313Y236512D01*
X107378Y236407D01*
X107391Y236342D01*
X107404Y236276D01*
Y236263D01*
Y236250D01*
X107398Y236178D01*
X107371Y236074D01*
X107345Y236035D01*
X107313Y235989D01*
X107306Y235982D01*
X107293Y235969D01*
X107267Y235956D01*
X107241Y235930D01*
X107156Y235884D01*
X107044Y235851D01*
X107031D01*
X106992D01*
X106927D01*
X106822D01*
X106678D01*
X106580Y235858D01*
X106476D01*
X106365Y235865D01*
X106234Y235878D01*
X106083Y235884D01*
X105927Y235897D01*
X105913D01*
X105894Y235904D01*
X105848Y235910D01*
X105796D01*
X105652Y235923D01*
X105482Y235936D01*
X105306Y235956D01*
X105142Y235963D01*
X104992Y235969D01*
X104933Y235976D01*
X104894D01*
X104867D01*
X104815D01*
X104724D01*
X104613Y235956D01*
X104482Y235943D01*
X104345Y235923D01*
X104220Y235891D01*
X104089Y235851D01*
X104070Y235845D01*
X104031Y235832D01*
X103972Y235799D01*
X103893Y235760D01*
X103802Y235708D01*
X103697Y235642D01*
X103599Y235557D01*
X103495Y235466D01*
X106711Y238682D01*
X106711Y238682D01*
D02*
G37*
G36*
X109738Y235655D02*
X105345Y231262D01*
X107973Y228634D01*
Y228634D01*
X106678Y229928D01*
X106711Y229909D01*
X106750Y229869D01*
X106803Y229830D01*
X106920Y229739D01*
X107071Y229641D01*
X107241Y229549D01*
X107424Y229471D01*
X107626Y229412D01*
X107633Y229405D01*
X107653Y229412D01*
X107718Y229399D01*
X107842Y229392D01*
X107986D01*
X108176Y229399D01*
X108385Y229425D01*
X108627Y229471D01*
X108882Y229543D01*
X108882Y229543D01*
X108620Y230615D01*
X108607D01*
X108581Y230602D01*
X108535Y230595D01*
X108483Y230582D01*
X108326Y230556D01*
X108143Y230543D01*
X107940Y230536D01*
X107731Y230562D01*
X107633Y230595D01*
X107541Y230634D01*
X107450Y230687D01*
X107371Y230752D01*
X107339Y230785D01*
X107306Y230830D01*
X107267Y230883D01*
X107228Y230948D01*
X107195Y231033D01*
X107162Y231118D01*
X107149Y231210D01*
Y231223D01*
Y231249D01*
Y231301D01*
X107156Y231360D01*
X107169Y231425D01*
X107188Y231497D01*
X107228Y231563D01*
X107280Y231628D01*
X107286Y231635D01*
X107306Y231654D01*
X107339Y231674D01*
X107385Y231707D01*
X107437Y231733D01*
X107502Y231759D01*
X107581Y231785D01*
X107672Y231798D01*
X107685D01*
X107718Y231805D01*
X107783D01*
X107881Y231811D01*
X107999D01*
X108156D01*
X108339Y231798D01*
X108568Y231779D01*
X108581D01*
X108627Y231772D01*
X108686Y231765D01*
X108771Y231759D01*
X108869Y231752D01*
X108986Y231739D01*
X109248Y231726D01*
X109535Y231713D01*
X109823D01*
X109960Y231720D01*
X110091D01*
X110209Y231733D01*
X110307Y231752D01*
X110313Y231759D01*
X110326D01*
X110392Y231772D01*
X110477Y231805D01*
X110595Y231844D01*
X110719Y231903D01*
X110856Y231975D01*
X110993Y232060D01*
X111111Y232164D01*
X111117Y232171D01*
X111131Y232184D01*
X111150Y232203D01*
X111176Y232243D01*
X111209Y232288D01*
X111242Y232334D01*
X111327Y232458D01*
X111405Y232615D01*
X111470Y232798D01*
X111497Y232903D01*
X111510Y233008D01*
X111529Y233119D01*
Y233236D01*
Y233249D01*
Y233263D01*
X111523Y233295D01*
Y233347D01*
X111510Y233400D01*
X111497Y233465D01*
X111457Y233622D01*
X111399Y233799D01*
X111314Y233988D01*
X111189Y234178D01*
X111111Y234269D01*
X111026Y234367D01*
X110974Y234420D01*
X110908Y234472D01*
X110817Y234537D01*
X110706Y234609D01*
X110575Y234688D01*
X110438Y234760D01*
X110281Y234812D01*
X110274Y234818D01*
X110261D01*
X110202Y234838D01*
X110104Y234858D01*
X109980Y234877D01*
X109810Y234903D01*
X109614Y234916D01*
X109385Y234910D01*
X109130Y234903D01*
X109202Y233785D01*
X109215D01*
X109235Y233792D01*
X109274D01*
X109320Y233799D01*
X109450Y233812D01*
X109614Y233805D01*
X109784Y233792D01*
X109960Y233759D01*
X110045Y233727D01*
X110124Y233687D01*
X110196Y233642D01*
X110261Y233589D01*
X110287Y233563D01*
X110307Y233531D01*
X110339Y233485D01*
X110405Y233380D01*
X110418Y233315D01*
X110431Y233249D01*
Y233236D01*
Y233223D01*
X110424Y233151D01*
X110398Y233047D01*
X110372Y233008D01*
X110339Y232962D01*
X110333Y232955D01*
X110320Y232942D01*
X110294Y232929D01*
X110268Y232903D01*
X110183Y232857D01*
X110071Y232824D01*
X110058D01*
X110019D01*
X109954D01*
X109849D01*
X109705D01*
X109607Y232831D01*
X109503D01*
X109392Y232838D01*
X109261Y232851D01*
X109110Y232857D01*
X108954Y232870D01*
X108940D01*
X108921Y232877D01*
X108875Y232883D01*
X108823D01*
X108679Y232896D01*
X108509Y232910D01*
X108332Y232929D01*
X108169Y232936D01*
X108019Y232942D01*
X107960Y232949D01*
X107921D01*
X107894D01*
X107842D01*
X107751D01*
X107640Y232929D01*
X107509Y232916D01*
X107371Y232896D01*
X107247Y232864D01*
X107116Y232824D01*
X107097Y232818D01*
X107058Y232805D01*
X106999Y232772D01*
X106920Y232733D01*
X106829Y232681D01*
X106724Y232615D01*
X106626Y232530D01*
X106522Y232439D01*
X109738Y235655D01*
X109738Y235655D01*
D02*
G37*
G36*
X112641Y232543D02*
X108457Y228359D01*
X110738Y226078D01*
X114922Y230262D01*
X112641Y232543D01*
D02*
G37*
G36*
X115576Y229608D02*
X111392Y225424D01*
X114072Y222743D01*
X118257Y226928D01*
X117302Y227882D01*
X117237Y227934D01*
X117171Y228000D01*
X117093Y228065D01*
X117014Y228144D01*
X116838Y228281D01*
X116655Y228425D01*
X116465Y228549D01*
X116380Y228595D01*
X116302Y228634D01*
X116295Y228640D01*
X116282D01*
X116230Y228654D01*
X116145Y228686D01*
X116034Y228706D01*
X115903Y228719D01*
X115753Y228725D01*
X115589Y228719D01*
X115419Y228693D01*
X115400Y228686D01*
X115341Y228666D01*
X115249Y228640D01*
X115138Y228595D01*
X115001Y228523D01*
X114857Y228444D01*
X114707Y228333D01*
X114556Y228196D01*
X114550Y228189D01*
X114537Y228176D01*
X114517Y228157D01*
X114491Y228130D01*
X114425Y228039D01*
X114340Y227928D01*
X114256Y227791D01*
X114177Y227647D01*
X114112Y227477D01*
X114066Y227300D01*
X114059Y227281D01*
Y227215D01*
Y227124D01*
Y226993D01*
X114073Y226849D01*
X114105Y226673D01*
X114164Y226483D01*
X114242Y226287D01*
X111392Y225424D01*
X115576Y229608D01*
Y229608D01*
D02*
G37*
G36*
X119087Y226097D02*
X114903Y221913D01*
X117394Y219422D01*
X121578Y223606D01*
X120623Y224561D01*
X120558Y224613D01*
X120492Y224679D01*
X120414Y224744D01*
X120342Y224816D01*
X120159Y224960D01*
X119976Y225103D01*
X119793Y225221D01*
X119701Y225273D01*
X119616Y225306D01*
X119610Y225313D01*
X119597D01*
X119538Y225332D01*
X119459Y225359D01*
X119342Y225385D01*
X119205Y225404D01*
X119054Y225411D01*
X118891Y225404D01*
X118721Y225378D01*
X118701Y225372D01*
X118642Y225352D01*
X118551Y225326D01*
X118440Y225280D01*
X118315Y225208D01*
X118165Y225123D01*
X118021Y225019D01*
X117871Y224881D01*
X119087Y226097D01*
X119087Y226097D01*
D02*
G37*
%LPD*%
G36*
X103416Y235374D02*
X103377Y235322D01*
X103338Y235270D01*
X103246Y235126D01*
X103148Y234949D01*
X103076Y234746D01*
X103043Y234635D01*
X103024Y234511D01*
X103011Y234394D01*
Y234263D01*
Y234250D01*
Y234237D01*
X103017Y234191D01*
X103024Y234145D01*
X103031Y234086D01*
X103050Y234014D01*
X103063Y233936D01*
X103096Y233851D01*
X103128Y233753D01*
X103161Y233655D01*
X103272Y233439D01*
X103416Y233217D01*
X103508Y233112D01*
X103606Y233001D01*
X102318Y234289D01*
X103442Y235413D01*
X103416Y235374D01*
D02*
G37*
G36*
X106443Y232347D02*
X106404Y232295D01*
X106365Y232243D01*
X106273Y232099D01*
X106175Y231922D01*
X106103Y231720D01*
X106070Y231609D01*
X106051Y231484D01*
X106038Y231367D01*
Y231236D01*
Y231223D01*
Y231210D01*
X106044Y231164D01*
X106051Y231118D01*
X106057Y231059D01*
X106077Y230987D01*
X106090Y230909D01*
X106123Y230824D01*
X106155Y230726D01*
X106188Y230628D01*
X106299Y230412D01*
X106443Y230190D01*
X106535Y230085D01*
X106633Y229974D01*
X105345Y231262D01*
X106469Y232386D01*
X106443Y232347D01*
D02*
G37*
G36*
X113360Y230281D02*
X112601Y229523D01*
X111111Y231014D01*
X111869Y231772D01*
X113360Y230281D01*
D02*
G37*
G36*
X111830Y228752D02*
X110732Y227653D01*
X109241Y229144D01*
X110339Y230242D01*
X111830Y228752D01*
D02*
G37*
G36*
X115674Y227601D02*
X115753D01*
X115857Y227588D01*
X115988Y227549D01*
X115995Y227542D01*
X116021Y227529D01*
X116053Y227509D01*
X116112Y227477D01*
X116178Y227424D01*
X116263Y227353D01*
X116361Y227267D01*
X116687Y226941D01*
X115831Y226084D01*
X115524Y226391D01*
X115458Y226470D01*
X115387Y226555D01*
X115315Y226653D01*
X115243Y226751D01*
X115190Y226856D01*
X115158Y226954D01*
Y226967D01*
X115151Y226999D01*
X115158Y227045D01*
Y227111D01*
X115177Y227183D01*
X115210Y227254D01*
X115262Y227346D01*
X115334Y227431D01*
X115341Y227437D01*
X115360Y227457D01*
X115387Y227470D01*
X115419Y227503D01*
X115524Y227555D01*
X115576Y227581D01*
X115641Y227594D01*
X115648Y227601D01*
X115674D01*
D02*
G37*
G36*
X115053Y225306D02*
X113281Y223535D01*
X112262Y224554D01*
X114981Y225378D01*
X115053Y225306D01*
D02*
G37*
G36*
X119192Y224267D02*
X119205D01*
X119231Y224254D01*
X119283Y224228D01*
X119355Y224195D01*
X119433Y224142D01*
X119538Y224064D01*
X119649Y223966D01*
X119786Y223842D01*
X120009Y223619D01*
X119152Y222763D01*
X118793Y223123D01*
X118740Y223188D01*
X118616Y223338D01*
X118557Y223410D01*
X118518Y223476D01*
X118511Y223482D01*
X118505Y223502D01*
X118498Y223535D01*
X118485Y223574D01*
X118472Y223678D01*
X118479Y223803D01*
Y223816D01*
X118485Y223835D01*
X118492Y223868D01*
X118505Y223907D01*
X118564Y224005D01*
X118590Y224058D01*
X118642Y224110D01*
X118655Y224123D01*
X118681Y224149D01*
X118740Y224182D01*
X118806Y224221D01*
X118878Y224254D01*
X118976Y224273D01*
X119080Y224286D01*
X119192Y224267D01*
D02*
G37*
G36*
X117806Y224803D02*
X117766Y224764D01*
X117727Y224711D01*
X117642Y224600D01*
X117557Y224450D01*
X117479Y224293D01*
X117413Y224110D01*
X117374Y223914D01*
Y223888D01*
X117367Y223829D01*
Y223724D01*
X117381Y223593D01*
X117407Y223437D01*
X117446Y223267D01*
X117511Y223083D01*
X117596Y222894D01*
X117609Y222881D01*
X117629Y222835D01*
X117655Y222809D01*
X117681Y222770D01*
X117714Y222724D01*
X117760Y222665D01*
X117806Y222606D01*
X117858Y222541D01*
X117923Y222462D01*
X118002Y222384D01*
X118080Y222292D01*
X118165Y222194D01*
X118374Y221985D01*
X116603Y220213D01*
X114903Y221913D01*
X117832Y224842D01*
X117806Y224803D01*
D02*
G37*
%LPC*%
G36*
X97627Y230662D02*
X94953Y224967D01*
X95718Y224202D01*
X101380Y226909D01*
X100562Y227726D01*
X96535Y225804D01*
X98438Y229851D01*
X97627Y230662D01*
D02*
G37*
G36*
X101870Y226419D02*
X101131Y225680D01*
X102498Y224314D01*
X101896Y223372D01*
X101890Y223379D01*
Y223392D01*
X101863Y223431D01*
X101824Y223483D01*
X101792Y223542D01*
X101778Y223555D01*
X101752Y223594D01*
X101713Y223647D01*
X101615Y223745D01*
X101569Y223778D01*
X101510Y223823D01*
X101452Y223869D01*
X101373Y223921D01*
X101295Y223974D01*
X101092Y224072D01*
X100987Y224124D01*
X100870Y224163D01*
X100745Y224196D01*
X100615Y224222D01*
X100478Y224242D01*
X100334D01*
X100321D01*
X100294D01*
X100262Y224235D01*
X100203Y224229D01*
X100144Y224222D01*
X100066Y224209D01*
X99968Y224189D01*
X99876Y224163D01*
X99778Y224130D01*
X99660Y224091D01*
X99549Y224046D01*
X99431Y223980D01*
X99314Y223915D01*
X99196Y223836D01*
X99085Y223738D01*
X98967Y223634D01*
X98909Y223575D01*
X98869Y223522D01*
X98823Y223464D01*
X98771Y223398D01*
X98712Y223313D01*
X98660Y223222D01*
X98549Y223006D01*
X98497Y222888D01*
X98451Y222764D01*
X98405Y222627D01*
X98379Y222483D01*
X98359Y222333D01*
X98353Y222182D01*
Y222169D01*
Y222143D01*
Y222104D01*
X98359Y222045D01*
X98372Y221966D01*
X98385Y221888D01*
X98405Y221790D01*
X98431Y221698D01*
X98464Y221587D01*
X98503Y221470D01*
X98608Y221234D01*
X98680Y221110D01*
X98758Y220992D01*
X98850Y220875D01*
X98954Y220757D01*
X99007Y220705D01*
X99052Y220672D01*
X99098Y220626D01*
X99157Y220581D01*
X99307Y220483D01*
X99484Y220371D01*
X99693Y220267D01*
X99928Y220188D01*
X100053Y220156D01*
X100177Y220136D01*
X100190D01*
X100203D01*
X100242D01*
X100294D01*
X100353Y220130D01*
X100425Y220136D01*
X100602Y220156D01*
X100804Y220188D01*
X101027Y220254D01*
X101275Y220345D01*
X101517Y220483D01*
X100680Y221319D01*
X100667D01*
X100628Y221306D01*
X100569Y221287D01*
X100504Y221273D01*
X100419Y221254D01*
X100327D01*
X100223D01*
X100131Y221267D01*
X100118D01*
X100092Y221280D01*
X100040Y221293D01*
X99981Y221326D01*
X99909Y221359D01*
X99830Y221398D01*
X99758Y221457D01*
X99680Y221522D01*
X99634Y221568D01*
X99601Y221627D01*
X99549Y221705D01*
X99503Y221790D01*
X99458Y221901D01*
X99431Y222019D01*
X99418Y222150D01*
Y222163D01*
Y222215D01*
X99438Y222287D01*
X99451Y222378D01*
X99490Y222483D01*
X99543Y222601D01*
X99621Y222718D01*
X99719Y222829D01*
X99726Y222836D01*
X99732Y222843D01*
X99765Y222875D01*
X99824Y222921D01*
X99909Y222980D01*
X100007Y223026D01*
X100111Y223078D01*
X100236Y223111D01*
X100366Y223124D01*
X100379D01*
X100432D01*
X100491Y223117D01*
X100582Y223104D01*
X100674Y223078D01*
X100778Y223039D01*
X100876Y222980D01*
X100968Y222901D01*
X101014Y222856D01*
X101040Y222816D01*
X101105Y222712D01*
X101164Y222575D01*
X101171Y222568D01*
Y222542D01*
X101184Y222503D01*
X101197Y222450D01*
X101210Y222306D01*
X101216Y222130D01*
X102007Y221627D01*
X103831Y224457D01*
X101870Y226419D01*
D02*
G37*
G36*
X212373Y234662D02*
X209522Y231811D01*
Y231811D01*
X209581Y231870D01*
X210320Y231131D01*
X211686Y232498D01*
X212628Y231896D01*
X212621Y231890D01*
X212608D01*
X212569Y231863D01*
X212517Y231824D01*
X212458Y231792D01*
X212445Y231779D01*
X212406Y231752D01*
X212353Y231713D01*
X212255Y231615D01*
X212222Y231569D01*
X212177Y231510D01*
X212131Y231452D01*
X212079Y231373D01*
X212026Y231295D01*
X211928Y231092D01*
X211876Y230987D01*
X211837Y230870D01*
X211804Y230746D01*
X211778Y230615D01*
X211758Y230478D01*
Y230334D01*
Y230321D01*
Y230294D01*
X211765Y230262D01*
X211772Y230203D01*
X211778Y230144D01*
X211791Y230066D01*
X211811Y229968D01*
X211837Y229876D01*
X211870Y229778D01*
X211909Y229660D01*
X211954Y229549D01*
X212020Y229431D01*
X212085Y229314D01*
X212164Y229196D01*
X212262Y229085D01*
X212366Y228967D01*
X212425Y228909D01*
X212477Y228869D01*
X212536Y228824D01*
X212602Y228771D01*
X212687Y228712D01*
X212778Y228660D01*
X212994Y228549D01*
X213112Y228497D01*
X213236Y228451D01*
X213373Y228405D01*
X213517Y228379D01*
X213667Y228359D01*
X213818Y228353D01*
X213896D01*
X213955Y228359D01*
X214034Y228372D01*
X214112Y228385D01*
X214210Y228405D01*
X214301Y228431D01*
X214413Y228464D01*
X214530Y228503D01*
X214766Y228608D01*
X214890Y228680D01*
X215008Y228758D01*
X215125Y228850D01*
X215243Y228954D01*
X215295Y229007D01*
X215328Y229052D01*
X215374Y229098D01*
X215419Y229157D01*
X215518Y229307D01*
X215629Y229484D01*
X215733Y229693D01*
X215812Y229928D01*
X215844Y230053D01*
X215864Y230177D01*
Y230190D01*
Y230203D01*
Y230242D01*
Y230294D01*
X215870Y230353D01*
X215864Y230425D01*
X215844Y230602D01*
X215812Y230804D01*
X215746Y231027D01*
X215655Y231275D01*
X215518Y231517D01*
X214681Y230680D01*
Y230667D01*
X214694Y230628D01*
X214713Y230569D01*
X214726Y230504D01*
X214746Y230419D01*
Y230327D01*
Y230222D01*
X214733Y230131D01*
Y230118D01*
X214720Y230092D01*
X214707Y230040D01*
X214674Y229981D01*
X214641Y229909D01*
X214602Y229830D01*
X214543Y229758D01*
X214478Y229680D01*
X214432Y229634D01*
X214373Y229601D01*
X214295Y229549D01*
X214210Y229503D01*
X214099Y229458D01*
X213981Y229431D01*
X213850Y229418D01*
X213785D01*
X213713Y229438D01*
X213622Y229451D01*
X213517Y229490D01*
X213399Y229543D01*
X213282Y229621D01*
X213171Y229719D01*
X213164Y229726D01*
X213157Y229732D01*
X213125Y229765D01*
X213079Y229824D01*
X213020Y229909D01*
X212974Y230007D01*
X212922Y230111D01*
X212889Y230236D01*
X212876Y230366D01*
Y230379D01*
Y230432D01*
X212883Y230491D01*
X212896Y230582D01*
X212922Y230674D01*
X212961Y230778D01*
X213020Y230876D01*
X213099Y230968D01*
X213144Y231014D01*
X213184Y231040D01*
X213288Y231105D01*
X213426Y231164D01*
X213432Y231171D01*
X213458D01*
X213497Y231184D01*
X213550Y231197D01*
X213694Y231210D01*
X213870Y231216D01*
X214373Y232007D01*
X211543Y233831D01*
X212373Y234662D01*
X212373Y234662D01*
D02*
G37*
G36*
X209091Y231380D02*
X205338Y227627D01*
X205338D01*
X211033Y224953D01*
X211798Y225718D01*
X209091Y231380D01*
X209091D01*
D02*
G37*
%LPD*%
G36*
X210196Y226535D02*
X206149Y228438D01*
X208274Y230562D01*
X210196Y226535D01*
D02*
G37*
%LPC*%
G36*
X221714Y225898D02*
X219393Y223577D01*
X220177Y222792D01*
X220942Y223557D01*
X224342Y220158D01*
X223577Y219393D01*
X223577D01*
X225898Y221714D01*
X225898Y221714D01*
X225152Y220968D01*
X221753Y224368D01*
X222498Y225113D01*
X221714Y225898D01*
D02*
G37*
G36*
X218850Y223034D02*
X216569Y220753D01*
X217340Y219981D01*
X218831Y221472D01*
X219589Y220713D01*
X218098Y219223D01*
X218870Y218451D01*
X220360Y219942D01*
X221459Y218844D01*
X219968Y217353D01*
X220753Y216569D01*
X223034Y218850D01*
X218850Y223034D01*
D02*
G37*
G36*
X215418Y219602D02*
X214660Y218844D01*
X216608Y214947D01*
X212705Y216889D01*
X211940Y216124D01*
X215411Y211227D01*
Y211227D01*
X220334Y216150D01*
X220334D01*
X215418Y219602D01*
D02*
G37*
G36*
X210593Y214777D02*
X209639Y213823D01*
X209586Y213757D01*
X209521Y213692D01*
X209456Y213613D01*
X209384Y213542D01*
X209240Y213359D01*
X209096Y213176D01*
X208978Y212992D01*
X208926Y212901D01*
X208893Y212816D01*
X208887Y212809D01*
Y212796D01*
X208867Y212738D01*
X208841Y212659D01*
X208815Y212541D01*
X208795Y212404D01*
X208789Y212254D01*
X208795Y212090D01*
X208821Y211920D01*
X208828Y211901D01*
X208848Y211842D01*
X208874Y211750D01*
X208920Y211639D01*
X208991Y211515D01*
X209076Y211365D01*
X209181Y211221D01*
X209318Y211070D01*
X209357Y211031D01*
X209397Y211005D01*
X209436Y210966D01*
X209488Y210927D01*
X209599Y210842D01*
X209750Y210757D01*
X209907Y210678D01*
X210090Y210613D01*
X210286Y210574D01*
X210312D01*
X210371Y210567D01*
X210475D01*
X210606Y210580D01*
X210763Y210606D01*
X210933Y210646D01*
X211116Y210711D01*
X211306Y210796D01*
X211319Y210809D01*
X211364Y210828D01*
X211391Y210855D01*
X211430Y210881D01*
X211476Y210914D01*
X211535Y210959D01*
X211593Y211005D01*
X211659Y211057D01*
X211737Y211123D01*
X211816Y211201D01*
X211907Y211280D01*
X212005Y211365D01*
X212214Y211574D01*
X213986Y209802D01*
X212286Y208102D01*
X212286D01*
X214777Y210593D01*
X210593Y214777D01*
D02*
G37*
%LPD*%
G36*
X219569Y215385D02*
X218223Y214039D01*
X216464Y217562D01*
X219569Y215385D01*
D02*
G37*
G36*
X217523Y213339D02*
X216183Y211999D01*
X213993Y215091D01*
X217523Y213339D01*
D02*
G37*
G36*
X211437Y212352D02*
X211077Y211992D01*
X211012Y211940D01*
X210861Y211816D01*
X210789Y211757D01*
X210724Y211718D01*
X210717Y211711D01*
X210698Y211705D01*
X210665Y211698D01*
X210626Y211685D01*
X210521Y211672D01*
X210397Y211678D01*
X210384D01*
X210364Y211685D01*
X210332Y211691D01*
X210292Y211705D01*
X210194Y211763D01*
X210142Y211789D01*
X210090Y211842D01*
X210077Y211855D01*
X210051Y211881D01*
X210018Y211940D01*
X209979Y212005D01*
X209946Y212077D01*
X209926Y212175D01*
X209913Y212280D01*
X209933Y212391D01*
Y212404D01*
X209946Y212430D01*
X209972Y212482D01*
X210005Y212554D01*
X210057Y212633D01*
X210135Y212738D01*
X210233Y212849D01*
X210358Y212986D01*
X210580Y213208D01*
X211437Y212352D01*
D02*
G37*
%LPC*%
G36*
X231348Y215276D02*
X231112D01*
X230994Y215263D01*
X230857Y215244D01*
X230694Y215224D01*
X230524Y215185D01*
X230341Y215133D01*
X230145Y215080D01*
X229942Y214995D01*
X229733Y214904D01*
X229524Y214786D01*
X229321Y214649D01*
X229112Y214492D01*
X228916Y214309D01*
X228824Y214217D01*
X228778Y214158D01*
X228732Y214100D01*
X228674Y214028D01*
X228608Y213949D01*
X228477Y213766D01*
X228340Y213563D01*
X228216Y213335D01*
X228098Y213086D01*
X228092Y213080D01*
X228085Y213060D01*
X228079Y213027D01*
X228066Y212988D01*
X228046Y212929D01*
X228033Y212864D01*
X227987Y212701D01*
X227948Y212505D01*
X227915Y212276D01*
X227896Y212008D01*
Y211720D01*
X229014Y211726D01*
Y211740D01*
Y211779D01*
Y211831D01*
Y211910D01*
X229027Y212001D01*
X229033Y212112D01*
X229059Y212230D01*
X229079Y212367D01*
X229112Y212505D01*
X229157Y212655D01*
X229216Y212805D01*
X229282Y212949D01*
X229360Y213106D01*
X229458Y213256D01*
X229563Y213400D01*
X229687Y213537D01*
X229746Y213596D01*
X229798Y213636D01*
X229857Y213681D01*
X229922Y213734D01*
X230007Y213792D01*
X230099Y213845D01*
X230308Y213962D01*
X230426Y214015D01*
X230557Y214054D01*
X230694Y214100D01*
X230831Y214132D01*
X230981Y214152D01*
X231132Y214158D01*
X231210D01*
X231269Y214152D01*
X231341Y214145D01*
X231426Y214126D01*
X231518Y214113D01*
X231616Y214080D01*
X231720Y214054D01*
X231838Y214015D01*
X232073Y213910D01*
X232191Y213845D01*
X232309Y213766D01*
X232426Y213675D01*
X232537Y213577D01*
X232544Y213570D01*
X232563Y213550D01*
X232596Y213518D01*
X232629Y213472D01*
X232675Y213413D01*
X232727Y213335D01*
X232779Y213256D01*
X232838Y213171D01*
X232949Y212955D01*
X233001Y212838D01*
X233041Y212707D01*
X233086Y212570D01*
X233113Y212426D01*
X233132Y212276D01*
Y212119D01*
Y212106D01*
Y212080D01*
X233126Y212034D01*
X233119Y211975D01*
X233113Y211903D01*
X233093Y211818D01*
X233074Y211720D01*
X233047Y211615D01*
X233015Y211504D01*
X232969Y211380D01*
X232917Y211262D01*
X232851Y211131D01*
X232779Y211007D01*
X232694Y210883D01*
X232596Y210759D01*
X232485Y210635D01*
X232413Y210563D01*
X232335Y210497D01*
X232224Y210412D01*
X232093Y210321D01*
X231949Y210242D01*
X231792Y210164D01*
X231622Y210112D01*
X231616Y210105D01*
X231602D01*
X231544Y210099D01*
X231452Y210086D01*
X231328Y210079D01*
X231178Y210086D01*
X231008Y210099D01*
X230825Y210138D01*
X230622Y210197D01*
X231831Y211406D01*
X231086Y212151D01*
X228981Y210046D01*
X229151Y209863D01*
X226810Y212204D01*
X226810D01*
X231204Y207810D01*
X235551Y212158D01*
X235551Y212158D01*
X233355Y209961D01*
X233394Y210014D01*
X233446Y210066D01*
X233505Y210138D01*
X233570Y210229D01*
X233642Y210314D01*
X233786Y210537D01*
X233936Y210779D01*
X234067Y211053D01*
X234126Y211190D01*
X234172Y211341D01*
Y211354D01*
X234178Y211373D01*
X234185Y211419D01*
X234205Y211478D01*
X234217Y211543D01*
X234231Y211635D01*
X234257Y211844D01*
X234270Y212080D01*
Y212354D01*
X234237Y212648D01*
X234172Y212949D01*
X234165Y212955D01*
X234159Y212988D01*
X234146Y213027D01*
X234126Y213086D01*
X234100Y213152D01*
X234067Y213237D01*
X234028Y213328D01*
X233976Y213433D01*
X233930Y213544D01*
X233871Y213655D01*
X233721Y213897D01*
X233544Y214139D01*
X233440Y214256D01*
X233335Y214374D01*
X233296Y214414D01*
X233250Y214446D01*
X233191Y214505D01*
X233106Y214564D01*
X233015Y214642D01*
X232897Y214721D01*
X232779Y214799D01*
X232635Y214878D01*
X232485Y214963D01*
X232322Y215035D01*
X232145Y215106D01*
X231956Y215165D01*
X231759Y215218D01*
X231563Y215257D01*
X231348Y215276D01*
D02*
G37*
G36*
X226176Y211360D02*
X225424Y210609D01*
X226379Y206045D01*
X223620Y208804D01*
X222829Y208013D01*
X227013Y203829D01*
X230360Y207176D01*
X226176Y211360D01*
D02*
G37*
G36*
X221868Y207052D02*
X220841Y206026D01*
X220783Y205954D01*
X220711Y205882D01*
X220626Y205784D01*
X220541Y205686D01*
X220443Y205575D01*
X220253Y205320D01*
X220070Y205058D01*
X219985Y204921D01*
X219907Y204790D01*
X219848Y204653D01*
X219802Y204529D01*
X219795Y204522D01*
Y204496D01*
X219783Y204457D01*
X219776Y204411D01*
X219756Y204352D01*
X219743Y204274D01*
X219717Y204090D01*
X219711Y203875D01*
Y203626D01*
X219743Y203345D01*
X219769Y203201D01*
X219809Y203058D01*
Y203044D01*
X219815Y203025D01*
X219835Y202979D01*
X219854Y202920D01*
X219881Y202855D01*
X219913Y202770D01*
X219952Y202678D01*
X219998Y202580D01*
X220057Y202469D01*
X220122Y202351D01*
X220194Y202227D01*
X220279Y202103D01*
X220469Y201848D01*
X220580Y201711D01*
X218553Y203738D01*
X218553D01*
X222738Y199553D01*
X226052Y202868D01*
X221868Y207052D01*
D02*
G37*
%LPD*%
G36*
X231204Y207810D02*
X229203Y209811D01*
X229249Y209778D01*
X229301Y209726D01*
X229367Y209674D01*
X229445Y209621D01*
X229524Y209556D01*
X229720Y209438D01*
X229949Y209314D01*
X230203Y209190D01*
X230341Y209144D01*
X230485Y209105D01*
X230491Y209098D01*
X230517D01*
X230557Y209085D01*
X230615Y209079D01*
X230687Y209059D01*
X230766Y209046D01*
X230955Y209026D01*
X231184Y209007D01*
X231439Y209013D01*
X231707Y209033D01*
X231975Y209092D01*
X231982Y209098D01*
X232008D01*
X232047Y209111D01*
X232093Y209131D01*
X232158Y209157D01*
X232230Y209190D01*
X232315Y209223D01*
X232400Y209268D01*
X232498Y209314D01*
X232609Y209373D01*
X232825Y209510D01*
X233054Y209687D01*
X233289Y209896D01*
X231204Y207810D01*
D02*
G37*
G36*
X229569Y206385D02*
X227778Y204594D01*
X226830Y209125D01*
X229569Y206385D01*
D02*
G37*
G36*
X224483Y202855D02*
X224025Y202397D01*
X223973Y202358D01*
X223921Y202306D01*
X223797Y202195D01*
X223646Y202083D01*
X223496Y201972D01*
X223339Y201881D01*
X223267Y201848D01*
X223195Y201815D01*
X223176Y201809D01*
X223130Y201802D01*
X223058Y201783D01*
X222953Y201770D01*
X222829Y201763D01*
X222692Y201770D01*
X222541Y201789D01*
X222371Y201828D01*
X222365Y201835D01*
X222352D01*
X222293Y201855D01*
X222201Y201894D01*
X222090Y201953D01*
X221959Y202031D01*
X221809Y202129D01*
X221652Y202247D01*
X221489Y202397D01*
X221482Y202404D01*
X221463Y202423D01*
X221423Y202463D01*
X221384Y202515D01*
X221338Y202574D01*
X221280Y202646D01*
X221221Y202731D01*
X221155Y202822D01*
X221038Y203031D01*
X220985Y203149D01*
X220933Y203267D01*
X220894Y203398D01*
X220868Y203528D01*
X220848Y203666D01*
X220842Y203803D01*
Y203816D01*
Y203829D01*
Y203868D01*
X220855Y203920D01*
X220861Y203979D01*
X220881Y204051D01*
X220900Y204136D01*
X220933Y204234D01*
X220979Y204332D01*
X221025Y204444D01*
X221084Y204555D01*
X221155Y204679D01*
X221240Y204803D01*
X221338Y204940D01*
X221456Y205071D01*
X221587Y205215D01*
X221855Y205483D01*
X224483Y202855D01*
D02*
G37*
G36*
X222738Y199553D02*
X220783Y201508D01*
X220835Y201469D01*
X220887Y201417D01*
X221018Y201312D01*
X221175Y201194D01*
X221358Y201077D01*
X221548Y200965D01*
X221757Y200861D01*
X221763Y200854D01*
X221783Y200848D01*
X221816Y200841D01*
X221855Y200828D01*
X221966Y200783D01*
X222110Y200743D01*
X222280Y200704D01*
X222469Y200658D01*
X222672Y200639D01*
X222875Y200632D01*
X222966D01*
X223071Y200645D01*
X223202Y200671D01*
X223359Y200697D01*
X223522Y200743D01*
X223692Y200796D01*
X223862Y200874D01*
X223869Y200881D01*
X223882D01*
X223901Y200900D01*
X223940Y200926D01*
X223980Y200952D01*
X224039Y200985D01*
X224104Y201037D01*
X224169Y201090D01*
X224261Y201155D01*
X224346Y201227D01*
X224450Y201319D01*
X224562Y201404D01*
X224686Y201515D01*
X224810Y201639D01*
X224954Y201770D01*
X222738Y199553D01*
D02*
G37*
D11*
X263346Y104847D02*
G03*
X263346Y104847I-1250J0D01*
G01*
D12*
X278694Y46845D02*
G03*
X278694Y46845I-1000J0D01*
G01*
X39788Y76287D02*
G03*
X39788Y76287I-1000J0D01*
G01*
X110010Y167300D02*
G03*
X110010Y167300I-1000J0D01*
G01*
X265632Y111918D02*
X270581Y116868D01*
X244419Y133132D02*
X249368Y138082D01*
X84163Y72498D02*
Y62502D01*
X79165D01*
X77498Y64168D01*
Y70832D01*
X79165Y72498D01*
X84163D01*
X74166Y62502D02*
Y69166D01*
X70834Y72498D01*
X67502Y69166D01*
Y62502D01*
Y67500D01*
X74166D01*
X64169Y62502D02*
X60837D01*
X62503D01*
Y72498D01*
X64169Y70832D01*
X230891Y320960D02*
X233247Y309178D01*
X226178Y316247D02*
X237959Y313891D01*
X230891Y306822D02*
X223822Y313891D01*
X220287Y310356D01*
X220287Y308000D01*
X222644Y305644D01*
X225000D01*
X228534Y309178D01*
X220287Y296219D02*
X213219Y303288D01*
X220287D01*
X215575Y298575D01*
X126959Y303109D02*
X115178Y300753D01*
X122247Y307822D02*
X119891Y296041D01*
X112822Y303109D02*
X119891Y310178D01*
X116356Y313713D01*
X114000Y313713D01*
X111644Y311356D01*
Y309000D01*
X115178Y305466D01*
X101040Y314891D02*
X105753Y310178D01*
Y319603D01*
X106931Y320781D01*
X109288Y320781D01*
X111644Y318425D01*
Y316069D01*
X31781Y145288D02*
X27069Y140575D01*
X22356D01*
Y145288D01*
X27069Y150000D01*
X24713Y152356D02*
X20000Y157069D01*
X22356Y154712D01*
X15287Y147644D01*
X10575Y152356D02*
X8219Y154712D01*
X9397Y153534D01*
X16466Y160603D01*
Y158247D01*
X94281Y115288D02*
X89569Y110575D01*
X84856D01*
Y115288D01*
X89569Y120000D01*
X87212Y122356D02*
X80144Y115288D01*
X76609Y118822D01*
Y121178D01*
X81322Y125891D01*
X83678Y125891D01*
X87212Y122356D01*
X73075D02*
X70719Y124712D01*
X71897Y123534D01*
X78966Y130603D01*
Y128247D01*
X205002Y167504D02*
X214998D01*
Y172502D01*
X213332Y174168D01*
X210000D01*
X208334Y172502D01*
Y167504D01*
Y170836D02*
X205002Y174168D01*
Y177501D02*
Y180833D01*
Y179167D01*
X214998D01*
X213332Y177501D01*
X205002Y190830D02*
X214998D01*
X210000Y185831D01*
Y192496D01*
X185002Y167504D02*
X194998D01*
Y172502D01*
X193332Y174168D01*
X190000D01*
X188334Y172502D01*
Y167504D01*
Y170836D02*
X185002Y174168D01*
Y177501D02*
Y180833D01*
Y179167D01*
X194998D01*
X193332Y177501D01*
Y185831D02*
X194998Y187498D01*
Y190830D01*
X193332Y192496D01*
X191666D01*
X190000Y190830D01*
Y189164D01*
Y190830D01*
X188334Y192496D01*
X186668D01*
X185002Y190830D01*
Y187498D01*
X186668Y185831D01*
X165002Y167504D02*
X174998D01*
Y172502D01*
X173332Y174168D01*
X170000D01*
X168334Y172502D01*
Y167504D01*
Y170836D02*
X165002Y174168D01*
Y177501D02*
Y180833D01*
Y179167D01*
X174998D01*
X173332Y177501D01*
X165002Y192496D02*
Y185831D01*
X171666Y192496D01*
X173332D01*
X174998Y190830D01*
Y187498D01*
X173332Y185831D01*
X145002Y169170D02*
X154998D01*
Y174168D01*
X153332Y175835D01*
X150000D01*
X148334Y174168D01*
Y169170D01*
Y172502D02*
X145002Y175835D01*
Y179167D02*
Y182499D01*
Y180833D01*
X154998D01*
X153332Y179167D01*
X145002Y187498D02*
Y190830D01*
Y189164D01*
X154998D01*
X153332Y187498D01*
X125002Y170004D02*
X134998D01*
Y175002D01*
X133332Y176668D01*
X130000D01*
X128334Y175002D01*
Y170004D01*
Y173336D02*
X125002Y176668D01*
Y180001D02*
Y183333D01*
Y181667D01*
X134998D01*
X133332Y180001D01*
Y188331D02*
X134998Y189998D01*
Y193330D01*
X133332Y194996D01*
X126668D01*
X125002Y193330D01*
Y189998D01*
X126668Y188331D01*
X133332D01*
X309021Y121952D02*
X301952Y129021D01*
X298418Y125487D01*
Y123131D01*
X300774Y120774D01*
X303131D01*
X306665Y124309D01*
X304309Y121952D02*
Y117240D01*
X290171D02*
X293706Y118418D01*
X298418D01*
X300774Y116062D01*
Y113706D01*
X298418Y111349D01*
X296062D01*
X294884Y112527D01*
X294884Y114884D01*
X298418Y118418D01*
X54425Y149856D02*
X47356Y156925D01*
X43822Y153391D01*
Y151034D01*
X46178Y148678D01*
X48534D01*
X52069Y152212D01*
X49713Y149856D02*
Y145144D01*
X43822Y139253D02*
X36753Y146322D01*
X43822D01*
X39109Y141609D01*
X231665Y34998D02*
Y25002D01*
X225000D01*
X221668D02*
X218335D01*
X220002D01*
Y34998D01*
X221668Y33332D01*
X245891Y157959D02*
X252959Y150891D01*
X249425Y147356D01*
X247069D01*
X242356Y152069D01*
Y154425D01*
X245891Y157959D01*
X238822Y150891D02*
X245891Y143822D01*
X242356Y140288D01*
X240000D01*
X235287Y145000D01*
X235287Y147356D01*
X238822Y150891D01*
X235287Y133219D02*
X228219Y140288D01*
X235287D01*
X230575Y135575D01*
X65002Y189163D02*
X74998D01*
Y184165D01*
X73332Y182498D01*
X66668D01*
X65002Y184165D01*
Y189163D01*
Y179166D02*
X74998D01*
Y174168D01*
X73332Y172502D01*
X66668D01*
X65002Y174168D01*
Y179166D01*
X74998Y169169D02*
Y165837D01*
Y167503D01*
X65002D01*
X66668Y169169D01*
X198329Y317498D02*
Y307502D01*
X193331D01*
X191665Y309168D01*
Y315832D01*
X193331Y317498D01*
X198329D01*
X188332Y307502D02*
Y314166D01*
X185000Y317498D01*
X181668Y314166D01*
Y307502D01*
Y312500D01*
X188332D01*
X178335Y315832D02*
X176669Y317498D01*
X173337D01*
X171671Y315832D01*
Y314166D01*
X173337Y312500D01*
X175003D01*
X173337D01*
X171671Y310834D01*
Y309168D01*
X173337Y307502D01*
X176669D01*
X178335Y309168D01*
X263391Y95459D02*
X270459Y88391D01*
X266925Y84856D01*
X264569D01*
X259856Y89569D01*
Y91925D01*
X263391Y95459D01*
Y81322D02*
X258678Y86034D01*
X253966Y86034D01*
X253966Y81322D01*
X258678Y76609D01*
X255144Y80144D01*
X259856Y84856D01*
X251609Y69541D02*
X256322Y74253D01*
X246897D01*
X245719Y75431D01*
X245719Y77787D01*
X248075Y80144D01*
X250431D01*
X229267Y83980D02*
Y86336D01*
X231623Y88692D01*
X233980D01*
X238692Y83980D01*
Y81623D01*
X236336Y79267D01*
X233980D01*
X232802Y75733D02*
X230445Y73376D01*
X231623Y74555D01*
X224555Y81623D01*
X226911D01*
X221020Y75733D02*
X218664D01*
X216308Y73376D01*
X216308Y71020D01*
X217486Y69842D01*
X219842D01*
X221020Y71020D01*
X219842Y69842D01*
X219842Y67486D01*
X221020Y66308D01*
X223377Y66308D01*
X225733Y68664D01*
Y71020D01*
X193332Y205832D02*
X194998Y207498D01*
X198330D01*
X199996Y205832D01*
Y199168D01*
X198330Y197502D01*
X194998D01*
X193332Y199168D01*
X189999Y197502D02*
X186667D01*
X188333D01*
Y207498D01*
X189999Y205832D01*
X175004Y197502D02*
X181668D01*
X175004Y204166D01*
Y205832D01*
X176670Y207498D01*
X180002D01*
X181668Y205832D01*
X161665D02*
X163331Y207498D01*
X166664D01*
X168330Y205832D01*
Y199168D01*
X166664Y197502D01*
X163331D01*
X161665Y199168D01*
X158333Y197502D02*
X155001D01*
X156667D01*
Y207498D01*
X158333Y205832D01*
X150002Y197502D02*
X146670D01*
X148336D01*
Y207498D01*
X150002Y205832D01*
X256480Y213233D02*
X258836D01*
X261192Y210877D01*
Y208520D01*
X256480Y203808D01*
X254123D01*
X251767Y206164D01*
Y208520D01*
X248233Y209698D02*
X245877Y212055D01*
X247055Y210877D01*
X254123Y217945D01*
Y215589D01*
X248233Y221480D02*
Y223836D01*
X245877Y226192D01*
X243520Y226192D01*
X238808Y221480D01*
X238808Y219123D01*
X241164Y216767D01*
X243520D01*
X248233Y221480D01*
X276322Y106034D02*
Y108391D01*
X278678Y110747D01*
X281034D01*
X285747Y106034D01*
Y103678D01*
X283391Y101322D01*
X281034D01*
X278678Y98966D02*
Y96609D01*
X276322Y94253D01*
X273966D01*
X269253Y98966D01*
X269253Y101322D01*
X271609Y103678D01*
X273966D01*
X275144Y102500D01*
X275144Y100144D01*
X271609Y96609D01*
X236322Y61034D02*
Y63391D01*
X238678Y65747D01*
X241034D01*
X245747Y61034D01*
Y58678D01*
X243391Y56322D01*
X241034D01*
X233966Y58678D02*
X231609D01*
X229253Y56322D01*
X229253Y53966D01*
X230431Y52787D01*
X232787D01*
X232787Y50431D01*
X233966Y49253D01*
X236322D01*
X238678Y51609D01*
Y53966D01*
X237500Y55144D01*
X235144D01*
X235144Y57500D01*
X233966Y58678D01*
X235144Y55144D02*
X232787Y52787D01*
X198332Y115834D02*
X199998Y114168D01*
Y110835D01*
X198332Y109169D01*
X191668D01*
X190002Y110835D01*
Y114168D01*
X191668Y115834D01*
X199998Y119166D02*
Y125831D01*
X198332D01*
X191668Y119166D01*
X190002D01*
X198332Y88334D02*
X199998Y86668D01*
Y83336D01*
X198332Y81669D01*
X191668D01*
X190002Y83336D01*
Y86668D01*
X191668Y88334D01*
X199998Y98331D02*
X198332Y94998D01*
X195000Y91666D01*
X191668D01*
X190002Y93332D01*
Y96664D01*
X191668Y98331D01*
X193334D01*
X195000Y96664D01*
Y91666D01*
X120666Y116332D02*
X122332Y117998D01*
X125665D01*
X127331Y116332D01*
Y109668D01*
X125665Y108002D01*
X122332D01*
X120666Y109668D01*
X110669Y117998D02*
X117334D01*
Y113000D01*
X114002Y114666D01*
X112336D01*
X110669Y113000D01*
Y109668D01*
X112336Y108002D01*
X115668D01*
X117334Y109668D01*
X69166Y210832D02*
X70832Y212498D01*
X74165D01*
X75831Y210832D01*
Y204168D01*
X74165Y202502D01*
X70832D01*
X69166Y204168D01*
X60835Y202502D02*
Y212498D01*
X65834Y207500D01*
X59169D01*
X69166Y158332D02*
X70832Y159998D01*
X74165D01*
X75831Y158332D01*
Y151668D01*
X74165Y150002D01*
X70832D01*
X69166Y151668D01*
X65834Y158332D02*
X64168Y159998D01*
X60835D01*
X59169Y158332D01*
Y156666D01*
X60835Y155000D01*
X62502D01*
X60835D01*
X59169Y153334D01*
Y151668D01*
X60835Y150002D01*
X64168D01*
X65834Y151668D01*
X76666Y55832D02*
X78332Y57498D01*
X81664D01*
X83331Y55832D01*
Y49168D01*
X81664Y47502D01*
X78332D01*
X76666Y49168D01*
X66669Y47502D02*
X73334D01*
X66669Y54166D01*
Y55832D01*
X68335Y57498D01*
X71668D01*
X73334Y55832D01*
D14*
X89000Y42500D02*
G03*
X89000Y42500I-500J0D01*
G01*
X303434Y108687D02*
X310505Y115758D01*
X296945Y96516D02*
X304016Y89445D01*
X285984Y85555D02*
X293055Y78484D01*
X231945Y93484D02*
X239016Y100555D01*
X226818Y105682D02*
X233182Y99318D01*
X313687Y98434D02*
X320758Y105505D01*
X251818Y41818D02*
X258182Y48182D01*
X283082Y55826D02*
X286674Y59418D01*
X266918Y79174D02*
X286674Y59418D01*
X291818Y84318D02*
X298182Y90682D01*
X245984Y43056D02*
X253055Y35984D01*
X256945Y54016D02*
X264016Y46945D01*
X220984Y104445D02*
X228055Y111516D01*
X51338Y136591D02*
X58409Y143662D01*
X61591Y126338D02*
X68662Y133409D01*
X48829Y96934D02*
X60567Y108672D01*
X107500Y22250D02*
X117500D01*
X102500Y73250D02*
X112500D01*
X102500Y41750D02*
X112500D01*
X17254Y116489D02*
X22403Y121637D01*
X38514Y137748D02*
X45782Y130479D01*
X17254Y116489D02*
X24877Y108866D01*
X59436Y86328D02*
X71174Y98066D01*
X35505Y116666D02*
X38334Y119495D01*
X33363Y132598D02*
X38514Y137748D01*
X162500Y113250D02*
Y122500D01*
Y131750D01*
X155000Y135250D02*
X170000D01*
X263326Y75582D02*
X266918Y79174D01*
X263326Y75582D02*
X283082Y55826D01*
X155000Y109750D02*
X170000D01*
X155000Y105250D02*
X170000D01*
X112500Y25500D02*
Y34500D01*
X107500Y37750D02*
X117500D01*
X155000Y79750D02*
X170000D01*
X162500Y83250D02*
Y92500D01*
Y101750D01*
X182750Y147500D02*
Y157500D01*
X197250Y147500D02*
Y157500D01*
X162750Y147500D02*
Y157500D01*
X157250Y147500D02*
Y157500D01*
X122750Y147500D02*
Y157500D01*
X137250Y147500D02*
Y157500D01*
X220984Y233055D02*
X228055Y225984D01*
X231945Y244016D02*
X239016Y236945D01*
X226818Y231818D02*
X233182Y238182D01*
X177250Y147500D02*
Y157500D01*
X202750Y147500D02*
Y157500D01*
X217250Y147500D02*
Y157500D01*
X109000Y90500D02*
Y99750D01*
X101500Y103250D02*
X116500D01*
X142750Y147500D02*
Y157500D01*
X101500Y77750D02*
X116500D01*
X109000Y81250D02*
Y90500D01*
X92500Y203000D02*
Y212000D01*
X106470Y177460D02*
Y182540D01*
X78530D02*
X106470D01*
X92500Y145500D02*
Y154500D01*
X87700Y199750D02*
X97300D01*
X87500Y215250D02*
X97500D01*
X78530Y177460D02*
Y182540D01*
Y177460D02*
X106470D01*
X182500Y212250D02*
X192500D01*
X182500Y227750D02*
X192500D01*
X160000Y215500D02*
Y224500D01*
X87500Y157750D02*
X97500D01*
X87500Y142250D02*
X97500D01*
X187500Y215500D02*
Y224500D01*
X155000Y227750D02*
X165000D01*
X155000Y212250D02*
X165000D01*
D15*
X147100Y264452D02*
G03*
X147100Y270548I0J3048D01*
G01*
X220803Y282587D02*
X223317Y285101D01*
X252413Y314197D02*
X314197Y252413D01*
X311683Y249899D02*
X314197Y252413D01*
X116683Y285101D02*
X119197Y282587D01*
X25803Y252413D02*
X28317Y249899D01*
X265704Y237686D02*
X282587Y220803D01*
X220803Y282587D02*
X237686Y265704D01*
X282587Y220803D02*
X285101Y223317D01*
X249899Y311683D02*
X252413Y314197D01*
X57413Y220803D02*
X74296Y237686D01*
X54899Y223317D02*
X57413Y220803D01*
X25803Y252413D02*
X87587Y314197D01*
X90101Y311683D01*
X102315Y265704D02*
X119197Y282587D01*
X147100Y270548D02*
Y286296D01*
X197900Y248704D02*
Y286296D01*
X147100Y248704D02*
Y264452D01*
Y270548D01*
D16*
X140150Y10150D02*
Y22155D01*
Y62845D02*
Y74850D01*
X204850Y62845D02*
Y74850D01*
X140150Y10150D02*
X204850D01*
X140150Y74850D02*
X204850D01*
Y10150D02*
Y22155D01*
D89*
X226820Y264318D02*
G03*
X226820Y264318I-2100J0D01*
G01*
X77782Y224720D02*
G03*
X77782Y224720I-2100J0D01*
G01*
M02*
