M48
;Layer_Color=9474304
;FILE_FORMAT=4:4
METRIC,LZ
;TYPE=PLATED
T01F00S00C0.3000
;TYPE=NON_PLATED
T02F00S00C3.3000
%
T01
X000525Y000635
X000635Y000535
X000735Y000655
X00062658Y00103158
X0001875Y00119
X0007025Y001605
X00071Y0018925
X0006575Y00208
X00026Y0021575
X0001925Y00227
X0001075Y002115
X000665Y0025525
Y0027175
X000765Y002865
X0013325Y002895
X001335Y002615
X0011475Y0026325
X001095Y0023375
X0012033Y0022458
X001265Y0021725
X0012775Y0023725
X0011575Y0020325
X0010985Y00183685
X00097835Y0018
X00146342Y00170842
X001605Y0017225
X0017025Y0017575
X00183Y00183
X00205929Y00220571
X00217143Y00214107
X00240669Y00211581
X0024775Y002195
X002585Y00221
X00268Y002215
X00268669Y00204419
X002545Y0019575
X00262Y00158
X00255729Y00147271
X00248278Y00135204
X00239Y00152
X00223763Y00108737
X00207Y001075
X00211Y00117
X0019575Y00112
X00193073Y00100338
X0017425Y0005875
X0016375Y0005325
X00155169Y00015919
X00132Y0001175
X0011925Y0001825
X001285Y00073
X0013575Y0008075
X001355Y0010525
X0013575Y00124
X0011875Y00109
X00224Y00054755
X002355Y0002875
X00284Y0007675
X00278101Y0012156
X0029375Y0012625
X0032525Y00138
X00323Y0022
X0030375Y0021575
X0027625Y00261
X0026225Y0028475
X00228215Y00258711
X00221344Y00263138
X0021975Y00249499
X00203Y0028875
X00207Y003265
X0019225Y0032325
X001775Y003285
X00156Y00328
X0014025Y003215
X0022375Y0031925
T02
X00035Y00175
X00305
M30
