G04*
G04 #@! TF.GenerationSoftware,Altium Limited,Altium Designer,25.5.2 (35)*
G04*
G04 Layer_Color=16711935*
%FSLAX44Y44*%
%MOMM*%
G71*
G04*
G04 #@! TF.SameCoordinates,9C3221C9-1A88-45BE-B166-6B1D47E82EC5*
G04*
G04*
G04 #@! TF.FilePolarity,Negative*
G04*
G01*
G75*
%ADD38R,1.0000X0.8500*%
%ADD41R,0.9500X1.1000*%
G04:AMPARAMS|DCode=47|XSize=1.1mm|YSize=0.95mm|CornerRadius=0mm|HoleSize=0mm|Usage=FLASHONLY|Rotation=45.000|XOffset=0mm|YOffset=0mm|HoleType=Round|Shape=Rectangle|*
%AMROTATEDRECTD47*
4,1,4,-0.0530,-0.7248,-0.7248,-0.0530,0.0530,0.7248,0.7248,0.0530,-0.0530,-0.7248,0.0*
%
%ADD47ROTATEDRECTD47*%

G04:AMPARAMS|DCode=48|XSize=1mm|YSize=0.85mm|CornerRadius=0mm|HoleSize=0mm|Usage=FLASHONLY|Rotation=315.000|XOffset=0mm|YOffset=0mm|HoleType=Round|Shape=Rectangle|*
%AMROTATEDRECTD48*
4,1,4,-0.6541,0.0530,-0.0530,0.6541,0.6541,-0.0530,0.0530,-0.6541,-0.6541,0.0530,0.0*
%
%ADD48ROTATEDRECTD48*%

%ADD57C,3.3500*%
%ADD73R,0.4056X1.5232*%
%ADD74R,0.6400X1.3700*%
G04:AMPARAMS|DCode=75|XSize=1.0168mm|YSize=1.9058mm|CornerRadius=0mm|HoleSize=0mm|Usage=FLASHONLY|Rotation=225.000|XOffset=0mm|YOffset=0mm|HoleType=Round|Shape=Rectangle|*
%AMROTATEDRECTD75*
4,1,4,-0.3143,1.0333,1.0333,-0.3143,0.3143,-1.0333,-1.0333,0.3143,-0.3143,1.0333,0.0*
%
%ADD75ROTATEDRECTD75*%

G04:AMPARAMS|DCode=76|XSize=2.4138mm|YSize=3.3028mm|CornerRadius=0mm|HoleSize=0mm|Usage=FLASHONLY|Rotation=225.000|XOffset=0mm|YOffset=0mm|HoleType=Round|Shape=Rectangle|*
%AMROTATEDRECTD76*
4,1,4,-0.3143,2.0211,2.0211,-0.3143,0.3143,-2.0211,-2.0211,0.3143,-0.3143,2.0211,0.0*
%
%ADD76ROTATEDRECTD76*%

G04:AMPARAMS|DCode=77|XSize=1.0168mm|YSize=1.9058mm|CornerRadius=0mm|HoleSize=0mm|Usage=FLASHONLY|Rotation=135.000|XOffset=0mm|YOffset=0mm|HoleType=Round|Shape=Rectangle|*
%AMROTATEDRECTD77*
4,1,4,1.0333,0.3143,-0.3143,-1.0333,-1.0333,-0.3143,0.3143,1.0333,1.0333,0.3143,0.0*
%
%ADD77ROTATEDRECTD77*%

G04:AMPARAMS|DCode=78|XSize=2.4138mm|YSize=3.3028mm|CornerRadius=0mm|HoleSize=0mm|Usage=FLASHONLY|Rotation=135.000|XOffset=0mm|YOffset=0mm|HoleType=Round|Shape=Rectangle|*
%AMROTATEDRECTD78*
4,1,4,2.0211,0.3143,-0.3143,-2.0211,-2.0211,-0.3143,0.3143,2.0211,2.0211,0.3143,0.0*
%
%ADD78ROTATEDRECTD78*%

G04:AMPARAMS|DCode=79|XSize=0.5mm|YSize=1.35mm|CornerRadius=0mm|HoleSize=0mm|Usage=FLASHONLY|Rotation=315.000|XOffset=0mm|YOffset=0mm|HoleType=Round|Shape=Round|*
%AMOVALD79*
21,1,0.8500,0.5000,0.0000,0.0000,45.0*
1,1,0.5000,-0.3005,-0.3005*
1,1,0.5000,0.3005,0.3005*
%
%ADD79OVALD79*%

G04:AMPARAMS|DCode=80|XSize=1.1mm|YSize=0.95mm|CornerRadius=0mm|HoleSize=0mm|Usage=FLASHONLY|Rotation=315.000|XOffset=0mm|YOffset=0mm|HoleType=Round|Shape=Rectangle|*
%AMROTATEDRECTD80*
4,1,4,-0.7248,0.0530,-0.0530,0.7248,0.7248,-0.0530,0.0530,-0.7248,-0.7248,0.0530,0.0*
%
%ADD80ROTATEDRECTD80*%

G04:AMPARAMS|DCode=81|XSize=1.37mm|YSize=0.64mm|CornerRadius=0mm|HoleSize=0mm|Usage=FLASHONLY|Rotation=45.000|XOffset=0mm|YOffset=0mm|HoleType=Round|Shape=Rectangle|*
%AMROTATEDRECTD81*
4,1,4,-0.2581,-0.7107,-0.7107,-0.2581,0.2581,0.7107,0.7107,0.2581,-0.2581,-0.7107,0.0*
%
%ADD81ROTATEDRECTD81*%

%ADD82R,2.4630X3.4790*%
%ADD83R,0.9500X0.6950*%
%ADD84R,1.0042X2.7562*%
%ADD85P,1.1483X4X180.0*%
G04:AMPARAMS|DCode=86|XSize=1.16mm|YSize=1.78mm|CornerRadius=0mm|HoleSize=0mm|Usage=FLASHONLY|Rotation=45.000|XOffset=0mm|YOffset=0mm|HoleType=Round|Shape=Rectangle|*
%AMROTATEDRECTD86*
4,1,4,0.2192,-1.0395,-1.0395,0.2192,-0.2192,1.0395,1.0395,-0.2192,0.2192,-1.0395,0.0*
%
%ADD86ROTATEDRECTD86*%

D38*
X150000Y146000D02*
D03*
Y159000D02*
D03*
X130000Y146000D02*
D03*
Y159000D02*
D03*
X190000Y146000D02*
D03*
Y159000D02*
D03*
X170000Y146000D02*
D03*
Y159000D02*
D03*
X210000Y146000D02*
D03*
Y159000D02*
D03*
D41*
X179500Y220000D02*
D03*
X195500D02*
D03*
X168000D02*
D03*
X152000D02*
D03*
X100500Y150000D02*
D03*
X84500D02*
D03*
X84500Y207500D02*
D03*
X100500D02*
D03*
X120500Y30000D02*
D03*
X104500D02*
D03*
D47*
X224343Y240657D02*
D03*
X235657Y229343D02*
D03*
X300657Y81843D02*
D03*
X289343Y93157D02*
D03*
X260657Y39343D02*
D03*
X249343Y50657D02*
D03*
D48*
X316692Y111692D02*
D03*
X307500Y102500D02*
D03*
X64596Y139596D02*
D03*
X55404Y130404D02*
D03*
D57*
X305000Y175000D02*
D03*
X35000D02*
D03*
D73*
X149640Y296710D02*
D03*
X156244D02*
D03*
X182152D02*
D03*
X188756D02*
D03*
X195360Y238290D02*
D03*
X188756D02*
D03*
X182152D02*
D03*
X175802D02*
D03*
X169198D02*
D03*
X162848D02*
D03*
X156244D02*
D03*
X149640D02*
D03*
X162848Y296710D02*
D03*
X169198D02*
D03*
X175802D02*
D03*
X195360D02*
D03*
D74*
X102000Y168550D02*
D03*
X83000Y191450D02*
D03*
X102000D02*
D03*
X92500Y168550D02*
D03*
X83000D02*
D03*
D75*
X84199Y238123D02*
D03*
X93038Y246962D02*
D03*
X101877Y255801D02*
D03*
D76*
X99402Y294338D02*
D03*
X45662Y240598D02*
D03*
D77*
X238123Y255801D02*
D03*
X246962Y246962D02*
D03*
X255801Y238123D02*
D03*
D78*
X294338Y240598D02*
D03*
X240598Y294338D02*
D03*
D79*
X256616Y110328D02*
D03*
X242827Y124116D02*
D03*
X272173Y125884D02*
D03*
X267576Y130480D02*
D03*
X262980Y135076D02*
D03*
X258384Y139672D02*
D03*
X252020Y114924D02*
D03*
X247424Y119520D02*
D03*
D80*
X224343Y96843D02*
D03*
X235657Y108157D02*
D03*
D81*
X276379Y82314D02*
D03*
X289814Y68879D02*
D03*
X266904Y59404D02*
D03*
X273621Y52686D02*
D03*
X260186Y66121D02*
D03*
D82*
X201710Y42500D02*
D03*
X143290D02*
D03*
D83*
X96000Y48000D02*
D03*
X119000Y57500D02*
D03*
X96000Y67000D02*
D03*
Y57500D02*
D03*
X119000Y67000D02*
D03*
Y48000D02*
D03*
D84*
X178750Y122500D02*
D03*
Y92500D02*
D03*
X146250Y122500D02*
D03*
Y92500D02*
D03*
X125250Y90500D02*
D03*
X92750D02*
D03*
D85*
X33702Y107792D02*
D03*
X47172Y121263D02*
D03*
X24273Y130692D02*
D03*
D86*
X47945Y85444D02*
D03*
X72057Y109556D02*
D03*
M02*
