G04*
G04 #@! TF.GenerationSoftware,Altium Limited,Altium Designer,25.5.2 (35)*
G04*
G04 Layer_Physical_Order=1*
G04 Layer_Color=255*
%FSLAX44Y44*%
%MOMM*%
G71*
G04*
G04 #@! TF.SameCoordinates,9C3221C9-1A88-45BE-B166-6B1D47E82EC5*
G04*
G04*
G04 #@! TF.FilePolarity,Positive*
G04*
G01*
G75*
%ADD10C,0.2000*%
%ADD11C,0.2500*%
%ADD17R,0.9500X0.8000*%
%ADD18R,0.8000X0.9500*%
%ADD19R,0.7620X0.7620*%
%ADD20R,0.9000X1.0500*%
%ADD21R,1.0500X1.3000*%
%ADD22R,1.0500X0.9000*%
%ADD23R,2.0000X1.4000*%
%ADD24O,0.2900X1.4000*%
%ADD25O,1.4000X0.2900*%
G04:AMPARAMS|DCode=26|XSize=0.8mm|YSize=1.3mm|CornerRadius=0mm|HoleSize=0mm|Usage=FLASHONLY|Rotation=315.000|XOffset=0mm|YOffset=0mm|HoleType=Round|Shape=Rectangle|*
%AMROTATEDRECTD26*
4,1,4,-0.7425,-0.1768,0.1768,0.7425,0.7425,0.1768,-0.1768,-0.7425,-0.7425,-0.1768,0.0*
%
%ADD26ROTATEDRECTD26*%

G04:AMPARAMS|DCode=27|XSize=1.05mm|YSize=0.9mm|CornerRadius=0mm|HoleSize=0mm|Usage=FLASHONLY|Rotation=45.000|XOffset=0mm|YOffset=0mm|HoleType=Round|Shape=Rectangle|*
%AMROTATEDRECTD27*
4,1,4,-0.0530,-0.6894,-0.6894,-0.0530,0.0530,0.6894,0.6894,0.0530,-0.0530,-0.6894,0.0*
%
%ADD27ROTATEDRECTD27*%

G04:AMPARAMS|DCode=28|XSize=0.95mm|YSize=0.8mm|CornerRadius=0mm|HoleSize=0mm|Usage=FLASHONLY|Rotation=315.000|XOffset=0mm|YOffset=0mm|HoleType=Round|Shape=Rectangle|*
%AMROTATEDRECTD28*
4,1,4,-0.6187,0.0530,-0.0530,0.6187,0.6187,-0.0530,0.0530,-0.6187,-0.6187,0.0530,0.0*
%
%ADD28ROTATEDRECTD28*%

%ADD29P,1.0776X4X90.0*%
%ADD30R,0.6000X1.4500*%
G04:AMPARAMS|DCode=31|XSize=2.1mm|YSize=3mm|CornerRadius=0mm|HoleSize=0mm|Usage=FLASHONLY|Rotation=315.000|XOffset=0mm|YOffset=0mm|HoleType=Round|Shape=Rectangle|*
%AMROTATEDRECTD31*
4,1,4,-1.8031,-0.3182,0.3182,1.8031,1.8031,0.3182,-0.3182,-1.8031,-1.8031,-0.3182,0.0*
%
%ADD31ROTATEDRECTD31*%

G04:AMPARAMS|DCode=32|XSize=2.2098mm|YSize=3.0988mm|CornerRadius=0mm|HoleSize=0mm|Usage=FLASHONLY|Rotation=225.000|XOffset=0mm|YOffset=0mm|HoleType=Round|Shape=Rectangle|*
%AMROTATEDRECTD32*
4,1,4,-0.3143,1.8769,1.8769,-0.3143,0.3143,-1.8769,-1.8769,0.3143,-0.3143,1.8769,0.0*
%
%ADD32ROTATEDRECTD32*%

G04:AMPARAMS|DCode=33|XSize=2.2098mm|YSize=3.0988mm|CornerRadius=0mm|HoleSize=0mm|Usage=FLASHONLY|Rotation=135.000|XOffset=0mm|YOffset=0mm|HoleType=Round|Shape=Rectangle|*
%AMROTATEDRECTD33*
4,1,4,1.8769,0.3143,-0.3143,-1.8769,-1.8769,-0.3143,0.3143,1.8769,1.8769,0.3143,0.0*
%
%ADD33ROTATEDRECTD33*%

G04:AMPARAMS|DCode=34|XSize=0.889mm|YSize=1.2954mm|CornerRadius=0mm|HoleSize=0mm|Usage=FLASHONLY|Rotation=135.000|XOffset=0mm|YOffset=0mm|HoleType=Round|Shape=Rectangle|*
%AMROTATEDRECTD34*
4,1,4,0.7723,0.1437,-0.1437,-0.7723,-0.7723,-0.1437,0.1437,0.7723,0.7723,0.1437,0.0*
%
%ADD34ROTATEDRECTD34*%

G04:AMPARAMS|DCode=35|XSize=2.18mm|YSize=1.6mm|CornerRadius=0mm|HoleSize=0mm|Usage=FLASHONLY|Rotation=225.000|XOffset=0mm|YOffset=0mm|HoleType=Round|Shape=Rectangle|*
%AMROTATEDRECTD35*
4,1,4,0.2051,1.3364,1.3364,0.2051,-0.2051,-1.3364,-1.3364,-0.2051,0.2051,1.3364,0.0*
%
%ADD35ROTATEDRECTD35*%

G04:AMPARAMS|DCode=36|XSize=1.5mm|YSize=1.4mm|CornerRadius=0mm|HoleSize=0mm|Usage=FLASHONLY|Rotation=315.000|XOffset=0mm|YOffset=0mm|HoleType=Round|Shape=Rectangle|*
%AMROTATEDRECTD36*
4,1,4,-1.0253,0.0354,-0.0354,1.0253,1.0253,-0.0354,0.0354,-1.0253,-1.0253,0.0354,0.0*
%
%ADD36ROTATEDRECTD36*%

G04:AMPARAMS|DCode=37|XSize=0.889mm|YSize=1.2954mm|CornerRadius=0mm|HoleSize=0mm|Usage=FLASHONLY|Rotation=225.000|XOffset=0mm|YOffset=0mm|HoleType=Round|Shape=Rectangle|*
%AMROTATEDRECTD37*
4,1,4,-0.1437,0.7723,0.7723,-0.1437,0.1437,-0.7723,-0.7723,0.1437,-0.1437,0.7723,0.0*
%
%ADD37ROTATEDRECTD37*%

%ADD58C,0.4500*%
%ADD59C,3.3000*%
%ADD60C,0.6000*%
G36*
X118392Y328898D02*
X109620Y320126D01*
X110030Y319717D01*
X106805Y316492D01*
X102078Y321220D01*
X83834Y302976D01*
X97976Y288834D01*
X101382Y292240D01*
X103288Y290334D01*
X101388Y288434D01*
X110934Y278888D01*
X112834Y280788D01*
X115215Y278407D01*
X116290Y277689D01*
X117558Y277436D01*
X137750D01*
X139018Y277689D01*
X140093Y278407D01*
X153623Y291936D01*
X198629D01*
X199250Y290436D01*
X196157Y287343D01*
X195439Y286268D01*
X195186Y285000D01*
Y283500D01*
X191250D01*
Y276000D01*
X205750D01*
Y283500D01*
X204790D01*
X203907Y285000D01*
X204268Y285689D01*
X205343Y286407D01*
X206061Y287482D01*
X206314Y288750D01*
X206109Y289777D01*
X206577Y290718D01*
X206998Y291291D01*
X207917Y291397D01*
X210186Y289127D01*
Y220676D01*
X202403Y212893D01*
X201018Y213467D01*
Y221050D01*
X200750Y222396D01*
X199987Y223537D01*
X198846Y224300D01*
X197500Y224568D01*
X196154Y224300D01*
X195910Y224140D01*
X194998Y224535D01*
X194670Y226234D01*
X196186Y227750D01*
X204500D01*
Y242250D01*
X205103Y243500D01*
X205750D01*
Y260500D01*
X191250D01*
Y243647D01*
X191250Y243500D01*
X191250Y243500D01*
X191500Y242250D01*
X191500D01*
Y232436D01*
X190000Y230936D01*
X188500Y231558D01*
Y234000D01*
X182000D01*
Y236000D01*
X188500D01*
Y242250D01*
X187854D01*
X187250Y243500D01*
Y251000D01*
X180000D01*
Y252000D01*
X179000D01*
Y260500D01*
X174500D01*
Y266500D01*
X187250D01*
Y283500D01*
X172750D01*
Y278314D01*
X170250D01*
X168982Y278061D01*
X167907Y277343D01*
X165657Y275093D01*
X164939Y274018D01*
X164686Y272750D01*
Y272250D01*
X161500D01*
Y257750D01*
X164686D01*
Y243272D01*
X164939Y242004D01*
X165657Y240929D01*
X169186Y237399D01*
Y225739D01*
X167686Y224531D01*
X167500Y224568D01*
X166154Y224300D01*
X165013Y223537D01*
X164987D01*
X163846Y224300D01*
X163500Y224369D01*
Y215500D01*
X161500D01*
Y225186D01*
X160814Y225739D01*
Y227250D01*
X160561Y228518D01*
X159843Y229593D01*
X159500Y229936D01*
Y239750D01*
X156314D01*
Y242750D01*
X159500D01*
Y257250D01*
X158500Y257750D01*
Y264000D01*
X152000D01*
X145500D01*
Y262492D01*
X144114Y261918D01*
X142593Y263439D01*
X141518Y264158D01*
X140250Y264410D01*
X137661D01*
X136332Y265739D01*
X134495Y266500D01*
X132505D01*
X130668Y265739D01*
X129261Y264332D01*
X128500Y262495D01*
Y260505D01*
X129261Y258668D01*
X129566Y258363D01*
X130500Y257250D01*
Y251000D01*
X137000D01*
X143500D01*
Y251925D01*
X144846Y253186D01*
X145878D01*
X146500Y252564D01*
Y242750D01*
X149686D01*
Y239750D01*
X146500D01*
X146500Y225250D01*
X146039Y224482D01*
X145000Y224157D01*
X143961Y224482D01*
X143500Y225250D01*
X143500Y225565D01*
Y231500D01*
X137000D01*
X130500D01*
Y229894D01*
X129114Y229320D01*
X110948Y247486D01*
Y254058D01*
X110696Y255326D01*
X109978Y256401D01*
X106712Y259666D01*
X108612Y261566D01*
X99066Y271112D01*
X90934Y262980D01*
X90581Y262626D01*
X89520Y261566D01*
X81388Y253434D01*
X85068Y249754D01*
X83592Y248278D01*
X79218Y252652D01*
X66490Y239925D01*
X79925Y226490D01*
X92653Y239217D01*
X88278Y243592D01*
X89754Y245068D01*
X90934Y243888D01*
X99066Y252020D01*
X99419Y252373D01*
X101276Y254230D01*
X102776D01*
X104321Y252685D01*
Y246113D01*
X104573Y244845D01*
X105292Y243770D01*
X108926Y240136D01*
X108283Y238658D01*
X106668Y237989D01*
X105261Y236582D01*
X104500Y234745D01*
Y233436D01*
X92407Y221343D01*
X91689Y220268D01*
X91436Y219000D01*
Y190959D01*
X91689Y189691D01*
X92407Y188616D01*
X94521Y186502D01*
Y183757D01*
X93596Y182832D01*
X92835Y180994D01*
Y179005D01*
X93596Y177168D01*
X95002Y175761D01*
X96840Y175000D01*
X98829D01*
X100667Y175761D01*
X102073Y177168D01*
X102834Y179005D01*
Y180994D01*
X102073Y182832D01*
X101148Y183757D01*
Y185741D01*
X102534Y186315D01*
X104850Y183999D01*
Y182690D01*
X105611Y180852D01*
X107018Y179446D01*
X107460Y179263D01*
X107812Y177493D01*
X103382Y173064D01*
X100000D01*
X98732Y172811D01*
X97657Y172093D01*
X92657Y167093D01*
X91939Y166018D01*
X91686Y164750D01*
Y162000D01*
X83000D01*
Y156314D01*
X75500D01*
X74232Y156061D01*
X73157Y155343D01*
X68592Y150778D01*
X64218Y155153D01*
X51490Y142425D01*
X64925Y128990D01*
X77653Y141718D01*
X73278Y146092D01*
X76873Y149686D01*
X83000D01*
Y144000D01*
X107000D01*
X107750Y142811D01*
Y139000D01*
X122250D01*
Y142971D01*
X123750Y144022D01*
X123950Y143982D01*
X135050D01*
X136396Y144250D01*
X137537Y145013D01*
X138300Y146154D01*
X138568Y147500D01*
X138300Y148846D01*
X137546Y150000D01*
X138300Y151154D01*
X138369Y151500D01*
X129500D01*
Y153500D01*
X138369D01*
X138300Y153846D01*
X137546Y155000D01*
X138300Y156154D01*
X138568Y157500D01*
X138300Y158846D01*
X137546Y160000D01*
X138300Y161154D01*
X138568Y162500D01*
X138300Y163846D01*
X137546Y165000D01*
X138300Y166154D01*
X138568Y167500D01*
X138300Y168846D01*
X137546Y170000D01*
X138300Y171154D01*
X138568Y172500D01*
X138300Y173846D01*
X137546Y175000D01*
X138300Y176154D01*
X138568Y177500D01*
X139517Y178650D01*
X141104Y178710D01*
X142358Y177456D01*
Y173929D01*
X142103Y173674D01*
X141342Y171836D01*
Y169847D01*
X142103Y168009D01*
X143509Y166603D01*
X145347Y165842D01*
X147336D01*
X149174Y166603D01*
X150580Y168009D01*
X151342Y169847D01*
Y171836D01*
X150580Y173674D01*
X149174Y175080D01*
X148986Y175158D01*
Y178828D01*
X148733Y180096D01*
X148506Y180436D01*
X149671Y181393D01*
X156179Y174884D01*
X155500Y173245D01*
Y171255D01*
X156261Y169418D01*
X157668Y168011D01*
X159505Y167250D01*
X161495D01*
X163332Y168011D01*
X164739Y169418D01*
X165500Y171255D01*
Y171308D01*
X167000Y171929D01*
X167418Y171511D01*
X169255Y170750D01*
X171245D01*
X173082Y171511D01*
X174489Y172918D01*
X175250Y174755D01*
Y176745D01*
X174653Y178186D01*
X175345Y179686D01*
X179243D01*
X180168Y178761D01*
X182005Y178000D01*
X183995D01*
X185832Y178761D01*
X187239Y180168D01*
X188000Y182005D01*
Y183995D01*
X187239Y185832D01*
X185832Y187239D01*
X183995Y188000D01*
X182005D01*
X180168Y187239D01*
X179243Y186314D01*
X172873D01*
X165250Y193936D01*
X165871Y195436D01*
X199311D01*
X200579Y195689D01*
X201020Y195547D01*
X201700Y193846D01*
X201432Y192500D01*
X201700Y191154D01*
X202454Y190000D01*
X201700Y188846D01*
X201432Y187500D01*
X201700Y186154D01*
X202454Y185000D01*
X201700Y183846D01*
X201432Y182500D01*
X201700Y181154D01*
X202454Y180000D01*
X201700Y178846D01*
X201432Y177500D01*
X201700Y176154D01*
X202454Y175000D01*
X201700Y173846D01*
X201432Y172500D01*
X201700Y171154D01*
X202454Y170000D01*
X201700Y168846D01*
X201432Y167500D01*
X201700Y166154D01*
X202454Y165000D01*
X201700Y163846D01*
X201432Y162500D01*
X201700Y161154D01*
X202454Y160000D01*
X201700Y158846D01*
X201432Y157500D01*
X201700Y156154D01*
X202454Y155000D01*
X201700Y153846D01*
X201432Y152500D01*
X201700Y151154D01*
X202454Y150000D01*
X201700Y148846D01*
X201432Y147500D01*
X201700Y146154D01*
X202463Y145013D01*
X203604Y144250D01*
X204950Y143982D01*
X212034D01*
X212836Y142482D01*
X212680Y142250D01*
X205500D01*
Y137814D01*
X201018D01*
Y140050D01*
X200750Y141396D01*
X199987Y142537D01*
X198846Y143300D01*
X197500Y143568D01*
X196154Y143300D01*
X195000Y142546D01*
X193846Y143300D01*
X193500Y143369D01*
Y134500D01*
X191500D01*
Y143369D01*
X191154Y143300D01*
X190000Y142546D01*
X188846Y143300D01*
X187500Y143568D01*
X186154Y143300D01*
X185000Y142546D01*
X183846Y143300D01*
X182500Y143568D01*
X181154Y143300D01*
X180000Y142546D01*
X178846Y143300D01*
X177500Y143568D01*
X176154Y143300D01*
X175000Y142546D01*
X173846Y143300D01*
X172500Y143568D01*
X171154Y143300D01*
X170000Y142546D01*
X168846Y143300D01*
X167500Y143568D01*
X166154Y143300D01*
X165000Y142546D01*
X163846Y143300D01*
X162500Y143568D01*
X161154Y143300D01*
X160000Y142546D01*
X158846Y143300D01*
X157500Y143568D01*
X156154Y143300D01*
X155000Y142546D01*
X153846Y143300D01*
X152500Y143568D01*
X151154Y143300D01*
X150000Y142546D01*
X148846Y143300D01*
X147500Y143568D01*
X146154Y143300D01*
X145000Y142546D01*
X143846Y143300D01*
X142500Y143568D01*
X141154Y143300D01*
X140013Y142537D01*
X139250Y141396D01*
X138982Y140050D01*
Y128950D01*
X139250Y127604D01*
X140013Y126463D01*
X141154Y125700D01*
X142500Y125432D01*
X143846Y125700D01*
X145000Y126454D01*
X146154Y125700D01*
X147500Y125432D01*
X148846Y125700D01*
X150000Y126454D01*
X151154Y125700D01*
X152500Y125432D01*
X153846Y125700D01*
X155000Y126454D01*
X156154Y125700D01*
X157500Y125432D01*
X157763Y125485D01*
X159263Y124312D01*
Y91500D01*
X158650D01*
Y73000D01*
X168650D01*
Y78936D01*
X171350D01*
Y73000D01*
X173698D01*
X174500Y71500D01*
X174375Y71314D01*
X156873D01*
X156494Y71693D01*
X155950Y73000D01*
X155950D01*
X155950Y73000D01*
Y91500D01*
X145950D01*
Y73000D01*
X147636D01*
Y72550D01*
X147889Y71282D01*
X148607Y70207D01*
X153157Y65657D01*
X154232Y64939D01*
X155500Y64686D01*
X176946D01*
X178214Y64939D01*
X179289Y65657D01*
X184943Y71311D01*
X185661Y72386D01*
X185784Y73000D01*
X194050D01*
Y91500D01*
X192364D01*
Y94260D01*
X193679Y95338D01*
X194067D01*
X195905Y96100D01*
X197312Y97506D01*
X198073Y99344D01*
Y101333D01*
X197312Y103170D01*
X195905Y104577D01*
X195717Y104655D01*
Y106097D01*
X196458Y107000D01*
X196745D01*
X198582Y107761D01*
X199989Y109168D01*
X200750Y111005D01*
Y112995D01*
X199989Y114832D01*
X198582Y116239D01*
X196745Y117000D01*
X195436D01*
X192886Y119551D01*
X193460Y120936D01*
X205905D01*
X206597Y119436D01*
X206000Y117995D01*
Y116005D01*
X206761Y114168D01*
X208168Y112761D01*
X210005Y112000D01*
X210185D01*
X210346Y111909D01*
X211312Y110500D01*
X211256Y110218D01*
Y108662D01*
X211186Y108313D01*
Y86372D01*
X174007Y49193D01*
X173289Y48118D01*
X173036Y46850D01*
Y37000D01*
X171350D01*
Y18500D01*
X170114Y17864D01*
X169886D01*
X168650Y18500D01*
Y37000D01*
X158650D01*
Y22289D01*
X157150Y21834D01*
X156843Y22293D01*
X155950Y23186D01*
Y26750D01*
X145950D01*
Y22946D01*
X144564Y22372D01*
X143593Y23343D01*
X142518Y24061D01*
X141250Y24314D01*
X122000D01*
X120732Y24061D01*
X119657Y23343D01*
X119564Y23250D01*
X118255D01*
X116418Y22489D01*
X115011Y21082D01*
X114250Y19245D01*
Y17255D01*
X115011Y15418D01*
X116023Y14406D01*
X115210Y13098D01*
X111234Y14447D01*
X101105Y18643D01*
X91272Y23492D01*
X87949Y25411D01*
X87753Y26898D01*
X98138Y37282D01*
X89618Y45802D01*
X77955Y34139D01*
X80387Y31707D01*
X79431Y30542D01*
X72661Y35065D01*
X63963Y41739D01*
X55720Y48968D01*
X47968Y56720D01*
X40739Y64963D01*
X34065Y73661D01*
X29542Y80431D01*
X30707Y81387D01*
X31639Y80455D01*
X44009Y92825D01*
X44716Y92118D01*
X45423Y92825D01*
X54651Y83598D01*
X66314Y95261D01*
X64633Y96941D01*
X64985Y98710D01*
X65263Y98825D01*
X70772D01*
X74572Y95025D01*
X71642Y92095D01*
X80480Y83256D01*
X84331Y79406D01*
X90325Y85400D01*
X96319Y91394D01*
X92469Y95245D01*
X83630Y104083D01*
X80700Y101153D01*
X75630Y106222D01*
X74225Y107162D01*
X72566Y107492D01*
X65263D01*
X63653Y108158D01*
X61664D01*
X59826Y107397D01*
X58420Y105991D01*
X58210Y105485D01*
X56441Y105133D01*
X47860Y113715D01*
X47189Y113044D01*
X46112Y114066D01*
X46101Y114077D01*
X43682Y116496D01*
X46408Y119222D01*
X50782Y114847D01*
X63510Y127575D01*
X50075Y141010D01*
X37348Y128282D01*
X41722Y123908D01*
X38996Y121182D01*
X36566Y123612D01*
X28434Y115480D01*
X28081Y115127D01*
X27020Y114066D01*
X23838Y110884D01*
X28611Y106111D01*
X27904Y105404D01*
X28611Y104697D01*
X24368Y100454D01*
X28423Y96399D01*
X28434Y96388D01*
X29456Y95312D01*
X24800Y90655D01*
X23312Y90851D01*
X22492Y92272D01*
X17643Y102105D01*
X13447Y112234D01*
X9923Y122615D01*
X7086Y133205D01*
X4947Y143959D01*
X3516Y154828D01*
X2945Y163542D01*
X4425Y163887D01*
X5789Y160595D01*
X7919Y156905D01*
X10513Y153525D01*
X13525Y150513D01*
X16905Y147919D01*
X20595Y145789D01*
X24531Y144159D01*
X28646Y143056D01*
X32870Y142500D01*
X37130D01*
X41354Y143056D01*
X45469Y144159D01*
X49405Y145789D01*
X53095Y147919D01*
X56475Y150513D01*
X59487Y153525D01*
X62081Y156905D01*
X64211Y160595D01*
X65841Y164531D01*
X66944Y168646D01*
X67500Y172870D01*
Y177130D01*
X66944Y181354D01*
X65841Y185469D01*
X64211Y189405D01*
X62081Y193095D01*
X59487Y196475D01*
X56475Y199487D01*
X53095Y202081D01*
X49405Y204211D01*
X45469Y205841D01*
X41354Y206944D01*
X37130Y207500D01*
X32870D01*
X28646Y206944D01*
X24531Y205841D01*
X20595Y204211D01*
X16905Y202081D01*
X13525Y199487D01*
X10513Y196475D01*
X7919Y193095D01*
X5789Y189405D01*
X5009Y187523D01*
X5006Y187523D01*
X3548Y187914D01*
X4947Y198542D01*
X7086Y209294D01*
X9923Y219884D01*
X13447Y230266D01*
X17643Y240395D01*
X22492Y250228D01*
X27974Y259723D01*
X34065Y268839D01*
X40739Y277537D01*
X47968Y285780D01*
X55720Y293532D01*
X63963Y300761D01*
X72661Y307435D01*
X81777Y313526D01*
X91271Y319008D01*
X101105Y323857D01*
X111234Y328052D01*
X117579Y330206D01*
X118392Y328898D01*
D02*
G37*
G36*
X186672Y337984D02*
X197542Y336553D01*
X208295Y334414D01*
X218885Y331577D01*
X229266Y328052D01*
X239101Y323979D01*
X239562Y322845D01*
X239637Y322393D01*
X230882Y313639D01*
X239721Y304800D01*
X248560Y295961D01*
X259874Y307275D01*
X250753Y316396D01*
X251674Y317596D01*
X258723Y313526D01*
X267839Y307435D01*
X276537Y300761D01*
X284780Y293532D01*
X292532Y285780D01*
X299761Y277537D01*
X306435Y268839D01*
X312526Y259723D01*
X316596Y252674D01*
X315396Y251753D01*
X314321Y252828D01*
X303007Y241514D01*
X311139Y233382D01*
X320392Y242636D01*
X321872Y242391D01*
X322857Y240395D01*
X327052Y230266D01*
X330577Y219885D01*
X333414Y209294D01*
X335553Y198541D01*
X336984Y187672D01*
X337065Y186434D01*
X335585Y186089D01*
X334211Y189405D01*
X332081Y193095D01*
X329487Y196475D01*
X326475Y199487D01*
X323095Y202081D01*
X319405Y204211D01*
X315469Y205841D01*
X311354Y206944D01*
X307130Y207500D01*
X302870D01*
X298646Y206944D01*
X294531Y205841D01*
X290595Y204211D01*
X286905Y202081D01*
X283525Y199487D01*
X280513Y196475D01*
X277919Y193095D01*
X275789Y189405D01*
X274159Y185469D01*
X273056Y181354D01*
X272500Y177130D01*
Y172870D01*
X273056Y168646D01*
X274159Y164531D01*
X275789Y160595D01*
X277919Y156905D01*
X280513Y153525D01*
X283525Y150513D01*
X286905Y147919D01*
X290595Y145789D01*
X294531Y144159D01*
X298646Y143056D01*
X302870Y142500D01*
X307130D01*
X311354Y143056D01*
X315469Y144159D01*
X319405Y145789D01*
X323095Y147919D01*
X326475Y150513D01*
X329487Y153525D01*
X332081Y156905D01*
X334211Y160595D01*
X335841Y164531D01*
X336201Y165874D01*
X337701Y165768D01*
X336984Y154828D01*
X335553Y143958D01*
X333414Y133205D01*
X330577Y122615D01*
X327052Y112234D01*
X322857Y102105D01*
X318008Y92272D01*
X317004Y90534D01*
X315517Y90338D01*
X305218Y100638D01*
X296698Y92118D01*
X308361Y80455D01*
X310800Y82894D01*
X311965Y81938D01*
X306435Y73661D01*
X299761Y64963D01*
X292532Y56720D01*
X284780Y48968D01*
X276537Y41739D01*
X267839Y35065D01*
X259562Y29535D01*
X258606Y30700D01*
X262045Y34139D01*
X250382Y45802D01*
X241862Y37282D01*
X252430Y26715D01*
X252234Y25228D01*
X249228Y23492D01*
X239395Y18643D01*
X229266Y14447D01*
X218885Y10923D01*
X208295Y8086D01*
X197541Y5947D01*
X195196Y5638D01*
X194495Y7059D01*
X201843Y14407D01*
X202561Y15482D01*
X202814Y16750D01*
Y22750D01*
X206000D01*
Y37250D01*
X204896D01*
X204322Y38636D01*
X217372Y51686D01*
X219998D01*
X221168Y50517D01*
X223005Y49756D01*
X224995D01*
X226832Y50517D01*
X227717Y51401D01*
X228785Y50359D01*
X240448Y38696D01*
X248968Y47216D01*
X237305Y58879D01*
X229307Y50882D01*
X228239Y51923D01*
X229000Y53761D01*
Y55750D01*
X228239Y57588D01*
X226832Y58994D01*
X224995Y59755D01*
X223005D01*
X221168Y58994D01*
X220487Y58314D01*
X216000D01*
X214732Y58061D01*
X213657Y57343D01*
X197157Y40843D01*
X196439Y39768D01*
X196186Y38500D01*
Y37250D01*
X193000D01*
Y37000D01*
X186114D01*
Y43927D01*
X233504Y91318D01*
X235934Y88888D01*
X237834Y90788D01*
X240454Y88167D01*
X238417Y86130D01*
X250405Y74142D01*
X259244Y82980D01*
X268358Y92095D01*
X256370Y104083D01*
X254156Y101869D01*
X251548Y104477D01*
X254050Y106979D01*
X256395D01*
X261298Y102076D01*
X269515Y110292D01*
X267749Y112057D01*
X273688Y117996D01*
X274594D01*
X275269Y117321D01*
X277107Y116560D01*
X279096D01*
X280934Y117321D01*
X282340Y118728D01*
X283101Y120565D01*
Y122554D01*
X282340Y124392D01*
X280934Y125799D01*
X279096Y126560D01*
X277107D01*
X275269Y125799D01*
X274094Y124623D01*
X272496D01*
X272162Y125049D01*
X271803Y126051D01*
X274128Y128377D01*
X270727Y131778D01*
X267326Y128377D01*
X270136Y125566D01*
X270097Y123736D01*
X269972Y123653D01*
X263063Y116744D01*
X261298Y118509D01*
X256395Y113606D01*
X252677D01*
X251409Y113354D01*
X250334Y112635D01*
X248938Y111239D01*
X245758Y114420D01*
X246057Y116048D01*
X246993Y116381D01*
X247827Y115546D01*
X256044Y123763D01*
X254199Y125608D01*
X261237Y132646D01*
X262511Y133192D01*
X265912Y129791D01*
X269313Y133192D01*
X265912Y136593D01*
X265701Y136383D01*
X264360Y137071D01*
X264314Y137116D01*
Y142000D01*
X264061Y143268D01*
X263343Y144343D01*
X260729Y146957D01*
Y148265D01*
X259968Y150103D01*
X258561Y151510D01*
X256724Y152271D01*
X254735D01*
X252897Y151510D01*
X251490Y150103D01*
X250729Y148265D01*
Y146276D01*
X251490Y144438D01*
X252897Y143032D01*
X254735Y142271D01*
X256043D01*
X257686Y140627D01*
Y138468D01*
X254778Y135559D01*
X253278Y136180D01*
Y136199D01*
X252517Y138036D01*
X251110Y139443D01*
X249272Y140204D01*
X247283D01*
X245446Y139443D01*
X244039Y138036D01*
X243278Y136199D01*
Y134890D01*
X238028Y129641D01*
X234500D01*
Y134000D01*
X228000D01*
Y136000D01*
X234500D01*
Y142250D01*
X235923Y142436D01*
X241589D01*
X242857Y142689D01*
X243932Y143407D01*
X247593Y147068D01*
X248311Y148143D01*
X248564Y149411D01*
Y152725D01*
X250525Y154686D01*
X258243D01*
X259168Y153761D01*
X261005Y153000D01*
X262314D01*
X288750Y126564D01*
Y125255D01*
X289511Y123418D01*
X290918Y122011D01*
X292755Y121250D01*
X294745D01*
X296582Y122011D01*
X297989Y123418D01*
X298750Y125255D01*
Y127245D01*
X297989Y129082D01*
X296582Y130489D01*
X294745Y131250D01*
X293436D01*
X267000Y157686D01*
Y158314D01*
X269593Y160907D01*
X270311Y161982D01*
X270564Y163250D01*
Y177596D01*
X270311Y178864D01*
X269593Y179939D01*
X268092Y181440D01*
X268416Y182940D01*
X270360D01*
Y194560D01*
X267864D01*
Y199700D01*
X267611Y200968D01*
X266893Y202043D01*
X262140Y206796D01*
X262177Y207207D01*
X262643Y208296D01*
X266949D01*
X268217Y208549D01*
X269292Y209267D01*
X277343Y217318D01*
X278061Y218393D01*
X278314Y219661D01*
Y229216D01*
X278061Y230484D01*
X277343Y231559D01*
X270702Y238200D01*
X274369Y241867D01*
X266591Y249646D01*
X265530Y250706D01*
X265530Y250706D01*
X257045Y259191D01*
X256691Y259545D01*
X248206Y268030D01*
X248206D01*
X247853Y268384D01*
X244317Y271919D01*
X238307Y265909D01*
X237600Y266616D01*
X236893Y265909D01*
X232650Y270152D01*
X227576Y265078D01*
X225947Y265091D01*
X225583Y265970D01*
X224176Y267377D01*
X222338Y268138D01*
X220349D01*
X218512Y267377D01*
X218314Y267179D01*
X216814Y267801D01*
Y290500D01*
X216561Y291768D01*
X215843Y292843D01*
X211093Y297593D01*
X210018Y298311D01*
X208750Y298564D01*
X152250D01*
X150982Y298311D01*
X149907Y297593D01*
X139205Y286891D01*
X137933Y287741D01*
X138250Y288505D01*
Y290495D01*
X137489Y292332D01*
X136082Y293739D01*
X134245Y294500D01*
X132255D01*
X130418Y293739D01*
X130162Y293483D01*
X127895D01*
X126712Y294666D01*
X128612Y296566D01*
X119066Y306112D01*
X110934Y297980D01*
X110581Y297627D01*
X109874Y296919D01*
X107974Y295020D01*
X106068Y296926D01*
X116220Y307078D01*
X111492Y311805D01*
X114717Y315030D01*
X118813Y310934D01*
X129066Y321187D01*
X120604Y329649D01*
X121005Y331369D01*
X121615Y331577D01*
X132205Y334414D01*
X142959Y336553D01*
X153828Y337984D01*
X164768Y338701D01*
X175732D01*
X186672Y337984D01*
D02*
G37*
G36*
X115330Y223585D02*
X116091Y221747D01*
X117497Y220341D01*
X119335Y219580D01*
X120429D01*
X121492Y218254D01*
X121500Y218194D01*
Y216936D01*
X119087Y214523D01*
X114871D01*
X113603Y214271D01*
X112528Y213553D01*
X107157Y208182D01*
X106439Y207107D01*
X106186Y205839D01*
Y196768D01*
X106439Y195499D01*
X107157Y194424D01*
X111376Y190205D01*
X111317Y190030D01*
X110683Y188875D01*
X109364Y188857D01*
X103814Y194408D01*
Y215128D01*
X112623Y223936D01*
X115330D01*
Y223585D01*
D02*
G37*
G36*
X237593Y201489D02*
X238861Y201236D01*
X258327D01*
X261236Y198328D01*
Y194560D01*
X258740D01*
Y182940D01*
X261236D01*
Y180394D01*
X260170Y179250D01*
X260000D01*
Y172500D01*
Y165750D01*
X263037D01*
X263564Y164250D01*
X262314Y163000D01*
X261005D01*
X259168Y162239D01*
X258243Y161314D01*
X249153D01*
X247885Y161061D01*
X246810Y160343D01*
X243329Y156863D01*
X241832Y156239D01*
X239995Y157000D01*
X238005D01*
X236168Y156239D01*
X235243Y155314D01*
X224290D01*
X223022Y155061D01*
X221947Y154343D01*
X220932Y153329D01*
X219305Y153822D01*
X219300Y153846D01*
X218546Y155000D01*
X219300Y156154D01*
X219464Y156982D01*
X220750Y157500D01*
X220980Y157500D01*
X226500D01*
Y163500D01*
X227500D01*
Y164500D01*
X234250D01*
Y169000D01*
X234250Y170500D01*
X234250Y171000D01*
Y181707D01*
X234750Y183000D01*
X234750D01*
X234750Y183000D01*
Y188500D01*
X227500D01*
Y189500D01*
X226500D01*
Y196000D01*
X225686D01*
X224072Y197614D01*
X224646Y199000D01*
X234750D01*
Y202186D01*
X236549D01*
X237593Y201489D01*
D02*
G37*
G36*
X121121Y179490D02*
X120700Y178846D01*
X120432Y177500D01*
X120700Y176154D01*
X121454Y175000D01*
X120700Y173846D01*
X120432Y172500D01*
X120700Y171154D01*
X121454Y170000D01*
X120700Y168846D01*
X120432Y167500D01*
X120700Y166154D01*
X121454Y165000D01*
X120700Y163846D01*
X120432Y162500D01*
X120700Y161154D01*
X121454Y160000D01*
X120700Y158846D01*
X120432Y157500D01*
X120700Y156154D01*
X121454Y155000D01*
X120700Y153846D01*
X120432Y152500D01*
X120022Y152000D01*
X113186D01*
X109843Y155343D01*
X108768Y156061D01*
X107500Y156314D01*
X107000D01*
Y162000D01*
X98610D01*
X98436Y163500D01*
X101373Y166436D01*
X104754D01*
X106023Y166689D01*
X107098Y167407D01*
X118443Y178753D01*
X119162Y179828D01*
X120745Y180098D01*
X121121Y179490D01*
D02*
G37*
G36*
X151187Y6377D02*
X150487Y4956D01*
X142958Y5947D01*
X132205Y8086D01*
X121615Y10923D01*
X119180Y11750D01*
X119428Y13250D01*
X120245D01*
X122082Y14011D01*
X123489Y15418D01*
X124250Y17255D01*
Y17686D01*
X139878D01*
X151187Y6377D01*
D02*
G37*
%LPC*%
G36*
X205750Y274000D02*
X199500D01*
Y266500D01*
X205750D01*
Y274000D01*
D02*
G37*
G36*
X197500D02*
X191250D01*
Y266500D01*
X197500D01*
Y274000D01*
D02*
G37*
G36*
X158500Y272250D02*
X153000D01*
Y266000D01*
X158500D01*
Y272250D01*
D02*
G37*
G36*
X151000D02*
X145500D01*
Y266000D01*
X151000D01*
Y272250D01*
D02*
G37*
G36*
X187250Y260500D02*
X181000D01*
Y253000D01*
X187250D01*
Y260500D01*
D02*
G37*
G36*
X143500Y249000D02*
X138000D01*
Y242750D01*
X143500D01*
Y249000D01*
D02*
G37*
G36*
X136000D02*
X130500D01*
Y242750D01*
X136000D01*
Y249000D01*
D02*
G37*
G36*
X37024Y256166D02*
X28609Y247751D01*
X34973Y241387D01*
X43388Y249802D01*
X37024Y256166D01*
D02*
G37*
G36*
X44802Y248388D02*
X36387Y239973D01*
X42751Y233609D01*
X51166Y242024D01*
X44802Y248388D01*
D02*
G37*
G36*
X143500Y239750D02*
X138000D01*
Y233500D01*
X143500D01*
Y239750D01*
D02*
G37*
G36*
X136000D02*
X130500D01*
Y233500D01*
X136000D01*
Y239750D01*
D02*
G37*
G36*
X27195Y246337D02*
X18780Y237922D01*
X25144Y231558D01*
X33559Y239973D01*
X27195Y246337D01*
D02*
G37*
G36*
X65075Y238510D02*
X59419Y232854D01*
X65429Y226843D01*
X71086Y232500D01*
X65075Y238510D01*
D02*
G37*
G36*
X34973Y238559D02*
X26558Y230144D01*
X32922Y223780D01*
X41337Y232195D01*
X34973Y238559D01*
D02*
G37*
G36*
X58004Y231439D02*
X52347Y225783D01*
X58358Y219772D01*
X64015Y225429D01*
X58004Y231439D01*
D02*
G37*
G36*
X72500Y231086D02*
X66843Y225429D01*
X72853Y219419D01*
X78510Y225075D01*
X72500Y231086D01*
D02*
G37*
G36*
X65429Y224015D02*
X59772Y218358D01*
X65782Y212348D01*
X71439Y218004D01*
X65429Y224015D01*
D02*
G37*
G36*
X122250Y136000D02*
X116000D01*
Y130500D01*
X122250D01*
Y136000D01*
D02*
G37*
G36*
X114000D02*
X107750D01*
Y130500D01*
X114000D01*
Y136000D01*
D02*
G37*
G36*
X122250Y128500D02*
X116000D01*
Y123000D01*
X122250D01*
Y128500D01*
D02*
G37*
G36*
X114000D02*
X107750D01*
Y127189D01*
X107000Y126000D01*
X106250Y126000D01*
X96000D01*
Y118000D01*
X107000D01*
Y121811D01*
X107750Y123000D01*
X108500Y123000D01*
X114000D01*
Y128500D01*
D02*
G37*
G36*
X94000Y126000D02*
X83000D01*
Y118000D01*
X94000D01*
Y126000D01*
D02*
G37*
G36*
X107000Y116000D02*
X96000D01*
Y108000D01*
X107000D01*
Y116000D01*
D02*
G37*
G36*
X94000D02*
X83000D01*
Y108000D01*
X94000D01*
Y116000D01*
D02*
G37*
G36*
X22424Y109470D02*
X18888Y105934D01*
X22954Y101868D01*
X26490Y105404D01*
X22424Y109470D01*
D02*
G37*
G36*
X97733Y89980D02*
X92446Y84693D01*
X96296Y80843D01*
X101583Y86130D01*
X97733Y89980D01*
D02*
G37*
G36*
X91032Y83279D02*
X85745Y77992D01*
X89595Y74142D01*
X94882Y79429D01*
X91032Y83279D01*
D02*
G37*
G36*
X44716Y90703D02*
X33053Y79040D01*
X41573Y70521D01*
X53236Y82184D01*
X44716Y90703D01*
D02*
G37*
G36*
X92761Y68814D02*
X81098Y57151D01*
X89618Y48631D01*
X101281Y60294D01*
X92761Y68814D01*
D02*
G37*
G36*
X102695Y58879D02*
X91032Y47216D01*
X99552Y38696D01*
X111215Y50360D01*
X102695Y58879D01*
D02*
G37*
G36*
X79683Y55736D02*
X68021Y44073D01*
X76540Y35553D01*
X88203Y47216D01*
X79683Y55736D01*
D02*
G37*
G36*
X155950Y37000D02*
X151950D01*
Y28750D01*
X155950D01*
Y37000D01*
D02*
G37*
G36*
X149950D02*
X145950D01*
Y28750D01*
X149950D01*
Y37000D01*
D02*
G37*
G36*
X131187Y319066D02*
X126768Y314646D01*
X130657Y310757D01*
X135076Y315177D01*
X131187Y319066D01*
D02*
G37*
G36*
X136490Y313763D02*
X132071Y309343D01*
X135960Y305454D01*
X140380Y309874D01*
X136490Y313763D01*
D02*
G37*
G36*
X125353Y313232D02*
X120934Y308813D01*
X124823Y304924D01*
X129243Y309343D01*
X125353Y313232D01*
D02*
G37*
G36*
X130657Y307929D02*
X126237Y303510D01*
X130126Y299620D01*
X134546Y304040D01*
X130657Y307929D01*
D02*
G37*
G36*
X229468Y312225D02*
X218154Y300911D01*
X226286Y292779D01*
X237600Y304093D01*
X229468Y312225D01*
D02*
G37*
G36*
X239014Y302679D02*
X227700Y291365D01*
X235832Y283233D01*
X247146Y294547D01*
X239014Y302679D01*
D02*
G37*
G36*
X239367Y276869D02*
X234064Y271566D01*
X237600Y268030D01*
X242903Y273334D01*
X239367Y276869D01*
D02*
G37*
G36*
X304775Y262374D02*
X293461Y251060D01*
X301593Y242928D01*
X312906Y254242D01*
X304775Y262374D01*
D02*
G37*
G36*
X292047Y249646D02*
X280733Y238332D01*
X288865Y230200D01*
X300179Y241514D01*
X292047Y249646D01*
D02*
G37*
G36*
X301593Y240100D02*
X290279Y228786D01*
X298411Y220654D01*
X309725Y231968D01*
X301593Y240100D01*
D02*
G37*
G36*
X270727Y141408D02*
X267326Y138007D01*
X270727Y134606D01*
X274128Y138007D01*
X270727Y141408D01*
D02*
G37*
G36*
X275543Y136593D02*
X272141Y133192D01*
X275543Y129791D01*
X278944Y133192D01*
X275543Y136593D01*
D02*
G37*
G36*
X292141Y113715D02*
X283621Y105195D01*
X295284Y93532D01*
X303804Y102052D01*
X292141Y113715D01*
D02*
G37*
G36*
X282206Y103781D02*
X273687Y95261D01*
X285350Y83598D01*
X293869Y92118D01*
X282206Y103781D01*
D02*
G37*
G36*
X295284Y90703D02*
X286764Y82184D01*
X298427Y70521D01*
X306947Y79040D01*
X295284Y90703D01*
D02*
G37*
G36*
X247239Y68814D02*
X238719Y60294D01*
X250382Y48631D01*
X258902Y57151D01*
X247239Y68814D01*
D02*
G37*
G36*
X260317Y55736D02*
X251797Y47216D01*
X263460Y35553D01*
X271980Y44073D01*
X260317Y55736D01*
D02*
G37*
G36*
X222000Y37250D02*
X216500D01*
Y31000D01*
X222000D01*
Y37250D01*
D02*
G37*
G36*
X214500D02*
X209000D01*
Y31000D01*
X214500D01*
Y37250D01*
D02*
G37*
G36*
X222000Y29000D02*
X216500D01*
Y22750D01*
X222000D01*
Y29000D01*
D02*
G37*
G36*
X214500D02*
X209000D01*
Y22750D01*
X214500D01*
Y29000D01*
D02*
G37*
G36*
X234750Y196000D02*
X228500D01*
Y190500D01*
X234750D01*
Y196000D01*
D02*
G37*
G36*
X251310Y194560D02*
X239690D01*
Y182940D01*
X242686D01*
Y179250D01*
X240000D01*
Y165750D01*
X251500D01*
X253000Y165750D01*
X253500Y165750D01*
X258000D01*
Y172500D01*
Y179250D01*
X253500D01*
X252000Y179250D01*
X251500Y179250D01*
X249314D01*
Y182940D01*
X251310D01*
Y194560D01*
D02*
G37*
G36*
X234250Y162500D02*
X228500D01*
Y157500D01*
X234250D01*
Y162500D01*
D02*
G37*
%LPD*%
D10*
X245500Y188750D02*
X246000Y188250D01*
D11*
X238861Y204550D02*
X259700D01*
X240026Y211581D02*
X240669D01*
X218500Y205500D02*
X237911D01*
X235575Y216032D02*
X240026Y211581D01*
X233468Y216032D02*
X235575D01*
X237911Y205500D02*
X238861Y204550D01*
X226000Y223500D02*
X233468Y216032D01*
X226000Y223500D02*
Y252087D01*
X199447Y205250D02*
X201120Y206924D01*
X201120D01*
X208750Y295250D02*
X213500Y290500D01*
X217143Y214107D02*
Y215054D01*
X201120Y206924D02*
X213500Y219303D01*
Y290500D01*
X217143Y215054D02*
X219750Y217661D01*
X152250Y295250D02*
X208750D01*
X219750Y217661D02*
Y249499D01*
X140250Y261096D02*
X144846Y256500D01*
X147250D02*
X153000Y250750D01*
X144846Y256500D02*
X147250D01*
X153000Y232500D02*
Y250750D01*
X133904Y261096D02*
X140250D01*
X133500Y261500D02*
X133904Y261096D01*
X153000Y231750D02*
Y232500D01*
Y231750D02*
X157500Y227250D01*
Y215500D02*
Y227250D01*
X171500Y183000D02*
X183000D01*
X157000Y197500D02*
X171500Y183000D01*
X129500Y197500D02*
X157000D01*
X164750Y198750D02*
X199311D01*
X157577Y205924D02*
Y215424D01*
X199311Y198750D02*
X202984Y202423D01*
X157577Y205924D02*
X164750Y198750D01*
X152813Y192500D02*
X169563Y175750D01*
X170250D01*
X129500Y192500D02*
X152813D01*
X129577Y187423D02*
X148327D01*
X159830Y175920D01*
Y172920D02*
X160500Y172250D01*
X159830Y172920D02*
Y175920D01*
X145672Y171511D02*
Y178828D01*
X142077Y182423D02*
X145672Y178828D01*
X129577Y182423D02*
X142077D01*
X129500Y182500D02*
X129577Y182423D01*
X145672Y171511D02*
X146342Y170842D01*
X170553Y205250D02*
X199447D01*
X167577Y208227D02*
X170553Y205250D01*
X202984Y202423D02*
X210424D01*
X259700Y204550D02*
X264550Y199700D01*
Y180296D02*
Y188750D01*
Y199700D01*
X262000Y158000D02*
X293750Y126250D01*
X267250Y163250D02*
Y177596D01*
X262000Y158000D02*
X267250Y163250D01*
X264550Y180296D02*
X267250Y177596D01*
X216166Y126327D02*
X239401D01*
X248278Y135204D01*
X249153Y158000D02*
X262000D01*
X245250Y149411D02*
Y154097D01*
X249153Y158000D01*
X241589Y145750D02*
X245250Y149411D01*
X224404Y145750D02*
X241589D01*
X224290Y152000D02*
X239000D01*
X255729Y147271D02*
X261000Y142000D01*
Y137095D02*
Y142000D01*
X176350Y46850D02*
X214500Y85000D01*
X176350Y27750D02*
Y46850D01*
X214500Y85000D02*
Y108313D01*
X248968Y84693D02*
X248974D01*
X182800Y45300D02*
X235404Y97904D01*
X182800Y16014D02*
Y45300D01*
X186823Y96488D02*
Y102498D01*
X177500Y121000D02*
X192403Y106097D01*
X189050Y82250D02*
Y94261D01*
X192403Y101008D02*
Y106097D01*
Y101008D02*
X193073Y100338D01*
X172500Y116821D02*
X186823Y102498D01*
Y96488D02*
X189050Y94261D01*
X177500Y121000D02*
Y134500D01*
X167500Y108759D02*
Y134500D01*
X182600Y73654D02*
Y93659D01*
X167500Y108759D02*
X182600Y93659D01*
X219576Y197423D02*
X223500Y193500D01*
Y192750D02*
Y193500D01*
X210576Y197423D02*
X219576D01*
X223500Y192750D02*
X226750Y189500D01*
X227500D01*
X210500Y197500D02*
X210576Y197423D01*
X129500Y187500D02*
X129577Y187423D01*
X111250Y227250D02*
X116712D01*
X119382Y224580D01*
X120330D01*
X107635Y246113D02*
Y254058D01*
Y246113D02*
X132750Y220998D01*
X99596Y262096D02*
X107635Y254058D01*
X137750Y280750D02*
X152250Y295250D01*
X198500Y285000D02*
X202250Y288750D01*
X203000D01*
X198500Y275000D02*
Y285000D01*
X228215Y257764D02*
Y258711D01*
Y257764D02*
X230500Y255479D01*
X221699Y256388D02*
Y262783D01*
X221344Y263138D02*
X221699Y262783D01*
X230500Y236750D02*
Y255479D01*
X221699Y256388D02*
X226000Y252087D01*
X230500Y236750D02*
X247750Y219500D01*
X122000Y21000D02*
X132500D01*
X150950Y23500D02*
Y27750D01*
X154500Y16589D02*
X155169Y15919D01*
X141250Y21000D02*
X154000Y8250D01*
X132500Y21000D02*
X141250D01*
X154500Y16589D02*
Y19950D01*
X154000Y8250D02*
X191000D01*
X150950Y23500D02*
X154500Y19950D01*
X191000Y8250D02*
X199500Y16750D01*
X119250Y18250D02*
X122000Y21000D01*
X223755Y55000D02*
X224000Y54755D01*
X199500Y38500D02*
X216000Y55000D01*
X223755D01*
X277851Y121309D02*
X278101Y121560D01*
X272315Y121309D02*
X277851D01*
X261298Y110292D02*
X272315Y121309D01*
X211500Y134500D02*
Y135250D01*
X219250Y143000D01*
X221654D01*
X224404Y145750D01*
X210500Y147500D02*
X219790D01*
X224290Y152000D01*
X261298Y110292D02*
Y110292D01*
X210424Y202423D02*
X210500Y202500D01*
X157500Y215500D02*
X157577Y215424D01*
X95000Y153000D02*
Y164750D01*
X100000Y169750D01*
X104754D01*
X116100Y181096D01*
Y190167D01*
X109500Y196768D02*
X116100Y190167D01*
X109500Y196768D02*
Y205839D01*
X114871Y211210D01*
X120460D01*
X126500Y217250D01*
X117447Y202500D02*
X129500D01*
X116697Y203250D02*
X117447Y202500D01*
X115750Y203250D02*
X116697D01*
X100500Y193035D02*
Y216500D01*
Y193035D02*
X109850Y183685D01*
X94750Y190959D02*
X97835Y187874D01*
Y180000D02*
Y187874D01*
X94750Y190959D02*
Y219000D01*
X132750Y213053D02*
Y220998D01*
Y213053D02*
X140803Y205000D01*
X244918Y106421D02*
X257807Y93532D01*
X247827Y123923D02*
Y123923D01*
X261000Y137095D01*
X244918Y106421D02*
X244918D01*
X238568Y112771D02*
X244918Y106421D01*
X233188Y112771D02*
X238568D01*
X132580Y290170D02*
X133250Y289500D01*
X119596Y297096D02*
X126523Y290170D01*
X132580D01*
X117558Y280750D02*
X137750D01*
X110404Y287904D02*
X117558Y280750D01*
X214088Y124250D02*
X216166Y126327D01*
X190553Y124250D02*
X214088D01*
X187577Y127227D02*
X190553Y124250D01*
X187577Y127227D02*
Y134424D01*
X187500Y134500D02*
X187577Y134424D01*
X214569Y108383D02*
Y110218D01*
X213872Y117670D02*
X216952Y120750D01*
X211000Y117000D02*
X211670Y117670D01*
X219339Y114987D02*
X230972D01*
X211670Y117670D02*
X213872D01*
X214500Y108313D02*
X214569Y108383D01*
X216952Y120750D02*
X233359D01*
X214569Y110218D02*
X219339Y114987D01*
X247665Y232085D02*
X258500Y221250D01*
Y221000D02*
Y221250D01*
X245415Y232085D02*
X247665D01*
X267810Y221500D02*
X268000D01*
X253442Y235868D02*
X267810Y221500D01*
X255025Y211610D02*
X266949D01*
X275000Y219661D01*
Y229216D01*
X253442Y235868D02*
Y239678D01*
X253510Y239746D01*
Y247171D01*
X255277Y248938D01*
X237250Y240250D02*
X245415Y232085D01*
X237250Y240250D02*
Y248589D01*
X246438Y257777D01*
Y257777D01*
X264116Y240100D02*
X275000Y229216D01*
X197500Y134500D02*
X211500D01*
X94750Y219000D02*
X109500Y233750D01*
X100500Y216500D02*
X111250Y227250D01*
X182500Y125250D02*
X195750Y112000D01*
X182500Y125250D02*
Y134500D01*
X168000Y265000D02*
Y272750D01*
X170250Y275000D01*
X180000D01*
X172500Y215500D02*
Y238772D01*
X168000Y243272D02*
X172500Y238772D01*
X168000Y243272D02*
Y265000D01*
X198000Y235000D02*
X198500Y235500D01*
Y252000D01*
X198000Y234250D02*
Y235000D01*
X190250Y226500D02*
X198000Y234250D01*
X181303Y226500D02*
X190250D01*
X177577Y222773D02*
X181303Y226500D01*
X177577Y215576D02*
Y222773D01*
X177500Y215500D02*
X177577Y215576D01*
X110404Y287904D02*
X110404D01*
X167577Y208227D02*
Y215424D01*
X167500Y215500D02*
X167577Y215424D01*
X152423Y208227D02*
Y215424D01*
X140803Y205000D02*
X149197D01*
X152423Y208227D01*
Y215424D02*
X152500Y215500D01*
X100027Y305027D02*
X115657Y320657D01*
X119343D01*
X100027Y298281D02*
Y305027D01*
Y298281D02*
X110404Y287904D01*
X79571Y239571D02*
X90404Y250404D01*
Y252904D01*
X37096Y114596D02*
X50429Y127929D01*
X64571Y142071D02*
X64571D01*
X75500Y153000D01*
X95000D01*
X114250Y145500D02*
X115000D01*
X111000Y148750D02*
X114250Y145500D01*
X111000Y148750D02*
Y149500D01*
X107500Y153000D02*
X111000Y149500D01*
X95000Y153000D02*
X107500D01*
X115000Y145500D02*
X117000Y147500D01*
X129500D01*
X155500Y68000D02*
X176946D01*
X150950Y72550D02*
Y82250D01*
Y72550D02*
X155500Y68000D01*
X176946D02*
X182600Y73654D01*
X172500Y116821D02*
Y134500D01*
X162577Y83323D02*
X163650Y82250D01*
X162577Y83323D02*
Y134424D01*
X162500Y134500D02*
X162577Y134424D01*
X163650Y82250D02*
X176350D01*
X246000Y172500D02*
Y188250D01*
X210500Y202500D02*
X215942D01*
X216126Y202685D01*
Y203127D01*
X218500Y205500D01*
X224750Y179250D02*
X227500Y176500D01*
X223404Y179250D02*
X224750D01*
X220154Y182500D02*
X223404Y179250D01*
X210500Y182500D02*
X220154D01*
X199500Y30000D02*
Y38500D01*
X242599Y118534D02*
X247827Y123763D01*
X235575Y118534D02*
X242599D01*
X233359Y120750D02*
X235575Y118534D01*
X230972Y114987D02*
X233188Y112771D01*
X223763Y108737D02*
X223763D01*
X234596Y97904D02*
X235404D01*
X223763Y108737D02*
X234596Y97904D01*
X248615Y84693D02*
X248968D01*
X235404Y97904D02*
X248615Y84693D01*
X245094Y106598D02*
X248983D01*
X252677Y110292D01*
X261298D01*
X165450Y14550D02*
X181336D01*
X163650Y16350D02*
X165450Y14550D01*
X181336D02*
X182800Y16014D01*
X163650Y16350D02*
Y27750D01*
Y32000D01*
X199500Y16750D02*
Y30000D01*
X189050Y27750D02*
Y28250D01*
X190800Y30000D01*
X199500D01*
D17*
X227500Y176500D02*
D03*
Y163500D02*
D03*
D18*
X246000Y172500D02*
D03*
X259000D02*
D03*
D19*
X255025Y211610D02*
D03*
X245500Y188750D02*
D03*
X264550D02*
D03*
D20*
X198000Y235000D02*
D03*
X182000D02*
D03*
X168000Y265000D02*
D03*
X152000D02*
D03*
X153000Y250000D02*
D03*
X137000D02*
D03*
X153000Y232500D02*
D03*
X137000D02*
D03*
X212000Y135000D02*
D03*
X228000D02*
D03*
X215500Y30000D02*
D03*
X199500D02*
D03*
D21*
X198500Y252000D02*
D03*
X180000Y275000D02*
D03*
X198500D02*
D03*
X180000Y252000D02*
D03*
D22*
X115000Y145500D02*
D03*
Y129500D02*
D03*
X227500Y205500D02*
D03*
Y189500D02*
D03*
D23*
X95000Y153000D02*
D03*
Y117000D02*
D03*
D24*
X197500Y215500D02*
D03*
X192500D02*
D03*
X187500D02*
D03*
X182500D02*
D03*
X177500D02*
D03*
X172500D02*
D03*
X167500D02*
D03*
X157500D02*
D03*
X152500D02*
D03*
X147500D02*
D03*
X142500D02*
D03*
Y134500D02*
D03*
X147500D02*
D03*
X152500D02*
D03*
X157500D02*
D03*
X162500D02*
D03*
X167500D02*
D03*
X172500D02*
D03*
X177500D02*
D03*
X182500D02*
D03*
X187500D02*
D03*
X197500D02*
D03*
X162500Y215500D02*
D03*
X192500Y134500D02*
D03*
D25*
X129500Y202500D02*
D03*
Y197500D02*
D03*
Y192500D02*
D03*
Y187500D02*
D03*
Y182500D02*
D03*
Y177500D02*
D03*
Y172500D02*
D03*
Y167500D02*
D03*
Y162500D02*
D03*
Y157500D02*
D03*
Y147500D02*
D03*
X210500D02*
D03*
Y152500D02*
D03*
Y157500D02*
D03*
Y162500D02*
D03*
Y167500D02*
D03*
Y172500D02*
D03*
Y177500D02*
D03*
Y182500D02*
D03*
Y187500D02*
D03*
Y192500D02*
D03*
Y202500D02*
D03*
X129500Y152500D02*
D03*
X210500Y197500D02*
D03*
D26*
X246438Y257777D02*
D03*
X237600Y266616D02*
D03*
X264116Y240100D02*
D03*
X255277Y248938D02*
D03*
D27*
X119343Y320657D02*
D03*
X130657Y309343D02*
D03*
D28*
X119596Y297096D02*
D03*
X110404Y287904D02*
D03*
X244596Y107096D02*
D03*
X235404Y97904D02*
D03*
X27904Y105404D02*
D03*
X99596Y262096D02*
D03*
X90404Y252904D02*
D03*
X37096Y114596D02*
D03*
D29*
X247827Y123763D02*
D03*
X261298Y110292D02*
D03*
X270727Y133192D02*
D03*
D30*
X163650Y27750D02*
D03*
X176350D02*
D03*
X150950Y82250D02*
D03*
X163650D02*
D03*
X176350D02*
D03*
X189050D02*
D03*
X150950Y27750D02*
D03*
X189050D02*
D03*
D31*
X239014Y304093D02*
D03*
X301593Y241514D02*
D03*
D32*
X250382Y47216D02*
D03*
X295284Y92118D02*
D03*
D33*
X44716D02*
D03*
X89618Y47216D02*
D03*
D34*
X91032Y84693D02*
D03*
X82193Y93532D02*
D03*
D35*
X34973Y239973D02*
D03*
X100027Y305027D02*
D03*
D36*
X65429Y225429D02*
D03*
X79571Y239571D02*
D03*
X50429Y127929D02*
D03*
X64571Y142071D02*
D03*
D37*
X257807Y93532D02*
D03*
X248968Y84693D02*
D03*
D58*
X62658Y103158D02*
X72566D01*
X82193Y93532D01*
D59*
X305000Y175000D02*
D03*
X35000D02*
D03*
D60*
X284000Y76750D02*
D03*
X240669Y211581D02*
D03*
X114750Y263250D02*
D03*
X205929Y220571D02*
D03*
X217143Y214107D02*
D03*
X127750Y237250D02*
D03*
X254500Y195750D02*
D03*
X268669Y204419D02*
D03*
X174250Y58750D02*
D03*
X163750Y53250D02*
D03*
X70250Y160500D02*
D03*
X63500Y53500D02*
D03*
X73500Y65500D02*
D03*
X52500Y63500D02*
D03*
X18750Y119000D02*
D03*
X71000Y189250D02*
D03*
X65750Y208000D02*
D03*
X26000Y215750D02*
D03*
X10750Y211500D02*
D03*
X19250Y227000D02*
D03*
X66500Y255250D02*
D03*
Y271750D02*
D03*
X76500Y286500D02*
D03*
X140250Y321500D02*
D03*
X156000Y328000D02*
D03*
X192250Y323250D02*
D03*
X177500Y328500D02*
D03*
X207000Y326500D02*
D03*
X223750Y319250D02*
D03*
X276250Y261000D02*
D03*
X262250Y284750D02*
D03*
X303750Y215750D02*
D03*
X323000Y220000D02*
D03*
X325250Y138000D02*
D03*
X235500Y28750D02*
D03*
X262000Y158000D02*
D03*
X248278Y135204D02*
D03*
X239000Y152000D02*
D03*
X255729Y147271D02*
D03*
X132000Y11750D02*
D03*
X207000Y107500D02*
D03*
X193073Y100338D02*
D03*
X146342Y170842D02*
D03*
X160500Y172250D02*
D03*
X120330Y224580D02*
D03*
X203000Y288750D02*
D03*
X228215Y258711D02*
D03*
X219750Y249499D02*
D03*
X155169Y15919D02*
D03*
X128500Y73000D02*
D03*
X118750Y109000D02*
D03*
X135750Y124000D02*
D03*
Y80750D02*
D03*
X135500Y105250D02*
D03*
X119250Y18250D02*
D03*
X224000Y54755D02*
D03*
X278101Y121560D02*
D03*
X293750Y126250D02*
D03*
X115750Y203250D02*
D03*
X109850Y183685D02*
D03*
X97835Y180000D02*
D03*
X126500Y217250D02*
D03*
X133500Y261500D02*
D03*
X133250Y289500D02*
D03*
X258500Y221000D02*
D03*
X268000Y221500D02*
D03*
X221344Y263138D02*
D03*
X247750Y219500D02*
D03*
X109500Y233750D02*
D03*
X170250Y175750D02*
D03*
X183000Y183000D02*
D03*
X195750Y112000D02*
D03*
X211000Y117000D02*
D03*
X223763Y108737D02*
D03*
X62658Y103158D02*
D03*
M02*
