G04*
G04 #@! TF.GenerationSoftware,Altium Limited,Altium Designer,25.5.2 (35)*
G04*
G04 Layer_Color=65535*
%FSLAX44Y44*%
%MOMM*%
G71*
G04*
G04 #@! TF.SameCoordinates,9C3221C9-1A88-45BE-B166-6B1D47E82EC5*
G04*
G04*
G04 #@! TF.FilePolarity,Positive*
G04*
G01*
G75*
%ADD10C,0.2000*%
%ADD11C,0.2500*%
%ADD12C,0.6000*%
%ADD13C,0.5080*%
%ADD14C,0.1500*%
%ADD15C,0.1270*%
%ADD16C,0.1524*%
D10*
X171000Y275000D02*
G03*
X171000Y275000I-1000J0D01*
G01*
X142500Y202500D02*
X197500D01*
X142500Y147500D02*
X197500D01*
Y202500D01*
X142500Y147500D02*
Y202500D01*
X145000Y39000D02*
Y71000D01*
X195000Y39000D02*
Y71000D01*
X145000Y39000D02*
X195000D01*
X145000Y71000D02*
X195000D01*
X257575Y302502D02*
X300002Y260075D01*
X286390Y218533D02*
X292224Y224366D01*
X216033Y288890D02*
X232473Y272450D01*
X269950Y234973D02*
X286390Y218533D01*
X216033Y288890D02*
X221866Y294724D01*
X175837Y294998D02*
X182502D01*
Y293332D01*
X175837Y286668D01*
Y285002D01*
X182502D01*
X192498Y286668D02*
Y293332D01*
X190832Y294998D01*
X187500D01*
X185834Y293332D01*
Y286668D01*
X187500Y285002D01*
X190832D01*
X189166Y288334D02*
X192498Y285002D01*
X190832D02*
X192498Y286668D01*
X195831Y285002D02*
X199163D01*
X197497D01*
Y294998D01*
X195831Y293332D01*
X296609Y125459D02*
X294253Y113678D01*
X301322Y120747D02*
X289541Y118391D01*
X296609Y111322D02*
X303678Y118391D01*
X307213Y114856D01*
X307213Y112500D01*
X304856Y110144D01*
X302500D01*
X298966Y113678D01*
X315459Y106609D02*
X310747Y111322D01*
X307213Y107788D01*
X310747Y106609D01*
X311925Y105431D01*
Y103075D01*
X309569Y100719D01*
X307213Y100719D01*
X304856Y103075D01*
Y105431D01*
X294541Y209109D02*
X306322Y206753D01*
X299253Y213822D02*
X301609Y202041D01*
X308678Y209109D02*
X301609Y216178D01*
X305144Y219713D01*
X307500Y219713D01*
X309856Y217356D01*
Y215000D01*
X306322Y211466D01*
X309856Y222069D02*
Y224425D01*
X312213Y226781D01*
X314569Y226781D01*
X315747Y225603D01*
Y223247D01*
X314569Y222069D01*
X315747Y223247D01*
X318103Y223247D01*
X319281Y222069D01*
X319281Y219713D01*
X316925Y217356D01*
X314569D01*
X107788Y86781D02*
X105431Y75000D01*
X112500Y82069D02*
X100719Y79713D01*
X107788Y72644D02*
X114856Y79713D01*
X118391Y76178D01*
X118391Y73822D01*
X116034Y71466D01*
X113678D01*
X110144Y75000D01*
X114856Y65575D02*
X117213Y63219D01*
X116034Y64397D01*
X123103Y71466D01*
X120747D01*
X275002Y186671D02*
X281666D01*
X284998Y190003D01*
X281666Y193335D01*
X275002D01*
Y196668D02*
Y203332D01*
Y200000D01*
X284998D01*
Y213329D02*
Y206665D01*
X278334Y213329D01*
X276668D01*
X275002Y211663D01*
Y208331D01*
X276668Y206665D01*
X20144Y222356D02*
X17787D01*
X15431Y220000D01*
Y217644D01*
X16609Y216466D01*
X18966Y216466D01*
X21322Y218822D01*
X23678Y218822D01*
X24856Y217644D01*
Y215287D01*
X22500Y212931D01*
X20144D01*
X28391Y218822D02*
X30747Y221178D01*
X29569Y220000D01*
X22500Y227069D01*
Y224713D01*
X97198Y227630D02*
X90130Y234698D01*
X93664Y238233D01*
X96020D01*
X98377Y235877D01*
Y233520D01*
X94842Y229986D01*
X97198Y232342D02*
X101911D01*
X104267Y234698D02*
X106623Y237055D01*
X105445Y235877D01*
X98377Y242945D01*
Y240589D01*
X107802Y252370D02*
X103089Y247658D01*
X106623Y244123D01*
X107802Y247658D01*
X108980Y248836D01*
X111336D01*
X113692Y246480D01*
X113692Y244123D01*
X111336Y241767D01*
X108980D01*
X125144Y273075D02*
X118075Y280144D01*
X121609Y283678D01*
X123966D01*
X126322Y281322D01*
Y278966D01*
X122788Y275431D01*
X125144Y277787D02*
X129856D01*
X131034Y281322D02*
X133391D01*
X135747Y283678D01*
Y286034D01*
X131034Y290747D01*
X128678Y290747D01*
X126322Y288391D01*
Y286034D01*
X127500Y284856D01*
X129856Y284856D01*
X133391Y288391D01*
X224169Y147502D02*
Y157498D01*
X229168D01*
X230834Y155832D01*
Y152500D01*
X229168Y150834D01*
X224169D01*
X227502D02*
X230834Y147502D01*
X234166Y155832D02*
X235832Y157498D01*
X239165D01*
X240831Y155832D01*
Y154166D01*
X239165Y152500D01*
X240831Y150834D01*
Y149168D01*
X239165Y147502D01*
X235832D01*
X234166Y149168D01*
Y150834D01*
X235832Y152500D01*
X234166Y154166D01*
Y155832D01*
X235832Y152500D02*
X239165D01*
X220144Y78075D02*
X213075Y85144D01*
X216609Y88678D01*
X218966D01*
X221322Y86322D01*
Y83966D01*
X217787Y80431D01*
X220144Y82788D02*
X224856D01*
X220144Y92212D02*
X224856Y96925D01*
X226034Y95747D01*
Y86322D01*
X227213Y85144D01*
X266669Y167502D02*
Y177498D01*
X271668D01*
X273334Y175832D01*
Y172500D01*
X271668Y170834D01*
X266669D01*
X270002D02*
X273334Y167502D01*
X283331Y177498D02*
X276666D01*
Y172500D01*
X279998Y174166D01*
X281665D01*
X283331Y172500D01*
Y169168D01*
X281665Y167502D01*
X278332D01*
X276666Y169168D01*
X21322Y114253D02*
X14253Y121322D01*
X17787Y124856D01*
X20144D01*
X22500Y122500D01*
Y120144D01*
X18966Y116609D01*
X21322Y118966D02*
X26034D01*
X28391Y121322D02*
X30747Y123678D01*
X29569Y122500D01*
X22500Y129569D01*
Y127212D01*
X28395Y201053D02*
X35463Y193985D01*
X31929Y197519D01*
X36641Y202231D01*
X33107Y205766D01*
X40176Y198697D01*
X35463Y208122D02*
X42532Y201053D01*
X47245Y205766D01*
X54314Y212835D02*
X49601Y208122D01*
Y217547D01*
X48423Y218725D01*
X46067Y218725D01*
X43710Y216369D01*
Y214013D01*
X28219Y140288D02*
X35287Y133219D01*
X31753Y136753D01*
X36466Y141466D01*
X32931Y145000D01*
X40000Y137931D01*
X35287Y147356D02*
X42356Y140288D01*
X47069Y145000D01*
X49425Y147356D02*
X51781Y149712D01*
X50603Y148534D01*
X43534Y155603D01*
Y153247D01*
X144171Y124998D02*
Y115002D01*
X149169D01*
X150836Y116668D01*
Y123332D01*
X149169Y124998D01*
X144171D01*
X154168D02*
Y115002D01*
X159166D01*
X160832Y116668D01*
Y123332D01*
X159166Y124998D01*
X154168D01*
X164165Y123332D02*
X165831Y124998D01*
X169163D01*
X170829Y123332D01*
Y121666D01*
X169163Y120000D01*
X167497D01*
X169163D01*
X170829Y118334D01*
Y116668D01*
X169163Y115002D01*
X165831D01*
X164165Y116668D01*
X149171Y17498D02*
Y7502D01*
X154169D01*
X155836Y9168D01*
Y15832D01*
X154169Y17498D01*
X149171D01*
X159168D02*
Y7502D01*
X164166D01*
X165832Y9168D01*
Y15832D01*
X164166Y17498D01*
X159168D01*
X175829Y7502D02*
X169165D01*
X175829Y14166D01*
Y15832D01*
X174163Y17498D01*
X170831D01*
X169165Y15832D01*
X256753Y146322D02*
X263822Y139253D01*
X267356Y142788D01*
Y145144D01*
X262644Y149856D01*
X260287D01*
X256753Y146322D01*
X270891D02*
X273247Y148678D01*
X272069Y147500D01*
X265000Y154569D01*
Y152212D01*
X137931Y302644D02*
X135575D01*
X133219Y300287D01*
Y297931D01*
X137931Y293219D01*
X140288D01*
X142644Y295575D01*
Y297931D01*
X150891Y303822D02*
X146178Y299109D01*
Y308534D01*
X145000Y309713D01*
X142644Y309713D01*
X140288Y307356D01*
Y305000D01*
X157959Y310891D02*
X153247Y306178D01*
Y315603D01*
X152069Y316781D01*
X149712Y316781D01*
X147356Y314425D01*
Y312069D01*
X119168Y252502D02*
X117502Y250835D01*
Y247503D01*
X119168Y245837D01*
X125832D01*
X127498Y247503D01*
Y250835D01*
X125832Y252502D01*
X127498Y262498D02*
Y255834D01*
X120834Y262498D01*
X119168D01*
X117502Y260832D01*
Y257500D01*
X119168Y255834D01*
X127498Y265831D02*
Y269163D01*
Y267497D01*
X117502D01*
X119168Y265831D01*
X119168Y215835D02*
X117502Y214169D01*
Y210837D01*
X119168Y209171D01*
X125832D01*
X127498Y210837D01*
Y214169D01*
X125832Y215835D01*
X127498Y225832D02*
Y219168D01*
X120834Y225832D01*
X119168D01*
X117502Y224166D01*
Y220834D01*
X119168Y219168D01*
Y229165D02*
X117502Y230831D01*
Y234163D01*
X119168Y235829D01*
X125832D01*
X127498Y234163D01*
Y230831D01*
X125832Y229165D01*
X119168D01*
X211669Y238332D02*
X210002Y239998D01*
X206670D01*
X205004Y238332D01*
Y231668D01*
X206670Y230002D01*
X210002D01*
X211669Y231668D01*
X215001Y230002D02*
X218333D01*
X216667D01*
Y239998D01*
X215001Y238332D01*
X223332Y231668D02*
X224998Y230002D01*
X228330D01*
X229996Y231668D01*
Y238332D01*
X228330Y239998D01*
X224998D01*
X223332Y238332D01*
Y236666D01*
X224998Y235000D01*
X229996D01*
X149169Y285832D02*
X147502Y287498D01*
X144170D01*
X142504Y285832D01*
Y279168D01*
X144170Y277502D01*
X147502D01*
X149169Y279168D01*
X152501Y277502D02*
X155833D01*
X154167D01*
Y287498D01*
X152501Y285832D01*
X160832D02*
X162498Y287498D01*
X165830D01*
X167496Y285832D01*
Y284166D01*
X165830Y282500D01*
X167496Y280834D01*
Y279168D01*
X165830Y277502D01*
X162498D01*
X160832Y279168D01*
Y280834D01*
X162498Y282500D01*
X160832Y284166D01*
Y285832D01*
X162498Y282500D02*
X165830D01*
X226668Y223332D02*
X225002Y224998D01*
X221670D01*
X220004Y223332D01*
Y216668D01*
X221670Y215002D01*
X225002D01*
X226668Y216668D01*
X230001Y215002D02*
X233333D01*
X231667D01*
Y224998D01*
X230001Y223332D01*
X238332Y224998D02*
X244996D01*
Y223332D01*
X238332Y216668D01*
Y215002D01*
X214168Y120832D02*
X212502Y122498D01*
X209170D01*
X207504Y120832D01*
Y114168D01*
X209170Y112502D01*
X212502D01*
X214168Y114168D01*
X217501Y112502D02*
X220833D01*
X219167D01*
Y122498D01*
X217501Y120832D01*
X232496Y122498D02*
X229164Y120832D01*
X225832Y117500D01*
Y114168D01*
X227498Y112502D01*
X230830D01*
X232496Y114168D01*
Y115834D01*
X230830Y117500D01*
X225832D01*
X118332Y113331D02*
X119998Y114998D01*
Y118330D01*
X118332Y119996D01*
X111668D01*
X110002Y118330D01*
Y114998D01*
X111668Y113331D01*
X110002Y109999D02*
Y106667D01*
Y108333D01*
X119998D01*
X118332Y109999D01*
X119998Y95004D02*
Y101669D01*
X115000D01*
X116666Y98336D01*
Y96670D01*
X115000Y95004D01*
X111668D01*
X110002Y96670D01*
Y100002D01*
X111668Y101669D01*
X91669Y173332D02*
X90002Y174998D01*
X86670D01*
X85004Y173332D01*
Y166668D01*
X86670Y165002D01*
X90002D01*
X91669Y166668D01*
X95001Y165002D02*
X98333D01*
X96667D01*
Y174998D01*
X95001Y173332D01*
X108330Y165002D02*
Y174998D01*
X103331Y170000D01*
X109996D01*
X207500Y50832D02*
X205834Y52498D01*
X202502D01*
X200835Y50832D01*
Y44168D01*
X202502Y42502D01*
X205834D01*
X207500Y44168D01*
X210832Y42502D02*
X214165D01*
X212498D01*
Y52498D01*
X210832Y50832D01*
D11*
X205750Y215500D02*
G03*
X205750Y215500I-1250J0D01*
G01*
X198800Y82250D02*
G03*
X198800Y82250I-1250J0D01*
G01*
X256527Y231261D02*
G03*
X256527Y231261I-1250J0D01*
G01*
D12*
X190500Y192500D02*
G03*
X190500Y192500I-3000J0D01*
G01*
X188000Y61000D02*
G03*
X188000Y61000I-3000J0D01*
G01*
D13*
X236939Y81797D02*
G03*
X233403Y78261I-1768J-1768D01*
G01*
D02*
G03*
X236939Y81797I1768J1768D01*
G01*
X79297Y105561D02*
G03*
X75761Y109097I-1768J1768D01*
G01*
D02*
G03*
X79297Y105561I1768J-1768D01*
G01*
D14*
X220250Y165000D02*
Y175000D01*
X234750Y165000D02*
Y175000D01*
X247500Y165250D02*
X257500D01*
X247500Y179750D02*
X257500D01*
X270031Y195750D02*
Y206530D01*
X239966Y196250D02*
Y206530D01*
X262750D02*
X270031D01*
X239966D02*
X247250D01*
X253000Y193750D02*
X257000D01*
X185000Y227250D02*
X195000D01*
X185000Y242750D02*
X195000D01*
X190000Y230500D02*
Y239500D01*
X155000Y257250D02*
X165000D01*
X155000Y272750D02*
X165000D01*
X160000Y260500D02*
Y269500D01*
X140000Y242250D02*
X150000D01*
X140000Y257750D02*
X150000D01*
X145000Y245500D02*
Y254500D01*
X140000Y224750D02*
X150000D01*
X140000Y240250D02*
X150000D01*
X145000Y228000D02*
Y237000D01*
X122750Y132500D02*
Y142500D01*
X107250Y132500D02*
Y142500D01*
X110500Y137500D02*
X119500D01*
X89000Y135000D02*
X95000D01*
X85750Y127250D02*
Y142750D01*
X95000Y135000D02*
X101000D01*
X104250Y127250D02*
Y142750D01*
X215000D02*
X225000D01*
X215000Y127250D02*
X225000D01*
X220000Y130500D02*
Y139500D01*
X235250Y192500D02*
Y202500D01*
X219750Y192500D02*
Y202500D01*
X223000Y197500D02*
X232000D01*
X115984Y313055D02*
X123055Y305984D01*
X126945Y324016D02*
X134016Y316945D01*
X121818Y311818D02*
X128182Y318182D01*
X106338Y294091D02*
X113409Y301162D01*
X116591Y283838D02*
X123662Y290909D01*
X270123Y111366D02*
X277746Y118989D01*
X249217Y132979D02*
X256486Y140248D01*
X272598Y124137D02*
X277746Y118989D01*
X256486Y140248D02*
X261637Y135098D01*
X256666Y121995D02*
X259495Y119166D01*
X231338Y104091D02*
X238409Y111162D01*
X241591Y93838D02*
X248662Y100909D01*
X202500Y37750D02*
X212500D01*
X202500Y22250D02*
X212500D01*
X207500Y25500D02*
Y34500D01*
X50933Y226136D02*
X55529Y230732D01*
X50933Y226136D02*
X55529Y221540D01*
X60656Y235859D02*
X69141Y244344D01*
X75859Y220656D02*
X84344Y229141D01*
X66136Y210933D02*
X70732Y215529D01*
X61540D02*
X66136Y210933D01*
X86338Y259091D02*
X93409Y266162D01*
X96591Y248838D02*
X103662Y255909D01*
X35933Y128636D02*
X40529Y133232D01*
X35933Y128636D02*
X40529Y124040D01*
X45656Y138359D02*
X54141Y146844D01*
X60859Y123156D02*
X69344Y131641D01*
X51136Y113433D02*
X55732Y118029D01*
X46540D02*
X51136Y113433D01*
X34091Y101338D02*
X41162Y108409D01*
X23838Y111591D02*
X30909Y118662D01*
X76339Y306088D02*
X101088Y281339D01*
X33912Y263661D02*
X76339Y306088D01*
X33912Y263661D02*
X58661Y238912D01*
X101088Y281339D01*
X72803Y288410D02*
X83410Y277803D01*
X51590Y267197D02*
X72803Y288410D01*
X51590Y267197D02*
X62197Y256590D01*
X83410Y277803D01*
D15*
X176750Y263200D02*
Y264800D01*
X201750Y263200D02*
Y264800D01*
D16*
X225472Y60991D02*
X243612Y79131D01*
X281509Y117028D02*
X287616Y110921D01*
X269296Y48778D02*
X293722Y73204D01*
X225472Y60991D02*
X231579Y54884D01*
X263369Y98888D02*
X281509Y117028D01*
X58491D02*
X76631Y98888D01*
X108421Y54884D02*
X114528Y60991D01*
X46278Y73204D02*
X70704Y48778D01*
X52384Y110921D02*
X58491Y117028D01*
X96388Y79131D02*
X114528Y60991D01*
M02*
