G04*
G04 #@! TF.GenerationSoftware,Altium Limited,Altium Designer,25.5.2 (35)*
G04*
G04 Layer_Physical_Order=2*
G04 Layer_Color=16711680*
%FSLAX44Y44*%
%MOMM*%
G71*
G04*
G04 #@! TF.SameCoordinates,A0676495-952E-4FD9-879E-B128CC3C9C2D*
G04*
G04*
G04 #@! TF.FilePolarity,Positive*
G04*
G01*
G75*
%ADD11C,0.2500*%
G04:AMPARAMS|DCode=18|XSize=0.95mm|YSize=0.8mm|CornerRadius=0mm|HoleSize=0mm|Usage=FLASHONLY|Rotation=315.000|XOffset=0mm|YOffset=0mm|HoleType=Round|Shape=Rectangle|*
%AMROTATEDRECTD18*
4,1,4,-0.6187,0.0530,-0.0530,0.6187,0.6187,-0.0530,0.0530,-0.6187,-0.6187,0.0530,0.0*
%
%ADD18ROTATEDRECTD18*%

G04:AMPARAMS|DCode=21|XSize=2.2098mm|YSize=3.0988mm|CornerRadius=0mm|HoleSize=0mm|Usage=FLASHONLY|Rotation=135.000|XOffset=0mm|YOffset=0mm|HoleType=Round|Shape=Rectangle|*
%AMROTATEDRECTD21*
4,1,4,1.8769,0.3143,-0.3143,-1.8769,-1.8769,-0.3143,0.3143,1.8769,1.8769,0.3143,0.0*
%
%ADD21ROTATEDRECTD21*%

G04:AMPARAMS|DCode=22|XSize=2.2098mm|YSize=3.0988mm|CornerRadius=0mm|HoleSize=0mm|Usage=FLASHONLY|Rotation=225.000|XOffset=0mm|YOffset=0mm|HoleType=Round|Shape=Rectangle|*
%AMROTATEDRECTD22*
4,1,4,-0.3143,1.8769,1.8769,-0.3143,0.3143,-1.8769,-1.8769,0.3143,-0.3143,1.8769,0.0*
%
%ADD22ROTATEDRECTD22*%

%ADD25R,0.9000X1.0500*%
G04:AMPARAMS|DCode=28|XSize=1.05mm|YSize=0.9mm|CornerRadius=0mm|HoleSize=0mm|Usage=FLASHONLY|Rotation=45.000|XOffset=0mm|YOffset=0mm|HoleType=Round|Shape=Rectangle|*
%AMROTATEDRECTD28*
4,1,4,-0.0530,-0.6894,-0.6894,-0.0530,0.0530,0.6894,0.6894,0.0530,-0.0530,-0.6894,0.0*
%
%ADD28ROTATEDRECTD28*%

%ADD35R,0.9500X0.8000*%
%ADD60C,0.4500*%
%ADD61C,3.3000*%
%ADD62C,0.6000*%
%ADD63R,0.9542X2.7062*%
%ADD64R,0.9000X0.6450*%
G04:AMPARAMS|DCode=65|XSize=1.32mm|YSize=0.59mm|CornerRadius=0mm|HoleSize=0mm|Usage=FLASHONLY|Rotation=45.000|XOffset=0mm|YOffset=0mm|HoleType=Round|Shape=Rectangle|*
%AMROTATEDRECTD65*
4,1,4,-0.2581,-0.6753,-0.6753,-0.2581,0.2581,0.6753,0.6753,0.2581,-0.2581,-0.6753,0.0*
%
%ADD65ROTATEDRECTD65*%

G04:AMPARAMS|DCode=66|XSize=1.05mm|YSize=0.9mm|CornerRadius=0mm|HoleSize=0mm|Usage=FLASHONLY|Rotation=315.000|XOffset=0mm|YOffset=0mm|HoleType=Round|Shape=Rectangle|*
%AMROTATEDRECTD66*
4,1,4,-0.6894,0.0530,-0.0530,0.6894,0.6894,-0.0530,0.0530,-0.6894,-0.6894,0.0530,0.0*
%
%ADD66ROTATEDRECTD66*%

G04:AMPARAMS|DCode=67|XSize=0.45mm|YSize=1.3mm|CornerRadius=0mm|HoleSize=0mm|Usage=FLASHONLY|Rotation=315.000|XOffset=0mm|YOffset=0mm|HoleType=Round|Shape=Round|*
%AMOVALD67*
21,1,0.8500,0.4500,0.0000,0.0000,45.0*
1,1,0.4500,-0.3005,-0.3005*
1,1,0.4500,0.3005,0.3005*
%
%ADD67OVALD67*%

G04:AMPARAMS|DCode=68|XSize=0.8128mm|YSize=1.7018mm|CornerRadius=0mm|HoleSize=0mm|Usage=FLASHONLY|Rotation=135.000|XOffset=0mm|YOffset=0mm|HoleType=Round|Shape=Rectangle|*
%AMROTATEDRECTD68*
4,1,4,0.8891,0.3143,-0.3143,-0.8891,-0.8891,-0.3143,0.3143,0.8891,0.8891,0.3143,0.0*
%
%ADD68ROTATEDRECTD68*%

G04:AMPARAMS|DCode=69|XSize=0.8128mm|YSize=1.7018mm|CornerRadius=0mm|HoleSize=0mm|Usage=FLASHONLY|Rotation=225.000|XOffset=0mm|YOffset=0mm|HoleType=Round|Shape=Rectangle|*
%AMROTATEDRECTD69*
4,1,4,-0.3143,0.8891,0.8891,-0.3143,0.3143,-0.8891,-0.8891,0.3143,-0.3143,0.8891,0.0*
%
%ADD69ROTATEDRECTD69*%

%ADD70R,0.5900X1.3200*%
%ADD71R,0.3556X1.4732*%
%ADD72R,2.4130X3.4290*%
%ADD73P,1.0776X4X180.0*%
G04:AMPARAMS|DCode=74|XSize=1.11mm|YSize=1.73mm|CornerRadius=0mm|HoleSize=0mm|Usage=FLASHONLY|Rotation=45.000|XOffset=0mm|YOffset=0mm|HoleType=Round|Shape=Rectangle|*
%AMROTATEDRECTD74*
4,1,4,0.2192,-1.0041,-1.0041,0.2192,-0.2192,1.0041,1.0041,-0.2192,0.2192,-1.0041,0.0*
%
%ADD74ROTATEDRECTD74*%

G36*
X190011Y306070D02*
X190086Y304946D01*
X190130Y304671D01*
X190185Y304445D01*
X190250Y304270D01*
X190324Y304146D01*
X190409Y304070D01*
X190504Y304046D01*
X187008D01*
X187103Y304070D01*
X187188Y304146D01*
X187262Y304270D01*
X187327Y304445D01*
X187382Y304671D01*
X187426Y304946D01*
X187461Y305271D01*
X187501Y306070D01*
X187506Y306546D01*
X190006D01*
X190011Y306070D01*
D02*
G37*
G36*
X183407D02*
X183482Y304946D01*
X183526Y304671D01*
X183581Y304445D01*
X183646Y304270D01*
X183720Y304146D01*
X183805Y304070D01*
X183899Y304046D01*
X180404D01*
X180499Y304070D01*
X180584Y304146D01*
X180658Y304270D01*
X180723Y304445D01*
X180778Y304671D01*
X180822Y304946D01*
X180857Y305271D01*
X180897Y306070D01*
X180902Y306546D01*
X183402D01*
X183407Y306070D01*
D02*
G37*
G36*
X135375Y287355D02*
X135244Y287157D01*
X135128Y286945D01*
X135028Y286721D01*
X134943Y286484D01*
X134873Y286233D01*
X134819Y285970D01*
X134781Y285694D01*
X134758Y285404D01*
X134750Y285102D01*
X132250Y284872D01*
X132241Y285176D01*
X132213Y285464D01*
X132168Y285736D01*
X132104Y285992D01*
X132022Y286232D01*
X131921Y286455D01*
X131802Y286663D01*
X131665Y286855D01*
X131510Y287031D01*
X131336Y287190D01*
X135521Y287540D01*
X135375Y287355D01*
D02*
G37*
G36*
X134759Y265724D02*
X134784Y265435D01*
X134826Y265161D01*
X134886Y264901D01*
X134963Y264655D01*
X135056Y264424D01*
X135167Y264207D01*
X135294Y264004D01*
X135438Y263816D01*
X135600Y263642D01*
X131400D01*
X131561Y263816D01*
X131706Y264004D01*
X131833Y264207D01*
X131944Y264424D01*
X132037Y264655D01*
X132114Y264901D01*
X132174Y265161D01*
X132216Y265435D01*
X132241Y265724D01*
X132250Y266027D01*
X134750D01*
X134759Y265724D01*
D02*
G37*
G36*
X178542Y307576D02*
X178123Y306076D01*
X176802D01*
Y296710D01*
Y287344D01*
X194360D01*
Y296710D01*
Y306076D01*
X193146D01*
X192524Y307576D01*
X193885Y308936D01*
X209128D01*
X212436Y305627D01*
Y288750D01*
X212689Y287482D01*
X213407Y286407D01*
X232907Y266907D01*
X233982Y266189D01*
X235250Y265936D01*
X237723D01*
X238297Y264551D01*
X234433Y260686D01*
X232663Y261038D01*
X232454Y261544D01*
X231047Y262950D01*
X229210Y263711D01*
X227221D01*
X226047Y264849D01*
X225583Y265970D01*
X224176Y267377D01*
X222338Y268138D01*
X222215D01*
X222158Y268421D01*
X221440Y269496D01*
X214843Y276093D01*
X213768Y276811D01*
X212500Y277064D01*
X173440D01*
X164546Y285958D01*
X165120Y287344D01*
X168198D01*
Y296710D01*
Y306076D01*
X163848D01*
Y296710D01*
X161848D01*
Y306076D01*
X145862D01*
Y287344D01*
X147396D01*
X147825Y286703D01*
X167621Y266907D01*
X168696Y266189D01*
X169964Y265936D01*
X202377D01*
X210315Y257999D01*
X209359Y256834D01*
X209018Y257061D01*
X207750Y257314D01*
X168250D01*
X166982Y257061D01*
X165907Y256343D01*
X160877Y251313D01*
X159624Y251481D01*
X159493Y251517D01*
X159198Y251685D01*
X158587Y252599D01*
X153593Y257593D01*
X152518Y258311D01*
X151250Y258564D01*
X139319D01*
X138317Y260064D01*
X138500Y260505D01*
Y262495D01*
X137739Y264332D01*
X137179Y264892D01*
X137094Y265030D01*
X136997Y265134D01*
X136969Y265171D01*
X136941Y265215D01*
X136913Y265270D01*
X136884Y265342D01*
X136856Y265432D01*
X136831Y265545D01*
X136814Y265654D01*
Y285506D01*
X136830Y285624D01*
X136857Y285756D01*
X136888Y285867D01*
X136921Y285961D01*
X136956Y286038D01*
X136991Y286103D01*
X137028Y286158D01*
X137121Y286275D01*
X137146Y286325D01*
X137489Y286668D01*
X138250Y288505D01*
Y290495D01*
X137489Y292332D01*
X136082Y293739D01*
X134245Y294500D01*
X132255D01*
X130513Y293778D01*
X129960Y293931D01*
X129064Y294506D01*
Y304128D01*
X134123Y309186D01*
X176931D01*
X178542Y307576D01*
D02*
G37*
G36*
X131756Y259059D02*
X131562Y259186D01*
X131357Y259300D01*
X131140Y259400D01*
X130910Y259487D01*
X130669Y259561D01*
X130415Y259621D01*
X130149Y259668D01*
X129871Y259701D01*
X129279Y259728D01*
X128790Y262228D01*
X129095Y262238D01*
X129382Y262267D01*
X129651Y262315D01*
X129902Y262383D01*
X130135Y262470D01*
X130349Y262576D01*
X130546Y262702D01*
X130723Y262847D01*
X130883Y263011D01*
X131025Y263195D01*
X131756Y259059D01*
D02*
G37*
G36*
X227516Y255794D02*
X227291Y255834D01*
X227066Y255846D01*
X226841Y255831D01*
X226616Y255788D01*
X226391Y255717D01*
X226167Y255618D01*
X225943Y255492D01*
X225719Y255338D01*
X225495Y255156D01*
X225271Y254947D01*
X223955Y257166D01*
X224164Y257384D01*
X224532Y257820D01*
X224691Y258039D01*
X224832Y258257D01*
X224957Y258476D01*
X225064Y258695D01*
X225154Y258913D01*
X225228Y259132D01*
X225284Y259352D01*
X227516Y255794D01*
D02*
G37*
G36*
X255609Y253841D02*
X255282Y253496D01*
X255008Y253169D01*
X254787Y252860D01*
X254619Y252568D01*
X254504Y252294D01*
X254442Y252038D01*
X254433Y251799D01*
X254478Y251579D01*
X254575Y251375D01*
X254725Y251190D01*
X251190Y254725D01*
X251375Y254575D01*
X251579Y254478D01*
X251799Y254433D01*
X252038Y254442D01*
X252294Y254504D01*
X252568Y254619D01*
X252860Y254787D01*
X253169Y255008D01*
X253496Y255282D01*
X253841Y255609D01*
X255609Y253841D01*
D02*
G37*
G36*
X128250Y289871D02*
Y288505D01*
X129011Y286668D01*
X129863Y285816D01*
X129956Y285688D01*
X130052Y285600D01*
X130068Y285582D01*
X130083Y285561D01*
X130102Y285529D01*
X130123Y285481D01*
X130147Y285413D01*
X130170Y285319D01*
X130186Y285222D01*
Y265654D01*
X130169Y265545D01*
X130144Y265432D01*
X130115Y265342D01*
X130087Y265270D01*
X130058Y265215D01*
X130031Y265171D01*
X130002Y265134D01*
X129906Y265030D01*
X129820Y264892D01*
X129261Y264332D01*
X129256Y264321D01*
X129205Y264307D01*
X129121Y264292D01*
X126750D01*
X125482Y264039D01*
X124407Y263321D01*
X114700Y253614D01*
X112609Y253645D01*
X106872Y259382D01*
X102584Y255094D01*
X101170Y256508D01*
X105457Y260796D01*
X100067Y266186D01*
X100688Y267686D01*
X102572D01*
X103840Y267939D01*
X104915Y268657D01*
X126750Y290492D01*
X128250Y289871D01*
D02*
G37*
G36*
X88811Y254725D02*
X85275Y251190D01*
X85425Y251375D01*
X85522Y251579D01*
X85567Y251799D01*
X85558Y252038D01*
X85496Y252294D01*
X85381Y252568D01*
X85213Y252860D01*
X84992Y253169D01*
X84718Y253496D01*
X84391Y253841D01*
X86159Y255609D01*
X88811Y254725D01*
D02*
G37*
G36*
X217287Y247786D02*
X217144Y247969D01*
X216983Y248133D01*
X216804Y248278D01*
X216607Y248403D01*
X216391Y248509D01*
X216158Y248596D01*
X215907Y248663D01*
X215638Y248711D01*
X215350Y248740D01*
X215045Y248750D01*
X215514Y251250D01*
X215816Y251257D01*
X216384Y251311D01*
X216650Y251358D01*
X216903Y251419D01*
X217145Y251494D01*
X217374Y251582D01*
X217591Y251683D01*
X217796Y251798D01*
X217989Y251927D01*
X217287Y247786D01*
D02*
G37*
G36*
X234599Y247377D02*
X234410Y247524D01*
X234203Y247617D01*
X233978Y247658D01*
X233737Y247647D01*
X233478Y247582D01*
X233202Y247465D01*
X232909Y247296D01*
X232599Y247074D01*
X232271Y246799D01*
X231926Y246472D01*
X230158Y248240D01*
X230486Y248585D01*
X230760Y248912D01*
X230982Y249223D01*
X231152Y249516D01*
X231269Y249792D01*
X231333Y250051D01*
X231345Y250292D01*
X231304Y250516D01*
X231210Y250723D01*
X231064Y250913D01*
X234599Y247377D01*
D02*
G37*
G36*
X230686Y245231D02*
X230358Y244887D01*
X230084Y244559D01*
X229862Y244248D01*
X229692Y243955D01*
X229575Y243679D01*
X229511Y243421D01*
X229499Y243179D01*
X229540Y242955D01*
X229634Y242748D01*
X229780Y242558D01*
X226245Y246094D01*
X226434Y245948D01*
X226641Y245854D01*
X226866Y245813D01*
X227107Y245825D01*
X227366Y245889D01*
X227642Y246006D01*
X227935Y246175D01*
X228245Y246397D01*
X228573Y246672D01*
X228918Y246999D01*
X230686Y245231D01*
D02*
G37*
G36*
X164103Y247651D02*
X164178Y246525D01*
X164222Y246250D01*
X164277Y246026D01*
X164342Y245851D01*
X164416Y245725D01*
X164501Y245651D01*
X164596Y245625D01*
X161101D01*
X161195Y245651D01*
X161280Y245725D01*
X161354Y245851D01*
X161419Y246026D01*
X161474Y246250D01*
X161518Y246525D01*
X161553Y246850D01*
X161593Y247651D01*
X161598Y248125D01*
X164098D01*
X164103Y247651D01*
D02*
G37*
G36*
X157499D02*
X157574Y246525D01*
X157618Y246250D01*
X157673Y246026D01*
X157738Y245851D01*
X157812Y245725D01*
X157897Y245651D01*
X157992Y245625D01*
X154496D01*
X154591Y245651D01*
X154676Y245725D01*
X154750Y245851D01*
X154815Y246026D01*
X154870Y246250D01*
X154914Y246525D01*
X154949Y246850D01*
X154989Y247651D01*
X154994Y248125D01*
X157494D01*
X157499Y247651D01*
D02*
G37*
G36*
X150895D02*
X150970Y246525D01*
X151014Y246250D01*
X151069Y246026D01*
X151134Y245851D01*
X151208Y245725D01*
X151293Y245651D01*
X151388Y245625D01*
X147893D01*
X147987Y245651D01*
X148072Y245725D01*
X148146Y245851D01*
X148211Y246026D01*
X148266Y246250D01*
X148310Y246525D01*
X148345Y246850D01*
X148385Y247651D01*
X148390Y248125D01*
X150890D01*
X150895Y247651D01*
D02*
G37*
G36*
X209407Y247657D02*
X210482Y246939D01*
X211750Y246686D01*
X215378D01*
X215462Y246671D01*
X215523Y246655D01*
X216918Y245260D01*
X216615Y243762D01*
X216330Y243440D01*
X199138D01*
Y247656D01*
X168552D01*
X167978Y249042D01*
X169623Y250686D01*
X206378D01*
X209407Y247657D01*
D02*
G37*
G36*
X220014Y237648D02*
X219747Y237882D01*
X219456Y238090D01*
X219140Y238275D01*
X218800Y238434D01*
X218435Y238569D01*
X218045Y238680D01*
X217631Y238766D01*
X217193Y238827D01*
X216730Y238864D01*
X216242Y238876D01*
Y241376D01*
X216730Y241389D01*
X217193Y241426D01*
X217631Y241487D01*
X218045Y241573D01*
X218435Y241684D01*
X218800Y241819D01*
X219140Y241978D01*
X219456Y242163D01*
X219747Y242372D01*
X220014Y242605D01*
Y237648D01*
D02*
G37*
G36*
X197108Y242389D02*
X197188Y242176D01*
X197318Y241989D01*
X197497Y241826D01*
X197725Y241689D01*
X198003Y241576D01*
X198330Y241489D01*
X198706Y241427D01*
X199132Y241389D01*
X199608Y241376D01*
Y238876D01*
X199132Y238864D01*
X198706Y238827D01*
X198330Y238764D01*
X198003Y238676D01*
X197725Y238564D01*
X197497Y238426D01*
X197318Y238264D01*
X197188Y238076D01*
X197108Y237864D01*
X197077Y237626D01*
Y242626D01*
X197108Y242389D01*
D02*
G37*
G36*
X111420Y237855D02*
X111422Y237515D01*
X111515Y236137D01*
X111544Y236019D01*
X111577Y235933D01*
X111614Y235878D01*
X108523Y236586D01*
X108598Y236625D01*
X108666Y236688D01*
X108725Y236774D01*
X108777Y236884D01*
X108820Y237017D01*
X108856Y237173D01*
X108884Y237353D01*
X108904Y237556D01*
X108920Y238034D01*
X111420Y237855D01*
D02*
G37*
G36*
X83136Y233525D02*
X82947Y233671D01*
X82740Y233765D01*
X82515Y233806D01*
X82274Y233794D01*
X82015Y233730D01*
X81739Y233613D01*
X81446Y233443D01*
X81136Y233221D01*
X80808Y232947D01*
X80463Y232619D01*
X78695Y234387D01*
X79023Y234732D01*
X79297Y235060D01*
X79519Y235370D01*
X79689Y235664D01*
X79806Y235939D01*
X79870Y236198D01*
X79882Y236440D01*
X79840Y236664D01*
X79747Y236871D01*
X79601Y237060D01*
X83136Y233525D01*
D02*
G37*
G36*
X186672Y337984D02*
X197542Y336553D01*
X208295Y334414D01*
X218885Y331577D01*
X229266Y328052D01*
X239395Y323857D01*
X249228Y319008D01*
X258723Y313526D01*
X267839Y307435D01*
X276537Y300761D01*
X284780Y293532D01*
X292532Y285780D01*
X299761Y277537D01*
X306435Y268839D01*
X312526Y259723D01*
X318008Y250228D01*
X322857Y240395D01*
X327052Y230266D01*
X330577Y219885D01*
X333414Y209294D01*
X335553Y198541D01*
X336984Y187672D01*
X337065Y186434D01*
X335585Y186089D01*
X334211Y189405D01*
X332081Y193095D01*
X329487Y196475D01*
X326475Y199487D01*
X323095Y202081D01*
X319405Y204211D01*
X315469Y205841D01*
X311354Y206944D01*
X307130Y207500D01*
X302870D01*
X298646Y206944D01*
X294531Y205841D01*
X290595Y204211D01*
X286905Y202081D01*
X283525Y199487D01*
X280513Y196475D01*
X277919Y193095D01*
X275789Y189405D01*
X274159Y185469D01*
X273056Y181354D01*
X272500Y177130D01*
Y172870D01*
X273056Y168646D01*
X274159Y164531D01*
X275789Y160595D01*
X277919Y156905D01*
X280513Y153525D01*
X283525Y150513D01*
X286905Y147919D01*
X290595Y145789D01*
X294531Y144159D01*
X298646Y143056D01*
X302870Y142500D01*
X307130D01*
X311354Y143056D01*
X315469Y144159D01*
X319405Y145789D01*
X323095Y147919D01*
X326475Y150513D01*
X329487Y153525D01*
X332081Y156905D01*
X334211Y160595D01*
X335841Y164531D01*
X336201Y165874D01*
X337701Y165768D01*
X336984Y154828D01*
X335553Y143958D01*
X333414Y133205D01*
X330577Y122615D01*
X327052Y112234D01*
X326908Y111886D01*
X325197Y111673D01*
X320718Y116152D01*
X320705Y116174D01*
X320535Y116362D01*
X320441Y116489D01*
X320352Y116638D01*
X320268Y116812D01*
X320191Y117015D01*
X320122Y117253D01*
X320064Y117525D01*
X320020Y117833D01*
X320006Y118004D01*
Y129558D01*
X319754Y130826D01*
X319035Y131901D01*
X311593Y139343D01*
X310518Y140061D01*
X309250Y140314D01*
X295661D01*
X294393Y140061D01*
X293318Y139343D01*
X285458Y131483D01*
X284302Y131658D01*
X283843Y131915D01*
X283739Y132435D01*
X283021Y133510D01*
X279799Y136732D01*
X278724Y137451D01*
X277456Y137703D01*
X272899D01*
X272032Y137530D01*
X271749Y137586D01*
X270514Y138014D01*
X270086Y139249D01*
X270030Y139532D01*
X270203Y140400D01*
Y144956D01*
X269951Y146224D01*
X269232Y147299D01*
X266010Y150521D01*
X264935Y151239D01*
X263667Y151491D01*
X259098D01*
X258941Y151502D01*
X258803Y151520D01*
X258452Y151590D01*
X258353Y151617D01*
X258249Y151653D01*
X258163Y151688D01*
X258031Y151753D01*
X257876Y151794D01*
X256724Y152271D01*
X254735D01*
X252897Y151510D01*
X251490Y150103D01*
X250729Y148265D01*
Y146276D01*
X251490Y144438D01*
X252897Y143032D01*
X253319Y142857D01*
X253671Y141088D01*
X252315Y139731D01*
X252193Y139550D01*
X251110Y139443D01*
X249272Y140204D01*
X247283D01*
X245446Y139443D01*
X244886Y138884D01*
X244748Y138798D01*
X244644Y138702D01*
X244607Y138673D01*
X244563Y138646D01*
X244508Y138618D01*
X244436Y138589D01*
X244345Y138560D01*
X244233Y138535D01*
X244124Y138518D01*
X239580D01*
X235814Y142284D01*
Y146284D01*
X237314Y147287D01*
X238005Y147000D01*
X239995D01*
X241832Y147761D01*
X243239Y149168D01*
X244000Y151005D01*
Y152995D01*
X243239Y154832D01*
X242680Y155392D01*
X242594Y155530D01*
X242498Y155634D01*
X242469Y155671D01*
X242442Y155715D01*
X242413Y155770D01*
X242384Y155842D01*
X242356Y155932D01*
X242330Y156045D01*
X242314Y156154D01*
Y157627D01*
X250093Y165407D01*
X250811Y166482D01*
X251064Y167750D01*
Y199877D01*
X267406Y216220D01*
X267495Y216285D01*
X267593Y216346D01*
X267677Y216390D01*
X267747Y216420D01*
X267807Y216440D01*
X267857Y216451D01*
X267903Y216457D01*
X268045Y216462D01*
X268204Y216500D01*
X268995D01*
X270832Y217261D01*
X272239Y218668D01*
X273000Y220505D01*
Y222495D01*
X272239Y224332D01*
X270832Y225739D01*
X268995Y226500D01*
X267005D01*
X265168Y225739D01*
X263980Y224551D01*
X263614Y224339D01*
X262167Y224404D01*
X261332Y225239D01*
X259495Y226000D01*
X257505D01*
X255668Y225239D01*
X254261Y223832D01*
X253626Y222299D01*
X252515Y222101D01*
X252064Y222150D01*
X251989Y222332D01*
X250582Y223739D01*
X248745Y224500D01*
X246755D01*
X244918Y223739D01*
X243511Y222332D01*
X243348Y221938D01*
X239565D01*
X238944Y223438D01*
X239546Y224040D01*
X235657Y227929D01*
X231237Y223510D01*
X234095Y220652D01*
X235126Y219620D01*
X234107Y218543D01*
X230407Y214843D01*
X229689Y213768D01*
X229436Y212500D01*
Y208460D01*
X228050Y207886D01*
X222423Y213513D01*
X222358Y213602D01*
X222296Y213700D01*
X222252Y213784D01*
X222222Y213855D01*
X222203Y213914D01*
X222192Y213964D01*
X222186Y214011D01*
X222180Y214152D01*
X222143Y214311D01*
Y215102D01*
X221382Y216940D01*
X219975Y218346D01*
X218137Y219107D01*
X216148D01*
X215493Y219545D01*
Y223160D01*
X215240Y224428D01*
X214522Y225503D01*
X209182Y230843D01*
X208107Y231561D01*
X206839Y231814D01*
X200935D01*
X199939Y232809D01*
X199829Y232938D01*
X199639Y233190D01*
X199484Y233426D01*
X199362Y233646D01*
X199268Y233849D01*
X199202Y234033D01*
Y236813D01*
X216802D01*
X216971Y236800D01*
X217282Y236756D01*
X217559Y236698D01*
X217801Y236630D01*
X218011Y236552D01*
X218191Y236467D01*
X218345Y236378D01*
X218431Y236316D01*
X223813Y230934D01*
X234066Y241187D01*
X231813Y243440D01*
X233717Y245345D01*
X234980Y244082D01*
X234980D01*
X235243Y243819D01*
X243021Y236041D01*
X244082Y234980D01*
X244880Y234182D01*
X247663Y231399D01*
X255094Y238830D01*
X262525Y246261D01*
X259742Y249044D01*
X258681Y250105D01*
X257883Y250903D01*
X256736Y252050D01*
X257343Y252657D01*
X258061Y253732D01*
X258314Y255000D01*
Y258250D01*
X258061Y259518D01*
X257343Y260593D01*
X246343Y271593D01*
X245268Y272311D01*
X244000Y272564D01*
X236623D01*
X219064Y290123D01*
Y307000D01*
X218811Y308268D01*
X218093Y309343D01*
X212843Y314593D01*
X211768Y315311D01*
X210500Y315564D01*
X192512D01*
X191244Y315311D01*
X190169Y314593D01*
X186413Y310837D01*
X186409Y310831D01*
X184605Y310831D01*
X184495Y310995D01*
X180647Y314843D01*
X179572Y315561D01*
X178304Y315814D01*
X132750D01*
X131482Y315561D01*
X130407Y314843D01*
X123407Y307843D01*
X122689Y306768D01*
X122436Y305500D01*
Y295551D01*
X101199Y274314D01*
X90250D01*
X88982Y274061D01*
X87907Y273343D01*
X80907Y266343D01*
X80189Y265268D01*
X79936Y264000D01*
Y256750D01*
X80189Y255482D01*
X80907Y254407D01*
X82514Y252800D01*
Y251300D01*
X81319Y250105D01*
X80258Y249044D01*
X72480Y241266D01*
X77568Y236178D01*
X76407Y235017D01*
X75689Y233942D01*
X75436Y232674D01*
Y225250D01*
X75689Y223982D01*
X76407Y222907D01*
X81186Y218127D01*
Y214750D01*
X78000D01*
Y201529D01*
X78000Y200250D01*
X78000Y200250D01*
X78050Y200050D01*
X78050D01*
Y182850D01*
X87950D01*
Y200050D01*
X89367Y200250D01*
X91000D01*
Y214750D01*
X87814D01*
Y219500D01*
X87561Y220768D01*
X86843Y221843D01*
X82064Y226623D01*
Y229562D01*
X83564Y230183D01*
X87342Y226404D01*
X89287Y228349D01*
X101500Y216136D01*
X100926Y214750D01*
X94000D01*
Y208500D01*
X100500D01*
X107000D01*
Y208772D01*
X107196Y209004D01*
X108097Y209549D01*
X108500Y209654D01*
X109596Y209436D01*
X113700D01*
X113998Y207936D01*
X112918Y207489D01*
X111511Y206082D01*
X110750Y204245D01*
Y202255D01*
X111511Y200418D01*
X112918Y199011D01*
X114755Y198250D01*
X115801D01*
X115961Y198218D01*
X115966Y198219D01*
X115972Y198218D01*
X115994Y198218D01*
X116024Y198204D01*
X116098Y198162D01*
X116173Y198111D01*
X116333Y197981D01*
X116721Y197593D01*
X117796Y196875D01*
X119064Y196623D01*
X179894D01*
X182567Y193949D01*
X181993Y192564D01*
X180411D01*
X179143Y192311D01*
X178068Y191593D01*
X174407Y187932D01*
X173689Y186857D01*
X173436Y185589D01*
Y181466D01*
X171936Y180463D01*
X171245Y180750D01*
X169255D01*
X167418Y179989D01*
X166011Y178582D01*
X165250Y176745D01*
Y176692D01*
X163750Y176071D01*
X163332Y176489D01*
X161495Y177250D01*
X159505D01*
X157668Y176489D01*
X156261Y175082D01*
X155500Y173245D01*
Y171255D01*
X156261Y169418D01*
X156371Y169308D01*
X152864Y165800D01*
X152736Y165691D01*
X152484Y165501D01*
X152248Y165346D01*
X152028Y165224D01*
X151825Y165130D01*
X151638Y165063D01*
X151465Y165017D01*
X151361Y165000D01*
X149224D01*
X148926Y166500D01*
X149174Y166603D01*
X150580Y168009D01*
X151342Y169847D01*
Y171836D01*
X150580Y173674D01*
X149174Y175080D01*
X147336Y175842D01*
X145347D01*
X143509Y175080D01*
X142103Y173674D01*
X142025Y173486D01*
X141922D01*
X141705Y173443D01*
X141668Y173445D01*
X141591Y173420D01*
X140654Y173233D01*
X139579Y172515D01*
X132864Y165800D01*
X132736Y165691D01*
X132484Y165501D01*
X132248Y165346D01*
X132028Y165224D01*
X131825Y165130D01*
X131638Y165063D01*
X131465Y165017D01*
X131361Y165000D01*
X123250D01*
Y165000D01*
X121824Y165178D01*
Y175025D01*
X121571Y176293D01*
X120853Y177368D01*
X115131Y183090D01*
X115066Y183180D01*
X115004Y183278D01*
X114960Y183361D01*
X114930Y183432D01*
X114911Y183491D01*
X114899Y183542D01*
X114893Y183588D01*
X114888Y183730D01*
X114850Y183888D01*
Y184679D01*
X114089Y186517D01*
X112683Y187924D01*
X110845Y188685D01*
X108856D01*
X108450Y188517D01*
X106950Y189519D01*
Y198771D01*
X107000Y200250D01*
X107000Y200250D01*
X107000D01*
Y206500D01*
X100500D01*
X94000D01*
Y200250D01*
X95633D01*
X97050Y200050D01*
Y185000D01*
X96840D01*
X95002Y184239D01*
X93596Y182832D01*
X92835Y180994D01*
Y179005D01*
X92982Y178650D01*
X91979Y177150D01*
X78050D01*
Y162024D01*
X78041Y161980D01*
X78050Y161937D01*
Y159950D01*
X78228D01*
X78808Y158550D01*
X78000Y157250D01*
X78000D01*
Y155270D01*
X77991Y155227D01*
X78000Y155183D01*
Y144824D01*
X77991Y144781D01*
X78000Y144737D01*
Y144680D01*
X77996Y144647D01*
X78000Y144631D01*
Y142750D01*
X78758D01*
X80167Y139894D01*
Y127255D01*
X80497Y125597D01*
X81436Y124191D01*
X88417Y117210D01*
Y106031D01*
X85979D01*
Y94833D01*
X83750D01*
X83553Y94794D01*
X83553D01*
X82490Y94583D01*
X82489Y94583D01*
X82092Y94503D01*
X81755Y94278D01*
X81755Y94278D01*
X80686Y93564D01*
X78164Y91042D01*
X67705Y80583D01*
X60267D01*
X59646Y82083D01*
X60814Y83252D01*
X45753Y98313D01*
X43698Y96258D01*
X43692Y96259D01*
X43463Y96356D01*
X43132Y96547D01*
X42719Y96842D01*
X42446Y97071D01*
X38035Y101482D01*
Y102346D01*
X38065Y103018D01*
X38151Y103904D01*
X38175Y104049D01*
X41303Y107176D01*
X48385Y100094D01*
X49791Y99155D01*
X51449Y98825D01*
X60054D01*
X61664Y98159D01*
X63653D01*
X65491Y98920D01*
X66897Y100326D01*
X67363Y101452D01*
X69044Y101892D01*
X74249Y96687D01*
X84927Y107364D01*
X69865Y122425D01*
X64906Y117466D01*
X64825Y117394D01*
X64463Y117131D01*
X64060Y116893D01*
X63611Y116680D01*
X63113Y116493D01*
X62562Y116335D01*
X61957Y116208D01*
X61296Y116115D01*
X60877Y116081D01*
X58482D01*
X55357Y119206D01*
X55133Y119900D01*
X55934Y121388D01*
X55934D01*
X55934Y121388D01*
X57335Y122789D01*
X57371Y122813D01*
X57396Y122851D01*
X64066Y129520D01*
X65127Y130581D01*
X65480Y130934D01*
X68662Y134116D01*
X63889Y138889D01*
X59116Y143662D01*
X55934Y140480D01*
X55581Y140127D01*
X54520Y139066D01*
X46388Y130934D01*
X46586Y130736D01*
X46447Y128754D01*
X45768Y128074D01*
X45731Y128050D01*
X45706Y128012D01*
X39214Y121521D01*
X32265Y128471D01*
X31590Y129792D01*
X32489Y130692D01*
X31085Y132097D01*
X31060Y132134D01*
X31023Y132159D01*
X24273Y138908D01*
X16056Y130692D01*
X22806Y123942D01*
X22831Y123905D01*
X22868Y123880D01*
X24273Y122475D01*
X24705Y122907D01*
X26164Y122316D01*
X33086Y115393D01*
X25485Y107792D01*
X29201Y104077D01*
X29369Y101572D01*
Y99687D01*
X29699Y98028D01*
X30638Y96623D01*
X36318Y90942D01*
X36547Y90670D01*
X36842Y90257D01*
X37033Y89926D01*
X37129Y89697D01*
X37131Y89691D01*
X35076Y87636D01*
X50137Y72575D01*
X52142Y74579D01*
X53393Y73868D01*
X54075Y73186D01*
X55481Y72247D01*
X57139Y71917D01*
X69500D01*
X71158Y72247D01*
X72564Y73186D01*
X77034Y77656D01*
X78439Y77131D01*
X78549Y75581D01*
X78585Y75447D01*
X78590Y75387D01*
X78606Y75327D01*
X78616Y75187D01*
X78652Y75052D01*
Y75052D01*
X78681Y74917D01*
X78737Y74787D01*
X78749Y74726D01*
X78773Y74671D01*
X78802Y74536D01*
X88200Y52606D01*
X88306Y52453D01*
X88306Y52451D01*
X88308Y52446D01*
X88318Y52432D01*
X88393Y52256D01*
X88497Y52104D01*
X88627Y51977D01*
X88736Y51813D01*
X88750Y51804D01*
X88759Y51791D01*
X88924Y51684D01*
X89053Y51555D01*
X89091Y51530D01*
X89270Y51456D01*
X89397Y51370D01*
X89402Y51368D01*
X89404Y51368D01*
X89444Y51341D01*
X89500Y51330D01*
Y42775D01*
X92985D01*
X93436Y41873D01*
Y24097D01*
X92169Y23181D01*
X91972Y23147D01*
X91272Y23492D01*
X81777Y28974D01*
X72661Y35065D01*
X63963Y41739D01*
X55720Y48968D01*
X47968Y56720D01*
X40739Y64963D01*
X34065Y73661D01*
X27974Y82777D01*
X22492Y92272D01*
X17643Y102105D01*
X13447Y112234D01*
X9923Y122615D01*
X7086Y133205D01*
X4947Y143959D01*
X3516Y154828D01*
X2945Y163542D01*
X4425Y163887D01*
X5789Y160595D01*
X7919Y156905D01*
X10513Y153525D01*
X13525Y150513D01*
X16905Y147919D01*
X20595Y145789D01*
X24531Y144159D01*
X28646Y143056D01*
X32870Y142500D01*
X37130D01*
X41354Y143056D01*
X45469Y144159D01*
X49405Y145789D01*
X53095Y147919D01*
X56475Y150513D01*
X59487Y153525D01*
X62081Y156905D01*
X64211Y160595D01*
X65841Y164531D01*
X66944Y168646D01*
X67500Y172870D01*
Y177130D01*
X66944Y181354D01*
X65841Y185469D01*
X64211Y189405D01*
X62081Y193095D01*
X59487Y196475D01*
X56475Y199487D01*
X53095Y202081D01*
X49405Y204211D01*
X45469Y205841D01*
X41354Y206944D01*
X37130Y207500D01*
X32870D01*
X28646Y206944D01*
X24531Y205841D01*
X20595Y204211D01*
X16905Y202081D01*
X13525Y199487D01*
X10513Y196475D01*
X7919Y193095D01*
X5789Y189405D01*
X5009Y187523D01*
X5006Y187523D01*
X3548Y187914D01*
X4947Y198542D01*
X7086Y209294D01*
X9923Y219884D01*
X13447Y230266D01*
X17643Y240395D01*
X22492Y250228D01*
X27974Y259723D01*
X34065Y268839D01*
X40739Y277537D01*
X47968Y285780D01*
X55720Y293532D01*
X63963Y300761D01*
X72661Y307435D01*
X81777Y313526D01*
X91271Y319008D01*
X101105Y323857D01*
X111234Y328052D01*
X121615Y331577D01*
X132205Y334414D01*
X142959Y336553D01*
X153828Y337984D01*
X164768Y338701D01*
X175732D01*
X186672Y337984D01*
D02*
G37*
G36*
X91794Y233728D02*
X91701Y233521D01*
X91660Y233297D01*
X91671Y233055D01*
X91736Y232796D01*
X91853Y232520D01*
X92022Y232227D01*
X92244Y231917D01*
X92519Y231589D01*
X92846Y231244D01*
X91078Y229476D01*
X90733Y229804D01*
X90406Y230078D01*
X90095Y230300D01*
X89802Y230470D01*
X89526Y230587D01*
X89267Y230651D01*
X89026Y230662D01*
X88802Y230621D01*
X88595Y230528D01*
X88405Y230382D01*
X91940Y233917D01*
X91794Y233728D01*
D02*
G37*
G36*
X197101Y234136D02*
X197159Y233783D01*
X197252Y233429D01*
X197379Y233076D01*
X197542Y232722D01*
X197739Y232369D01*
X197971Y232015D01*
X198238Y231662D01*
X198539Y231308D01*
X198875Y230954D01*
X197108Y229187D01*
X193612Y230954D01*
X197077Y234490D01*
X197101Y234136D01*
D02*
G37*
G36*
X177052Y228454D02*
X174552D01*
X174055Y230954D01*
X177549D01*
X177052Y228454D01*
D02*
G37*
G36*
X170448D02*
X167948D01*
X167451Y230954D01*
X170945D01*
X170448Y228454D01*
D02*
G37*
G36*
X177503Y226439D02*
X177564Y225588D01*
X177592Y225450D01*
X177626Y225340D01*
X177664Y225260D01*
X177708Y225210D01*
X177757Y225189D01*
X175030Y225219D01*
X175000Y226726D01*
X177500D01*
X177503Y226439D01*
D02*
G37*
G36*
X170460Y227244D02*
X170498Y226818D01*
X170560Y226442D01*
X170648Y226115D01*
X170760Y225837D01*
X170898Y225609D01*
X171061Y225430D01*
X171248Y225300D01*
X171460Y225220D01*
X171698Y225189D01*
X166698D01*
X166936Y225220D01*
X167148Y225300D01*
X167335Y225430D01*
X167498Y225609D01*
X167635Y225837D01*
X167748Y226115D01*
X167836Y226442D01*
X167898Y226818D01*
X167936Y227244D01*
X167948Y227719D01*
X170448D01*
X170460Y227244D01*
D02*
G37*
G36*
X118232Y228456D02*
X118455Y228270D01*
X118679Y228106D01*
X118905Y227964D01*
X119133Y227845D01*
X119362Y227747D01*
X119594Y227672D01*
X119827Y227619D01*
X120062Y227588D01*
X120300Y227579D01*
X117330Y224610D01*
X117321Y224847D01*
X117290Y225082D01*
X117237Y225315D01*
X117162Y225547D01*
X117064Y225776D01*
X116945Y226004D01*
X116803Y226230D01*
X116639Y226454D01*
X116453Y226676D01*
X116244Y226897D01*
X118012Y228664D01*
X118232Y228456D01*
D02*
G37*
G36*
X199995Y222833D02*
X200070Y222621D01*
X200194Y222433D01*
X200369Y222271D01*
X200595Y222134D01*
X200870Y222021D01*
X201194Y221933D01*
X201569Y221871D01*
X201872Y221844D01*
X201994Y221855D01*
X202268Y221898D01*
X202528Y221957D01*
X202774Y222034D01*
X203005Y222127D01*
X203222Y222237D01*
X203425Y222365D01*
X203613Y222509D01*
X203787Y222671D01*
Y218471D01*
X203613Y218633D01*
X203425Y218777D01*
X203222Y218904D01*
X203005Y219015D01*
X202774Y219109D01*
X202528Y219185D01*
X202268Y219244D01*
X201994Y219287D01*
X201872Y219298D01*
X201569Y219271D01*
X201194Y219209D01*
X200870Y219121D01*
X200595Y219009D01*
X200369Y218871D01*
X200194Y218708D01*
X200070Y218521D01*
X199995Y218309D01*
X199970Y218071D01*
Y223071D01*
X199995Y222833D01*
D02*
G37*
G36*
X183993Y222113D02*
X184062Y221932D01*
X184178Y221772D01*
X184340Y221634D01*
X184548Y221516D01*
X184803Y221420D01*
X185104Y221346D01*
X185452Y221293D01*
X185846Y221261D01*
X186285Y221250D01*
Y218750D01*
X185846Y218739D01*
X185452Y218707D01*
X185104Y218654D01*
X184803Y218579D01*
X184548Y218484D01*
X184340Y218366D01*
X184178Y218228D01*
X184062Y218068D01*
X183993Y217887D01*
X183969Y217684D01*
Y222316D01*
X183993Y222113D01*
D02*
G37*
G36*
X267970Y218500D02*
X267733Y218491D01*
X267498Y218461D01*
X267264Y218407D01*
X267033Y218332D01*
X266803Y218235D01*
X266575Y218115D01*
X266349Y217973D01*
X266125Y217809D01*
X265903Y217623D01*
X265683Y217415D01*
X263915Y219183D01*
X264123Y219403D01*
X264309Y219625D01*
X264473Y219849D01*
X264615Y220075D01*
X264735Y220303D01*
X264832Y220533D01*
X264907Y220764D01*
X264961Y220998D01*
X264991Y221233D01*
X265000Y221470D01*
X267970Y218500D01*
D02*
G37*
G36*
X258470Y218000D02*
X258233Y217991D01*
X257998Y217960D01*
X257764Y217908D01*
X257533Y217832D01*
X257303Y217735D01*
X257075Y217615D01*
X256849Y217473D01*
X256625Y217309D01*
X256403Y217123D01*
X256183Y216915D01*
X254415Y218683D01*
X254623Y218903D01*
X254809Y219125D01*
X254973Y219349D01*
X255115Y219575D01*
X255235Y219803D01*
X255332Y220033D01*
X255408Y220264D01*
X255461Y220498D01*
X255491Y220733D01*
X255500Y220970D01*
X258470Y218000D01*
D02*
G37*
G36*
X145862Y245669D02*
X145853Y245625D01*
X145862Y245582D01*
Y228924D01*
X164188D01*
X164290Y228750D01*
X163431Y227250D01*
X161500D01*
Y218442D01*
X161494Y218418D01*
X161481Y218165D01*
X161458Y218008D01*
X161416Y217841D01*
X161352Y217658D01*
X161262Y217459D01*
X161143Y217243D01*
X160992Y217010D01*
X160805Y216761D01*
X160694Y216630D01*
X160000Y215936D01*
X158500Y216558D01*
Y219000D01*
X152000D01*
X145500D01*
Y214814D01*
X133623D01*
X131780Y216656D01*
X131715Y216745D01*
X131654Y216843D01*
X131610Y216927D01*
X131580Y216997D01*
X131560Y217057D01*
X131549Y217107D01*
X131543Y217153D01*
X131538Y217295D01*
X131500Y217454D01*
Y218245D01*
X130739Y220082D01*
X129332Y221489D01*
X127495Y222250D01*
X126400D01*
X125337Y223575D01*
X125330Y223636D01*
Y225574D01*
X124568Y227412D01*
X123162Y228818D01*
X121324Y229579D01*
X120533D01*
X120374Y229617D01*
X120233Y229622D01*
X120187Y229628D01*
X120136Y229640D01*
X120077Y229659D01*
X120006Y229689D01*
X119922Y229733D01*
X119824Y229795D01*
X119735Y229860D01*
X119064Y230532D01*
Y235877D01*
X130373Y247186D01*
X145862D01*
Y245669D01*
D02*
G37*
G36*
X124358Y215150D02*
X124184Y215312D01*
X123996Y215456D01*
X123793Y215583D01*
X123576Y215694D01*
X123345Y215788D01*
X123099Y215864D01*
X122839Y215924D01*
X122565Y215966D01*
X122276Y215991D01*
X121973Y216000D01*
Y218500D01*
X122276Y218508D01*
X122565Y218534D01*
X122839Y218577D01*
X123099Y218636D01*
X123345Y218713D01*
X123576Y218806D01*
X123793Y218916D01*
X123996Y219044D01*
X124184Y219188D01*
X124358Y219350D01*
Y215150D01*
D02*
G37*
G36*
X129509Y216983D02*
X129539Y216748D01*
X129593Y216514D01*
X129668Y216283D01*
X129765Y216053D01*
X129885Y215825D01*
X130027Y215599D01*
X130191Y215375D01*
X130377Y215153D01*
X130585Y214933D01*
X128817Y213165D01*
X128597Y213373D01*
X128375Y213559D01*
X128151Y213723D01*
X127925Y213865D01*
X127697Y213985D01*
X127467Y214082D01*
X127236Y214158D01*
X127002Y214211D01*
X126767Y214242D01*
X126530Y214250D01*
X129500Y217220D01*
X129509Y216983D01*
D02*
G37*
G36*
X167066Y214781D02*
X166712Y214763D01*
X166359Y214710D01*
X166005Y214621D01*
X165652Y214498D01*
X165298Y214338D01*
X164945Y214144D01*
X164591Y213914D01*
X164238Y213649D01*
X163884Y213349D01*
X163531Y213013D01*
X161763Y214781D01*
X162099Y215134D01*
X162399Y215488D01*
X162664Y215841D01*
X162894Y216195D01*
X163088Y216548D01*
X163248Y216902D01*
X163371Y217255D01*
X163460Y217609D01*
X163513Y217962D01*
X163531Y218316D01*
X167066Y214781D01*
D02*
G37*
G36*
X85763Y214744D02*
X85800Y214318D01*
X85863Y213942D01*
X85950Y213615D01*
X86062Y213337D01*
X86200Y213109D01*
X86362Y212930D01*
X86550Y212800D01*
X86763Y212720D01*
X87000Y212689D01*
X82000D01*
X82238Y212720D01*
X82450Y212800D01*
X82638Y212930D01*
X82800Y213109D01*
X82937Y213337D01*
X83050Y213615D01*
X83138Y213942D01*
X83200Y214318D01*
X83237Y214744D01*
X83250Y215219D01*
X85750D01*
X85763Y214744D01*
D02*
G37*
G36*
X180828Y214782D02*
X180647Y214707D01*
X180487Y214587D01*
X180348Y214421D01*
X180231Y214209D01*
X180135Y213952D01*
X180060Y213648D01*
X180007Y213300D01*
X179975Y212905D01*
X179965Y212465D01*
X177465D01*
X177454Y212905D01*
X177422Y213300D01*
X177369Y213648D01*
X177294Y213952D01*
X177198Y214209D01*
X177081Y214421D01*
X176942Y214587D01*
X176782Y214707D01*
X176601Y214782D01*
X176399Y214811D01*
X181031D01*
X180828Y214782D01*
D02*
G37*
G36*
X220151Y213840D02*
X220182Y213605D01*
X220235Y213372D01*
X220310Y213140D01*
X220408Y212910D01*
X220528Y212682D01*
X220669Y212456D01*
X220833Y212232D01*
X221019Y212010D01*
X221228Y211790D01*
X219460Y210022D01*
X219240Y210231D01*
X219018Y210417D01*
X218793Y210581D01*
X218568Y210722D01*
X218340Y210842D01*
X218110Y210939D01*
X217878Y211015D01*
X217645Y211068D01*
X217410Y211099D01*
X217173Y211107D01*
X220143Y214077D01*
X220151Y213840D01*
D02*
G37*
G36*
X118742Y202848D02*
X118765Y202652D01*
X118813Y202452D01*
X118885Y202248D01*
X118982Y202039D01*
X119104Y201826D01*
X119250Y201609D01*
X119420Y201388D01*
X119615Y201162D01*
X119835Y200933D01*
X118067Y199165D01*
X117838Y199384D01*
X117391Y199750D01*
X117174Y199896D01*
X116961Y200018D01*
X116753Y200115D01*
X116548Y200187D01*
X116348Y200235D01*
X116152Y200259D01*
X115961Y200257D01*
X118743Y203039D01*
X118742Y202848D01*
D02*
G37*
G36*
X85262Y202280D02*
X85050Y202200D01*
X84862Y202070D01*
X84700Y201891D01*
X84563Y201663D01*
X84450Y201385D01*
X84362Y201058D01*
X84300Y200682D01*
X84263Y200256D01*
X84260Y200150D01*
X84263Y200044D01*
X84300Y199618D01*
X84362Y199242D01*
X84450Y198915D01*
X84563Y198637D01*
X84700Y198409D01*
X84862Y198230D01*
X85050Y198100D01*
X85262Y198020D01*
X85500Y197989D01*
X80500D01*
X80737Y198020D01*
X80950Y198100D01*
X81138Y198230D01*
X81300Y198409D01*
X81438Y198637D01*
X81550Y198915D01*
X81637Y199242D01*
X81700Y199618D01*
X81737Y200044D01*
X81740Y200150D01*
X81737Y200256D01*
X81700Y200682D01*
X81637Y201058D01*
X81550Y201385D01*
X81438Y201663D01*
X81300Y201891D01*
X81138Y202070D01*
X80950Y202200D01*
X80737Y202280D01*
X80500Y202311D01*
X85500D01*
X85262Y202280D01*
D02*
G37*
G36*
X112859Y183418D02*
X112890Y183182D01*
X112943Y182949D01*
X113018Y182717D01*
X113116Y182488D01*
X113235Y182260D01*
X113377Y182034D01*
X113541Y181810D01*
X113727Y181588D01*
X113935Y181367D01*
X112168Y179600D01*
X111947Y179808D01*
X111725Y179994D01*
X111501Y180158D01*
X111275Y180300D01*
X111047Y180420D01*
X110818Y180517D01*
X110586Y180592D01*
X110353Y180645D01*
X110118Y180676D01*
X109880Y180685D01*
X112850Y183655D01*
X112859Y183418D01*
D02*
G37*
G36*
X186008Y182733D02*
X186039Y182498D01*
X186092Y182264D01*
X186168Y182033D01*
X186265Y181803D01*
X186385Y181575D01*
X186527Y181349D01*
X186691Y181125D01*
X186877Y180903D01*
X187085Y180683D01*
X185317Y178915D01*
X185097Y179123D01*
X184875Y179309D01*
X184651Y179473D01*
X184425Y179615D01*
X184197Y179735D01*
X183967Y179832D01*
X183736Y179907D01*
X183502Y179960D01*
X183267Y179991D01*
X183030Y180000D01*
X186000Y182970D01*
X186008Y182733D01*
D02*
G37*
G36*
X100151Y181938D02*
X100339Y181794D01*
X100541Y181667D01*
X100758Y181556D01*
X100990Y181462D01*
X101235Y181386D01*
X101495Y181327D01*
X101770Y181284D01*
X102058Y181259D01*
X102362Y181250D01*
Y178750D01*
X102058Y178741D01*
X101770Y178716D01*
X101495Y178673D01*
X101235Y178614D01*
X100990Y178538D01*
X100758Y178444D01*
X100541Y178333D01*
X100339Y178206D01*
X100151Y178062D01*
X99977Y177900D01*
Y182100D01*
X100151Y181938D01*
D02*
G37*
G36*
X172188Y173434D02*
X172044Y173246D01*
X171917Y173043D01*
X171806Y172826D01*
X171712Y172595D01*
X171636Y172349D01*
X171576Y172089D01*
X171534Y171815D01*
X171509Y171526D01*
X171500Y171223D01*
X169000D01*
X168992Y171526D01*
X168966Y171815D01*
X168923Y172089D01*
X168864Y172349D01*
X168787Y172595D01*
X168694Y172826D01*
X168584Y173043D01*
X168456Y173246D01*
X168312Y173434D01*
X168150Y173608D01*
X172350D01*
X172188Y173434D01*
D02*
G37*
G36*
X144352Y168596D02*
X144265Y168658D01*
X144150Y168713D01*
X144007Y168762D01*
X143837Y168805D01*
X143639Y168841D01*
X143161Y168893D01*
X142572Y168919D01*
X142236Y168922D01*
X141922Y171422D01*
X142192Y171428D01*
X142663Y171474D01*
X142863Y171514D01*
X143040Y171566D01*
X143194Y171629D01*
X143324Y171704D01*
X143430Y171790D01*
X143513Y171888D01*
X143573Y171997D01*
X144352Y168596D01*
D02*
G37*
G36*
X161330Y169367D02*
X161283Y169341D01*
X161240Y169293D01*
X161203Y169221D01*
X161170Y169127D01*
X161143Y169009D01*
X161120Y168869D01*
X161090Y168521D01*
X161080Y168080D01*
X158580Y168145D01*
X158498Y170016D01*
X161330Y169367D01*
D02*
G37*
G36*
X184689Y212136D02*
X185407Y211061D01*
X192061Y204407D01*
X193136Y203689D01*
X194404Y203436D01*
X206500D01*
X207768Y203689D01*
X208843Y204407D01*
X212093Y207657D01*
X212811Y208732D01*
X212897Y209161D01*
X213559Y209492D01*
X214520Y209782D01*
X216148Y209107D01*
X216939D01*
X217098Y209069D01*
X217239Y209064D01*
X217286Y209058D01*
X217336Y209047D01*
X217395Y209028D01*
X217466Y208997D01*
X217550Y208953D01*
X217648Y208892D01*
X217737Y208827D01*
X224936Y201627D01*
Y175078D01*
X216657Y166799D01*
X215939Y165724D01*
X215795Y165000D01*
X213314D01*
Y171203D01*
X213061Y172471D01*
X212343Y173546D01*
X183610Y202279D01*
X182535Y202998D01*
X181266Y203250D01*
X176308D01*
X175686Y204750D01*
X181058Y210121D01*
X181776Y211196D01*
X182028Y212465D01*
Y212750D01*
X184566D01*
X184689Y212136D01*
D02*
G37*
G36*
X211262Y164994D02*
X211300Y164568D01*
X211362Y164192D01*
X211450Y163865D01*
X211562Y163587D01*
X211700Y163358D01*
X211863Y163180D01*
X212050Y163050D01*
X212262Y162970D01*
X212500Y162939D01*
X207500D01*
X207738Y162970D01*
X207950Y163050D01*
X208137Y163180D01*
X208300Y163358D01*
X208438Y163587D01*
X208550Y163865D01*
X208638Y164192D01*
X208700Y164568D01*
X208738Y164994D01*
X208750Y165469D01*
X211250D01*
X211262Y164994D01*
D02*
G37*
G36*
X191262D02*
X191300Y164568D01*
X191362Y164192D01*
X191450Y163865D01*
X191562Y163587D01*
X191700Y163358D01*
X191863Y163180D01*
X192050Y163050D01*
X192262Y162970D01*
X192500Y162939D01*
X187500D01*
X187738Y162970D01*
X187950Y163050D01*
X188137Y163180D01*
X188300Y163358D01*
X188438Y163587D01*
X188550Y163865D01*
X188638Y164192D01*
X188700Y164568D01*
X188738Y164994D01*
X188750Y165469D01*
X191250D01*
X191262Y164994D01*
D02*
G37*
G36*
X171513D02*
X171550Y164568D01*
X171612Y164192D01*
X171700Y163865D01*
X171812Y163587D01*
X171950Y163358D01*
X172113Y163180D01*
X172300Y163050D01*
X172512Y162970D01*
X172750Y162939D01*
X167750D01*
X167987Y162970D01*
X168200Y163050D01*
X168388Y163180D01*
X168550Y163358D01*
X168687Y163587D01*
X168800Y163865D01*
X168888Y164192D01*
X168950Y164568D01*
X168988Y164994D01*
X169000Y165469D01*
X171500D01*
X171513Y164994D01*
D02*
G37*
G36*
X109936Y170074D02*
Y149404D01*
X110189Y148136D01*
X110907Y147061D01*
X121561Y136407D01*
X122636Y135689D01*
X123904Y135436D01*
X136096D01*
X137364Y135689D01*
X137979Y136099D01*
X139479Y135469D01*
Y128500D01*
X141945D01*
Y116500D01*
X139479D01*
Y106969D01*
Y98500D01*
X141945D01*
Y86500D01*
X139479D01*
Y76969D01*
X153021D01*
Y86500D01*
X150555D01*
Y98500D01*
X153021D01*
Y106969D01*
Y116500D01*
X150555D01*
Y128500D01*
X153021D01*
Y138031D01*
X143296D01*
X142482Y139531D01*
X142824Y140056D01*
X143250Y140000D01*
Y140000D01*
X156750D01*
Y151500D01*
X156750Y153000D01*
X156750Y153500D01*
Y159611D01*
X156767Y159715D01*
X156813Y159888D01*
X156880Y160075D01*
X156974Y160278D01*
X157096Y160498D01*
X157251Y160734D01*
X157441Y160986D01*
X157551Y161115D01*
X161972Y165536D01*
X163250Y164715D01*
Y153000D01*
X163250D01*
Y152000D01*
X163250D01*
Y140000D01*
X176750D01*
Y142686D01*
X180536D01*
X181750Y142928D01*
X181810Y142935D01*
X183250Y142101D01*
Y140000D01*
X191058D01*
X191082Y139994D01*
X191335Y139981D01*
X191492Y139958D01*
X191659Y139916D01*
X191842Y139852D01*
X192041Y139762D01*
X192257Y139643D01*
X192490Y139492D01*
X192739Y139305D01*
X192869Y139194D01*
X194413Y137651D01*
X194439Y137522D01*
X195157Y136447D01*
X199697Y131907D01*
X200772Y131189D01*
X202040Y130936D01*
X217960D01*
X219228Y131189D01*
X220303Y131907D01*
X227931Y139534D01*
X228309Y139562D01*
X229728Y139210D01*
X230157Y138568D01*
X235864Y132861D01*
X236939Y132143D01*
X238207Y131890D01*
X242621D01*
X243076Y130391D01*
X242769Y130185D01*
X236758Y124175D01*
X235819Y122769D01*
X235489Y121111D01*
X235819Y119453D01*
X236151Y118955D01*
X235126Y117879D01*
X232873Y115626D01*
X221157Y127343D01*
X220082Y128061D01*
X218814Y128314D01*
X201305D01*
X200037Y128061D01*
X198962Y127343D01*
X197432Y125814D01*
X190789D01*
Y131000D01*
X190789Y131000D01*
X190634Y131780D01*
X190192Y132442D01*
X188349Y134285D01*
X187687Y134727D01*
X186907Y134883D01*
X185521Y135990D01*
Y138031D01*
X171979D01*
Y133752D01*
X171878Y133615D01*
X171394Y133176D01*
X170479Y132660D01*
X170443Y132664D01*
X170384Y132649D01*
X170324Y132654D01*
X170001Y132549D01*
X169673Y132464D01*
X169625Y132427D01*
X169567Y132409D01*
X169309Y132189D01*
X169038Y131984D01*
X169008Y131932D01*
X168962Y131892D01*
X165775Y127855D01*
X165653Y127617D01*
X165502Y127397D01*
X165499Y127384D01*
X165491Y127372D01*
X165491Y127372D01*
X165468Y127254D01*
X165413Y127147D01*
X165392Y126881D01*
X165336Y126619D01*
X164656Y75832D01*
X164658Y75819D01*
X164656Y75805D01*
X164731Y75427D01*
X164801Y75050D01*
X164808Y75038D01*
X164811Y75025D01*
X165024Y74705D01*
X165234Y74383D01*
X165245Y74375D01*
X165253Y74363D01*
X178461Y61155D01*
Y26250D01*
X178616Y25470D01*
X179058Y24808D01*
X179058Y24808D01*
X187308Y16558D01*
X187970Y16116D01*
X188750Y15961D01*
X212750D01*
X213530Y16116D01*
X214192Y16558D01*
X214634Y17220D01*
X214789Y18000D01*
Y23355D01*
X215775D01*
Y61645D01*
X211615D01*
X210508Y63031D01*
X210353Y63811D01*
X210116Y64167D01*
X210452Y65169D01*
X210838Y65667D01*
X217705D01*
X219672Y63700D01*
Y57373D01*
X219000Y55750D01*
Y53761D01*
X219761Y51923D01*
X221168Y50517D01*
X223005Y49756D01*
X224995D01*
X226832Y50517D01*
X228239Y51923D01*
X229000Y53761D01*
Y55750D01*
X228339Y57347D01*
Y60667D01*
X231205D01*
X239828Y52044D01*
X239948Y51908D01*
X240292Y51474D01*
X240536Y51119D01*
X240564Y51070D01*
X239620Y50127D01*
X241021Y48726D01*
X241045Y48690D01*
X241082Y48664D01*
X248813Y40934D01*
X256011Y48132D01*
X256283Y48314D01*
X257341Y49373D01*
X258319D01*
X259906Y47785D01*
X256768Y44646D01*
X261364Y40050D01*
X260657Y39343D01*
X261364Y38636D01*
X256237Y33510D01*
X259116Y30631D01*
X258969Y29138D01*
X258723Y28974D01*
X249228Y23492D01*
X239395Y18643D01*
X229266Y14447D01*
X218885Y10923D01*
X208295Y8086D01*
X197541Y5947D01*
X186672Y4516D01*
X175732Y3799D01*
X170250Y3799D01*
X164768D01*
X153828Y4516D01*
X142958Y5947D01*
X132205Y8086D01*
X121615Y10923D01*
X119180Y11750D01*
X119428Y13250D01*
X120245D01*
X122082Y14011D01*
X123489Y15418D01*
X124250Y17255D01*
Y17541D01*
X124306Y17707D01*
X125750Y18911D01*
X147764Y17714D01*
X147885Y17731D01*
X148006Y17715D01*
X148276Y17787D01*
X148552Y17826D01*
X148657Y17889D01*
X148775Y17920D01*
X153134Y20064D01*
X153268Y20166D01*
X153421Y20236D01*
X153581Y20406D01*
X153766Y20548D01*
X153850Y20694D01*
X153966Y20816D01*
X154048Y21035D01*
X154165Y21237D01*
X154187Y21403D01*
X154246Y21561D01*
X154239Y21794D01*
X154270Y22025D01*
X154653Y22657D01*
X155290Y23355D01*
X157355D01*
Y61645D01*
X154491D01*
X153889Y62247D01*
X153469Y62823D01*
X153461Y63035D01*
X153461Y63145D01*
X153480Y63383D01*
X153443Y63498D01*
X153438Y63618D01*
X153321Y63873D01*
X153235Y64140D01*
X153156Y64232D01*
X153106Y64342D01*
X152900Y64532D01*
X152718Y64746D01*
X152611Y64800D01*
X152522Y64882D01*
X141775Y71487D01*
X141623Y71544D01*
X141488Y71634D01*
X141253Y71681D01*
X141029Y71764D01*
X140866Y71757D01*
X140707Y71789D01*
X132321D01*
X132321Y71789D01*
X131541Y71634D01*
X130879Y71192D01*
X130177Y70490D01*
X129089Y70039D01*
X127911D01*
X127780Y70093D01*
X127583Y70132D01*
X127398Y70209D01*
X127197D01*
X127000Y70249D01*
X126803Y70209D01*
X126602D01*
X126417Y70132D01*
X126220Y70093D01*
X126053Y69982D01*
X125867Y69905D01*
X124367Y68903D01*
X124225Y68761D01*
X124058Y68649D01*
X123946Y68482D01*
X123805Y68340D01*
X123728Y68154D01*
X123616Y67987D01*
X123577Y67790D01*
X123500Y67605D01*
Y67404D01*
X123461Y67207D01*
Y63814D01*
X112500D01*
X112333Y63781D01*
X112164Y63786D01*
X111947Y63704D01*
X111720Y63659D01*
X111578Y63565D01*
X111419Y63504D01*
X110243Y62769D01*
X110230Y62757D01*
X110212Y62750D01*
X109940Y62484D01*
X109663Y62224D01*
X109656Y62207D01*
X109643Y62194D01*
X109346Y61763D01*
X107900Y62160D01*
X105785Y93886D01*
X105769Y93943D01*
X105773Y94003D01*
X104477Y104375D01*
X104417Y104556D01*
X104417Y104558D01*
X104416Y104563D01*
X104412Y104574D01*
X104389Y104765D01*
X104329Y104944D01*
X104268Y105130D01*
X104174Y105297D01*
X104173Y105302D01*
X104171Y105306D01*
X104169Y105308D01*
X104107Y105496D01*
X102973Y107513D01*
X102871Y107632D01*
X102801Y107771D01*
X102615Y107931D01*
X102455Y108117D01*
X102316Y108188D01*
X102198Y108289D01*
X101964Y108366D01*
X101745Y108477D01*
X101590Y108489D01*
X101442Y108538D01*
X99972Y108716D01*
X99755Y108700D01*
X99538Y108723D01*
X99362Y108670D01*
X99178Y108656D01*
X98984Y108558D01*
X98776Y108496D01*
X98633Y108380D01*
X98583Y108356D01*
X97415Y108711D01*
X97083Y108921D01*
Y119005D01*
X96753Y120663D01*
X95814Y122069D01*
X88833Y129050D01*
Y139894D01*
X90242Y142750D01*
X91000D01*
Y144631D01*
X91004Y144647D01*
X91000Y144680D01*
Y144737D01*
X91009Y144781D01*
X91000Y144824D01*
Y157250D01*
X88809D01*
X88152Y158671D01*
X88707Y159950D01*
X91500D01*
Y168550D01*
X93500D01*
Y159950D01*
X106950D01*
Y171100D01*
X108336Y171674D01*
X109936Y170074D01*
D02*
G37*
G36*
X156487Y162969D02*
X156151Y162616D01*
X155850Y162262D01*
X155583Y161909D01*
X155351Y161555D01*
X155154Y161202D01*
X154991Y160848D01*
X154864Y160495D01*
X154771Y160141D01*
X154712Y159788D01*
X154689Y159434D01*
X151184Y162939D01*
X151538Y162962D01*
X151891Y163021D01*
X152245Y163114D01*
X152598Y163241D01*
X152952Y163404D01*
X153305Y163601D01*
X153659Y163833D01*
X154012Y164100D01*
X154366Y164401D01*
X154719Y164737D01*
X156487Y162969D01*
D02*
G37*
G36*
X136487D02*
X136151Y162616D01*
X135850Y162262D01*
X135583Y161909D01*
X135351Y161555D01*
X135154Y161202D01*
X134991Y160848D01*
X134864Y160495D01*
X134771Y160141D01*
X134712Y159788D01*
X134689Y159434D01*
X131184Y162939D01*
X131538Y162962D01*
X131891Y163021D01*
X132245Y163114D01*
X132598Y163241D01*
X132952Y163404D01*
X133305Y163601D01*
X133659Y163833D01*
X134012Y164100D01*
X134366Y164401D01*
X134719Y164737D01*
X136487Y162969D01*
D02*
G37*
G36*
X85935Y159719D02*
X85950D01*
X85972Y158864D01*
X86040Y158098D01*
X86152Y157422D01*
X86310Y156835D01*
X86512Y156337D01*
X86760Y155928D01*
X87052Y155610D01*
X87390Y155380D01*
X87773Y155240D01*
X88200Y155189D01*
X80030Y155219D01*
X80300Y155265D01*
X80541Y155400D01*
X80754Y155625D01*
X80939Y155940D01*
X81095Y156344D01*
X81223Y156840D01*
X81322Y157424D01*
X81360Y157778D01*
X80080Y161980D01*
X85920D01*
X85935Y159719D01*
D02*
G37*
G36*
X240259Y156224D02*
X240284Y155935D01*
X240326Y155661D01*
X240386Y155401D01*
X240462Y155155D01*
X240556Y154924D01*
X240667Y154707D01*
X240794Y154504D01*
X240938Y154316D01*
X241100Y154142D01*
X236900D01*
X237062Y154316D01*
X237206Y154504D01*
X237334Y154707D01*
X237444Y154924D01*
X237537Y155155D01*
X237614Y155401D01*
X237673Y155661D01*
X237716Y155935D01*
X237742Y156224D01*
X237750Y156527D01*
X240250D01*
X240259Y156224D01*
D02*
G37*
G36*
X216487Y149970D02*
X216151Y149616D01*
X215850Y149262D01*
X215583Y148909D01*
X215351Y148555D01*
X215154Y148202D01*
X214991Y147848D01*
X214864Y147495D01*
X214771Y147141D01*
X214713Y146788D01*
X214689Y146434D01*
X211184Y149939D01*
X211538Y149963D01*
X211891Y150021D01*
X212245Y150114D01*
X212598Y150241D01*
X212952Y150404D01*
X213305Y150601D01*
X213659Y150833D01*
X214012Y151100D01*
X214366Y151401D01*
X214720Y151737D01*
X216487Y149970D01*
D02*
G37*
G36*
X125634Y151401D02*
X125988Y151100D01*
X126341Y150833D01*
X126695Y150601D01*
X127048Y150404D01*
X127402Y150241D01*
X127755Y150114D01*
X128109Y150021D01*
X128462Y149963D01*
X128816Y149939D01*
X125311Y146434D01*
X125288Y146788D01*
X125229Y147141D01*
X125136Y147495D01*
X125009Y147848D01*
X124846Y148202D01*
X124649Y148555D01*
X124417Y148909D01*
X124150Y149262D01*
X123849Y149616D01*
X123513Y149970D01*
X125281Y151737D01*
X125634Y151401D01*
D02*
G37*
G36*
X257328Y149827D02*
X257532Y149743D01*
X257749Y149669D01*
X257978Y149605D01*
X258474Y149507D01*
X258740Y149472D01*
X259310Y149433D01*
X259614Y149428D01*
X260509Y146928D01*
X260202Y146917D01*
X259916Y146887D01*
X259652Y146837D01*
X259409Y146766D01*
X259188Y146675D01*
X258988Y146564D01*
X258810Y146432D01*
X258654Y146281D01*
X258519Y146109D01*
X258406Y145917D01*
X257137Y149920D01*
X257328Y149827D01*
D02*
G37*
G36*
X174720Y148263D02*
X174800Y148050D01*
X174930Y147863D01*
X175109Y147700D01*
X175337Y147563D01*
X175615Y147450D01*
X175942Y147362D01*
X176318Y147300D01*
X176744Y147262D01*
X177220Y147250D01*
Y144750D01*
X176744Y144738D01*
X176318Y144700D01*
X175942Y144637D01*
X175615Y144550D01*
X175337Y144438D01*
X175109Y144300D01*
X174930Y144137D01*
X174800Y143950D01*
X174720Y143737D01*
X174689Y143500D01*
Y148500D01*
X174720Y148263D01*
D02*
G37*
G36*
X145311Y143500D02*
X145280Y143737D01*
X145200Y143950D01*
X145070Y144137D01*
X144892Y144300D01*
X144663Y144438D01*
X144385Y144550D01*
X144058Y144637D01*
X143682Y144700D01*
X143256Y144738D01*
X142781Y144750D01*
Y147250D01*
X143256Y147262D01*
X143682Y147300D01*
X144058Y147362D01*
X144385Y147450D01*
X144663Y147563D01*
X144892Y147700D01*
X145070Y147863D01*
X145200Y148050D01*
X145280Y148263D01*
X145311Y148500D01*
Y143500D01*
D02*
G37*
G36*
X86750Y140281D02*
X82250D01*
X80030Y144781D01*
X88969D01*
X86750Y140281D01*
D02*
G37*
G36*
X194737Y145212D02*
X194790Y144859D01*
X194879Y144505D01*
X195002Y144152D01*
X195161Y143798D01*
X195356Y143445D01*
X195586Y143091D01*
X195851Y142738D01*
X196151Y142384D01*
X196487Y142030D01*
X194720Y140263D01*
X194366Y140599D01*
X194012Y140899D01*
X193659Y141164D01*
X193305Y141394D01*
X192952Y141588D01*
X192598Y141748D01*
X192245Y141871D01*
X191891Y141960D01*
X191537Y142013D01*
X191184Y142030D01*
X194720Y145566D01*
X194737Y145212D01*
D02*
G37*
G36*
X246135Y133104D02*
X245962Y133266D01*
X245773Y133410D01*
X245571Y133538D01*
X245354Y133648D01*
X245123Y133742D01*
X244877Y133818D01*
X244617Y133878D01*
X244343Y133920D01*
X244054Y133946D01*
X243751Y133954D01*
Y136454D01*
X244054Y136463D01*
X244343Y136488D01*
X244617Y136531D01*
X244877Y136590D01*
X245123Y136667D01*
X245354Y136760D01*
X245571Y136871D01*
X245773Y136998D01*
X245962Y137143D01*
X246135Y137304D01*
Y133104D01*
D02*
G37*
G36*
X55934Y124260D02*
X55614Y124516D01*
X55260Y124679D01*
X54873Y124748D01*
X54453Y124723D01*
X54000Y124603D01*
X53513Y124390D01*
X52993Y124083D01*
X52876Y123998D01*
X52564Y123508D01*
X52331Y123040D01*
X52189Y122610D01*
X52136Y122217D01*
X52174Y121861D01*
X52301Y121543D01*
X52517Y121263D01*
X47172Y126608D01*
X47367Y126477D01*
X47607Y126427D01*
X47894Y126458D01*
X48228Y126570D01*
X48608Y126763D01*
X49035Y127036D01*
X49320Y127248D01*
X49533Y127546D01*
X49837Y128073D01*
X50046Y128568D01*
X50159Y129032D01*
X50178Y129464D01*
X50102Y129865D01*
X49930Y130235D01*
X49664Y130573D01*
X55934Y124260D01*
D02*
G37*
G36*
X29410Y130421D02*
X29292Y130111D01*
X29262Y129763D01*
X29320Y129376D01*
X29468Y128951D01*
X29705Y128488D01*
X30030Y127986D01*
X30445Y127446D01*
X30948Y126867D01*
X31540Y126250D01*
X28358Y123068D01*
X27744Y123663D01*
X26654Y124609D01*
X26177Y124960D01*
X25745Y125229D01*
X25360Y125415D01*
X25020Y125521D01*
X24725Y125545D01*
X24476Y125486D01*
X24273Y125347D01*
X29618Y130692D01*
X29410Y130421D01*
D02*
G37*
G36*
X281562Y124199D02*
X281384Y124016D01*
X281098Y123681D01*
X280990Y123529D01*
X280904Y123387D01*
X280840Y123256D01*
X280800Y123136D01*
X280782Y123026D01*
X280788Y122927D01*
X280816Y122837D01*
X278071Y124560D01*
X278144Y124573D01*
X278236Y124611D01*
X278347Y124674D01*
X278476Y124763D01*
X278624Y124876D01*
X278977Y125179D01*
X279647Y125820D01*
X281562Y124199D01*
D02*
G37*
G36*
X295688Y123934D02*
X295544Y123746D01*
X295417Y123543D01*
X295306Y123326D01*
X295212Y123095D01*
X295136Y122849D01*
X295077Y122589D01*
X295034Y122315D01*
X295009Y122026D01*
X295000Y121723D01*
X292500D01*
X292491Y122026D01*
X292466Y122315D01*
X292423Y122589D01*
X292364Y122849D01*
X292288Y123095D01*
X292194Y123326D01*
X292083Y123543D01*
X291956Y123746D01*
X291812Y123934D01*
X291650Y124108D01*
X295850D01*
X295688Y123934D01*
D02*
G37*
G36*
X271784Y122337D02*
X271740Y122203D01*
X271733Y122053D01*
X271764Y121886D01*
X271832Y121702D01*
X271938Y121502D01*
X272081Y121286D01*
X272262Y121053D01*
X272480Y120803D01*
X272735Y120537D01*
X270854Y118883D01*
X270513Y119219D01*
X269190Y120391D01*
X269001Y120524D01*
X268838Y120622D01*
X268700Y120686D01*
X268588Y120716D01*
X271866Y122454D01*
X271784Y122337D01*
D02*
G37*
G36*
X317942Y118556D02*
X317955Y118069D01*
X317992Y117606D01*
X318055Y117169D01*
X318142Y116756D01*
X318255Y116369D01*
X318392Y116006D01*
X318555Y115669D01*
X318742Y115356D01*
X318955Y115069D01*
X319192Y114806D01*
X314192Y115867D01*
X314430Y116129D01*
X314642Y116417D01*
X314830Y116729D01*
X314992Y117067D01*
X315130Y117429D01*
X315242Y117817D01*
X315330Y118229D01*
X315392Y118667D01*
X315430Y119129D01*
X315442Y119617D01*
X317942Y118556D01*
D02*
G37*
G36*
X52344Y121025D02*
X52255Y120746D01*
X52252Y120425D01*
X52334Y120061D01*
X52502Y119656D01*
X52755Y119209D01*
X53092Y118719D01*
X53516Y118188D01*
X54024Y117614D01*
X54618Y116999D01*
X51436Y113817D01*
X50821Y114411D01*
X49716Y115343D01*
X49226Y115681D01*
X48779Y115933D01*
X48374Y116101D01*
X48010Y116183D01*
X47689Y116180D01*
X47410Y116091D01*
X47172Y115918D01*
X52517Y121263D01*
X52344Y121025D01*
D02*
G37*
G36*
X214009Y116733D02*
X214039Y116498D01*
X214093Y116264D01*
X214168Y116033D01*
X214265Y115803D01*
X214385Y115575D01*
X214527Y115349D01*
X214691Y115125D01*
X214877Y114903D01*
X215085Y114683D01*
X213317Y112915D01*
X213097Y113123D01*
X212875Y113309D01*
X212651Y113473D01*
X212425Y113615D01*
X212197Y113735D01*
X211967Y113832D01*
X211736Y113907D01*
X211502Y113961D01*
X211267Y113991D01*
X211030Y114000D01*
X214000Y116970D01*
X214009Y116733D01*
D02*
G37*
G36*
X241671Y111999D02*
X241344Y111654D01*
X241069Y111327D01*
X240847Y111016D01*
X240677Y110723D01*
X240561Y110447D01*
X240496Y110188D01*
X240485Y109947D01*
X240526Y109723D01*
X240619Y109516D01*
X240765Y109326D01*
X237230Y112861D01*
X237420Y112715D01*
X237626Y112622D01*
X237851Y112581D01*
X238092Y112592D01*
X238351Y112657D01*
X238627Y112774D01*
X238920Y112943D01*
X239230Y113165D01*
X239558Y113440D01*
X239903Y113767D01*
X241671Y111999D01*
D02*
G37*
G36*
X244998Y114352D02*
X244768Y114308D01*
X244528Y114234D01*
X244278Y114129D01*
X244017Y113995D01*
X243746Y113831D01*
X243465Y113637D01*
X242871Y113160D01*
X242558Y112876D01*
X242235Y112563D01*
X240467Y114331D01*
X240780Y114654D01*
X241541Y115561D01*
X241735Y115842D01*
X241899Y116114D01*
X242033Y116374D01*
X242137Y116625D01*
X242212Y116865D01*
X242256Y117094D01*
X244998Y114352D01*
D02*
G37*
G36*
X231427Y114172D02*
X231755Y113897D01*
X232065Y113675D01*
X232358Y113506D01*
X232634Y113389D01*
X232893Y113325D01*
X233134Y113313D01*
X233359Y113354D01*
X233566Y113448D01*
X233755Y113594D01*
X230220Y110058D01*
X230366Y110248D01*
X230460Y110455D01*
X230501Y110679D01*
X230489Y110921D01*
X230425Y111179D01*
X230308Y111455D01*
X230138Y111748D01*
X229916Y112059D01*
X229642Y112387D01*
X229314Y112732D01*
X231082Y114499D01*
X231427Y114172D01*
D02*
G37*
G36*
X221666Y112614D02*
X221888Y112428D01*
X222112Y112264D01*
X222338Y112122D01*
X222566Y112002D01*
X222796Y111905D01*
X223027Y111830D01*
X223260Y111777D01*
X223496Y111746D01*
X223733Y111737D01*
X220763Y108767D01*
X220754Y109004D01*
X220723Y109240D01*
X220670Y109473D01*
X220595Y109705D01*
X220498Y109934D01*
X220378Y110162D01*
X220236Y110388D01*
X220072Y110612D01*
X219886Y110834D01*
X219678Y111054D01*
X221445Y112822D01*
X221666Y112614D01*
D02*
G37*
G36*
X197689Y109684D02*
X197544Y109496D01*
X197416Y109293D01*
X197306Y109076D01*
X197213Y108845D01*
X197136Y108599D01*
X197076Y108339D01*
X197034Y108065D01*
X197008Y107776D01*
X197000Y107473D01*
X194500D01*
X194492Y107776D01*
X194466Y108065D01*
X194424Y108339D01*
X194364Y108599D01*
X194287Y108845D01*
X194194Y109076D01*
X194083Y109293D01*
X193956Y109496D01*
X193811Y109684D01*
X193650Y109858D01*
X197850D01*
X197689Y109684D01*
D02*
G37*
G36*
X66581Y107270D02*
X66104Y107693D01*
X65583Y108072D01*
X65018Y108406D01*
X64407Y108696D01*
X63752Y108941D01*
X63053Y109142D01*
X62309Y109298D01*
X61520Y109409D01*
X60687Y109476D01*
X59809Y109498D01*
Y113998D01*
X60687Y114021D01*
X61520Y114087D01*
X62309Y114199D01*
X63053Y114355D01*
X63752Y114555D01*
X64407Y114800D01*
X65018Y115090D01*
X65583Y115424D01*
X66104Y115803D01*
X66581Y116227D01*
Y107270D01*
D02*
G37*
G36*
X259799Y110344D02*
X259706Y110137D01*
X259665Y109913D01*
X259676Y109671D01*
X259741Y109413D01*
X259857Y109137D01*
X260027Y108844D01*
X260249Y108533D01*
X260523Y108206D01*
X260851Y107861D01*
X259083Y106093D01*
X258738Y106420D01*
X258410Y106695D01*
X258100Y106917D01*
X257807Y107086D01*
X257531Y107203D01*
X257272Y107267D01*
X257031Y107279D01*
X256806Y107238D01*
X256600Y107144D01*
X256410Y106998D01*
X259945Y110534D01*
X259799Y110344D01*
D02*
G37*
G36*
X36348Y105083D02*
X36265Y104858D01*
X36192Y104553D01*
X36128Y104169D01*
X36030Y103162D01*
X35972Y101838D01*
X35952Y100197D01*
X31452D01*
X31447Y101058D01*
X31213Y104553D01*
X31139Y104858D01*
X31056Y105083D01*
X30963Y105229D01*
X36441D01*
X36348Y105083D01*
D02*
G37*
G36*
X313379Y128185D02*
Y119064D01*
X313365Y118893D01*
X313321Y118585D01*
X313263Y118314D01*
X313194Y118076D01*
X313117Y117872D01*
X313033Y117698D01*
X312944Y117550D01*
X312850Y117423D01*
X312680Y117235D01*
X312667Y117213D01*
X308030Y112576D01*
X306970Y111516D01*
Y111516D01*
X303434Y107980D01*
X308207Y103207D01*
X312980Y98434D01*
X316516Y101970D01*
X317223Y102677D01*
X324474Y109928D01*
X325745Y109078D01*
X322857Y102105D01*
X318008Y92272D01*
X312526Y82777D01*
X306435Y73661D01*
X299761Y64963D01*
X292532Y56720D01*
X284780Y48968D01*
X276537Y41739D01*
X267839Y35065D01*
X267367Y34750D01*
X266415Y35909D01*
X270380Y39873D01*
X265507Y44746D01*
X266317Y46058D01*
X266915Y46012D01*
X267359Y45946D01*
X267759Y45862D01*
X268088Y45769D01*
X268347Y45673D01*
X268533Y45582D01*
X268616Y45529D01*
X271040Y43105D01*
X283202Y55267D01*
X276202Y62267D01*
X273692Y64778D01*
X267611Y58696D01*
X266196Y60111D01*
X272278Y66192D01*
X269767Y68702D01*
X262767Y75702D01*
X250605Y63540D01*
X251762Y62383D01*
X248553Y59175D01*
X248503Y59099D01*
X247000Y57596D01*
X245779Y58349D01*
X236064Y68064D01*
X234658Y69003D01*
X233000Y69333D01*
X226295D01*
X224328Y71301D01*
X224902Y72686D01*
X240500D01*
X241768Y72939D01*
X242843Y73657D01*
X267593Y98407D01*
X268311Y99482D01*
X268564Y100750D01*
Y115451D01*
X268632Y115517D01*
X269954Y116182D01*
X273169Y112967D01*
X274244Y112248D01*
X275513Y111996D01*
X280690D01*
X281958Y112248D01*
X283033Y112967D01*
X288936Y118870D01*
X290436Y118248D01*
Y105997D01*
X290689Y104729D01*
X291407Y103654D01*
X296971Y98089D01*
X296940Y97934D01*
X295313Y97440D01*
X295177Y97576D01*
X290757Y93157D01*
X294646Y89268D01*
X296488Y91109D01*
X297873Y90535D01*
Y89392D01*
X297860Y89221D01*
X297816Y88913D01*
X297758Y88641D01*
X297689Y88404D01*
X297612Y88200D01*
X297528Y88026D01*
X297439Y87878D01*
X297345Y87750D01*
X297175Y87562D01*
X297162Y87541D01*
X290934Y81313D01*
X292318Y79928D01*
X292030Y78095D01*
X280233Y66298D01*
X287233Y59298D01*
X299045Y71110D01*
X300126Y72120D01*
X300126D01*
X310380Y82374D01*
X305212Y87541D01*
X305199Y87562D01*
X305030Y87750D01*
X304935Y87878D01*
X304846Y88026D01*
X304763Y88200D01*
X304685Y88404D01*
X304616Y88641D01*
X304559Y88913D01*
X304515Y89221D01*
X304501Y89392D01*
Y95054D01*
X305887Y95628D01*
X308030Y93484D01*
X311566Y97020D01*
X306793Y101793D01*
X302020Y106566D01*
X299944Y104489D01*
X297064Y107369D01*
Y122096D01*
X297080Y122205D01*
X297106Y122318D01*
X297134Y122408D01*
X297163Y122480D01*
X297192Y122535D01*
X297219Y122579D01*
X297248Y122616D01*
X297344Y122720D01*
X297430Y122858D01*
X297989Y123418D01*
X298750Y125255D01*
Y127245D01*
X297989Y129082D01*
X296582Y130489D01*
X296140Y130672D01*
X295789Y132441D01*
X297034Y133686D01*
X307878D01*
X313379Y128185D01*
D02*
G37*
G36*
X195950Y99414D02*
X195938Y99189D01*
X195953Y98964D01*
X195996Y98739D01*
X196067Y98514D01*
X196166Y98290D01*
X196292Y98066D01*
X196446Y97842D01*
X196628Y97618D01*
X196837Y97395D01*
X194618Y96078D01*
X194400Y96287D01*
X193964Y96655D01*
X193745Y96814D01*
X193527Y96955D01*
X193308Y97080D01*
X193090Y97187D01*
X192871Y97278D01*
X192652Y97351D01*
X192432Y97407D01*
X195990Y99639D01*
X195950Y99414D01*
D02*
G37*
G36*
X40880Y95723D02*
X41469Y95229D01*
X42027Y94830D01*
X42554Y94526D01*
X43049Y94318D01*
X43513Y94204D01*
X43945Y94185D01*
X44346Y94262D01*
X44715Y94433D01*
X45054Y94699D01*
X38690Y88335D01*
X38956Y88673D01*
X39127Y89043D01*
X39204Y89444D01*
X39185Y89876D01*
X39071Y90340D01*
X38863Y90835D01*
X38559Y91362D01*
X38160Y91920D01*
X37666Y92509D01*
X37077Y93130D01*
X40259Y96312D01*
X40880Y95723D01*
D02*
G37*
G36*
X302450Y89457D02*
X302487Y88994D01*
X302550Y88557D01*
X302637Y88144D01*
X302750Y87757D01*
X302887Y87394D01*
X303050Y87057D01*
X303237Y86744D01*
X303450Y86457D01*
X303687Y86194D01*
X298687D01*
X298925Y86457D01*
X299137Y86744D01*
X299325Y87057D01*
X299487Y87394D01*
X299625Y87757D01*
X299737Y88144D01*
X299825Y88557D01*
X299887Y88994D01*
X299925Y89457D01*
X299937Y89944D01*
X302437D01*
X302450Y89457D01*
D02*
G37*
G36*
X207115Y120186D02*
X206761Y119832D01*
X206000Y117995D01*
Y116005D01*
X206761Y114168D01*
X208168Y112761D01*
X210005Y112000D01*
X210797D01*
X210955Y111962D01*
X211097Y111957D01*
X211143Y111951D01*
X211193Y111940D01*
X211253Y111920D01*
X211323Y111890D01*
X211407Y111846D01*
X211505Y111785D01*
X211594Y111720D01*
X213170Y110144D01*
X214245Y109426D01*
X215513Y109173D01*
X218591D01*
X218609Y109144D01*
X218653Y109060D01*
X218683Y108990D01*
X218702Y108930D01*
X218714Y108880D01*
X218720Y108834D01*
X218725Y108692D01*
X218763Y108534D01*
Y107743D01*
X219524Y105905D01*
X220930Y104498D01*
X221066Y103819D01*
X219924Y102677D01*
X224343Y98257D01*
X228232Y102146D01*
X226476Y103902D01*
X226595Y104498D01*
X228001Y105905D01*
X228598Y106024D01*
X236187Y98434D01*
X245380Y107626D01*
X245380D01*
X246515Y108454D01*
X245189Y109319D01*
X245464Y109609D01*
X245714Y109905D01*
X245941Y110208D01*
X246143Y110516D01*
X246322Y110831D01*
X246476Y111152D01*
X246606Y111479D01*
X246712Y111812D01*
X246794Y112152D01*
X246852Y112498D01*
X249594Y109756D01*
X249482Y109726D01*
X249344Y109662D01*
X249181Y109564D01*
X248992Y109431D01*
X248539Y109065D01*
X247984Y108562D01*
X247335Y107929D01*
X247356Y107915D01*
X249015Y107585D01*
X249510Y106154D01*
X249608Y105664D01*
X250547Y104258D01*
X251953Y103319D01*
X253611Y102989D01*
X254011Y103069D01*
X254750Y101686D01*
X237377Y84314D01*
X222623D01*
X199711Y107225D01*
X199861Y109040D01*
X199989Y109168D01*
X200750Y111005D01*
Y112995D01*
X199989Y114832D01*
X198582Y116239D01*
X196745Y117000D01*
X194755D01*
X192918Y116239D01*
X192289Y115610D01*
X190789Y116232D01*
Y119186D01*
X198805D01*
X200073Y119439D01*
X201148Y120157D01*
X202677Y121686D01*
X206494D01*
X207115Y120186D01*
D02*
G37*
G36*
X188750Y131000D02*
Y102968D01*
X188073Y101333D01*
Y99344D01*
X188750Y97709D01*
Y75500D01*
X199500Y64750D01*
X206750D01*
X208469Y63031D01*
X207895Y61645D01*
X207710D01*
Y59180D01*
X195710D01*
Y61645D01*
X187645D01*
Y48500D01*
X190110D01*
Y36500D01*
X187645D01*
Y23355D01*
X195710D01*
Y25820D01*
X207710D01*
Y23355D01*
X212750D01*
Y18000D01*
X188750D01*
X180500Y26250D01*
Y62000D01*
X166695Y75805D01*
X167375Y126592D01*
X167375Y126592D01*
X167375D01*
Y126592D01*
X170562Y130629D01*
X171979Y130137D01*
Y128500D01*
X174445D01*
Y116500D01*
X171979D01*
Y106969D01*
Y98500D01*
X174445D01*
Y86500D01*
X171979D01*
Y76969D01*
X185521D01*
Y78986D01*
X183490Y79000D01*
X183460Y85719D01*
X183511Y85292D01*
X183651Y84909D01*
X183880Y84572D01*
X184199Y84279D01*
X184608Y84031D01*
X185105Y83829D01*
X185521Y83718D01*
Y86500D01*
X183055D01*
Y98500D01*
X185521D01*
Y106969D01*
Y116500D01*
X183055D01*
Y128500D01*
X185521D01*
Y132269D01*
X186907Y132844D01*
X188750Y131000D01*
D02*
G37*
G36*
X299816Y75346D02*
X299626Y75492D01*
X299419Y75585D01*
X299195Y75626D01*
X298954Y75615D01*
X298695Y75550D01*
X298419Y75434D01*
X298126Y75264D01*
X297815Y75042D01*
X297488Y74767D01*
X297143Y74440D01*
X295375Y76208D01*
X295702Y76553D01*
X295977Y76880D01*
X296199Y77191D01*
X296369Y77484D01*
X296485Y77760D01*
X296550Y78019D01*
X296561Y78260D01*
X296520Y78484D01*
X296427Y78691D01*
X296280Y78881D01*
X299816Y75346D01*
D02*
G37*
G36*
X297111Y74408D02*
X296784Y74063D01*
X296509Y73735D01*
X296287Y73425D01*
X296117Y73132D01*
X296001Y72856D01*
X295936Y72597D01*
X295925Y72356D01*
X295966Y72132D01*
X296059Y71925D01*
X296205Y71735D01*
X292670Y75270D01*
X292860Y75124D01*
X293067Y75031D01*
X293291Y74990D01*
X293532Y75001D01*
X293791Y75066D01*
X294067Y75182D01*
X294360Y75352D01*
X294671Y75574D01*
X294998Y75849D01*
X295343Y76176D01*
X297111Y74408D01*
D02*
G37*
G36*
X101196Y106513D02*
X102330Y104496D01*
X102391Y104311D01*
X102393Y104306D01*
X102394Y104302D01*
X102453Y104122D01*
X103750Y93750D01*
X106385Y54217D01*
X106374Y54131D01*
X106382Y54021D01*
X106376Y54012D01*
X101995Y53225D01*
X90224D01*
X90186Y53251D01*
X90181Y53253D01*
X90179Y53258D01*
X90075Y53410D01*
X80676Y75339D01*
X80647Y75475D01*
X80624Y75530D01*
X80619Y75590D01*
X80583Y75724D01*
X79606Y89600D01*
X81986Y91980D01*
X82887Y92583D01*
X83951Y92794D01*
X84763D01*
X85303Y92397D01*
X85779Y91879D01*
X85979Y91421D01*
Y74969D01*
X99521D01*
Y84500D01*
X97056D01*
Y96500D01*
X99521D01*
Y106031D01*
X99521Y106031D01*
X99726Y106692D01*
X101196Y106513D01*
D02*
G37*
G36*
X56883Y82130D02*
X56720Y81781D01*
X56649Y81400D01*
X56670Y80987D01*
X56783Y80542D01*
X56988Y80066D01*
X57285Y79557D01*
X57674Y79017D01*
X58156Y78445D01*
X58730Y77841D01*
X55548Y74659D01*
X54944Y75233D01*
X54372Y75714D01*
X53832Y76104D01*
X53323Y76401D01*
X52847Y76606D01*
X52402Y76719D01*
X51989Y76740D01*
X51608Y76669D01*
X51259Y76505D01*
X50941Y76250D01*
X57139Y82448D01*
X56883Y82130D01*
D02*
G37*
G36*
X151455Y63145D02*
X151031Y61645D01*
X149290D01*
Y59180D01*
X137290D01*
Y61645D01*
X129225D01*
Y59676D01*
X131256Y59615D01*
X131286Y53000D01*
X131235Y53428D01*
X131095Y53810D01*
X130865Y54148D01*
X130547Y54440D01*
X130138Y54688D01*
X129640Y54890D01*
X129225Y55001D01*
Y48500D01*
X131690D01*
Y36500D01*
X129225D01*
Y23355D01*
X137290D01*
Y25820D01*
X149290D01*
Y23355D01*
X151895D01*
X152234Y21894D01*
X147875Y19750D01*
X124842Y21003D01*
X124686Y21250D01*
X125515Y22750D01*
X127000D01*
Y29000D01*
X120500D01*
X114000D01*
Y22750D01*
X112714Y22233D01*
X112286D01*
X111000Y22750D01*
Y37250D01*
X108314D01*
Y43628D01*
X109373Y44686D01*
X112500D01*
Y42775D01*
X125500D01*
Y53225D01*
X112500D01*
Y51314D01*
X108638D01*
X108604Y51358D01*
X108154Y52240D01*
X108038Y52619D01*
X108034Y52814D01*
X108073Y52852D01*
X108188Y53115D01*
X108331Y53363D01*
X108345Y53476D01*
X108391Y53581D01*
X108397Y53868D01*
X108434Y54152D01*
X108271Y56595D01*
X111324Y61040D01*
X112500Y61775D01*
Y61775D01*
X112500Y61775D01*
X125500D01*
Y67207D01*
X127000Y68209D01*
X127505Y68000D01*
X129495D01*
X131332Y68761D01*
X132321Y69750D01*
X140707D01*
X151455Y63145D01*
D02*
G37*
G36*
X257330Y59730D02*
X257140Y59876D01*
X256933Y59969D01*
X256709Y60010D01*
X256468Y59999D01*
X256209Y59934D01*
X255933Y59818D01*
X255640Y59648D01*
X255329Y59426D01*
X255002Y59151D01*
X254657Y58824D01*
X252889Y60592D01*
X253216Y60937D01*
X253491Y61265D01*
X253713Y61575D01*
X253883Y61868D01*
X253999Y62144D01*
X254064Y62403D01*
X254075Y62644D01*
X254034Y62868D01*
X253941Y63075D01*
X253795Y63265D01*
X257330Y59730D01*
D02*
G37*
G36*
X244212Y57001D02*
X244802Y56508D01*
X245360Y56109D01*
X245886Y55805D01*
X246381Y55596D01*
X246845Y55482D01*
X247278Y55464D01*
X247678Y55540D01*
X248048Y55711D01*
X248386Y55978D01*
X242492Y50127D01*
X242669Y50367D01*
X242761Y50650D01*
X242766Y50974D01*
X242687Y51340D01*
X242521Y51747D01*
X242270Y52196D01*
X241934Y52687D01*
X241511Y53219D01*
X241003Y53793D01*
X240410Y54408D01*
X243592Y57590D01*
X244212Y57001D01*
D02*
G37*
G36*
X250599Y54764D02*
X250678Y53521D01*
X250725Y53181D01*
X250852Y52611D01*
X250931Y52382D01*
X250975Y52289D01*
X251068Y52245D01*
X251297Y52166D01*
X251564Y52097D01*
X251867Y52039D01*
X252585Y51954D01*
X252999Y51928D01*
X253939Y51907D01*
Y49407D01*
X253451Y49402D01*
X252207Y49322D01*
X251867Y49275D01*
X251297Y49148D01*
X251068Y49068D01*
X250876Y48979D01*
X250721Y48878D01*
Y52035D01*
X247565D01*
X247665Y52190D01*
X247755Y52382D01*
X247834Y52611D01*
X247903Y52877D01*
X247961Y53181D01*
X248046Y53898D01*
X248072Y54313D01*
X248093Y55253D01*
X250593D01*
X250599Y54764D01*
D02*
G37*
G36*
X270137Y46922D02*
X269858Y47156D01*
X269530Y47365D01*
X269151Y47549D01*
X268724Y47709D01*
X268246Y47844D01*
X267719Y47954D01*
X267143Y48040D01*
X265841Y48138D01*
X265116Y48151D01*
X264957Y50651D01*
X265445Y50663D01*
X265908Y50700D01*
X266346Y50761D01*
X266760Y50847D01*
X267150Y50958D01*
X267515Y51093D01*
X267855Y51253D01*
X268171Y51437D01*
X268462Y51646D01*
X268729Y51879D01*
X270137Y46922D01*
D02*
G37*
G36*
X114561Y45500D02*
X114530Y45738D01*
X114450Y45950D01*
X114320Y46137D01*
X114142Y46300D01*
X113913Y46438D01*
X113635Y46550D01*
X113308Y46638D01*
X112932Y46700D01*
X112506Y46737D01*
X112030Y46750D01*
Y49250D01*
X112506Y49262D01*
X112932Y49300D01*
X113308Y49363D01*
X113635Y49450D01*
X113913Y49563D01*
X114142Y49700D01*
X114320Y49862D01*
X114450Y50050D01*
X114530Y50262D01*
X114561Y50500D01*
Y45500D01*
D02*
G37*
G36*
X98000Y42305D02*
X95500D01*
X94250Y44805D01*
X99250D01*
X98000Y42305D01*
D02*
G37*
G36*
X106263Y37244D02*
X106300Y36818D01*
X106362Y36442D01*
X106450Y36115D01*
X106562Y35837D01*
X106700Y35608D01*
X106862Y35430D01*
X107050Y35300D01*
X107262Y35220D01*
X107500Y35189D01*
X102500D01*
X102738Y35220D01*
X102950Y35300D01*
X103138Y35430D01*
X103300Y35608D01*
X103438Y35837D01*
X103550Y36115D01*
X103638Y36442D01*
X103700Y36818D01*
X103737Y37244D01*
X103750Y37720D01*
X106250D01*
X106263Y37244D01*
D02*
G37*
G36*
X116693Y16681D02*
X116562Y16869D01*
X116411Y17037D01*
X116241Y17185D01*
X116052Y17314D01*
X115843Y17423D01*
X115615Y17512D01*
X115367Y17581D01*
X115100Y17630D01*
X114813Y17660D01*
X114507Y17670D01*
X115145Y20170D01*
X115447Y20176D01*
X116016Y20224D01*
X116282Y20267D01*
X116537Y20321D01*
X116779Y20388D01*
X117010Y20466D01*
X117229Y20557D01*
X117436Y20660D01*
X117630Y20775D01*
X116693Y16681D01*
D02*
G37*
%LPC*%
G36*
X199138Y306076D02*
X196360D01*
Y297710D01*
X199138D01*
Y306076D01*
D02*
G37*
G36*
Y295710D02*
X196360D01*
Y287344D01*
X199138D01*
Y295710D01*
D02*
G37*
G36*
X174802Y306076D02*
X170198D01*
Y296710D01*
Y287344D01*
X174802D01*
Y296710D01*
Y306076D01*
D02*
G37*
G36*
X263939Y244847D02*
X257215Y238123D01*
X260796Y234543D01*
X267520Y241266D01*
X263939Y244847D01*
D02*
G37*
G36*
X236187Y239066D02*
X231768Y234646D01*
X235657Y230757D01*
X240076Y235177D01*
X236187Y239066D01*
D02*
G37*
G36*
X255801Y236709D02*
X249077Y229985D01*
X252658Y226404D01*
X259382Y233128D01*
X255801Y236709D01*
D02*
G37*
G36*
X241490Y233763D02*
X237071Y229343D01*
X240960Y225454D01*
X245380Y229874D01*
X241490Y233763D01*
D02*
G37*
G36*
X230354Y233232D02*
X225934Y228813D01*
X229823Y224924D01*
X234243Y229343D01*
X230354Y233232D01*
D02*
G37*
G36*
X262995Y163000D02*
X261005D01*
X259168Y162239D01*
X257761Y160832D01*
X257000Y158995D01*
Y157005D01*
X257761Y155168D01*
X259168Y153761D01*
X261005Y153000D01*
X262995D01*
X264832Y153761D01*
X266239Y155168D01*
X267000Y157005D01*
Y158995D01*
X266239Y160832D01*
X264832Y162239D01*
X262995Y163000D01*
D02*
G37*
G36*
X64066Y148612D02*
X60530Y145076D01*
X64596Y141010D01*
X68132Y144546D01*
X64066Y148612D01*
D02*
G37*
G36*
X69546Y143132D02*
X66010Y139596D01*
X70076Y135530D01*
X73612Y139066D01*
X69546Y143132D01*
D02*
G37*
G36*
X158500Y227250D02*
X153000D01*
Y221000D01*
X158500D01*
Y227250D01*
D02*
G37*
G36*
X151000D02*
X145500D01*
Y221000D01*
X151000D01*
Y227250D01*
D02*
G37*
G36*
X107000Y157250D02*
X101500D01*
Y151000D01*
X107000D01*
Y157250D01*
D02*
G37*
G36*
X99500D02*
X94000D01*
Y151000D01*
X99500D01*
Y157250D01*
D02*
G37*
G36*
X107000Y149000D02*
X101500D01*
Y142750D01*
X107000D01*
Y149000D01*
D02*
G37*
G36*
X99500D02*
X94000D01*
Y142750D01*
X99500D01*
Y149000D01*
D02*
G37*
G36*
X132021Y106031D02*
X118479D01*
Y96500D01*
X120945D01*
Y84500D01*
X118479D01*
Y74969D01*
X132021D01*
Y84500D01*
X129556D01*
Y96500D01*
X132021D01*
Y106031D01*
D02*
G37*
G36*
X255354Y43232D02*
X250934Y38813D01*
X254823Y34924D01*
X259243Y39343D01*
X255354Y43232D01*
D02*
G37*
G36*
X289874Y102880D02*
X285454Y98460D01*
X289343Y94571D01*
X293763Y98990D01*
X289874Y102880D01*
D02*
G37*
G36*
X284040Y97046D02*
X279970Y92977D01*
X279621Y92627D01*
X278610Y91545D01*
X266798Y79733D01*
X273798Y72733D01*
X285595Y84530D01*
X285960Y84895D01*
X287428Y84818D01*
X288813Y83434D01*
X293232Y87854D01*
X288636Y92450D01*
X284040Y97046D01*
D02*
G37*
G36*
X218510Y101263D02*
X214620Y97374D01*
X219040Y92954D01*
X222929Y96843D01*
X218510Y101263D01*
D02*
G37*
G36*
X229646Y100732D02*
X225757Y96843D01*
X228673Y93928D01*
Y98791D01*
X228939Y98558D01*
X229230Y98349D01*
X229546Y98165D01*
X229887Y98005D01*
X230251Y97870D01*
X230641Y97759D01*
X231055Y97673D01*
X231493Y97612D01*
X231957Y97575D01*
X232444Y97563D01*
Y95063D01*
X231957Y95050D01*
X231493Y95014D01*
X231055Y94952D01*
X230641Y94866D01*
X230251Y94756D01*
X229887Y94621D01*
X229546Y94461D01*
X229230Y94277D01*
X228939Y94068D01*
X228722Y93878D01*
X230177Y92424D01*
X234066Y96313D01*
X229646Y100732D01*
D02*
G37*
G36*
X224343Y95429D02*
X220454Y91540D01*
X224874Y87120D01*
X228763Y91010D01*
X224343Y95429D01*
D02*
G37*
G36*
X127000Y37250D02*
X121500D01*
Y31000D01*
X127000D01*
Y37250D01*
D02*
G37*
G36*
X119500D02*
X114000D01*
Y31000D01*
X119500D01*
Y37250D01*
D02*
G37*
%LPD*%
D11*
X199600Y144899D02*
G03*
X199682Y144766I10971J6690D01*
G01*
X202496Y140274D02*
G03*
X205250Y138750I2754J1725D01*
G01*
X198000Y148224D02*
G03*
X198365Y146923I2500J0D01*
G01*
X198000Y175803D02*
G03*
X197268Y177571I-2500J0D01*
G01*
X215061Y138750D02*
G03*
X216828Y139482I0J2500D01*
G01*
X241313Y96313D02*
X245801Y100801D01*
X236061Y108157D02*
X247424Y119520D01*
X245801Y100801D02*
Y108164D01*
X224874Y96313D02*
X241313D01*
X245801Y108164D02*
X252020Y114382D01*
X235657Y108157D02*
X236061D01*
X252020Y114382D02*
Y114924D01*
X196071Y220571D02*
X205929D01*
X195500Y220000D02*
X196071Y220571D01*
X224343Y96843D02*
X224874Y96313D01*
X205250Y138750D02*
X215061D01*
X199682Y144766D02*
X202496Y140274D01*
X198365Y146923D02*
X199600Y144899D01*
X198000Y148224D02*
Y175803D01*
X197500Y138790D02*
X202040Y134250D01*
X197500Y138790D02*
Y139250D01*
X190750Y146000D02*
X197500Y139250D01*
X190000Y146000D02*
X190750D01*
X202040Y134250D02*
X217960D01*
X185589Y189250D02*
X197268Y177571D01*
X216828Y139482D02*
X223500Y146154D01*
X196524Y92476D02*
X213000Y76000D01*
X240500D01*
X211000Y117000D02*
X215513Y112487D01*
X220013D02*
X223763Y108737D01*
X215513Y112487D02*
X220013D01*
X250896Y56831D02*
X260186Y66121D01*
X249343Y55253D02*
X250896Y56806D01*
X249343Y50657D02*
Y55253D01*
X250896Y56806D02*
Y56831D01*
X106322Y216000D02*
X106346D01*
X109596Y212750D01*
X120500D01*
X115750Y203250D02*
X119064Y199936D01*
X181266D02*
X210000Y171203D01*
X119064Y199936D02*
X181266D01*
X127000Y206250D02*
X172500D01*
X120500Y212750D02*
X127000Y206250D01*
X178715Y219214D02*
X179500Y220000D01*
X178715Y212465D02*
Y219214D01*
X172500Y206250D02*
X178715Y212465D01*
X238750Y171478D02*
Y208714D01*
X228250Y173706D02*
Y203000D01*
X238750Y208714D02*
X240669Y210634D01*
X217143Y214107D02*
X228250Y203000D01*
X232750Y171842D02*
Y212500D01*
X246919Y208992D02*
Y209419D01*
X232750Y212500D02*
X238874Y218624D01*
X243250Y169614D02*
Y205322D01*
X238874Y218624D02*
X244536D01*
X243250Y205322D02*
X246919Y208992D01*
X219000Y164456D02*
X228250Y173706D01*
X246919Y209419D02*
X258500Y221000D01*
X223500Y162592D02*
X232750Y171842D01*
X240669Y210634D02*
Y211581D01*
X228000Y160728D02*
X238750Y171478D01*
X244741Y218830D02*
X247080D01*
X247750Y219500D01*
X244536Y218624D02*
X244741Y218830D01*
X195888Y232174D02*
X199562Y228500D01*
X195888Y232174D02*
Y237762D01*
X212179Y217982D02*
Y223160D01*
X199562Y228500D02*
X206839D01*
X209750Y215553D02*
X212179Y217982D01*
X206839Y228500D02*
X212179Y223160D01*
X209750Y210000D02*
Y215553D01*
X195360Y238290D02*
X195888Y237762D01*
X206500Y206750D02*
X209750Y210000D01*
X194404Y206750D02*
X206500D01*
X187750Y213404D02*
X194404Y206750D01*
X110170Y234420D02*
Y238034D01*
X132978Y260978D02*
X133500Y261500D01*
X103250Y237478D02*
X126750Y260978D01*
X115750Y229159D02*
Y237250D01*
X109500Y233750D02*
X110170Y234420D01*
X129000Y250500D02*
X148175D01*
X126750Y260978D02*
X132978D01*
X115750Y237250D02*
X129000Y250500D01*
X127386Y255250D02*
X151250D01*
X110170Y238034D02*
X127386Y255250D01*
X103250Y231161D02*
Y237478D01*
X115750Y229159D02*
X120330Y224580D01*
X151250Y255250D02*
X156244Y250256D01*
X148175Y250500D02*
X149640Y249035D01*
Y238290D02*
Y249035D01*
X103250Y231161D02*
X117161Y217250D01*
X126500D01*
X132250Y211500D01*
X84199Y238123D02*
X106322Y216000D01*
X232500Y158864D02*
X243250Y169614D01*
X239000Y159000D02*
X247750Y167750D01*
Y201250D02*
X268000Y221500D01*
X247750Y167750D02*
Y201250D01*
X219000Y154250D02*
Y164456D01*
X232500Y140911D02*
Y158864D01*
X228000Y144290D02*
Y160728D01*
X223500Y146154D02*
Y162592D01*
X239000Y152000D02*
Y159000D01*
X232500Y140911D02*
X238207Y135204D01*
X248278D01*
X210750Y146000D02*
X219000Y154250D01*
X262980Y135076D02*
X266368Y138464D01*
X255729Y147271D02*
X256676D01*
X257583Y148178D02*
X263667D01*
X266368Y139878D02*
X266889Y140400D01*
Y144956D01*
X266368Y138464D02*
Y139878D01*
X263667Y148178D02*
X266889Y144956D01*
X256676Y147271D02*
X257583Y148178D01*
X193073Y99391D02*
Y100338D01*
X221250Y81000D02*
X238750D01*
X195750Y106500D02*
X221250Y81000D01*
X196524Y92476D02*
Y95940D01*
X195750Y106500D02*
Y112000D01*
X193073Y99391D02*
X196524Y95940D01*
X238750Y81000D02*
X260750Y103000D01*
X240500Y76000D02*
X265250Y100750D01*
X256616Y110328D02*
X260750Y106194D01*
X252707Y128025D02*
X265250Y115482D01*
X260750Y103000D02*
Y106194D01*
X265250Y100750D02*
Y115482D01*
X176750Y169152D02*
X182000Y163902D01*
Y147465D02*
Y163902D01*
X176750Y169152D02*
Y185589D01*
X217960Y134250D02*
X228000Y144290D01*
X180536Y146000D02*
X182000Y147465D01*
X210000Y159000D02*
Y171203D01*
X176750Y185589D02*
X180411Y189250D01*
X170000Y146000D02*
X180536D01*
X180411Y189250D02*
X185589D01*
X145672Y170172D02*
X146342Y170842D01*
X141922Y170172D02*
X145672D01*
X159830Y171580D02*
X160500Y172250D01*
X130750Y159000D02*
X141922Y170172D01*
X159830Y168080D02*
Y171580D01*
X130000Y159000D02*
X130750D01*
X150750D02*
X159830Y168080D01*
X219249Y250000D02*
X219750Y249499D01*
X227268Y258711D02*
X228215D01*
X211750Y250000D02*
X219249D01*
X217251Y255749D02*
X224305D01*
X227268Y258711D01*
X203750Y269250D02*
X217251Y255749D01*
X207750Y254000D02*
X211750Y250000D01*
X201305Y125000D02*
X218814D01*
X198805Y122500D02*
X201305Y125000D01*
X218814D02*
X235657Y108157D01*
X178750Y122500D02*
X198805D01*
X107000Y21500D02*
X109580Y18920D01*
X96750Y23404D02*
Y47250D01*
X118580Y18920D02*
X119250Y18250D01*
X96000Y48000D02*
X96750Y47250D01*
X109580Y18920D02*
X118580D01*
X98654Y21500D02*
X107000D01*
X96750Y23404D02*
X98654Y21500D01*
X104500Y30000D02*
X105000Y30500D01*
Y45000D01*
X108000Y48000D01*
X119000D01*
X269550Y121955D02*
X271851Y119653D01*
X269550Y121955D02*
Y123261D01*
X280690Y115310D02*
X287500Y122120D01*
X271851Y118971D02*
X275513Y115310D01*
X280690D01*
X280678Y125083D02*
Y131167D01*
X278101Y121560D02*
Y122507D01*
X280678Y125083D01*
X269550Y123261D02*
X272173Y125884D01*
X271851Y118971D02*
Y119653D01*
X295661Y137000D02*
X309250D01*
X293750Y105997D02*
X301187Y98560D01*
X287500Y128839D02*
X295661Y137000D01*
X293750Y105997D02*
Y126250D01*
X287500Y122120D02*
Y128839D01*
X277456Y134389D02*
X280678Y131167D01*
X272378Y133868D02*
X272899Y134389D01*
X267576Y130480D02*
X270964Y133868D01*
X272378D01*
X272899Y134389D02*
X277456D01*
X109850Y183685D02*
X118510Y175025D01*
Y156740D02*
X129250Y146000D01*
X118510Y156740D02*
Y175025D01*
X97835Y180000D02*
X104696D01*
X113250Y149404D02*
Y171446D01*
X104696Y180000D02*
X113250Y171446D01*
Y149404D02*
X123904Y138750D01*
X132250Y211500D02*
X160250D01*
X168000Y219250D01*
Y220000D01*
X301187Y82374D02*
Y98560D01*
X300657Y81843D02*
X301187Y82374D01*
X316692Y111692D02*
Y129558D01*
X309250Y137000D02*
X316692Y129558D01*
X133500Y261500D02*
Y289250D01*
X133250Y289500D02*
X133500Y289250D01*
X219097Y265385D02*
X221344Y263138D01*
X168250Y254000D02*
X207750D01*
X223813Y240126D02*
X224343Y240657D01*
X238123Y254437D01*
X195360Y239599D02*
X195888Y240126D01*
X195360Y238290D02*
Y239599D01*
X195888Y240126D02*
X223813D01*
X162848Y248598D02*
X168250Y254000D01*
X219097Y265385D02*
Y267153D01*
X212500Y273750D02*
X219097Y267153D01*
X172068Y273750D02*
X212500D01*
X169964Y269250D02*
X203750D01*
X162848Y238290D02*
Y248598D01*
X150168Y289046D02*
X169964Y269250D01*
X150168Y289046D02*
Y296182D01*
X149640Y296710D02*
X150168Y296182D01*
X156772Y289046D02*
X172068Y273750D01*
X156772Y289046D02*
Y296182D01*
X156244Y296710D02*
X156772Y296182D01*
X210000Y146000D02*
X210750D01*
X156244Y238290D02*
Y250256D01*
X123904Y138750D02*
X136096D01*
X138798Y141452D01*
Y143298D01*
X141500Y146000D01*
X150000D01*
X129250D02*
X130000D01*
X150000Y159000D02*
X150750D01*
X170000D02*
X170250Y159250D01*
Y175750D01*
X183000Y183000D02*
X190000Y176000D01*
Y159000D02*
Y176000D01*
X102572Y271000D02*
X125750Y294178D01*
X132750Y312500D02*
X178304D01*
X125750Y305500D02*
X132750Y312500D01*
X125750Y294178D02*
Y305500D01*
X188756Y308494D02*
X192512Y312250D01*
X210500D02*
X215750Y307000D01*
X192512Y312250D02*
X210500D01*
X178304Y312500D02*
X182152Y308652D01*
X215750Y288750D02*
Y307000D01*
X182152Y296710D02*
Y308652D01*
X188756Y296710D02*
Y308494D01*
X90250Y271000D02*
X102572D01*
X83250Y264000D02*
X90250Y271000D01*
X83250Y256750D02*
Y264000D01*
Y256750D02*
X93038Y246962D01*
Y246962D02*
Y246962D01*
X235250Y269250D02*
X244000D01*
X255000Y255000D02*
Y258250D01*
X244000Y269250D02*
X255000Y258250D01*
X246962Y246962D02*
X255000Y255000D01*
X215750Y288750D02*
X235250Y269250D01*
X179500Y220000D02*
X186285D01*
X187750Y218535D01*
Y213404D02*
Y218535D01*
X238123Y254437D02*
Y255801D01*
X248151Y128025D02*
X252707D01*
X247630Y127504D02*
X248151Y128025D01*
X246215Y127504D02*
X247630D01*
X242827Y124116D02*
X246215Y127504D01*
X300657Y79722D02*
Y81843D01*
X289814Y68879D02*
X300657Y79722D01*
X289814Y68879D02*
Y68879D01*
X169198Y221198D02*
Y238290D01*
X168000Y220000D02*
X169198Y221198D01*
X175802Y227174D02*
Y238290D01*
Y227174D02*
X176250Y226726D01*
Y223250D02*
Y226726D01*
Y223250D02*
X179500Y220000D01*
X84199Y238123D02*
Y238123D01*
X78750Y232674D02*
X84199Y238123D01*
X78750Y225250D02*
Y232674D01*
Y225250D02*
X84500Y219500D01*
Y207500D02*
Y219500D01*
X83000Y206000D02*
X84500Y207500D01*
X83000Y191450D02*
Y206000D01*
X262976Y49401D02*
X267932D01*
X259691Y52686D02*
X262976Y49401D01*
X271217Y52686D02*
X273621D01*
X267932Y49401D02*
X271217Y52686D01*
X253939Y50657D02*
X255969Y52686D01*
X249343Y50657D02*
X253939D01*
X255969Y52686D02*
X259691D01*
X249343Y50657D02*
X249343D01*
D18*
X64596Y139596D02*
D03*
X307500Y102500D02*
D03*
X316692Y111692D02*
D03*
X55404Y130404D02*
D03*
D21*
X240598Y294338D02*
D03*
X294338Y240598D02*
D03*
D22*
X45662D02*
D03*
X99402Y294338D02*
D03*
D25*
X100500Y207500D02*
D03*
X100500Y150000D02*
D03*
X152000Y220000D02*
D03*
X195500D02*
D03*
X179500D02*
D03*
X168000D02*
D03*
X84500Y150000D02*
D03*
X84500Y207500D02*
D03*
X120500Y30000D02*
D03*
X104500D02*
D03*
D28*
X260657Y39343D02*
D03*
X289343Y93157D02*
D03*
X235657Y229343D02*
D03*
X224343Y240657D02*
D03*
X300657Y81843D02*
D03*
X249343Y50657D02*
D03*
D35*
X150000Y146000D02*
D03*
Y159000D02*
D03*
X130000Y146000D02*
D03*
Y159000D02*
D03*
X190000Y146000D02*
D03*
Y159000D02*
D03*
X170000Y146000D02*
D03*
Y159000D02*
D03*
X210000Y146000D02*
D03*
Y159000D02*
D03*
D60*
X92750Y72078D02*
G03*
X92926Y70831I4500J0D01*
G01*
X92926D02*
X93750Y67975D01*
X96000Y67000D01*
X92750Y72078D02*
Y90500D01*
X133370Y57500D02*
X143290Y47580D01*
X119000Y57500D02*
X133370D01*
X143290Y42500D02*
Y47580D01*
X198781Y81219D02*
X210000Y70000D01*
X219500D01*
X181271Y81219D02*
X198781D01*
X219500Y70000D02*
X224500Y65000D01*
X233000D01*
X224005Y64505D02*
X224500Y65000D01*
X224000Y54755D02*
X224005Y54761D01*
Y64505D01*
X233000Y65000D02*
X247343Y50657D01*
X249343D01*
X178750Y83740D02*
Y92500D01*
Y83740D02*
X181271Y81219D01*
X83700Y150800D02*
X84500Y150000D01*
X83700Y150800D02*
Y167850D01*
X83000Y168550D02*
X83700Y167850D01*
X92750Y90500D02*
Y119005D01*
X84500Y127255D02*
X92750Y119005D01*
X84500Y127255D02*
Y150000D01*
X47945Y85444D02*
X57139Y76250D01*
X83750Y90500D02*
X92750D01*
X33702Y99687D02*
X47945Y85444D01*
X69500Y76250D02*
X83750Y90500D01*
X57139Y76250D02*
X69500D01*
X92750Y90500D02*
X92750Y90500D01*
X47172Y121263D02*
X56687Y111748D01*
X69865D01*
X72057Y109556D01*
X55404Y129949D02*
Y130404D01*
X47172Y121718D02*
X55404Y129949D01*
X47172Y121263D02*
Y121718D01*
X33702Y99687D02*
Y107792D01*
X24273Y130692D02*
X25197Y129767D01*
Y129410D02*
Y129767D01*
X51449Y103158D02*
X62658D01*
X25197Y129410D02*
X51449Y103158D01*
D61*
X305000Y175000D02*
D03*
X35000D02*
D03*
D62*
X135500Y105250D02*
D03*
X135750Y80750D02*
D03*
Y124000D02*
D03*
X118750Y109000D02*
D03*
X128500Y73000D02*
D03*
X155169Y15919D02*
D03*
X203000Y288750D02*
D03*
X132000Y11750D02*
D03*
X235500Y28750D02*
D03*
X325250Y138000D02*
D03*
X323000Y220000D02*
D03*
X303750Y215750D02*
D03*
X262250Y284750D02*
D03*
X276250Y261000D02*
D03*
X223750Y319250D02*
D03*
X207000Y326500D02*
D03*
X177500Y328500D02*
D03*
X192250Y323250D02*
D03*
X156000Y328000D02*
D03*
X140250Y321500D02*
D03*
X76500Y286500D02*
D03*
X66500Y271750D02*
D03*
Y255250D02*
D03*
X19250Y227000D02*
D03*
X10750Y211500D02*
D03*
X26000Y215750D02*
D03*
X65750Y208000D02*
D03*
X71000Y189250D02*
D03*
X18750Y119000D02*
D03*
X52500Y63500D02*
D03*
X73500Y65500D02*
D03*
X63500Y53500D02*
D03*
X70250Y160500D02*
D03*
X163750Y53250D02*
D03*
X174250Y58750D02*
D03*
X268669Y204419D02*
D03*
X254500Y195750D02*
D03*
X127750Y237250D02*
D03*
X205929Y220571D02*
D03*
X114750Y263250D02*
D03*
X284000Y76750D02*
D03*
X207000Y107500D02*
D03*
X240669Y211581D02*
D03*
X217143Y214107D02*
D03*
X262000Y158000D02*
D03*
X248278Y135204D02*
D03*
X239000Y152000D02*
D03*
X255729Y147271D02*
D03*
X193073Y100338D02*
D03*
X146342Y170842D02*
D03*
X160500Y172250D02*
D03*
X120330Y224580D02*
D03*
X228215Y258711D02*
D03*
X219750Y249499D02*
D03*
X119250Y18250D02*
D03*
X224000Y54755D02*
D03*
X278101Y121560D02*
D03*
X293750Y126250D02*
D03*
X115750Y203250D02*
D03*
X109850Y183685D02*
D03*
X97835Y180000D02*
D03*
X126500Y217250D02*
D03*
X133500Y261500D02*
D03*
X133250Y289500D02*
D03*
X258500Y221000D02*
D03*
X268000Y221500D02*
D03*
X221344Y263138D02*
D03*
X247750Y219500D02*
D03*
X109500Y233750D02*
D03*
X170250Y175750D02*
D03*
X183000Y183000D02*
D03*
X195750Y112000D02*
D03*
X211000Y117000D02*
D03*
X223763Y108737D02*
D03*
X62658Y103158D02*
D03*
D63*
X92750Y90500D02*
D03*
X125250D02*
D03*
X146250Y92500D02*
D03*
Y122500D02*
D03*
X178750D02*
D03*
Y92500D02*
D03*
D64*
X119000Y67000D02*
D03*
X96000Y48000D02*
D03*
X119000Y57500D02*
D03*
X96000Y67000D02*
D03*
Y57500D02*
D03*
X119000Y48000D02*
D03*
D65*
X266904Y59404D02*
D03*
X276379Y82314D02*
D03*
X289814Y68879D02*
D03*
X273621Y52686D02*
D03*
X260186Y66121D02*
D03*
D66*
X224343Y96843D02*
D03*
X235657Y108157D02*
D03*
D67*
X252020Y114924D02*
D03*
X256616Y110328D02*
D03*
X242827Y124116D02*
D03*
X272173Y125884D02*
D03*
X267576Y130480D02*
D03*
X262980Y135076D02*
D03*
X258384Y139672D02*
D03*
X247424Y119520D02*
D03*
D68*
X255801Y238123D02*
D03*
X238123Y255801D02*
D03*
X246962Y246962D02*
D03*
D69*
X101877Y255801D02*
D03*
X84199Y238123D02*
D03*
X93038Y246962D02*
D03*
D70*
X92500Y168550D02*
D03*
X102000D02*
D03*
X83000Y191450D02*
D03*
X102000D02*
D03*
X83000Y168550D02*
D03*
D71*
X195360Y296710D02*
D03*
X175802D02*
D03*
X169198D02*
D03*
X162848D02*
D03*
X149640D02*
D03*
X156244D02*
D03*
X182152D02*
D03*
X188756D02*
D03*
X195360Y238290D02*
D03*
X188756D02*
D03*
X182152D02*
D03*
X175802D02*
D03*
X169198D02*
D03*
X162848D02*
D03*
X156244D02*
D03*
X149640D02*
D03*
D72*
X201710Y42500D02*
D03*
X143290D02*
D03*
D73*
X33702Y107792D02*
D03*
X47172Y121263D02*
D03*
X24273Y130692D02*
D03*
D74*
X47945Y85444D02*
D03*
X72057Y109556D02*
D03*
M02*
