G04*
G04 #@! TF.GenerationSoftware,Altium Limited,Altium Designer,25.5.2 (35)*
G04*
G04 Layer_Physical_Order=2*
G04 Layer_Color=16711680*
%FSLAX44Y44*%
%MOMM*%
G71*
G04*
G04 #@! TF.SameCoordinates,78459730-5FDF-4622-8040-CD8E326CB214*
G04*
G04*
G04 #@! TF.FilePolarity,Positive*
G04*
G01*
G75*
%ADD11C,0.2500*%
%ADD17R,0.9500X0.8000*%
%ADD20R,0.9000X1.0500*%
G04:AMPARAMS|DCode=27|XSize=1.05mm|YSize=0.9mm|CornerRadius=0mm|HoleSize=0mm|Usage=FLASHONLY|Rotation=45.000|XOffset=0mm|YOffset=0mm|HoleType=Round|Shape=Rectangle|*
%AMROTATEDRECTD27*
4,1,4,-0.0530,-0.6894,-0.6894,-0.0530,0.0530,0.6894,0.6894,0.0530,-0.0530,-0.6894,0.0*
%
%ADD27ROTATEDRECTD27*%

G04:AMPARAMS|DCode=28|XSize=0.95mm|YSize=0.8mm|CornerRadius=0mm|HoleSize=0mm|Usage=FLASHONLY|Rotation=315.000|XOffset=0mm|YOffset=0mm|HoleType=Round|Shape=Rectangle|*
%AMROTATEDRECTD28*
4,1,4,-0.6187,0.0530,-0.0530,0.6187,0.6187,-0.0530,0.0530,-0.6187,-0.6187,0.0530,0.0*
%
%ADD28ROTATEDRECTD28*%

G04:AMPARAMS|DCode=32|XSize=2.2098mm|YSize=3.0988mm|CornerRadius=0mm|HoleSize=0mm|Usage=FLASHONLY|Rotation=225.000|XOffset=0mm|YOffset=0mm|HoleType=Round|Shape=Rectangle|*
%AMROTATEDRECTD32*
4,1,4,-0.3143,1.8769,1.8769,-0.3143,0.3143,-1.8769,-1.8769,0.3143,-0.3143,1.8769,0.0*
%
%ADD32ROTATEDRECTD32*%

G04:AMPARAMS|DCode=33|XSize=2.2098mm|YSize=3.0988mm|CornerRadius=0mm|HoleSize=0mm|Usage=FLASHONLY|Rotation=135.000|XOffset=0mm|YOffset=0mm|HoleType=Round|Shape=Rectangle|*
%AMROTATEDRECTD33*
4,1,4,1.8769,0.3143,-0.3143,-1.8769,-1.8769,-0.3143,0.3143,1.8769,1.8769,0.3143,0.0*
%
%ADD33ROTATEDRECTD33*%

%ADD58C,0.4500*%
%ADD59C,3.3000*%
%ADD60C,0.6000*%
%ADD61R,0.3556X1.4732*%
%ADD62R,0.5900X1.3200*%
G04:AMPARAMS|DCode=63|XSize=0.8128mm|YSize=1.7018mm|CornerRadius=0mm|HoleSize=0mm|Usage=FLASHONLY|Rotation=225.000|XOffset=0mm|YOffset=0mm|HoleType=Round|Shape=Rectangle|*
%AMROTATEDRECTD63*
4,1,4,-0.3143,0.8891,0.8891,-0.3143,0.3143,-0.8891,-0.8891,0.3143,-0.3143,0.8891,0.0*
%
%ADD63ROTATEDRECTD63*%

G04:AMPARAMS|DCode=64|XSize=0.8128mm|YSize=1.7018mm|CornerRadius=0mm|HoleSize=0mm|Usage=FLASHONLY|Rotation=135.000|XOffset=0mm|YOffset=0mm|HoleType=Round|Shape=Rectangle|*
%AMROTATEDRECTD64*
4,1,4,0.8891,0.3143,-0.3143,-0.8891,-0.8891,-0.3143,0.3143,0.8891,0.8891,0.3143,0.0*
%
%ADD64ROTATEDRECTD64*%

G04:AMPARAMS|DCode=65|XSize=0.45mm|YSize=1.3mm|CornerRadius=0mm|HoleSize=0mm|Usage=FLASHONLY|Rotation=315.000|XOffset=0mm|YOffset=0mm|HoleType=Round|Shape=Round|*
%AMOVALD65*
21,1,0.8500,0.4500,0.0000,0.0000,45.0*
1,1,0.4500,-0.3005,-0.3005*
1,1,0.4500,0.3005,0.3005*
%
%ADD65OVALD65*%

G04:AMPARAMS|DCode=66|XSize=1.05mm|YSize=0.9mm|CornerRadius=0mm|HoleSize=0mm|Usage=FLASHONLY|Rotation=315.000|XOffset=0mm|YOffset=0mm|HoleType=Round|Shape=Rectangle|*
%AMROTATEDRECTD66*
4,1,4,-0.6894,0.0530,-0.0530,0.6894,0.6894,-0.0530,0.0530,-0.6894,-0.6894,0.0530,0.0*
%
%ADD66ROTATEDRECTD66*%

G04:AMPARAMS|DCode=67|XSize=1.32mm|YSize=0.59mm|CornerRadius=0mm|HoleSize=0mm|Usage=FLASHONLY|Rotation=45.000|XOffset=0mm|YOffset=0mm|HoleType=Round|Shape=Rectangle|*
%AMROTATEDRECTD67*
4,1,4,-0.2581,-0.6753,-0.6753,-0.2581,0.2581,0.6753,0.6753,0.2581,-0.2581,-0.6753,0.0*
%
%ADD67ROTATEDRECTD67*%

%ADD68R,2.4130X3.4290*%
%ADD69R,0.9000X0.6450*%
%ADD70R,0.9542X2.7062*%
%ADD71P,1.0776X4X180.0*%
G04:AMPARAMS|DCode=72|XSize=1.11mm|YSize=1.73mm|CornerRadius=0mm|HoleSize=0mm|Usage=FLASHONLY|Rotation=45.000|XOffset=0mm|YOffset=0mm|HoleType=Round|Shape=Rectangle|*
%AMROTATEDRECTD72*
4,1,4,0.2192,-1.0041,-1.0041,0.2192,-0.2192,1.0041,1.0041,-0.2192,0.2192,-1.0041,0.0*
%
%ADD72ROTATEDRECTD72*%

G36*
X178542Y307576D02*
X178123Y306076D01*
X176802D01*
Y296710D01*
Y287344D01*
X194360D01*
Y296710D01*
Y306076D01*
X193146D01*
X192524Y307576D01*
X193885Y308936D01*
X209128D01*
X212436Y305627D01*
Y288750D01*
X212689Y287482D01*
X213407Y286407D01*
X232907Y266907D01*
X233982Y266189D01*
X235250Y265936D01*
X237723D01*
X238297Y264551D01*
X234433Y260686D01*
X232663Y261038D01*
X232454Y261544D01*
X231047Y262950D01*
X229210Y263711D01*
X227221D01*
X226047Y264849D01*
X225583Y265970D01*
X224176Y267377D01*
X222338Y268138D01*
X222215D01*
X222158Y268421D01*
X221440Y269496D01*
X214843Y276093D01*
X213768Y276811D01*
X212500Y277064D01*
X173440D01*
X164546Y285958D01*
X165120Y287344D01*
X168198D01*
Y296710D01*
Y306076D01*
X163848D01*
Y296710D01*
X161848D01*
Y306076D01*
X145862D01*
Y287344D01*
X147396D01*
X147825Y286703D01*
X167621Y266907D01*
X168696Y266189D01*
X169964Y265936D01*
X202377D01*
X210315Y257999D01*
X209359Y256834D01*
X209018Y257061D01*
X207750Y257314D01*
X168250D01*
X166982Y257061D01*
X165907Y256343D01*
X160877Y251313D01*
X159624Y251481D01*
X159493Y251517D01*
X159198Y251685D01*
X158587Y252599D01*
X153593Y257593D01*
X152518Y258311D01*
X151250Y258564D01*
X139319D01*
X138317Y260064D01*
X138500Y260505D01*
Y262495D01*
X137739Y264332D01*
X136814Y265257D01*
Y285993D01*
X137489Y286668D01*
X138250Y288505D01*
Y290495D01*
X137489Y292332D01*
X136082Y293739D01*
X134245Y294500D01*
X132255D01*
X130513Y293778D01*
X129960Y293931D01*
X129064Y294506D01*
Y304128D01*
X134123Y309186D01*
X176931D01*
X178542Y307576D01*
D02*
G37*
G36*
X128250Y289871D02*
Y288505D01*
X129011Y286668D01*
X130186Y285493D01*
Y265257D01*
X129261Y264332D01*
X129244Y264292D01*
X126750D01*
X125482Y264039D01*
X124407Y263321D01*
X114700Y253614D01*
X112609Y253645D01*
X106872Y259382D01*
X102584Y255094D01*
X101170Y256508D01*
X105457Y260796D01*
X100067Y266186D01*
X100688Y267686D01*
X102572D01*
X103840Y267939D01*
X104915Y268657D01*
X126750Y290492D01*
X128250Y289871D01*
D02*
G37*
G36*
X209407Y247657D02*
X210482Y246939D01*
X211750Y246686D01*
X215503D01*
X215511Y246666D01*
X216918Y245260D01*
X216805Y243683D01*
X216674Y243440D01*
X199138D01*
Y247656D01*
X168552D01*
X167978Y249042D01*
X169623Y250686D01*
X206378D01*
X209407Y247657D01*
D02*
G37*
G36*
X186672Y337984D02*
X197542Y336553D01*
X208295Y334414D01*
X218885Y331577D01*
X229266Y328052D01*
X239395Y323857D01*
X249228Y319008D01*
X258723Y313526D01*
X267839Y307435D01*
X276537Y300761D01*
X284780Y293532D01*
X292532Y285780D01*
X299761Y277537D01*
X306435Y268839D01*
X312526Y259723D01*
X318008Y250228D01*
X322857Y240395D01*
X327052Y230266D01*
X330577Y219885D01*
X333414Y209294D01*
X335553Y198541D01*
X336984Y187672D01*
X337065Y186434D01*
X335585Y186089D01*
X334211Y189405D01*
X332081Y193095D01*
X329487Y196475D01*
X326475Y199487D01*
X323095Y202081D01*
X319405Y204211D01*
X315469Y205841D01*
X311354Y206944D01*
X307130Y207500D01*
X302870D01*
X298646Y206944D01*
X294531Y205841D01*
X290595Y204211D01*
X286905Y202081D01*
X283525Y199487D01*
X280513Y196475D01*
X277919Y193095D01*
X275789Y189405D01*
X274159Y185469D01*
X273056Y181354D01*
X272500Y177130D01*
Y172870D01*
X273056Y168646D01*
X274159Y164531D01*
X275789Y160595D01*
X277919Y156905D01*
X280513Y153525D01*
X283525Y150513D01*
X286905Y147919D01*
X290595Y145789D01*
X294531Y144159D01*
X298646Y143056D01*
X302870Y142500D01*
X307130D01*
X311354Y143056D01*
X315469Y144159D01*
X319405Y145789D01*
X323095Y147919D01*
X326475Y150513D01*
X329487Y153525D01*
X332081Y156905D01*
X334211Y160595D01*
X335841Y164531D01*
X336201Y165874D01*
X337701Y165768D01*
X336984Y154828D01*
X335553Y143958D01*
X333414Y133205D01*
X330577Y122615D01*
X327052Y112234D01*
X326908Y111886D01*
X325197Y111673D01*
X320006Y116864D01*
Y129558D01*
X319754Y130826D01*
X319035Y131901D01*
X311593Y139343D01*
X310518Y140061D01*
X309250Y140314D01*
X295661D01*
X294393Y140061D01*
X293318Y139343D01*
X285458Y131483D01*
X284302Y131658D01*
X283843Y131915D01*
X283739Y132435D01*
X283021Y133510D01*
X279799Y136732D01*
X278724Y137451D01*
X277456Y137703D01*
X272899D01*
X272032Y137530D01*
X271749Y137586D01*
X270319Y138082D01*
X270030Y139532D01*
X270203Y140400D01*
Y144956D01*
X269951Y146224D01*
X269232Y147299D01*
X266010Y150521D01*
X264935Y151239D01*
X263667Y151491D01*
X258580D01*
X258561Y151510D01*
X256724Y152271D01*
X254735D01*
X252897Y151510D01*
X251490Y150103D01*
X250729Y148265D01*
Y146276D01*
X251490Y144438D01*
X252897Y143032D01*
X253319Y142857D01*
X253671Y141088D01*
X252315Y139731D01*
X252193Y139550D01*
X251110Y139443D01*
X249272Y140204D01*
X247283D01*
X245446Y139443D01*
X244520Y138518D01*
X239580D01*
X235814Y142284D01*
Y146284D01*
X237314Y147287D01*
X238005Y147000D01*
X239995D01*
X241832Y147761D01*
X243239Y149168D01*
X244000Y151005D01*
Y152995D01*
X243239Y154832D01*
X242314Y155757D01*
Y157627D01*
X250093Y165407D01*
X250811Y166482D01*
X251064Y167750D01*
Y199877D01*
X267686Y216500D01*
X268995D01*
X270832Y217261D01*
X272239Y218668D01*
X273000Y220505D01*
Y222495D01*
X272239Y224332D01*
X270832Y225739D01*
X268995Y226500D01*
X267005D01*
X265168Y225739D01*
X263980Y224551D01*
X263614Y224339D01*
X262167Y224404D01*
X261332Y225239D01*
X259495Y226000D01*
X257505D01*
X255668Y225239D01*
X254261Y223832D01*
X253626Y222299D01*
X252515Y222101D01*
X252064Y222150D01*
X251989Y222332D01*
X250582Y223739D01*
X248745Y224500D01*
X246755D01*
X244918Y223739D01*
X243511Y222332D01*
X243348Y221938D01*
X239565D01*
X238944Y223438D01*
X239546Y224040D01*
X235657Y227929D01*
X231237Y223510D01*
X234095Y220652D01*
X235126Y219620D01*
X234107Y218543D01*
X230407Y214843D01*
X229689Y213768D01*
X229436Y212500D01*
Y208460D01*
X228050Y207886D01*
X222143Y213793D01*
Y215102D01*
X221382Y216940D01*
X219975Y218346D01*
X218137Y219107D01*
X216148D01*
X215493Y219545D01*
Y223160D01*
X215240Y224428D01*
X214522Y225503D01*
X209182Y230843D01*
X208107Y231561D01*
X206839Y231814D01*
X200935D01*
X199202Y233547D01*
Y236813D01*
X217934D01*
X223813Y230934D01*
X234066Y241187D01*
X231813Y243440D01*
X233717Y245345D01*
X234980Y244082D01*
X234980D01*
X235243Y243819D01*
X243021Y236041D01*
X244082Y234980D01*
X244880Y234182D01*
X247663Y231399D01*
X255094Y238830D01*
X262525Y246261D01*
X259742Y249044D01*
X258681Y250105D01*
X257883Y250903D01*
X256736Y252050D01*
X257343Y252657D01*
X258061Y253732D01*
X258314Y255000D01*
Y258250D01*
X258061Y259518D01*
X257343Y260593D01*
X246343Y271593D01*
X245268Y272311D01*
X244000Y272564D01*
X239399D01*
X238778Y274064D01*
X249118Y284404D01*
X239891Y293631D01*
X230664Y302858D01*
X220449Y292644D01*
X219064Y293218D01*
Y307000D01*
X218811Y308268D01*
X218093Y309343D01*
X212843Y314593D01*
X211768Y315311D01*
X210500Y315564D01*
X192512D01*
X191244Y315311D01*
X190169Y314593D01*
X186413Y310837D01*
X186409Y310831D01*
X184605Y310831D01*
X184495Y310995D01*
X180647Y314843D01*
X179572Y315561D01*
X178304Y315814D01*
X132750D01*
X131482Y315561D01*
X130407Y314843D01*
X123407Y307843D01*
X122689Y306768D01*
X122436Y305500D01*
Y295551D01*
X119540Y292654D01*
X109336Y302858D01*
X100109Y293631D01*
X90882Y284404D01*
X99587Y275699D01*
X99013Y274314D01*
X90250D01*
X88982Y274061D01*
X87907Y273343D01*
X80907Y266343D01*
X80189Y265268D01*
X79936Y264000D01*
Y256750D01*
X80189Y255482D01*
X80907Y254407D01*
X82514Y252800D01*
Y251300D01*
X81319Y250105D01*
X80258Y249044D01*
X72480Y241266D01*
X77568Y236178D01*
X76407Y235017D01*
X75689Y233942D01*
X75436Y232674D01*
Y225250D01*
X75689Y223982D01*
X76407Y222907D01*
X81186Y218127D01*
Y214750D01*
X78000D01*
Y201529D01*
X78000Y200250D01*
X78000Y200250D01*
X78050Y200050D01*
X78050D01*
Y182850D01*
X87950D01*
Y200050D01*
X89367Y200250D01*
X91000D01*
Y214750D01*
X87814D01*
Y219500D01*
X87561Y220768D01*
X86843Y221843D01*
X82064Y226623D01*
Y229562D01*
X83564Y230183D01*
X87342Y226404D01*
X89287Y228349D01*
X101500Y216136D01*
X100926Y214750D01*
X94000D01*
Y208500D01*
X100500D01*
X107000D01*
Y208772D01*
X107196Y209004D01*
X108097Y209549D01*
X108500Y209654D01*
X109596Y209436D01*
X113700D01*
X113998Y207936D01*
X112918Y207489D01*
X111511Y206082D01*
X110750Y204245D01*
Y202255D01*
X111511Y200418D01*
X112918Y199011D01*
X114755Y198250D01*
X116064D01*
X116721Y197593D01*
X117796Y196875D01*
X119064Y196623D01*
X179894D01*
X182567Y193949D01*
X181993Y192564D01*
X180411D01*
X179143Y192311D01*
X178068Y191593D01*
X174407Y187932D01*
X173689Y186857D01*
X173436Y185589D01*
Y181466D01*
X171936Y180463D01*
X171245Y180750D01*
X169255D01*
X167418Y179989D01*
X166011Y178582D01*
X165250Y176745D01*
Y176692D01*
X163750Y176071D01*
X163332Y176489D01*
X161495Y177250D01*
X159505D01*
X157668Y176489D01*
X156261Y175082D01*
X155500Y173245D01*
Y171255D01*
X156261Y169418D01*
X156371Y169308D01*
X152064Y165000D01*
X149224D01*
X148926Y166500D01*
X149174Y166603D01*
X150580Y168009D01*
X151342Y169847D01*
Y171836D01*
X150580Y173674D01*
X149174Y175080D01*
X147336Y175842D01*
X145347D01*
X143509Y175080D01*
X142103Y173674D01*
X142025Y173486D01*
X141922D01*
X140654Y173233D01*
X139579Y172515D01*
X132064Y165000D01*
X123250D01*
Y165000D01*
X121824Y165178D01*
Y175025D01*
X121571Y176293D01*
X120853Y177368D01*
X114850Y183371D01*
Y184679D01*
X114089Y186517D01*
X112683Y187924D01*
X110845Y188685D01*
X108856D01*
X108450Y188517D01*
X106950Y189519D01*
Y198771D01*
X107000Y200250D01*
X107000Y200250D01*
X107000D01*
Y206500D01*
X100500D01*
X94000D01*
Y200250D01*
X95633D01*
X97050Y200050D01*
Y185000D01*
X96840D01*
X95002Y184239D01*
X93596Y182832D01*
X92835Y180994D01*
Y179005D01*
X92982Y178650D01*
X91979Y177150D01*
X78050D01*
Y159950D01*
X79367D01*
Y157250D01*
X78000D01*
Y142750D01*
X80167D01*
Y127255D01*
X80497Y125597D01*
X81436Y124191D01*
X88417Y117210D01*
Y106031D01*
X85979D01*
Y94833D01*
X83750D01*
X82092Y94503D01*
X80686Y93564D01*
X67705Y80583D01*
X60267D01*
X59646Y82083D01*
X60814Y83252D01*
X45753Y98313D01*
X43478Y96039D01*
X38035Y101482D01*
Y103909D01*
X41303Y107176D01*
X48385Y100094D01*
X49791Y99155D01*
X51449Y98825D01*
X60054D01*
X61664Y98159D01*
X63653D01*
X65491Y98920D01*
X66897Y100326D01*
X67363Y101452D01*
X69044Y101892D01*
X74249Y96687D01*
X84927Y107364D01*
X69865Y122425D01*
X63521Y116081D01*
X58482D01*
X55121Y119442D01*
X55210Y120921D01*
X55934Y121388D01*
X55934Y121388D01*
X55934Y121388D01*
X64066Y129520D01*
X64419Y129874D01*
X65480Y130934D01*
X68662Y134116D01*
X63889Y138889D01*
X59116Y143662D01*
X55934Y140480D01*
X55581Y140127D01*
X54520Y139066D01*
X46388Y130934D01*
X46586Y130736D01*
X47172Y129479D01*
X39214Y121521D01*
X31267Y129469D01*
X32489Y130692D01*
X24273Y138908D01*
X16056Y130692D01*
X24273Y122475D01*
X25138Y123341D01*
X33086Y115393D01*
X25485Y107792D01*
X29369Y103909D01*
Y99687D01*
X29699Y98028D01*
X30638Y96623D01*
X37350Y89910D01*
X35076Y87636D01*
X50137Y72575D01*
X52412Y74849D01*
X54075Y73186D01*
X55481Y72247D01*
X57139Y71917D01*
X69500D01*
X71158Y72247D01*
X72564Y73186D01*
X80472Y81094D01*
X81877Y80569D01*
X82966Y65107D01*
X83055Y64779D01*
X83126Y64447D01*
X86156Y57375D01*
X86266Y57215D01*
X86342Y57035D01*
X86489Y56890D01*
X86606Y56719D01*
X86770Y56613D01*
X86908Y56476D01*
X87100Y56398D01*
X87273Y56285D01*
X87465Y56250D01*
X87645Y56176D01*
X87852Y56178D01*
X88055Y56140D01*
X88720Y55781D01*
X89500Y55124D01*
Y42775D01*
X93436D01*
Y24097D01*
X92169Y23181D01*
X91972Y23147D01*
X91272Y23492D01*
X81777Y28974D01*
X72661Y35065D01*
X63963Y41739D01*
X55720Y48968D01*
X47968Y56720D01*
X40739Y64963D01*
X34065Y73661D01*
X27974Y82777D01*
X22492Y92272D01*
X17643Y102105D01*
X13447Y112234D01*
X9923Y122615D01*
X7086Y133205D01*
X4947Y143959D01*
X3516Y154828D01*
X2945Y163542D01*
X4425Y163887D01*
X5789Y160595D01*
X7919Y156905D01*
X10513Y153525D01*
X13525Y150513D01*
X16905Y147919D01*
X20595Y145789D01*
X24531Y144159D01*
X28646Y143056D01*
X32870Y142500D01*
X37130D01*
X41354Y143056D01*
X45469Y144159D01*
X49405Y145789D01*
X53095Y147919D01*
X56475Y150513D01*
X59487Y153525D01*
X62081Y156905D01*
X64211Y160595D01*
X65841Y164531D01*
X66944Y168646D01*
X67500Y172870D01*
Y177130D01*
X66944Y181354D01*
X65841Y185469D01*
X64211Y189405D01*
X62081Y193095D01*
X59487Y196475D01*
X56475Y199487D01*
X53095Y202081D01*
X49405Y204211D01*
X45469Y205841D01*
X41354Y206944D01*
X37130Y207500D01*
X32870D01*
X28646Y206944D01*
X24531Y205841D01*
X20595Y204211D01*
X16905Y202081D01*
X13525Y199487D01*
X10513Y196475D01*
X7919Y193095D01*
X5789Y189405D01*
X5009Y187523D01*
X5006Y187523D01*
X3548Y187914D01*
X4947Y198542D01*
X7086Y209294D01*
X9923Y219884D01*
X13447Y230266D01*
X17643Y240395D01*
X22492Y250228D01*
X27974Y259723D01*
X34065Y268839D01*
X40739Y277537D01*
X47968Y285780D01*
X55720Y293532D01*
X63963Y300761D01*
X72661Y307435D01*
X81777Y313526D01*
X91271Y319008D01*
X101105Y323857D01*
X111234Y328052D01*
X121615Y331577D01*
X132205Y334414D01*
X142959Y336553D01*
X153828Y337984D01*
X164768Y338701D01*
X175732D01*
X186672Y337984D01*
D02*
G37*
G36*
X145862Y228924D02*
X165884D01*
Y227250D01*
X161500D01*
Y217436D01*
X160000Y215936D01*
X158500Y216558D01*
Y219000D01*
X152000D01*
X145500D01*
Y214814D01*
X133623D01*
X131500Y216936D01*
Y218245D01*
X130739Y220082D01*
X129332Y221489D01*
X127495Y222250D01*
X126400D01*
X125337Y223575D01*
X125330Y223636D01*
Y225574D01*
X124568Y227412D01*
X123162Y228818D01*
X121324Y229579D01*
X120016D01*
X119064Y230532D01*
Y235877D01*
X130373Y247186D01*
X145862D01*
Y228924D01*
D02*
G37*
G36*
X184689Y212136D02*
X185407Y211061D01*
X192061Y204407D01*
X193136Y203689D01*
X194404Y203436D01*
X206500D01*
X207768Y203689D01*
X208843Y204407D01*
X212093Y207657D01*
X212811Y208732D01*
X212897Y209161D01*
X213559Y209492D01*
X214520Y209782D01*
X216148Y209107D01*
X217457D01*
X224936Y201627D01*
Y175078D01*
X216657Y166799D01*
X215939Y165724D01*
X215795Y165000D01*
X213314D01*
Y171203D01*
X213061Y172471D01*
X212343Y173546D01*
X183610Y202279D01*
X182535Y202998D01*
X181266Y203250D01*
X176308D01*
X175686Y204750D01*
X181058Y210121D01*
X181776Y211196D01*
X182028Y212465D01*
Y212750D01*
X184566D01*
X184689Y212136D01*
D02*
G37*
G36*
X109936Y170074D02*
Y149404D01*
X110189Y148136D01*
X110907Y147061D01*
X121561Y136407D01*
X122636Y135689D01*
X123904Y135436D01*
X136096D01*
X137364Y135689D01*
X137979Y136099D01*
X139479Y135469D01*
Y123500D01*
X145250D01*
Y138031D01*
X143296D01*
X142482Y139531D01*
X142824Y140056D01*
X143250Y140000D01*
Y140000D01*
X156750D01*
Y151500D01*
X156750Y153000D01*
X156750Y153500D01*
Y160314D01*
X161972Y165536D01*
X163250Y164715D01*
Y153000D01*
X163250D01*
Y152000D01*
X163250D01*
Y140000D01*
X176750D01*
Y142686D01*
X180536D01*
X181750Y142928D01*
X181810Y142935D01*
X183250Y142101D01*
Y140000D01*
X192064D01*
X194413Y137651D01*
X194439Y137522D01*
X195157Y136447D01*
X199697Y131907D01*
X200772Y131189D01*
X202040Y130936D01*
X217960D01*
X219228Y131189D01*
X220303Y131907D01*
X227931Y139534D01*
X228309Y139562D01*
X229728Y139210D01*
X230157Y138568D01*
X235864Y132861D01*
X236939Y132143D01*
X238207Y131890D01*
X242621D01*
X243076Y130391D01*
X242769Y130185D01*
X236758Y124175D01*
X235819Y122769D01*
X235489Y121111D01*
X235819Y119453D01*
X236151Y118955D01*
X235126Y117879D01*
X232873Y115626D01*
X221157Y127343D01*
X220082Y128061D01*
X218814Y128314D01*
X201305D01*
X200037Y128061D01*
X198962Y127343D01*
X197432Y125814D01*
X185521D01*
Y138031D01*
X171979D01*
Y133752D01*
X171878Y133615D01*
X171394Y133176D01*
X170479Y132660D01*
X170443Y132664D01*
X170384Y132649D01*
X170324Y132654D01*
X170001Y132549D01*
X169673Y132464D01*
X169625Y132427D01*
X169567Y132409D01*
X169309Y132189D01*
X169038Y131984D01*
X169008Y131932D01*
X168962Y131892D01*
X165775Y127855D01*
X165653Y127617D01*
X165502Y127397D01*
X165499Y127384D01*
X165491Y127372D01*
X165491Y127372D01*
X165468Y127254D01*
X165413Y127147D01*
X165392Y126881D01*
X165336Y126619D01*
X164656Y75832D01*
X164658Y75819D01*
X164656Y75805D01*
X164731Y75427D01*
X164801Y75050D01*
X164808Y75038D01*
X164811Y75025D01*
X165024Y74705D01*
X165234Y74383D01*
X165245Y74375D01*
X165253Y74363D01*
X178461Y61155D01*
Y26250D01*
X178616Y25470D01*
X179058Y24808D01*
X179058Y24808D01*
X187308Y16558D01*
X187970Y16116D01*
X188750Y15961D01*
X212750D01*
X213530Y16116D01*
X214192Y16558D01*
X214634Y17220D01*
X214789Y18000D01*
Y23355D01*
X215775D01*
Y36686D01*
X238686D01*
X239954Y36939D01*
X241029Y37657D01*
X246560Y43187D01*
X248813Y40934D01*
X256011Y48132D01*
X256283Y48314D01*
X257341Y49373D01*
X258319D01*
X259906Y47785D01*
X256768Y44646D01*
X261364Y40050D01*
X260657Y39343D01*
X261364Y38636D01*
X256237Y33510D01*
X259116Y30631D01*
X258969Y29138D01*
X258723Y28974D01*
X249228Y23492D01*
X239395Y18643D01*
X229266Y14447D01*
X218885Y10923D01*
X208295Y8086D01*
X197541Y5947D01*
X186672Y4516D01*
X175732Y3799D01*
X170250Y3799D01*
X164768D01*
X153828Y4516D01*
X142958Y5947D01*
X132205Y8086D01*
X121615Y10923D01*
X119180Y11750D01*
X119428Y13250D01*
X120245D01*
X122082Y14011D01*
X123489Y15418D01*
X124250Y17255D01*
Y17541D01*
X124306Y17707D01*
X125750Y18911D01*
X147764Y17714D01*
X147885Y17731D01*
X148006Y17715D01*
X148276Y17787D01*
X148552Y17826D01*
X148657Y17889D01*
X148775Y17920D01*
X153134Y20064D01*
X153268Y20166D01*
X153421Y20236D01*
X153581Y20406D01*
X153766Y20548D01*
X153850Y20694D01*
X153966Y20816D01*
X154048Y21035D01*
X154165Y21237D01*
X154187Y21403D01*
X154246Y21561D01*
X154239Y21794D01*
X154270Y22025D01*
X154653Y22657D01*
X155290Y23355D01*
X157355D01*
Y61645D01*
X154491D01*
X153889Y62247D01*
X153469Y62823D01*
X153461Y63035D01*
X153461Y63145D01*
X153480Y63383D01*
X153443Y63498D01*
X153438Y63618D01*
X153321Y63873D01*
X153235Y64140D01*
X153156Y64232D01*
X153106Y64342D01*
X152900Y64532D01*
X152718Y64746D01*
X152611Y64800D01*
X152522Y64882D01*
X141775Y71487D01*
X141623Y71544D01*
X141488Y71634D01*
X141253Y71681D01*
X141029Y71764D01*
X140866Y71757D01*
X140707Y71789D01*
X132321D01*
X132321Y71789D01*
X131541Y71634D01*
X130879Y71192D01*
X130177Y70490D01*
X129089Y70039D01*
X127911D01*
X127780Y70093D01*
X127583Y70132D01*
X127398Y70209D01*
X127197D01*
X127000Y70249D01*
X126274Y70497D01*
X125777Y70933D01*
X125663Y71075D01*
X125506Y71353D01*
X125500Y71368D01*
Y72225D01*
X120000D01*
Y67000D01*
X119000D01*
Y66000D01*
X112500D01*
Y61775D01*
Y51314D01*
X108638D01*
X108604Y51358D01*
X108154Y52240D01*
X108038Y52619D01*
X108033Y52814D01*
X108073Y52852D01*
X108188Y53115D01*
X108331Y53363D01*
X108345Y53476D01*
X108391Y53581D01*
X108397Y53868D01*
X108434Y54152D01*
X105785Y93886D01*
X105769Y93943D01*
X105773Y94003D01*
X104452Y104574D01*
X104329Y104944D01*
X104206Y105321D01*
X102277Y108750D01*
X102096Y108961D01*
X101942Y109192D01*
X101840Y109260D01*
X101759Y109354D01*
X101511Y109480D01*
X101280Y109634D01*
X101160Y109658D01*
X101050Y109714D01*
X100773Y109735D01*
X100500Y109789D01*
X97083D01*
Y119005D01*
X96753Y120663D01*
X95814Y122069D01*
X88833Y129050D01*
Y142750D01*
X91000D01*
Y157250D01*
X88033D01*
Y159950D01*
X91500D01*
Y168550D01*
X93500D01*
Y159950D01*
X106950D01*
Y171100D01*
X108336Y171674D01*
X109936Y170074D01*
D02*
G37*
G36*
X171979Y130137D02*
Y123500D01*
X178750D01*
Y121500D01*
X171979D01*
Y106969D01*
Y93500D01*
X185521D01*
Y106969D01*
Y119186D01*
X188750D01*
Y102968D01*
X188073Y101333D01*
Y99344D01*
X188750Y97709D01*
Y75500D01*
X199500Y64750D01*
X206750D01*
Y64500D01*
X208219Y63031D01*
X207645Y61645D01*
X202710D01*
Y42500D01*
Y23355D01*
X212750D01*
Y18000D01*
X188750D01*
X180500Y26250D01*
Y62000D01*
X166695Y75805D01*
X167375Y126592D01*
X167375Y126592D01*
X167375D01*
Y126592D01*
X170562Y130629D01*
X171979Y130137D01*
D02*
G37*
G36*
X313379Y128185D02*
Y117925D01*
X307677Y112223D01*
Y112223D01*
X306970Y111516D01*
X303434Y107980D01*
X308207Y103207D01*
X312980Y98434D01*
X316516Y101970D01*
X317223Y102677D01*
X324474Y109928D01*
X325745Y109078D01*
X322857Y102105D01*
X318008Y92272D01*
X312526Y82777D01*
X306435Y73661D01*
X299761Y64963D01*
X292532Y56720D01*
X284780Y48968D01*
X276537Y41739D01*
X267839Y35065D01*
X267367Y34750D01*
X266415Y35909D01*
X270380Y39873D01*
X265552Y44701D01*
X266126Y46087D01*
X267932D01*
X268037Y46108D01*
X271040Y43105D01*
X283202Y55267D01*
X276202Y62267D01*
X273692Y64778D01*
X267611Y58696D01*
X266196Y60111D01*
X272278Y66192D01*
X269767Y68702D01*
X262767Y75702D01*
X250605Y63540D01*
X251762Y62383D01*
X248553Y59175D01*
X248503Y59099D01*
X247000Y57596D01*
X246819Y57325D01*
X239620Y50127D01*
X241873Y47873D01*
X237314Y43314D01*
X215775D01*
Y51442D01*
X220243D01*
X221168Y50517D01*
X223005Y49756D01*
X224995D01*
X226832Y50517D01*
X228239Y51923D01*
X229000Y53761D01*
Y55750D01*
X228239Y57588D01*
X226832Y58994D01*
X224995Y59755D01*
X223005D01*
X221168Y58994D01*
X220243Y58069D01*
X215775D01*
Y61645D01*
X211365D01*
X210258Y63031D01*
X210103Y63811D01*
X209661Y64473D01*
X209661Y64473D01*
X208641Y65492D01*
X208634Y65530D01*
X208192Y66192D01*
X207530Y66634D01*
X206750Y66789D01*
X200345D01*
X190789Y76345D01*
Y94522D01*
X192036Y95356D01*
X192078Y95338D01*
X192440D01*
X193211Y94567D01*
Y92476D01*
X193463Y91208D01*
X194181Y90133D01*
X210657Y73657D01*
X211732Y72939D01*
X213000Y72686D01*
X240500D01*
X241768Y72939D01*
X242843Y73657D01*
X267593Y98407D01*
X268311Y99482D01*
X268564Y100750D01*
Y115451D01*
X268632Y115517D01*
X269954Y116182D01*
X273169Y112967D01*
X274244Y112248D01*
X275513Y111996D01*
X280690D01*
X281958Y112248D01*
X283033Y112967D01*
X288936Y118870D01*
X290436Y118248D01*
Y105997D01*
X290689Y104729D01*
X291407Y103654D01*
X296971Y98089D01*
X296940Y97934D01*
X295313Y97440D01*
X295177Y97576D01*
X290757Y93157D01*
X294646Y89268D01*
X296488Y91109D01*
X297873Y90535D01*
Y88252D01*
X290934Y81313D01*
X292318Y79928D01*
X292030Y78095D01*
X280233Y66298D01*
X287233Y59298D01*
X299045Y71110D01*
X300126Y72120D01*
X300126D01*
X310380Y82374D01*
X304501Y88252D01*
Y95054D01*
X305887Y95628D01*
X308030Y93484D01*
X311566Y97020D01*
X306793Y101793D01*
X302020Y106566D01*
X299944Y104489D01*
X297064Y107369D01*
Y122493D01*
X297989Y123418D01*
X298750Y125255D01*
Y127245D01*
X297989Y129082D01*
X296582Y130489D01*
X296140Y130672D01*
X295789Y132441D01*
X297034Y133686D01*
X307878D01*
X313379Y128185D01*
D02*
G37*
G36*
X207115Y120186D02*
X206761Y119832D01*
X206000Y117995D01*
Y116005D01*
X206761Y114168D01*
X208168Y112761D01*
X210005Y112000D01*
X211314D01*
X216250Y107064D01*
X217325Y106346D01*
X218593Y106093D01*
X219446D01*
X219524Y105905D01*
X220930Y104498D01*
X221066Y103819D01*
X219924Y102677D01*
X225050Y97550D01*
X230177Y92424D01*
X230752Y92999D01*
X241313D01*
X242581Y93251D01*
X243656Y93970D01*
X248144Y98458D01*
X248863Y99533D01*
X249115Y100801D01*
Y103701D01*
X250226Y104134D01*
X250615Y104213D01*
X251953Y103319D01*
X253611Y102989D01*
X254011Y103069D01*
X254750Y101686D01*
X237377Y84314D01*
X222623D01*
X199863Y107073D01*
Y109042D01*
X199989Y109168D01*
X200750Y111005D01*
Y112995D01*
X199989Y114832D01*
X198582Y116239D01*
X196745Y117000D01*
X194755D01*
X192918Y116239D01*
X192289Y115610D01*
X190789Y116232D01*
Y119186D01*
X198805D01*
X200073Y119439D01*
X201148Y120157D01*
X202677Y121686D01*
X206494D01*
X207115Y120186D01*
D02*
G37*
G36*
X102429Y104321D02*
X103750Y93750D01*
X106399Y54016D01*
X103651Y53522D01*
X102500Y54485D01*
Y56500D01*
X96000D01*
Y58500D01*
X102500D01*
Y61775D01*
Y66000D01*
X89500D01*
Y58480D01*
X88031Y58179D01*
X85000Y65250D01*
X83684Y83937D01*
X84554Y84660D01*
X85979Y84041D01*
Y74969D01*
X91750D01*
Y90500D01*
X92750D01*
Y91500D01*
X99521D01*
Y106031D01*
X97083D01*
Y107750D01*
X100500D01*
X102429Y104321D01*
D02*
G37*
G36*
X151455Y63145D02*
X151031Y61645D01*
X144290D01*
Y42500D01*
Y23355D01*
X151895D01*
X152234Y21894D01*
X147875Y19750D01*
X124842Y21003D01*
X124686Y21250D01*
X125515Y22750D01*
X127000D01*
Y29000D01*
X120500D01*
X114000D01*
Y22750D01*
X112714Y22233D01*
X112286D01*
X111000Y22750D01*
Y37250D01*
X108314D01*
Y43628D01*
X109373Y44686D01*
X112500D01*
Y42775D01*
X125500D01*
Y52275D01*
Y56500D01*
X119000D01*
Y58500D01*
X125500D01*
Y61775D01*
Y67207D01*
X127000Y68209D01*
X127505Y68000D01*
X129495D01*
X131332Y68761D01*
X132321Y69750D01*
X140707D01*
X151455Y63145D01*
D02*
G37*
%LPC*%
G36*
X199138Y306076D02*
X196360D01*
Y297710D01*
X199138D01*
Y306076D01*
D02*
G37*
G36*
Y295710D02*
X196360D01*
Y287344D01*
X199138D01*
Y295710D01*
D02*
G37*
G36*
X174802Y306076D02*
X170198D01*
Y296710D01*
Y287344D01*
X174802D01*
Y296710D01*
Y306076D01*
D02*
G37*
G36*
X243741Y315935D02*
X232078Y304272D01*
X240598Y295752D01*
X252261Y307416D01*
X243741Y315935D01*
D02*
G37*
G36*
X96259D02*
X87739Y307416D01*
X99402Y295752D01*
X107922Y304272D01*
X96259Y315935D01*
D02*
G37*
G36*
X86325Y306001D02*
X77805Y297481D01*
X89468Y285818D01*
X97988Y294338D01*
X86325Y306001D01*
D02*
G37*
G36*
X253675D02*
X242012Y294338D01*
X250532Y285818D01*
X262195Y297481D01*
X253675Y306001D01*
D02*
G37*
G36*
X297481Y262195D02*
X285818Y250532D01*
X294338Y242012D01*
X306001Y253675D01*
X297481Y262195D01*
D02*
G37*
G36*
X42519D02*
X33999Y253675D01*
X45662Y242012D01*
X54182Y250532D01*
X42519Y262195D01*
D02*
G37*
G36*
X263939Y244847D02*
X257215Y238123D01*
X260796Y234543D01*
X267520Y241266D01*
X263939Y244847D01*
D02*
G37*
G36*
X32585Y252261D02*
X24065Y243741D01*
X35728Y232078D01*
X44248Y240598D01*
X32585Y252261D01*
D02*
G37*
G36*
X307416D02*
X295752Y240598D01*
X304272Y232078D01*
X315935Y243741D01*
X307416Y252261D01*
D02*
G37*
G36*
X236187Y239066D02*
X231768Y234646D01*
X235657Y230757D01*
X240076Y235177D01*
X236187Y239066D01*
D02*
G37*
G36*
X284404Y249118D02*
X272741Y237455D01*
X281261Y228935D01*
X292924Y240598D01*
X284404Y249118D01*
D02*
G37*
G36*
X55596D02*
X47076Y240598D01*
X58739Y228935D01*
X67259Y237455D01*
X55596Y249118D01*
D02*
G37*
G36*
X255801Y236709D02*
X249077Y229985D01*
X252658Y226404D01*
X259382Y233128D01*
X255801Y236709D01*
D02*
G37*
G36*
X241490Y233763D02*
X237071Y229343D01*
X240960Y225454D01*
X245380Y229874D01*
X241490Y233763D01*
D02*
G37*
G36*
X230354Y233232D02*
X225934Y228813D01*
X229823Y224924D01*
X234243Y229343D01*
X230354Y233232D01*
D02*
G37*
G36*
X294338Y239184D02*
X282675Y227521D01*
X291195Y219001D01*
X302858Y230664D01*
X294338Y239184D01*
D02*
G37*
G36*
X45662D02*
X37142Y230664D01*
X48805Y219001D01*
X57325Y227521D01*
X45662Y239184D01*
D02*
G37*
G36*
X262995Y163000D02*
X261005D01*
X259168Y162239D01*
X257761Y160832D01*
X257000Y158995D01*
Y157005D01*
X257761Y155168D01*
X259168Y153761D01*
X261005Y153000D01*
X262995D01*
X264832Y153761D01*
X266239Y155168D01*
X267000Y157005D01*
Y158995D01*
X266239Y160832D01*
X264832Y162239D01*
X262995Y163000D01*
D02*
G37*
G36*
X64066Y148612D02*
X60530Y145076D01*
X64596Y141010D01*
X68132Y144546D01*
X64066Y148612D01*
D02*
G37*
G36*
X69546Y143132D02*
X66010Y139596D01*
X70076Y135530D01*
X73612Y139066D01*
X69546Y143132D01*
D02*
G37*
G36*
X158500Y227250D02*
X153000D01*
Y221000D01*
X158500D01*
Y227250D01*
D02*
G37*
G36*
X151000D02*
X145500D01*
Y221000D01*
X151000D01*
Y227250D01*
D02*
G37*
G36*
X107000Y157250D02*
X101500D01*
Y151000D01*
X107000D01*
Y157250D01*
D02*
G37*
G36*
X99500D02*
X94000D01*
Y151000D01*
X99500D01*
Y157250D01*
D02*
G37*
G36*
X107000Y149000D02*
X101500D01*
Y142750D01*
X107000D01*
Y149000D01*
D02*
G37*
G36*
X99500D02*
X94000D01*
Y142750D01*
X99500D01*
Y149000D01*
D02*
G37*
G36*
X153021Y138031D02*
X147250D01*
Y123500D01*
X153021D01*
Y138031D01*
D02*
G37*
G36*
Y121500D02*
X139479D01*
Y106969D01*
Y93500D01*
X153021D01*
Y106969D01*
Y121500D01*
D02*
G37*
G36*
X132021Y106031D02*
X126250D01*
Y91500D01*
X132021D01*
Y106031D01*
D02*
G37*
G36*
X124250D02*
X118479D01*
Y91500D01*
X124250D01*
Y106031D01*
D02*
G37*
G36*
X153021Y91500D02*
X147250D01*
Y76969D01*
X153021D01*
Y91500D01*
D02*
G37*
G36*
X145250D02*
X139479D01*
Y76969D01*
X145250D01*
Y91500D01*
D02*
G37*
G36*
X132021Y89500D02*
X126250D01*
Y74969D01*
X132021D01*
Y89500D01*
D02*
G37*
G36*
X124250D02*
X118479D01*
Y74969D01*
X124250D01*
Y89500D01*
D02*
G37*
G36*
X118000Y72225D02*
X112500D01*
Y68000D01*
X118000D01*
Y72225D01*
D02*
G37*
G36*
X255354Y43232D02*
X250934Y38813D01*
X254823Y34924D01*
X259243Y39343D01*
X255354Y43232D01*
D02*
G37*
G36*
X185521Y91500D02*
X179750D01*
Y76969D01*
X185521D01*
Y91500D01*
D02*
G37*
G36*
X177750D02*
X171979D01*
Y76969D01*
X177750D01*
Y91500D01*
D02*
G37*
G36*
X200710Y61645D02*
X187645D01*
Y43500D01*
X200710D01*
Y61645D01*
D02*
G37*
G36*
Y41500D02*
X187645D01*
Y23355D01*
X200710D01*
Y41500D01*
D02*
G37*
G36*
X289874Y102880D02*
X285454Y98460D01*
X289343Y94571D01*
X293763Y98990D01*
X289874Y102880D01*
D02*
G37*
G36*
X284040Y97046D02*
X279970Y92977D01*
X279621Y92627D01*
X278610Y91545D01*
X266798Y79733D01*
X273798Y72733D01*
X285595Y84530D01*
X285960Y84895D01*
X287428Y84818D01*
X288813Y83434D01*
X293232Y87854D01*
X288636Y92450D01*
X284040Y97046D01*
D02*
G37*
G36*
X218510Y101263D02*
X214620Y97374D01*
X219040Y92954D01*
X222929Y96843D01*
X218510Y101263D01*
D02*
G37*
G36*
X224343Y95429D02*
X220454Y91540D01*
X224874Y87120D01*
X228763Y91010D01*
X224343Y95429D01*
D02*
G37*
G36*
X99521Y89500D02*
X93750D01*
Y74969D01*
X99521D01*
Y89500D01*
D02*
G37*
G36*
X102500Y72225D02*
X97000D01*
Y68000D01*
X102500D01*
Y72225D01*
D02*
G37*
G36*
X95000D02*
X89500D01*
Y68000D01*
X95000D01*
Y72225D01*
D02*
G37*
G36*
X142290Y61645D02*
X129225D01*
Y43500D01*
X142290D01*
Y61645D01*
D02*
G37*
G36*
X127000Y37250D02*
X121500D01*
Y31000D01*
X127000D01*
Y37250D01*
D02*
G37*
G36*
X119500D02*
X114000D01*
Y31000D01*
X119500D01*
Y37250D01*
D02*
G37*
G36*
X142290Y41500D02*
X129225D01*
Y23355D01*
X142290D01*
Y41500D01*
D02*
G37*
%LPD*%
D11*
X250896Y56831D02*
X260186Y66121D01*
X249343Y55253D02*
X250896Y56806D01*
X249343Y50657D02*
Y55253D01*
X250896Y56806D02*
Y56831D01*
X106322Y216000D02*
X106346D01*
X109596Y212750D01*
X120500D01*
X115750Y203250D02*
X119064Y199936D01*
X181266D02*
X210000Y171203D01*
X119064Y199936D02*
X181266D01*
X127000Y206250D02*
X172500D01*
X120500Y212750D02*
X127000Y206250D01*
X178715Y219214D02*
X179500Y220000D01*
X178715Y212465D02*
Y219214D01*
X172500Y206250D02*
X178715Y212465D01*
X245801Y100801D02*
Y108164D01*
X224874Y96313D02*
X241313D01*
X245801Y100801D01*
X224343Y96843D02*
X224874Y96313D01*
X245801Y108164D02*
X252020Y114382D01*
Y114924D01*
X238750Y171478D02*
Y208714D01*
X228250Y173706D02*
Y203000D01*
X238750Y208714D02*
X240669Y210634D01*
X217143Y214107D02*
X228250Y203000D01*
X232750Y171842D02*
Y212500D01*
X246919Y208992D02*
Y209419D01*
X232750Y212500D02*
X238874Y218624D01*
X243250Y169614D02*
Y205322D01*
X238874Y218624D02*
X244536D01*
X243250Y205322D02*
X246919Y208992D01*
X219000Y164456D02*
X228250Y173706D01*
X246919Y209419D02*
X258500Y221000D01*
X223500Y162592D02*
X232750Y171842D01*
X240669Y210634D02*
Y211581D01*
X228000Y160728D02*
X238750Y171478D01*
X244741Y218830D02*
X247080D01*
X247750Y219500D01*
X244536Y218624D02*
X244741Y218830D01*
X195888Y232174D02*
X199562Y228500D01*
X195888Y232174D02*
Y237762D01*
X195500Y220000D02*
X196071Y220571D01*
X212179Y217982D02*
Y223160D01*
X199562Y228500D02*
X206839D01*
X209750Y215553D02*
X212179Y217982D01*
X196071Y220571D02*
X205929D01*
X206839Y228500D02*
X212179Y223160D01*
X209750Y210000D02*
Y215553D01*
X195360Y238290D02*
X195888Y237762D01*
X206500Y206750D02*
X209750Y210000D01*
X194404Y206750D02*
X206500D01*
X187750Y213404D02*
X194404Y206750D01*
X110170Y234420D02*
Y238034D01*
X132978Y260978D02*
X133500Y261500D01*
X103250Y237478D02*
X126750Y260978D01*
X115750Y229159D02*
Y237250D01*
X109500Y233750D02*
X110170Y234420D01*
X129000Y250500D02*
X148175D01*
X126750Y260978D02*
X132978D01*
X115750Y237250D02*
X129000Y250500D01*
X127386Y255250D02*
X151250D01*
X110170Y238034D02*
X127386Y255250D01*
X103250Y231161D02*
Y237478D01*
X115750Y229159D02*
X120330Y224580D01*
X151250Y255250D02*
X156244Y250256D01*
X148175Y250500D02*
X149640Y249035D01*
Y238290D02*
Y249035D01*
X103250Y231161D02*
X117161Y217250D01*
X126500D01*
X132250Y211500D01*
X84199Y238123D02*
X106322Y216000D01*
X232500Y158864D02*
X243250Y169614D01*
X239000Y159000D02*
X247750Y167750D01*
Y201250D02*
X268000Y221500D01*
X247750Y167750D02*
Y201250D01*
X219000Y154250D02*
Y164456D01*
X232500Y140911D02*
Y158864D01*
X228000Y144290D02*
Y160728D01*
X223500Y146154D02*
Y162592D01*
X239000Y152000D02*
Y159000D01*
X232500Y140911D02*
X238207Y135204D01*
X248278D01*
X210750Y146000D02*
X219000Y154250D01*
X262980Y135076D02*
X266368Y138464D01*
X255729Y147271D02*
X256676D01*
X257583Y148178D02*
X263667D01*
X266368Y139878D02*
X266889Y140400D01*
Y144956D01*
X266368Y138464D02*
Y139878D01*
X263667Y148178D02*
X266889Y144956D01*
X256676Y147271D02*
X257583Y148178D01*
X193073Y99391D02*
Y100338D01*
X196524Y92476D02*
X213000Y76000D01*
X221250Y81000D02*
X238750D01*
X195750Y106500D02*
X221250Y81000D01*
X196524Y92476D02*
Y95940D01*
X195750Y106500D02*
Y112000D01*
X193073Y99391D02*
X196524Y95940D01*
X238750Y81000D02*
X260750Y103000D01*
X213000Y76000D02*
X240500D01*
X265250Y100750D01*
X256616Y110328D02*
X260750Y106194D01*
X252707Y128025D02*
X265250Y115482D01*
X260750Y103000D02*
Y106194D01*
X265250Y100750D02*
Y115482D01*
X176750Y169152D02*
X182000Y163902D01*
Y147465D02*
Y163902D01*
X202000Y140654D02*
X203904Y138750D01*
X198000Y145114D02*
Y176839D01*
X185589Y189250D02*
X198000Y176839D01*
X176750Y169152D02*
Y185589D01*
X216096Y138750D02*
X223500Y146154D01*
X217960Y134250D02*
X228000Y144290D01*
X203904Y138750D02*
X216096D01*
X202000Y140654D02*
Y141114D01*
X197500Y138790D02*
Y139250D01*
X180536Y146000D02*
X182000Y147465D01*
X210000Y159000D02*
Y171203D01*
X202040Y134250D02*
X217960D01*
X198000Y145114D02*
X202000Y141114D01*
X190750Y146000D02*
X197500Y139250D01*
X176750Y185589D02*
X180411Y189250D01*
X170000Y146000D02*
X180536D01*
X180411Y189250D02*
X185589D01*
X197500Y138790D02*
X202040Y134250D01*
X145672Y170172D02*
X146342Y170842D01*
X141922Y170172D02*
X145672D01*
X159830Y171580D02*
X160500Y172250D01*
X130750Y159000D02*
X141922Y170172D01*
X159830Y168080D02*
Y171580D01*
X130000Y159000D02*
X130750D01*
X150750D02*
X159830Y168080D01*
X219249Y250000D02*
X219750Y249499D01*
X227268Y258711D02*
X228215D01*
X211750Y250000D02*
X219249D01*
X217251Y255749D02*
X224305D01*
X227268Y258711D01*
X203750Y269250D02*
X217251Y255749D01*
X207750Y254000D02*
X211750Y250000D01*
X201305Y125000D02*
X218814D01*
X198805Y122500D02*
X201305Y125000D01*
X218814D02*
X235657Y108157D01*
X178750Y122500D02*
X198805D01*
X201710Y42500D02*
Y43941D01*
X212525Y54755D01*
X224000D01*
X204210Y40000D02*
X238686D01*
X107000Y21500D02*
X109580Y18920D01*
X96750Y23404D02*
Y47250D01*
X118580Y18920D02*
X119250Y18250D01*
X96000Y48000D02*
X96750Y47250D01*
X109580Y18920D02*
X118580D01*
X98654Y21500D02*
X107000D01*
X96750Y23404D02*
X98654Y21500D01*
X104500Y30000D02*
X105000Y30500D01*
Y45000D01*
X108000Y48000D01*
X119000D01*
X269550Y121955D02*
X271851Y119653D01*
X269550Y121955D02*
Y123261D01*
X280690Y115310D02*
X287500Y122120D01*
X271851Y118971D02*
X275513Y115310D01*
X280690D01*
X280678Y125083D02*
Y131167D01*
X278101Y121560D02*
Y122507D01*
X280678Y125083D01*
X269550Y123261D02*
X272173Y125884D01*
X271851Y118971D02*
Y119653D01*
X295661Y137000D02*
X309250D01*
X293750Y105997D02*
X301187Y98560D01*
X287500Y128839D02*
X295661Y137000D01*
X293750Y105997D02*
Y126250D01*
X287500Y122120D02*
Y128839D01*
X277456Y134389D02*
X280678Y131167D01*
X272378Y133868D02*
X272899Y134389D01*
X267576Y130480D02*
X270964Y133868D01*
X272378D01*
X272899Y134389D02*
X277456D01*
X109850Y183685D02*
X118510Y175025D01*
Y156740D02*
X129250Y146000D01*
X118510Y156740D02*
Y175025D01*
X97835Y180000D02*
X104696D01*
X113250Y149404D02*
Y171446D01*
X104696Y180000D02*
X113250Y171446D01*
Y149404D02*
X123904Y138750D01*
X132250Y211500D02*
X160250D01*
X168000Y219250D01*
Y220000D01*
X301187Y82374D02*
Y98560D01*
X300657Y81843D02*
X301187Y82374D01*
X316692Y111692D02*
Y129558D01*
X309250Y137000D02*
X316692Y129558D01*
X133500Y261500D02*
Y289250D01*
X133250Y289500D02*
X133500Y289250D01*
X219097Y265385D02*
X221344Y263138D01*
X168250Y254000D02*
X207750D01*
X223813Y240126D02*
X224343Y240657D01*
X238123Y254437D01*
X195360Y239599D02*
X195888Y240126D01*
X195360Y238290D02*
Y239599D01*
X195888Y240126D02*
X223813D01*
X162848Y248598D02*
X168250Y254000D01*
X219097Y265385D02*
Y267153D01*
X212500Y273750D02*
X219097Y267153D01*
X172068Y273750D02*
X212500D01*
X169964Y269250D02*
X203750D01*
X162848Y238290D02*
Y248598D01*
X150168Y289046D02*
X169964Y269250D01*
X150168Y289046D02*
Y296182D01*
X149640Y296710D02*
X150168Y296182D01*
X156772Y289046D02*
X172068Y273750D01*
X156772Y289046D02*
Y296182D01*
X156244Y296710D02*
X156772Y296182D01*
X210000Y146000D02*
X210750D01*
X190000D02*
X190750D01*
X156244Y238290D02*
Y250256D01*
X123904Y138750D02*
X136096D01*
X138798Y141452D01*
Y143298D01*
X141500Y146000D01*
X150000D01*
X129250D02*
X130000D01*
X150000Y159000D02*
X150750D01*
X170000D02*
X170250Y159250D01*
Y175750D01*
X183000Y183000D02*
X190000Y176000D01*
Y159000D02*
Y176000D01*
X102572Y271000D02*
X125750Y294178D01*
X132750Y312500D02*
X178304D01*
X125750Y305500D02*
X132750Y312500D01*
X125750Y294178D02*
Y305500D01*
X188756Y308494D02*
X192512Y312250D01*
X210500D02*
X215750Y307000D01*
X192512Y312250D02*
X210500D01*
X178304Y312500D02*
X182152Y308652D01*
X215750Y288750D02*
Y307000D01*
X182152Y296710D02*
Y308652D01*
X188756Y296710D02*
Y308494D01*
X90250Y271000D02*
X102572D01*
X83250Y264000D02*
X90250Y271000D01*
X83250Y256750D02*
Y264000D01*
Y256750D02*
X93038Y246962D01*
Y246962D02*
Y246962D01*
X235250Y269250D02*
X244000D01*
X255000Y255000D02*
Y258250D01*
X244000Y269250D02*
X255000Y258250D01*
X246962Y246962D02*
X255000Y255000D01*
X215750Y288750D02*
X235250Y269250D01*
X179500Y220000D02*
X186285D01*
X187750Y218535D01*
Y213404D02*
Y218535D01*
X238123Y254437D02*
Y255801D01*
X248151Y128025D02*
X252707D01*
X247630Y127504D02*
X248151Y128025D01*
X246215Y127504D02*
X247630D01*
X242827Y124116D02*
X246215Y127504D01*
X223093Y109407D02*
X223763Y108737D01*
X218593Y109407D02*
X223093D01*
X211000Y117000D02*
X218593Y109407D01*
X235657Y108157D02*
X236061D01*
X247424Y119520D01*
X300657Y79722D02*
Y81843D01*
X289814Y68879D02*
X300657Y79722D01*
X289814Y68879D02*
Y68879D01*
X169198Y221198D02*
Y238290D01*
X168000Y220000D02*
X169198Y221198D01*
X175802Y227174D02*
Y238290D01*
Y227174D02*
X176250Y226726D01*
Y223250D02*
Y226726D01*
Y223250D02*
X179500Y220000D01*
X84199Y238123D02*
Y238123D01*
X78750Y232674D02*
X84199Y238123D01*
X78750Y225250D02*
Y232674D01*
Y225250D02*
X84500Y219500D01*
Y207500D02*
Y219500D01*
X83000Y206000D02*
X84500Y207500D01*
X83000Y191450D02*
Y206000D01*
X262976Y49401D02*
X267932D01*
X259691Y52686D02*
X262976Y49401D01*
X271217Y52686D02*
X273621D01*
X267932Y49401D02*
X271217Y52686D01*
X253939Y50657D02*
X255969Y52686D01*
X249343Y50657D02*
X253939D01*
X255969Y52686D02*
X259691D01*
X249343Y50657D02*
X249343D01*
X238686Y40000D02*
X249343Y50657D01*
D17*
X150000Y146000D02*
D03*
Y159000D02*
D03*
X130000Y146000D02*
D03*
Y159000D02*
D03*
X190000Y146000D02*
D03*
Y159000D02*
D03*
X170000Y146000D02*
D03*
Y159000D02*
D03*
X210000Y146000D02*
D03*
Y159000D02*
D03*
D20*
X179500Y220000D02*
D03*
X195500D02*
D03*
X168000D02*
D03*
X152000D02*
D03*
X100500Y150000D02*
D03*
X84500D02*
D03*
X84500Y207500D02*
D03*
X100500D02*
D03*
X120500Y30000D02*
D03*
X104500D02*
D03*
D27*
X224343Y240657D02*
D03*
X235657Y229343D02*
D03*
X300657Y81843D02*
D03*
X289343Y93157D02*
D03*
X260657Y39343D02*
D03*
X249343Y50657D02*
D03*
D28*
X316692Y111692D02*
D03*
X307500Y102500D02*
D03*
X64596Y139596D02*
D03*
X55404Y130404D02*
D03*
D32*
X99402Y294338D02*
D03*
X45662Y240598D02*
D03*
D33*
X294338D02*
D03*
X240598Y294338D02*
D03*
D58*
X83700Y150800D02*
X84500Y150000D01*
X83700Y150800D02*
Y167850D01*
X83000Y168550D02*
X83700Y167850D01*
X92750Y90500D02*
Y119005D01*
X84500Y127255D02*
X92750Y119005D01*
X84500Y127255D02*
Y150000D01*
X47945Y85444D02*
X57139Y76250D01*
X83750Y90500D02*
X92750D01*
X33702Y99687D02*
X47945Y85444D01*
X69500Y76250D02*
X83750Y90500D01*
X57139Y76250D02*
X69500D01*
X92750Y90500D02*
X92750Y90500D01*
X47172Y121263D02*
X56687Y111748D01*
X69865D01*
X72057Y109556D01*
X55404Y129949D02*
Y130404D01*
X47172Y121718D02*
X55404Y129949D01*
X47172Y121263D02*
Y121718D01*
X33702Y99687D02*
Y107792D01*
X24273Y130692D02*
X25197Y129767D01*
Y129410D02*
Y129767D01*
X51449Y103158D02*
X62658D01*
X25197Y129410D02*
X51449Y103158D01*
D59*
X305000Y175000D02*
D03*
X35000D02*
D03*
D60*
X284000Y76750D02*
D03*
X240669Y211581D02*
D03*
X114750Y263250D02*
D03*
X205929Y220571D02*
D03*
X217143Y214107D02*
D03*
X127750Y237250D02*
D03*
X254500Y195750D02*
D03*
X268669Y204419D02*
D03*
X174250Y58750D02*
D03*
X163750Y53250D02*
D03*
X70250Y160500D02*
D03*
X63500Y53500D02*
D03*
X73500Y65500D02*
D03*
X52500Y63500D02*
D03*
X18750Y119000D02*
D03*
X71000Y189250D02*
D03*
X65750Y208000D02*
D03*
X26000Y215750D02*
D03*
X10750Y211500D02*
D03*
X19250Y227000D02*
D03*
X66500Y255250D02*
D03*
Y271750D02*
D03*
X76500Y286500D02*
D03*
X140250Y321500D02*
D03*
X156000Y328000D02*
D03*
X192250Y323250D02*
D03*
X177500Y328500D02*
D03*
X207000Y326500D02*
D03*
X223750Y319250D02*
D03*
X276250Y261000D02*
D03*
X262250Y284750D02*
D03*
X303750Y215750D02*
D03*
X323000Y220000D02*
D03*
X325250Y138000D02*
D03*
X235500Y28750D02*
D03*
X262000Y158000D02*
D03*
X248278Y135204D02*
D03*
X239000Y152000D02*
D03*
X255729Y147271D02*
D03*
X132000Y11750D02*
D03*
X207000Y107500D02*
D03*
X193073Y100338D02*
D03*
X146342Y170842D02*
D03*
X160500Y172250D02*
D03*
X120330Y224580D02*
D03*
X203000Y288750D02*
D03*
X228215Y258711D02*
D03*
X219750Y249499D02*
D03*
X155169Y15919D02*
D03*
X128500Y73000D02*
D03*
X118750Y109000D02*
D03*
X135750Y124000D02*
D03*
Y80750D02*
D03*
X135500Y105250D02*
D03*
X119250Y18250D02*
D03*
X224000Y54755D02*
D03*
X278101Y121560D02*
D03*
X293750Y126250D02*
D03*
X115750Y203250D02*
D03*
X109850Y183685D02*
D03*
X97835Y180000D02*
D03*
X126500Y217250D02*
D03*
X133500Y261500D02*
D03*
X133250Y289500D02*
D03*
X258500Y221000D02*
D03*
X268000Y221500D02*
D03*
X221344Y263138D02*
D03*
X247750Y219500D02*
D03*
X109500Y233750D02*
D03*
X170250Y175750D02*
D03*
X183000Y183000D02*
D03*
X195750Y112000D02*
D03*
X211000Y117000D02*
D03*
X223763Y108737D02*
D03*
X62658Y103158D02*
D03*
D61*
X149640Y296710D02*
D03*
X156244D02*
D03*
X182152D02*
D03*
X188756D02*
D03*
X195360Y238290D02*
D03*
X188756D02*
D03*
X182152D02*
D03*
X175802D02*
D03*
X169198D02*
D03*
X162848D02*
D03*
X156244D02*
D03*
X149640D02*
D03*
X162848Y296710D02*
D03*
X169198D02*
D03*
X175802D02*
D03*
X195360D02*
D03*
D62*
X102000Y168550D02*
D03*
X83000Y191450D02*
D03*
X102000D02*
D03*
X92500Y168550D02*
D03*
X83000D02*
D03*
D63*
X84199Y238123D02*
D03*
X93038Y246962D02*
D03*
X101877Y255801D02*
D03*
D64*
X238123D02*
D03*
X246962Y246962D02*
D03*
X255801Y238123D02*
D03*
D65*
X256616Y110328D02*
D03*
X242827Y124116D02*
D03*
X272173Y125884D02*
D03*
X267576Y130480D02*
D03*
X262980Y135076D02*
D03*
X258384Y139672D02*
D03*
X252020Y114924D02*
D03*
X247424Y119520D02*
D03*
D66*
X224343Y96843D02*
D03*
X235657Y108157D02*
D03*
D67*
X276379Y82314D02*
D03*
X289814Y68879D02*
D03*
X266904Y59404D02*
D03*
X273621Y52686D02*
D03*
X260186Y66121D02*
D03*
D68*
X201710Y42500D02*
D03*
X143290D02*
D03*
D69*
X96000Y48000D02*
D03*
X119000Y57500D02*
D03*
X96000Y67000D02*
D03*
Y57500D02*
D03*
X119000Y67000D02*
D03*
Y48000D02*
D03*
D70*
X178750Y122500D02*
D03*
Y92500D02*
D03*
X146250Y122500D02*
D03*
Y92500D02*
D03*
X125250Y90500D02*
D03*
X92750D02*
D03*
D71*
X33702Y107792D02*
D03*
X47172Y121263D02*
D03*
X24273Y130692D02*
D03*
D72*
X47945Y85444D02*
D03*
X72057Y109556D02*
D03*
M02*
