G04*
G04 #@! TF.GenerationSoftware,Altium Limited,Altium Designer,25.5.2 (35)*
G04*
G04 Layer_Color=8421504*
%FSLAX44Y44*%
%MOMM*%
G71*
G04*
G04 #@! TF.SameCoordinates,78459730-5FDF-4622-8040-CD8E326CB214*
G04*
G04*
G04 #@! TF.FilePolarity,Positive*
G04*
G01*
G75*
%ADD17R,0.9500X0.8000*%
%ADD18R,0.8000X0.9500*%
%ADD19R,0.7620X0.7620*%
%ADD20R,0.9000X1.0500*%
%ADD21R,1.0500X1.3000*%
%ADD22R,1.0500X0.9000*%
%ADD23R,2.0000X1.4000*%
%ADD24O,0.2900X1.4000*%
%ADD25O,1.4000X0.2900*%
G04:AMPARAMS|DCode=26|XSize=0.8mm|YSize=1.3mm|CornerRadius=0mm|HoleSize=0mm|Usage=FLASHONLY|Rotation=315.000|XOffset=0mm|YOffset=0mm|HoleType=Round|Shape=Rectangle|*
%AMROTATEDRECTD26*
4,1,4,-0.7425,-0.1768,0.1768,0.7425,0.7425,0.1768,-0.1768,-0.7425,-0.7425,-0.1768,0.0*
%
%ADD26ROTATEDRECTD26*%

G04:AMPARAMS|DCode=27|XSize=1.05mm|YSize=0.9mm|CornerRadius=0mm|HoleSize=0mm|Usage=FLASHONLY|Rotation=45.000|XOffset=0mm|YOffset=0mm|HoleType=Round|Shape=Rectangle|*
%AMROTATEDRECTD27*
4,1,4,-0.0530,-0.6894,-0.6894,-0.0530,0.0530,0.6894,0.6894,0.0530,-0.0530,-0.6894,0.0*
%
%ADD27ROTATEDRECTD27*%

G04:AMPARAMS|DCode=28|XSize=0.95mm|YSize=0.8mm|CornerRadius=0mm|HoleSize=0mm|Usage=FLASHONLY|Rotation=315.000|XOffset=0mm|YOffset=0mm|HoleType=Round|Shape=Rectangle|*
%AMROTATEDRECTD28*
4,1,4,-0.6187,0.0530,-0.0530,0.6187,0.6187,-0.0530,0.0530,-0.6187,-0.6187,0.0530,0.0*
%
%ADD28ROTATEDRECTD28*%

%ADD29P,1.0776X4X90.0*%
%ADD30R,0.6000X1.4500*%
G04:AMPARAMS|DCode=31|XSize=2.1mm|YSize=3mm|CornerRadius=0mm|HoleSize=0mm|Usage=FLASHONLY|Rotation=315.000|XOffset=0mm|YOffset=0mm|HoleType=Round|Shape=Rectangle|*
%AMROTATEDRECTD31*
4,1,4,-1.8031,-0.3182,0.3182,1.8031,1.8031,0.3182,-0.3182,-1.8031,-1.8031,-0.3182,0.0*
%
%ADD31ROTATEDRECTD31*%

G04:AMPARAMS|DCode=32|XSize=2.2098mm|YSize=3.0988mm|CornerRadius=0mm|HoleSize=0mm|Usage=FLASHONLY|Rotation=225.000|XOffset=0mm|YOffset=0mm|HoleType=Round|Shape=Rectangle|*
%AMROTATEDRECTD32*
4,1,4,-0.3143,1.8769,1.8769,-0.3143,0.3143,-1.8769,-1.8769,0.3143,-0.3143,1.8769,0.0*
%
%ADD32ROTATEDRECTD32*%

G04:AMPARAMS|DCode=33|XSize=2.2098mm|YSize=3.0988mm|CornerRadius=0mm|HoleSize=0mm|Usage=FLASHONLY|Rotation=135.000|XOffset=0mm|YOffset=0mm|HoleType=Round|Shape=Rectangle|*
%AMROTATEDRECTD33*
4,1,4,1.8769,0.3143,-0.3143,-1.8769,-1.8769,-0.3143,0.3143,1.8769,1.8769,0.3143,0.0*
%
%ADD33ROTATEDRECTD33*%

G04:AMPARAMS|DCode=34|XSize=0.889mm|YSize=1.2954mm|CornerRadius=0mm|HoleSize=0mm|Usage=FLASHONLY|Rotation=135.000|XOffset=0mm|YOffset=0mm|HoleType=Round|Shape=Rectangle|*
%AMROTATEDRECTD34*
4,1,4,0.7723,0.1437,-0.1437,-0.7723,-0.7723,-0.1437,0.1437,0.7723,0.7723,0.1437,0.0*
%
%ADD34ROTATEDRECTD34*%

G04:AMPARAMS|DCode=35|XSize=2.18mm|YSize=1.6mm|CornerRadius=0mm|HoleSize=0mm|Usage=FLASHONLY|Rotation=225.000|XOffset=0mm|YOffset=0mm|HoleType=Round|Shape=Rectangle|*
%AMROTATEDRECTD35*
4,1,4,0.2051,1.3364,1.3364,0.2051,-0.2051,-1.3364,-1.3364,-0.2051,0.2051,1.3364,0.0*
%
%ADD35ROTATEDRECTD35*%

G04:AMPARAMS|DCode=36|XSize=1.5mm|YSize=1.4mm|CornerRadius=0mm|HoleSize=0mm|Usage=FLASHONLY|Rotation=315.000|XOffset=0mm|YOffset=0mm|HoleType=Round|Shape=Rectangle|*
%AMROTATEDRECTD36*
4,1,4,-1.0253,0.0354,-0.0354,1.0253,1.0253,-0.0354,0.0354,-1.0253,-1.0253,0.0354,0.0*
%
%ADD36ROTATEDRECTD36*%

G04:AMPARAMS|DCode=37|XSize=0.889mm|YSize=1.2954mm|CornerRadius=0mm|HoleSize=0mm|Usage=FLASHONLY|Rotation=225.000|XOffset=0mm|YOffset=0mm|HoleType=Round|Shape=Rectangle|*
%AMROTATEDRECTD37*
4,1,4,-0.1437,0.7723,0.7723,-0.1437,0.1437,-0.7723,-0.7723,0.1437,-0.1437,0.7723,0.0*
%
%ADD37ROTATEDRECTD37*%

D17*
X227500Y176500D02*
D03*
Y163500D02*
D03*
D18*
X246000Y172500D02*
D03*
X259000D02*
D03*
D19*
X255025Y211610D02*
D03*
X245500Y188750D02*
D03*
X264550D02*
D03*
D20*
X198000Y235000D02*
D03*
X182000D02*
D03*
X168000Y265000D02*
D03*
X152000D02*
D03*
X153000Y250000D02*
D03*
X137000D02*
D03*
X153000Y232500D02*
D03*
X137000D02*
D03*
X212000Y135000D02*
D03*
X228000D02*
D03*
X215500Y30000D02*
D03*
X199500D02*
D03*
D21*
X198500Y252000D02*
D03*
X180000Y275000D02*
D03*
X198500D02*
D03*
X180000Y252000D02*
D03*
D22*
X115000Y145500D02*
D03*
Y129500D02*
D03*
X227500Y205500D02*
D03*
Y189500D02*
D03*
D23*
X95000Y153000D02*
D03*
Y117000D02*
D03*
D24*
X197500Y215500D02*
D03*
X192500D02*
D03*
X187500D02*
D03*
X182500D02*
D03*
X177500D02*
D03*
X172500D02*
D03*
X167500D02*
D03*
X157500D02*
D03*
X152500D02*
D03*
X147500D02*
D03*
X142500D02*
D03*
Y134500D02*
D03*
X147500D02*
D03*
X152500D02*
D03*
X157500D02*
D03*
X162500D02*
D03*
X167500D02*
D03*
X172500D02*
D03*
X177500D02*
D03*
X182500D02*
D03*
X187500D02*
D03*
X197500D02*
D03*
X162500Y215500D02*
D03*
X192500Y134500D02*
D03*
D25*
X129500Y202500D02*
D03*
Y197500D02*
D03*
Y192500D02*
D03*
Y187500D02*
D03*
Y182500D02*
D03*
Y177500D02*
D03*
Y172500D02*
D03*
Y167500D02*
D03*
Y162500D02*
D03*
Y157500D02*
D03*
Y147500D02*
D03*
X210500D02*
D03*
Y152500D02*
D03*
Y157500D02*
D03*
Y162500D02*
D03*
Y167500D02*
D03*
Y172500D02*
D03*
Y177500D02*
D03*
Y182500D02*
D03*
Y187500D02*
D03*
Y192500D02*
D03*
Y202500D02*
D03*
X129500Y152500D02*
D03*
X210500Y197500D02*
D03*
D26*
X246438Y257777D02*
D03*
X237600Y266616D02*
D03*
X264116Y240100D02*
D03*
X255277Y248938D02*
D03*
D27*
X119343Y320657D02*
D03*
X130657Y309343D02*
D03*
D28*
X119596Y297096D02*
D03*
X110404Y287904D02*
D03*
X244596Y107096D02*
D03*
X235404Y97904D02*
D03*
X27904Y105404D02*
D03*
X99596Y262096D02*
D03*
X90404Y252904D02*
D03*
X37096Y114596D02*
D03*
D29*
X247827Y123763D02*
D03*
X261298Y110292D02*
D03*
X270727Y133192D02*
D03*
D30*
X163650Y27750D02*
D03*
X176350D02*
D03*
X150950Y82250D02*
D03*
X163650D02*
D03*
X176350D02*
D03*
X189050D02*
D03*
X150950Y27750D02*
D03*
X189050D02*
D03*
D31*
X239014Y304093D02*
D03*
X301593Y241514D02*
D03*
D32*
X250382Y47216D02*
D03*
X295284Y92118D02*
D03*
D33*
X44716D02*
D03*
X89618Y47216D02*
D03*
D34*
X91032Y84693D02*
D03*
X82193Y93532D02*
D03*
D35*
X34973Y239973D02*
D03*
X100027Y305027D02*
D03*
D36*
X65429Y225429D02*
D03*
X79571Y239571D02*
D03*
X50429Y127929D02*
D03*
X64571Y142071D02*
D03*
D37*
X257807Y93532D02*
D03*
X248968Y84693D02*
D03*
M02*
