G04*
G04 #@! TF.GenerationSoftware,Altium Limited,Altium Designer,25.5.2 (35)*
G04*
G04 Layer_Color=65535*
%FSLAX44Y44*%
%MOMM*%
G71*
G04*
G04 #@! TF.SameCoordinates,F1B542B9-2598-483C-8CF3-7BAA0FA54B51*
G04*
G04*
G04 #@! TF.FilePolarity,Positive*
G04*
G01*
G75*
%ADD10C,0.5080*%
%ADD11C,0.2500*%
%ADD12C,0.2000*%
%ADD13C,0.6000*%
%ADD14C,0.1500*%
%ADD15C,0.1524*%
%ADD16C,0.1270*%
G36*
X323539Y110023D02*
X316339Y102824D01*
D01*
X309977Y96461D01*
X288461Y117977D01*
X294824Y124339D01*
X302023Y131538D01*
X323539Y110023D01*
D02*
G37*
G36*
X246539Y32023D02*
X239339Y24824D01*
D01*
X232977Y18462D01*
X211462Y39977D01*
X217824Y46339D01*
X225023Y53538D01*
X246539Y32023D01*
D02*
G37*
G36*
X122380Y88158D02*
X106842Y72620D01*
X99620Y79842D01*
X115158Y95380D01*
X122380Y88158D01*
D02*
G37*
G36*
X81611Y123599D02*
X69401Y111389D01*
X62389Y118401D01*
X74599Y130611D01*
X81611Y123599D01*
D02*
G37*
G36*
X233087Y259158D02*
X216842Y242913D01*
X208913Y250842D01*
X225158Y267087D01*
X233087Y259158D01*
D02*
G37*
G36*
X243086Y249157D02*
X232843Y238914D01*
X224914Y246843D01*
X235157Y257086D01*
X243086Y249157D01*
D02*
G37*
G36*
X253351Y238422D02*
X242578Y227649D01*
X234649Y235578D01*
X245422Y246351D01*
X253351Y238422D01*
D02*
G37*
G36*
X273619Y225690D02*
X262310Y214381D01*
X254381Y222310D01*
X265690Y233619D01*
X273619Y225690D01*
D02*
G37*
%LPC*%
G36*
X302519Y126896D02*
X298335Y122711D01*
X299139Y121907D01*
X300714Y123483D01*
X302113Y122084D01*
X300538Y120508D01*
X301348Y119698D01*
X305532Y123882D01*
X304722Y124692D01*
X302885Y122855D01*
X301486Y124254D01*
X303323Y126091D01*
X302519Y126896D01*
D02*
G37*
G36*
X295729Y123225D02*
X291545Y119040D01*
X292336Y118250D01*
X295095Y121008D01*
X294141Y116445D01*
X294893Y115693D01*
X299077Y119877D01*
X298286Y120668D01*
X295546Y117929D01*
X296494Y122460D01*
X295729Y123225D01*
D02*
G37*
G36*
X306481Y122934D02*
X302296Y118750D01*
X303088Y117958D01*
X305846Y120717D01*
X304892Y116154D01*
X305644Y115402D01*
X309828Y119586D01*
X309037Y120378D01*
X306297Y117638D01*
X307245Y122169D01*
X306481Y122934D01*
D02*
G37*
G36*
X300025Y118393D02*
X299946D01*
X299796Y118387D01*
X299645Y118367D01*
X299502Y118341D01*
X299364Y118295D01*
X299240Y118250D01*
X299122Y118197D01*
X298907Y118086D01*
X298815Y118034D01*
X298730Y117975D01*
X298665Y117923D01*
X298606Y117877D01*
X298554Y117838D01*
X298495Y117779D01*
X298390Y117661D01*
X298292Y117550D01*
X298214Y117432D01*
X298148Y117315D01*
X298083Y117197D01*
X298037Y117086D01*
X297998Y116968D01*
X297965Y116870D01*
X297939Y116778D01*
X297919Y116680D01*
X297906Y116602D01*
X297900Y116543D01*
X297893Y116484D01*
X297887Y116452D01*
Y116426D01*
Y116412D01*
Y116269D01*
X297906Y116131D01*
X297932Y116000D01*
X297965Y115876D01*
X298004Y115759D01*
X298057Y115654D01*
X298155Y115451D01*
X298207Y115373D01*
X298259Y115295D01*
X298305Y115236D01*
X298351Y115177D01*
X298384Y115131D01*
X298482Y115033D01*
X298534Y114994D01*
X298573Y114968D01*
X298586Y114955D01*
X298645Y114922D01*
X298697Y114883D01*
X298737Y114856D01*
X298750D01*
X298756Y114850D01*
X297815Y114248D01*
X296448Y115615D01*
X295710Y114876D01*
X297671Y112915D01*
X300502Y114739D01*
X299998Y115530D01*
X299822Y115536D01*
X299678Y115549D01*
X299626Y115562D01*
X299587Y115576D01*
X299560D01*
X299554Y115582D01*
X299417Y115641D01*
X299312Y115706D01*
X299273Y115732D01*
X299227Y115778D01*
X299149Y115870D01*
X299090Y115968D01*
X299051Y116072D01*
X299024Y116164D01*
X299011Y116256D01*
X299005Y116314D01*
Y116367D01*
Y116380D01*
X299018Y116510D01*
X299051Y116635D01*
X299103Y116739D01*
X299149Y116837D01*
X299207Y116922D01*
X299253Y116981D01*
X299286Y117014D01*
X299292Y117020D01*
X299299Y117027D01*
X299410Y117125D01*
X299528Y117203D01*
X299645Y117256D01*
X299750Y117295D01*
X299841Y117308D01*
X299913Y117328D01*
X299979D01*
X300110Y117315D01*
X300227Y117288D01*
X300338Y117243D01*
X300423Y117197D01*
X300502Y117145D01*
X300561Y117112D01*
X300606Y117066D01*
X300672Y116988D01*
X300731Y116916D01*
X300770Y116837D01*
X300802Y116765D01*
X300835Y116707D01*
X300848Y116654D01*
X300861Y116628D01*
Y116615D01*
X300875Y116524D01*
Y116419D01*
Y116327D01*
X300855Y116242D01*
X300842Y116177D01*
X300822Y116118D01*
X300809Y116079D01*
Y116066D01*
X301646Y115229D01*
X301783Y115471D01*
X301875Y115719D01*
X301940Y115942D01*
X301973Y116144D01*
X301992Y116321D01*
X301999Y116393D01*
X301992Y116452D01*
Y116504D01*
Y116543D01*
Y116556D01*
Y116569D01*
X301973Y116693D01*
X301940Y116818D01*
X301862Y117053D01*
X301757Y117262D01*
X301646Y117439D01*
X301548Y117589D01*
X301502Y117648D01*
X301456Y117694D01*
X301424Y117739D01*
X301371Y117792D01*
X301254Y117896D01*
X301136Y117988D01*
X301018Y118066D01*
X300894Y118138D01*
X300659Y118243D01*
X300541Y118282D01*
X300430Y118315D01*
X300338Y118341D01*
X300240Y118361D01*
X300162Y118374D01*
X300083Y118387D01*
X300025Y118393D01*
D02*
G37*
G36*
X310455Y118959D02*
X307880Y113167D01*
X308684Y112362D01*
X314482Y114932D01*
X313652Y115762D01*
X312456Y115232D01*
X310749Y116939D01*
X311286Y118128D01*
X310455Y118959D01*
D02*
G37*
G36*
X306621Y112333D02*
X305765Y111476D01*
X305392Y111849D01*
X304653Y111110D01*
X305026Y110738D01*
X302332Y108044D01*
X303123Y107253D01*
X307641Y108136D01*
X308373Y108868D01*
X306543Y110698D01*
X307399Y111555D01*
X306621Y112333D01*
D02*
G37*
G36*
X303280Y115308D02*
X303123D01*
X302973Y115301D01*
X302849Y115295D01*
X302757Y115281D01*
X302692Y115268D01*
X302679D01*
X302672Y115262D01*
X302496Y115203D01*
X302332Y115131D01*
X302188Y115053D01*
X302058Y114974D01*
X301960Y114902D01*
X301881Y114837D01*
X301822Y114778D01*
X301705Y114647D01*
X301613Y114516D01*
X301528Y114379D01*
X301463Y114262D01*
X301417Y114163D01*
X301384Y114079D01*
X301365Y114020D01*
X301358Y114000D01*
X301319Y113830D01*
X301299Y113667D01*
X301293Y113516D01*
X301286Y113379D01*
X301299Y113261D01*
X301313Y113170D01*
X301319Y113111D01*
Y113098D01*
X301326Y113091D01*
X301162Y113085D01*
X301018Y113072D01*
X300894Y113052D01*
X300790Y113026D01*
X300704Y113006D01*
X300646Y112987D01*
X300606Y112974D01*
X300593D01*
X300489Y112934D01*
X300391Y112875D01*
X300306Y112830D01*
X300234Y112771D01*
X300168Y112719D01*
X300123Y112686D01*
X300090Y112653D01*
X300083Y112647D01*
X299972Y112522D01*
X299881Y112392D01*
X299809Y112268D01*
X299743Y112150D01*
X299704Y112045D01*
X299671Y111960D01*
X299659Y111908D01*
X299652Y111888D01*
X299619Y111725D01*
X299606Y111568D01*
Y111424D01*
X299619Y111293D01*
X299632Y111176D01*
X299652Y111091D01*
X299665Y111039D01*
Y111025D01*
X299671Y111019D01*
X299730Y110855D01*
X299802Y110705D01*
X299881Y110574D01*
X299966Y110450D01*
X300038Y110352D01*
X300103Y110274D01*
X300162Y110215D01*
X300306Y110084D01*
X300450Y109979D01*
X300580Y109888D01*
X300704Y109816D01*
X300816Y109770D01*
X300894Y109731D01*
X300953Y109711D01*
X300966D01*
X300972Y109705D01*
X301136Y109659D01*
X301293Y109646D01*
X301437Y109633D01*
X301567Y109646D01*
X301679Y109653D01*
X301764Y109659D01*
X301816Y109672D01*
X301835Y109679D01*
X301992Y109731D01*
X302130Y109790D01*
X302260Y109868D01*
X302372Y109940D01*
X302463Y110006D01*
X302535Y110064D01*
X302574Y110104D01*
X302581Y110110D01*
X302587Y110117D01*
X302672Y110215D01*
X302751Y110306D01*
X302810Y110391D01*
X302862Y110483D01*
X302901Y110561D01*
X302927Y110613D01*
X302947Y110646D01*
X302953Y110666D01*
X302993Y110784D01*
X303019Y110901D01*
X303038Y111012D01*
X303051Y111117D01*
X303065Y111208D01*
X303071Y111280D01*
Y111333D01*
Y111346D01*
X303254Y111333D01*
X303431Y111326D01*
X303581Y111333D01*
X303718Y111352D01*
X303836Y111365D01*
X303921Y111385D01*
X303973Y111398D01*
X303993Y111405D01*
X304143Y111463D01*
X304281Y111535D01*
X304405Y111607D01*
X304509Y111686D01*
X304607Y111758D01*
X304673Y111810D01*
X304732Y111869D01*
X304862Y112013D01*
X304974Y112163D01*
X305058Y112313D01*
X305124Y112444D01*
X305183Y112555D01*
X305215Y112653D01*
X305235Y112712D01*
Y112725D01*
X305242Y112732D01*
X305274Y112908D01*
X305287Y113078D01*
Y113235D01*
X305274Y113379D01*
X305255Y113490D01*
X305242Y113582D01*
X305222Y113640D01*
X305215Y113660D01*
X305137Y113830D01*
X305046Y114000D01*
X304941Y114157D01*
X304823Y114301D01*
X304719Y114431D01*
X304666Y114484D01*
X304634Y114530D01*
X304549Y114615D01*
X304372Y114778D01*
X304202Y114909D01*
X304052Y115020D01*
X303908Y115098D01*
X303790Y115164D01*
X303705Y115210D01*
X303673Y115216D01*
X303646Y115229D01*
X303633D01*
X303627Y115236D01*
X303450Y115281D01*
X303280Y115308D01*
D02*
G37*
G36*
X314247Y113860D02*
X314156D01*
X314136Y112755D01*
X314378Y112748D01*
X314594Y112729D01*
X314790Y112702D01*
X314940Y112670D01*
X315071Y112643D01*
X315162Y112617D01*
X315221Y112598D01*
X315234D01*
X315241Y112591D01*
X315385Y112526D01*
X315529Y112447D01*
X315659Y112356D01*
X315777Y112277D01*
X315868Y112199D01*
X315940Y112140D01*
X315999Y112081D01*
X316143Y111924D01*
X316261Y111767D01*
X316352Y111610D01*
X316431Y111467D01*
X316490Y111342D01*
X316522Y111244D01*
X316542Y111212D01*
X316548Y111179D01*
Y111166D01*
X316555Y111159D01*
X316601Y110970D01*
X316620Y110780D01*
Y110610D01*
Y110453D01*
X316601Y110329D01*
X316588Y110225D01*
X316575Y110159D01*
Y110146D01*
X316568Y110140D01*
X316503Y109957D01*
X316418Y109780D01*
X316320Y109630D01*
X316228Y109486D01*
X316143Y109375D01*
X316097Y109329D01*
X316071Y109290D01*
X316038Y109257D01*
X316019Y109237D01*
X316006Y109224D01*
X315999Y109218D01*
X315882Y109113D01*
X315764Y109022D01*
X315646Y108943D01*
X315529Y108878D01*
X315287Y108767D01*
X315182Y108727D01*
X315071Y108695D01*
X314966Y108669D01*
X314881Y108649D01*
X314790Y108636D01*
X314724Y108623D01*
X314666Y108616D01*
X314587D01*
X314437Y108623D01*
X314286Y108642D01*
X314149Y108675D01*
X314018Y108714D01*
X313888Y108754D01*
X313770Y108806D01*
X313567Y108917D01*
X313476Y108969D01*
X313391Y109028D01*
X313325Y109080D01*
X313267Y109126D01*
X313221Y109159D01*
X313162Y109218D01*
X313038Y109355D01*
X312927Y109505D01*
X312829Y109656D01*
X312750Y109813D01*
X312685Y109970D01*
X312632Y110126D01*
X312587Y110277D01*
X312554Y110427D01*
X312528Y110571D01*
X312508Y110695D01*
X312495Y110813D01*
X312489Y110911D01*
X312482Y110983D01*
Y111048D01*
Y111088D01*
Y111101D01*
X311390Y111133D01*
X311384Y110852D01*
X311403Y110584D01*
X311436Y110342D01*
X311475Y110120D01*
X311528Y109937D01*
X311547Y109865D01*
X311567Y109793D01*
X311580Y109741D01*
X311599Y109708D01*
Y109682D01*
X311606Y109675D01*
X311711Y109427D01*
X311835Y109185D01*
X311959Y108982D01*
X312083Y108806D01*
X312149Y108727D01*
X312201Y108662D01*
X312247Y108603D01*
X312286Y108551D01*
X312489Y108348D01*
X312613Y108250D01*
X312855Y108074D01*
X313103Y107930D01*
X313214Y107871D01*
X313325Y107812D01*
X313423Y107766D01*
X313515Y107727D01*
X313600Y107695D01*
X313678Y107668D01*
X313737Y107649D01*
X313776Y107636D01*
X313803Y107623D01*
X313816D01*
X314123Y107551D01*
X314417Y107518D01*
X314685Y107511D01*
X314921Y107524D01*
X315123Y107544D01*
X315208Y107551D01*
X315280Y107570D01*
X315332Y107583D01*
X315378Y107590D01*
X315398Y107596D01*
X315411D01*
X315555Y107636D01*
X315685Y107688D01*
X315954Y107812D01*
X316182Y107949D01*
X316392Y108080D01*
X316476Y108152D01*
X316562Y108211D01*
X316633Y108270D01*
X316686Y108322D01*
X316738Y108361D01*
X316797Y108420D01*
X316967Y108603D01*
X317117Y108793D01*
X317241Y108982D01*
X317353Y109172D01*
X317451Y109362D01*
X317529Y109545D01*
X317588Y109721D01*
X317640Y109891D01*
X317686Y110042D01*
X317712Y110185D01*
X317732Y110309D01*
X317751Y110421D01*
X317758Y110506D01*
X317764Y110578D01*
Y110617D01*
Y110630D01*
X317758Y110859D01*
X317719Y111081D01*
X317673Y111297D01*
X317607Y111493D01*
X317529Y111689D01*
X317451Y111872D01*
X317359Y112042D01*
X317268Y112199D01*
X317183Y112336D01*
X317091Y112467D01*
X317006Y112578D01*
X316934Y112663D01*
X316869Y112741D01*
X316829Y112794D01*
X316784Y112840D01*
X316588Y113023D01*
X316385Y113186D01*
X316202Y113317D01*
X316032Y113421D01*
X315954Y113474D01*
X315882Y113506D01*
X315823Y113539D01*
X315770Y113565D01*
X315725Y113585D01*
X315699Y113598D01*
X315679Y113604D01*
X315672Y113611D01*
X315555Y113650D01*
X315437Y113689D01*
X315182Y113748D01*
X314927Y113794D01*
X314685Y113827D01*
X314482Y113846D01*
X314384Y113853D01*
X314306D01*
X314247Y113860D01*
D02*
G37*
G36*
X309785Y108737D02*
X309628D01*
X309511Y108724D01*
X309387Y108705D01*
X309275Y108672D01*
X309073Y108600D01*
X308896Y108502D01*
X308752Y108410D01*
X308700Y108371D01*
X308648Y108332D01*
X308608Y108306D01*
X308556Y108253D01*
X308465Y108149D01*
X308380Y108051D01*
X308314Y107946D01*
X308262Y107855D01*
X308223Y107776D01*
X308190Y107717D01*
X308177Y107678D01*
X308171Y107659D01*
X308131Y107528D01*
X308099Y107403D01*
X308079Y107266D01*
X308066Y107135D01*
X308046Y107024D01*
Y106933D01*
Y106881D01*
Y106854D01*
Y106815D01*
X308053Y106756D01*
X308059Y106606D01*
X308066Y106442D01*
X308085Y106266D01*
X308099Y106096D01*
X308112Y105952D01*
Y105900D01*
X308118Y105854D01*
X308125Y105835D01*
Y105821D01*
X308138Y105665D01*
X308144Y105514D01*
X308157Y105383D01*
X308164Y105272D01*
Y105168D01*
X308171Y105070D01*
Y104926D01*
Y104821D01*
Y104756D01*
Y104717D01*
Y104704D01*
X308138Y104592D01*
X308092Y104507D01*
X308066Y104481D01*
X308053Y104455D01*
X308040Y104442D01*
X308033Y104436D01*
X307987Y104403D01*
X307948Y104377D01*
X307844Y104351D01*
X307772Y104344D01*
X307745D01*
X307680Y104357D01*
X307615Y104370D01*
X307510Y104436D01*
X307464Y104468D01*
X307432Y104488D01*
X307406Y104514D01*
X307353Y104579D01*
X307307Y104651D01*
X307268Y104730D01*
X307236Y104815D01*
X307203Y104991D01*
X307190Y105161D01*
X307183Y105325D01*
X307196Y105455D01*
X307203Y105501D01*
Y105540D01*
X307209Y105560D01*
Y105573D01*
X306091Y105645D01*
X306085Y105390D01*
X306078Y105161D01*
X306091Y104965D01*
X306118Y104795D01*
X306137Y104671D01*
X306157Y104573D01*
X306176Y104514D01*
Y104501D01*
X306183Y104494D01*
X306235Y104337D01*
X306307Y104200D01*
X306386Y104069D01*
X306458Y103958D01*
X306523Y103867D01*
X306575Y103801D01*
X306628Y103749D01*
X306726Y103664D01*
X306817Y103586D01*
X307007Y103461D01*
X307196Y103376D01*
X307373Y103317D01*
X307530Y103278D01*
X307595Y103265D01*
X307647Y103252D01*
X307700D01*
X307732Y103246D01*
X307876D01*
X307987Y103265D01*
X308092Y103278D01*
X308197Y103305D01*
X308380Y103370D01*
X308537Y103448D01*
X308661Y103533D01*
X308706Y103566D01*
X308752Y103599D01*
X308792Y103625D01*
X308811Y103644D01*
X308824Y103658D01*
X308831Y103664D01*
X308935Y103782D01*
X309020Y103919D01*
X309092Y104056D01*
X309151Y104180D01*
X309190Y104298D01*
X309223Y104383D01*
X309236Y104448D01*
Y104462D01*
X309243Y104468D01*
X309262Y104566D01*
X309275Y104684D01*
Y104815D01*
X309282Y104952D01*
Y105240D01*
X309269Y105527D01*
X309256Y105789D01*
X309243Y105906D01*
X309236Y106004D01*
X309230Y106089D01*
X309223Y106148D01*
X309216Y106194D01*
Y106207D01*
X309197Y106436D01*
X309184Y106619D01*
Y106776D01*
Y106894D01*
X309190Y106992D01*
Y107057D01*
X309197Y107090D01*
Y107103D01*
X309210Y107194D01*
X309236Y107273D01*
X309262Y107338D01*
X309288Y107390D01*
X309321Y107436D01*
X309341Y107469D01*
X309360Y107488D01*
X309367Y107495D01*
X309432Y107547D01*
X309498Y107587D01*
X309569Y107606D01*
X309635Y107619D01*
X309694Y107626D01*
X309785D01*
X309877Y107613D01*
X309962Y107580D01*
X310047Y107547D01*
X310112Y107508D01*
X310164Y107469D01*
X310210Y107436D01*
X310243Y107403D01*
X310308Y107325D01*
X310361Y107234D01*
X310400Y107142D01*
X310432Y107044D01*
X310459Y106835D01*
X310452Y106632D01*
X310439Y106449D01*
X310413Y106292D01*
X310400Y106240D01*
X310393Y106194D01*
X310380Y106168D01*
Y106155D01*
X311452Y105893D01*
X311524Y106148D01*
X311570Y106390D01*
X311596Y106599D01*
X311603Y106789D01*
Y106933D01*
X311596Y107057D01*
X311583Y107122D01*
X311590Y107142D01*
X311583Y107149D01*
X311524Y107351D01*
X311446Y107534D01*
X311354Y107704D01*
X311256Y107855D01*
X311165Y107972D01*
X311126Y108025D01*
X311086Y108064D01*
X311067Y108097D01*
X311021Y108142D01*
X310910Y108240D01*
X310805Y108332D01*
X310583Y108476D01*
X310367Y108587D01*
X310269Y108619D01*
X310171Y108652D01*
X310086Y108685D01*
X310007Y108698D01*
X309936Y108718D01*
X309877Y108724D01*
X309831Y108731D01*
X309785Y108737D01*
D02*
G37*
G36*
X312544Y106410D02*
X311681Y103559D01*
X311485Y103638D01*
X311295Y103697D01*
X311119Y103729D01*
X310975Y103743D01*
X310687D01*
X310668Y103736D01*
X310491Y103690D01*
X310321Y103625D01*
X310177Y103546D01*
X310040Y103461D01*
X309929Y103376D01*
X309838Y103311D01*
X309811Y103285D01*
X309792Y103265D01*
X309779Y103252D01*
X309772Y103246D01*
X309635Y103095D01*
X309524Y102945D01*
X309445Y102801D01*
X309373Y102664D01*
X309328Y102553D01*
X309301Y102461D01*
X309282Y102402D01*
X309275Y102383D01*
X309249Y102213D01*
X309243Y102049D01*
X309249Y101899D01*
X309262Y101768D01*
X309282Y101657D01*
X309314Y101572D01*
X309328Y101520D01*
Y101507D01*
X309334Y101500D01*
X309373Y101422D01*
X309419Y101337D01*
X309543Y101147D01*
X309687Y100964D01*
X309825Y100787D01*
X309903Y100709D01*
X309968Y100631D01*
X310034Y100565D01*
X310086Y100500D01*
X311040Y99545D01*
X315224Y103729D01*
X314433Y104520D01*
X312662Y102749D01*
X312590Y102821D01*
X313414Y105540D01*
X312544Y106410D01*
D02*
G37*
%LPD*%
G36*
X311390Y114755D02*
X309390Y113879D01*
X310266Y115880D01*
X311390Y114755D01*
D02*
G37*
G36*
X306765Y108999D02*
X304405Y108561D01*
X305804Y109960D01*
X306765Y108999D01*
D02*
G37*
G36*
X303293Y114157D02*
X303411Y114118D01*
X303529Y114065D01*
X303627Y114007D01*
X303712Y113948D01*
X303771Y113902D01*
X303823Y113850D01*
X303921Y113738D01*
X303999Y113621D01*
X304058Y113510D01*
X304091Y113412D01*
X304117Y113320D01*
X304130Y113255D01*
X304137Y113209D01*
Y113196D01*
X304124Y113065D01*
X304097Y112947D01*
X304058Y112843D01*
X304013Y112758D01*
X303967Y112686D01*
X303927Y112621D01*
X303901Y112594D01*
X303888Y112581D01*
X303790Y112496D01*
X303686Y112444D01*
X303581Y112405D01*
X303483Y112372D01*
X303398Y112366D01*
X303333Y112353D01*
X303267D01*
X303130Y112372D01*
X303006Y112405D01*
X302895Y112464D01*
X302796Y112509D01*
X302712Y112568D01*
X302653Y112614D01*
X302607Y112660D01*
X302515Y112764D01*
X302444Y112875D01*
X302391Y112993D01*
X302352Y113085D01*
X302326Y113176D01*
X302319Y113248D01*
X302313Y113294D01*
Y113307D01*
X302319Y113444D01*
X302345Y113562D01*
X302385Y113667D01*
X302437Y113758D01*
X302476Y113837D01*
X302515Y113889D01*
X302548Y113922D01*
X302561Y113935D01*
X302659Y114020D01*
X302764Y114085D01*
X302868Y114124D01*
X302960Y114150D01*
X303045Y114170D01*
X303110D01*
X303156Y114177D01*
X303169D01*
X303293Y114157D01*
D02*
G37*
G36*
X301509Y112098D02*
X301594Y112078D01*
X301672Y112039D01*
X301737Y112000D01*
X301796Y111967D01*
X301842Y111934D01*
X301875Y111901D01*
X301940Y111823D01*
X301992Y111744D01*
X302025Y111673D01*
X302051Y111594D01*
X302064Y111529D01*
X302071Y111483D01*
X302077Y111450D01*
Y111437D01*
X302071Y111339D01*
X302045Y111248D01*
X302006Y111169D01*
X301966Y111104D01*
X301934Y111045D01*
X301901Y110999D01*
X301875Y110973D01*
X301868Y110967D01*
X301790Y110901D01*
X301711Y110849D01*
X301633Y110810D01*
X301561Y110790D01*
X301502Y110770D01*
X301456Y110764D01*
X301424Y110757D01*
X301411D01*
X301313Y110764D01*
X301227Y110784D01*
X301149Y110823D01*
X301077Y110855D01*
X301031Y110888D01*
X300986Y110921D01*
X300953Y110954D01*
X300881Y111039D01*
X300829Y111117D01*
X300790Y111195D01*
X300763Y111274D01*
X300750Y111339D01*
X300744Y111385D01*
X300737Y111418D01*
Y111431D01*
X300744Y111529D01*
X300763Y111614D01*
X300790Y111692D01*
X300829Y111758D01*
X300861Y111816D01*
X300894Y111862D01*
X300920Y111888D01*
X300927Y111895D01*
X301012Y111967D01*
X301090Y112019D01*
X301175Y112052D01*
X301247Y112085D01*
X301313Y112098D01*
X301365D01*
X301397Y112104D01*
X301411D01*
X301509Y112098D01*
D02*
G37*
G36*
X311001Y102644D02*
X311014D01*
X311112Y102612D01*
X311217Y102559D01*
X311315Y102487D01*
X311413Y102415D01*
X311498Y102343D01*
X311576Y102278D01*
X311884Y101971D01*
X311027Y101114D01*
X310700Y101441D01*
X310616Y101539D01*
X310544Y101624D01*
X310491Y101690D01*
X310459Y101749D01*
X310439Y101781D01*
X310426Y101807D01*
X310419Y101814D01*
X310380Y101945D01*
X310367Y102049D01*
Y102128D01*
Y102154D01*
X310374Y102160D01*
X310387Y102226D01*
X310413Y102278D01*
X310465Y102383D01*
X310498Y102415D01*
X310511Y102442D01*
X310530Y102461D01*
X310537Y102468D01*
X310622Y102540D01*
X310714Y102592D01*
X310786Y102625D01*
X310857Y102644D01*
X310923D01*
X310968Y102651D01*
X311001Y102644D01*
D02*
G37*
%LPC*%
G36*
X226045Y48369D02*
X225287Y47611D01*
X226457Y46441D01*
X223031Y43015D01*
X223822Y42224D01*
X228006Y46408D01*
X226045Y48369D01*
D02*
G37*
G36*
X220864Y43090D02*
X219092Y41318D01*
X218883Y41528D01*
X218785Y41613D01*
X218693Y41691D01*
X218615Y41769D01*
X218536Y41835D01*
X218471Y41887D01*
X218412Y41933D01*
X218353Y41979D01*
X218308Y42011D01*
X218268Y42038D01*
X218242Y42064D01*
X218197Y42083D01*
X218183Y42096D01*
X217994Y42181D01*
X217811Y42247D01*
X217641Y42286D01*
X217484Y42312D01*
X217353Y42325D01*
X217249D01*
X217190Y42319D01*
X217164D01*
X216968Y42279D01*
X216784Y42214D01*
X216628Y42136D01*
X216477Y42051D01*
X216366Y41966D01*
X216314Y41926D01*
X216275Y41887D01*
X216235Y41861D01*
X216196Y41822D01*
X216059Y41671D01*
X215954Y41528D01*
X215869Y41377D01*
X215797Y41253D01*
X215751Y41142D01*
X215725Y41050D01*
X215706Y40992D01*
X215699Y40972D01*
X215673Y40802D01*
X215667Y40638D01*
X215673Y40488D01*
X215693Y40351D01*
X215719Y40233D01*
X215745Y40155D01*
X215765Y40096D01*
Y40083D01*
X215771Y40076D01*
X215804Y39991D01*
X215856Y39900D01*
X215974Y39717D01*
X216118Y39534D01*
X216261Y39351D01*
X216333Y39279D01*
X216399Y39200D01*
X216464Y39135D01*
X216516Y39069D01*
X217471Y38115D01*
X221655Y42299D01*
X220864Y43090D01*
D02*
G37*
G36*
X228954Y45460D02*
X224770Y41276D01*
X225561Y40485D01*
X228320Y43244D01*
X227366Y38680D01*
X228117Y37929D01*
X232302Y42113D01*
X231510Y42904D01*
X228771Y40164D01*
X229719Y44695D01*
X228954Y45460D01*
D02*
G37*
G36*
X222590Y40828D02*
X222511D01*
X222361Y40821D01*
X222211Y40802D01*
X222067Y40776D01*
X221929Y40730D01*
X221805Y40684D01*
X221688Y40632D01*
X221472Y40521D01*
X221380Y40469D01*
X221295Y40410D01*
X221230Y40357D01*
X221171Y40312D01*
X221119Y40272D01*
X221060Y40213D01*
X220955Y40096D01*
X220857Y39985D01*
X220779Y39867D01*
X220714Y39749D01*
X220648Y39632D01*
X220602Y39520D01*
X220563Y39403D01*
X220530Y39305D01*
X220504Y39213D01*
X220485Y39115D01*
X220472Y39037D01*
X220465Y38978D01*
X220459Y38919D01*
X220452Y38886D01*
Y38860D01*
Y38847D01*
Y38703D01*
X220472Y38566D01*
X220498Y38435D01*
X220530Y38311D01*
X220570Y38193D01*
X220622Y38089D01*
X220720Y37886D01*
X220772Y37808D01*
X220825Y37729D01*
X220870Y37670D01*
X220916Y37611D01*
X220949Y37566D01*
X221047Y37468D01*
X221099Y37429D01*
X221138Y37402D01*
X221152Y37389D01*
X221210Y37357D01*
X221263Y37317D01*
X221302Y37291D01*
X221315D01*
X221322Y37285D01*
X220380Y36683D01*
X219014Y38050D01*
X218275Y37311D01*
X220236Y35350D01*
X223067Y37174D01*
X222564Y37965D01*
X222387Y37971D01*
X222243Y37984D01*
X222191Y37997D01*
X222152Y38010D01*
X222126D01*
X222119Y38017D01*
X221982Y38076D01*
X221877Y38141D01*
X221838Y38167D01*
X221792Y38213D01*
X221714Y38305D01*
X221655Y38403D01*
X221616Y38507D01*
X221590Y38599D01*
X221576Y38690D01*
X221570Y38749D01*
Y38801D01*
Y38814D01*
X221583Y38945D01*
X221616Y39069D01*
X221668Y39174D01*
X221714Y39272D01*
X221773Y39357D01*
X221818Y39416D01*
X221851Y39449D01*
X221858Y39455D01*
X221864Y39462D01*
X221975Y39560D01*
X222093Y39638D01*
X222211Y39690D01*
X222315Y39730D01*
X222407Y39743D01*
X222479Y39762D01*
X222544D01*
X222675Y39749D01*
X222792Y39723D01*
X222904Y39677D01*
X222989Y39632D01*
X223067Y39579D01*
X223126Y39547D01*
X223172Y39501D01*
X223237Y39423D01*
X223296Y39351D01*
X223335Y39272D01*
X223368Y39200D01*
X223400Y39141D01*
X223414Y39089D01*
X223427Y39063D01*
Y39050D01*
X223440Y38958D01*
Y38854D01*
Y38762D01*
X223420Y38677D01*
X223407Y38612D01*
X223387Y38553D01*
X223374Y38514D01*
Y38501D01*
X224211Y37664D01*
X224348Y37906D01*
X224440Y38154D01*
X224505Y38377D01*
X224538Y38579D01*
X224558Y38756D01*
X224564Y38828D01*
X224558Y38886D01*
Y38939D01*
Y38978D01*
Y38991D01*
Y39004D01*
X224538Y39128D01*
X224505Y39253D01*
X224427Y39488D01*
X224322Y39697D01*
X224211Y39874D01*
X224113Y40024D01*
X224067Y40083D01*
X224021Y40128D01*
X223989Y40174D01*
X223937Y40227D01*
X223819Y40331D01*
X223701Y40423D01*
X223584Y40501D01*
X223459Y40573D01*
X223224Y40678D01*
X223106Y40717D01*
X222995Y40750D01*
X222904Y40776D01*
X222806Y40795D01*
X222727Y40808D01*
X222649Y40821D01*
X222590Y40828D01*
D02*
G37*
G36*
X232929Y41485D02*
X230353Y35693D01*
X231157Y34889D01*
X236956Y37458D01*
X236126Y38288D01*
X234930Y37759D01*
X233223Y39465D01*
X233759Y40655D01*
X232929Y41485D01*
D02*
G37*
G36*
X229186Y34768D02*
X228330Y33911D01*
X227957Y34284D01*
X227218Y33545D01*
X227591Y33173D01*
X224898Y30479D01*
X225689Y29688D01*
X230206Y30570D01*
X230938Y31303D01*
X229108Y33133D01*
X229964Y33990D01*
X229186Y34768D01*
D02*
G37*
G36*
X225846Y37742D02*
X225689D01*
X225538Y37736D01*
X225414Y37729D01*
X225322Y37716D01*
X225257Y37703D01*
X225244D01*
X225238Y37696D01*
X225061Y37638D01*
X224898Y37566D01*
X224754Y37487D01*
X224623Y37409D01*
X224525Y37337D01*
X224447Y37272D01*
X224388Y37213D01*
X224270Y37082D01*
X224179Y36951D01*
X224093Y36814D01*
X224028Y36696D01*
X223982Y36598D01*
X223950Y36513D01*
X223930Y36454D01*
X223923Y36435D01*
X223884Y36265D01*
X223865Y36101D01*
X223858Y35951D01*
X223852Y35814D01*
X223865Y35696D01*
X223878Y35605D01*
X223884Y35546D01*
Y35533D01*
X223891Y35526D01*
X223727Y35519D01*
X223584Y35506D01*
X223459Y35487D01*
X223355Y35461D01*
X223270Y35441D01*
X223211Y35421D01*
X223172Y35408D01*
X223159D01*
X223054Y35369D01*
X222956Y35310D01*
X222871Y35264D01*
X222799Y35206D01*
X222734Y35153D01*
X222688Y35121D01*
X222655Y35088D01*
X222649Y35082D01*
X222537Y34957D01*
X222446Y34827D01*
X222374Y34702D01*
X222309Y34585D01*
X222269Y34480D01*
X222237Y34395D01*
X222224Y34343D01*
X222217Y34323D01*
X222185Y34160D01*
X222171Y34003D01*
Y33859D01*
X222185Y33728D01*
X222197Y33610D01*
X222217Y33526D01*
X222230Y33473D01*
Y33460D01*
X222237Y33454D01*
X222296Y33290D01*
X222367Y33140D01*
X222446Y33009D01*
X222531Y32885D01*
X222603Y32787D01*
X222668Y32708D01*
X222727Y32650D01*
X222871Y32519D01*
X223015Y32414D01*
X223146Y32323D01*
X223270Y32251D01*
X223381Y32205D01*
X223459Y32166D01*
X223518Y32146D01*
X223531D01*
X223538Y32140D01*
X223701Y32094D01*
X223858Y32081D01*
X224002Y32068D01*
X224133Y32081D01*
X224244Y32087D01*
X224329Y32094D01*
X224381Y32107D01*
X224401Y32113D01*
X224558Y32166D01*
X224695Y32225D01*
X224826Y32303D01*
X224937Y32375D01*
X225028Y32440D01*
X225100Y32499D01*
X225140Y32538D01*
X225146Y32545D01*
X225153Y32551D01*
X225238Y32650D01*
X225316Y32741D01*
X225375Y32826D01*
X225427Y32917D01*
X225466Y32996D01*
X225492Y33048D01*
X225512Y33081D01*
X225519Y33101D01*
X225558Y33218D01*
X225584Y33336D01*
X225604Y33447D01*
X225617Y33552D01*
X225630Y33643D01*
X225636Y33715D01*
Y33767D01*
Y33781D01*
X225819Y33767D01*
X225996Y33761D01*
X226146Y33767D01*
X226284Y33787D01*
X226401Y33800D01*
X226486Y33820D01*
X226539Y33833D01*
X226558Y33839D01*
X226709Y33898D01*
X226846Y33970D01*
X226970Y34042D01*
X227075Y34121D01*
X227173Y34192D01*
X227238Y34245D01*
X227297Y34304D01*
X227428Y34447D01*
X227539Y34598D01*
X227624Y34748D01*
X227689Y34879D01*
X227748Y34990D01*
X227781Y35088D01*
X227800Y35147D01*
Y35160D01*
X227807Y35166D01*
X227840Y35343D01*
X227853Y35513D01*
Y35670D01*
X227840Y35814D01*
X227820Y35925D01*
X227807Y36016D01*
X227787Y36075D01*
X227781Y36095D01*
X227702Y36265D01*
X227611Y36435D01*
X227506Y36592D01*
X227388Y36735D01*
X227284Y36866D01*
X227232Y36918D01*
X227199Y36964D01*
X227114Y37049D01*
X226937Y37213D01*
X226767Y37343D01*
X226617Y37455D01*
X226473Y37533D01*
X226355Y37599D01*
X226271Y37644D01*
X226238Y37651D01*
X226212Y37664D01*
X226199D01*
X226192Y37670D01*
X226015Y37716D01*
X225846Y37742D01*
D02*
G37*
G36*
X236721Y36386D02*
X236629D01*
X236610Y35281D01*
X236852Y35274D01*
X237067Y35255D01*
X237264Y35229D01*
X237414Y35196D01*
X237545Y35170D01*
X237636Y35144D01*
X237695Y35124D01*
X237708D01*
X237715Y35117D01*
X237859Y35052D01*
X238002Y34974D01*
X238133Y34882D01*
X238251Y34804D01*
X238342Y34725D01*
X238414Y34666D01*
X238473Y34608D01*
X238617Y34451D01*
X238734Y34294D01*
X238826Y34137D01*
X238904Y33993D01*
X238963Y33869D01*
X238996Y33771D01*
X239016Y33738D01*
X239022Y33705D01*
Y33692D01*
X239029Y33686D01*
X239074Y33496D01*
X239094Y33307D01*
Y33136D01*
Y32980D01*
X239074Y32855D01*
X239061Y32751D01*
X239048Y32685D01*
Y32672D01*
X239042Y32666D01*
X238976Y32483D01*
X238891Y32306D01*
X238793Y32156D01*
X238702Y32012D01*
X238617Y31901D01*
X238571Y31855D01*
X238545Y31816D01*
X238512Y31783D01*
X238493Y31764D01*
X238479Y31751D01*
X238473Y31744D01*
X238355Y31639D01*
X238238Y31548D01*
X238120Y31470D01*
X238002Y31404D01*
X237760Y31293D01*
X237656Y31254D01*
X237545Y31221D01*
X237440Y31195D01*
X237355Y31175D01*
X237264Y31162D01*
X237198Y31149D01*
X237139Y31143D01*
X237061D01*
X236910Y31149D01*
X236760Y31169D01*
X236623Y31201D01*
X236492Y31241D01*
X236361Y31280D01*
X236244Y31332D01*
X236041Y31443D01*
X235949Y31496D01*
X235865Y31554D01*
X235799Y31607D01*
X235740Y31653D01*
X235695Y31685D01*
X235636Y31744D01*
X235511Y31881D01*
X235400Y32032D01*
X235302Y32182D01*
X235224Y32339D01*
X235158Y32496D01*
X235106Y32653D01*
X235060Y32803D01*
X235028Y32954D01*
X235002Y33097D01*
X234982Y33221D01*
X234969Y33339D01*
X234962Y33437D01*
X234956Y33509D01*
Y33575D01*
Y33614D01*
Y33627D01*
X233864Y33660D01*
X233857Y33378D01*
X233877Y33110D01*
X233910Y32868D01*
X233949Y32646D01*
X234001Y32463D01*
X234021Y32391D01*
X234041Y32319D01*
X234054Y32267D01*
X234073Y32234D01*
Y32208D01*
X234080Y32202D01*
X234184Y31953D01*
X234308Y31711D01*
X234433Y31509D01*
X234557Y31332D01*
X234622Y31254D01*
X234675Y31188D01*
X234720Y31130D01*
X234760Y31077D01*
X234962Y30875D01*
X235086Y30776D01*
X235328Y30600D01*
X235577Y30456D01*
X235688Y30397D01*
X235799Y30338D01*
X235897Y30293D01*
X235989Y30254D01*
X236074Y30221D01*
X236152Y30195D01*
X236211Y30175D01*
X236250Y30162D01*
X236276Y30149D01*
X236289D01*
X236597Y30077D01*
X236891Y30044D01*
X237159Y30038D01*
X237394Y30051D01*
X237597Y30070D01*
X237682Y30077D01*
X237754Y30096D01*
X237806Y30110D01*
X237852Y30116D01*
X237871Y30123D01*
X237885D01*
X238028Y30162D01*
X238159Y30214D01*
X238427Y30338D01*
X238656Y30476D01*
X238865Y30607D01*
X238950Y30678D01*
X239035Y30737D01*
X239107Y30796D01*
X239159Y30848D01*
X239212Y30888D01*
X239271Y30946D01*
X239440Y31130D01*
X239591Y31319D01*
X239715Y31509D01*
X239826Y31698D01*
X239924Y31888D01*
X240003Y32071D01*
X240062Y32247D01*
X240114Y32417D01*
X240160Y32568D01*
X240186Y32712D01*
X240205Y32836D01*
X240225Y32947D01*
X240232Y33032D01*
X240238Y33104D01*
Y33143D01*
Y33156D01*
X240232Y33385D01*
X240192Y33607D01*
X240147Y33823D01*
X240081Y34019D01*
X240003Y34215D01*
X239924Y34398D01*
X239833Y34568D01*
X239741Y34725D01*
X239656Y34862D01*
X239565Y34993D01*
X239480Y35104D01*
X239408Y35189D01*
X239342Y35268D01*
X239303Y35320D01*
X239258Y35366D01*
X239061Y35549D01*
X238859Y35712D01*
X238676Y35843D01*
X238506Y35948D01*
X238427Y36000D01*
X238355Y36033D01*
X238297Y36065D01*
X238244Y36091D01*
X238198Y36111D01*
X238172Y36124D01*
X238153Y36131D01*
X238146Y36137D01*
X238028Y36177D01*
X237911Y36216D01*
X237656Y36275D01*
X237401Y36320D01*
X237159Y36353D01*
X236956Y36373D01*
X236858Y36379D01*
X236780D01*
X236721Y36386D01*
D02*
G37*
G36*
X232351Y31172D02*
X232194D01*
X232076Y31159D01*
X231952Y31139D01*
X231841Y31107D01*
X231638Y31035D01*
X231461Y30937D01*
X231318Y30845D01*
X231265Y30806D01*
X231213Y30767D01*
X231174Y30740D01*
X231121Y30688D01*
X231030Y30584D01*
X230945Y30485D01*
X230879Y30381D01*
X230827Y30289D01*
X230788Y30211D01*
X230755Y30152D01*
X230742Y30113D01*
X230736Y30093D01*
X230697Y29962D01*
X230664Y29838D01*
X230644Y29701D01*
X230631Y29570D01*
X230611Y29459D01*
Y29368D01*
Y29315D01*
Y29289D01*
Y29250D01*
X230618Y29191D01*
X230625Y29041D01*
X230631Y28877D01*
X230651Y28701D01*
X230664Y28531D01*
X230677Y28387D01*
Y28335D01*
X230683Y28289D01*
X230690Y28269D01*
Y28256D01*
X230703Y28099D01*
X230709Y27949D01*
X230723Y27818D01*
X230729Y27707D01*
Y27602D01*
X230736Y27504D01*
Y27360D01*
Y27256D01*
Y27191D01*
Y27151D01*
Y27138D01*
X230703Y27027D01*
X230657Y26942D01*
X230631Y26916D01*
X230618Y26890D01*
X230605Y26877D01*
X230598Y26870D01*
X230553Y26837D01*
X230513Y26811D01*
X230409Y26785D01*
X230337Y26779D01*
X230311D01*
X230245Y26792D01*
X230180Y26805D01*
X230075Y26870D01*
X230030Y26903D01*
X229997Y26923D01*
X229971Y26949D01*
X229918Y27014D01*
X229873Y27086D01*
X229834Y27164D01*
X229801Y27249D01*
X229768Y27426D01*
X229755Y27596D01*
X229748Y27759D01*
X229762Y27890D01*
X229768Y27936D01*
Y27975D01*
X229775Y27995D01*
Y28008D01*
X228657Y28080D01*
X228650Y27825D01*
X228644Y27596D01*
X228657Y27400D01*
X228683Y27230D01*
X228703Y27106D01*
X228722Y27008D01*
X228742Y26949D01*
Y26936D01*
X228748Y26929D01*
X228801Y26772D01*
X228873Y26635D01*
X228951Y26504D01*
X229023Y26393D01*
X229088Y26301D01*
X229140Y26236D01*
X229193Y26184D01*
X229291Y26099D01*
X229382Y26020D01*
X229572Y25896D01*
X229762Y25811D01*
X229938Y25752D01*
X230095Y25713D01*
X230160Y25700D01*
X230213Y25687D01*
X230265D01*
X230298Y25680D01*
X230441D01*
X230553Y25700D01*
X230657Y25713D01*
X230762Y25739D01*
X230945Y25805D01*
X231102Y25883D01*
X231226Y25968D01*
X231272Y26001D01*
X231318Y26033D01*
X231357Y26060D01*
X231376Y26079D01*
X231390Y26092D01*
X231396Y26099D01*
X231501Y26216D01*
X231586Y26354D01*
X231658Y26491D01*
X231716Y26615D01*
X231756Y26733D01*
X231788Y26818D01*
X231801Y26883D01*
Y26896D01*
X231808Y26903D01*
X231828Y27001D01*
X231841Y27119D01*
Y27249D01*
X231847Y27387D01*
Y27674D01*
X231834Y27962D01*
X231821Y28224D01*
X231808Y28341D01*
X231801Y28439D01*
X231795Y28524D01*
X231788Y28583D01*
X231782Y28629D01*
Y28642D01*
X231762Y28871D01*
X231749Y29054D01*
Y29211D01*
Y29328D01*
X231756Y29426D01*
Y29492D01*
X231762Y29525D01*
Y29538D01*
X231775Y29629D01*
X231801Y29708D01*
X231828Y29773D01*
X231854Y29825D01*
X231886Y29871D01*
X231906Y29904D01*
X231926Y29923D01*
X231932Y29930D01*
X231998Y29982D01*
X232063Y30021D01*
X232135Y30041D01*
X232200Y30054D01*
X232259Y30061D01*
X232351D01*
X232442Y30048D01*
X232527Y30015D01*
X232612Y29982D01*
X232677Y29943D01*
X232730Y29904D01*
X232775Y29871D01*
X232808Y29838D01*
X232873Y29760D01*
X232926Y29668D01*
X232965Y29577D01*
X232998Y29479D01*
X233024Y29269D01*
X233017Y29067D01*
X233004Y28884D01*
X232978Y28727D01*
X232965Y28675D01*
X232959Y28629D01*
X232945Y28603D01*
Y28590D01*
X234018Y28328D01*
X234090Y28583D01*
X234135Y28825D01*
X234161Y29034D01*
X234168Y29224D01*
Y29368D01*
X234161Y29492D01*
X234148Y29557D01*
X234155Y29577D01*
X234148Y29583D01*
X234090Y29786D01*
X234011Y29969D01*
X233920Y30139D01*
X233822Y30289D01*
X233730Y30407D01*
X233691Y30459D01*
X233652Y30499D01*
X233632Y30531D01*
X233586Y30577D01*
X233475Y30675D01*
X233370Y30767D01*
X233148Y30910D01*
X232932Y31022D01*
X232834Y31054D01*
X232736Y31087D01*
X232651Y31120D01*
X232573Y31133D01*
X232501Y31152D01*
X232442Y31159D01*
X232396Y31165D01*
X232351Y31172D01*
D02*
G37*
G36*
X235109Y28845D02*
X234246Y25994D01*
X234050Y26073D01*
X233861Y26131D01*
X233684Y26164D01*
X233540Y26177D01*
X233253D01*
X233233Y26171D01*
X233057Y26125D01*
X232887Y26060D01*
X232743Y25981D01*
X232605Y25896D01*
X232494Y25811D01*
X232403Y25746D01*
X232377Y25720D01*
X232357Y25700D01*
X232344Y25687D01*
X232337Y25680D01*
X232200Y25530D01*
X232089Y25380D01*
X232010Y25236D01*
X231939Y25099D01*
X231893Y24987D01*
X231867Y24896D01*
X231847Y24837D01*
X231841Y24817D01*
X231814Y24647D01*
X231808Y24484D01*
X231814Y24334D01*
X231828Y24203D01*
X231847Y24092D01*
X231880Y24007D01*
X231893Y23954D01*
Y23941D01*
X231899Y23935D01*
X231939Y23856D01*
X231984Y23771D01*
X232109Y23582D01*
X232252Y23399D01*
X232390Y23222D01*
X232468Y23144D01*
X232533Y23065D01*
X232599Y23000D01*
X232651Y22935D01*
X233606Y21980D01*
X237790Y26164D01*
X236999Y26955D01*
X235227Y25183D01*
X235155Y25255D01*
X235979Y27975D01*
X235109Y28845D01*
D02*
G37*
%LPD*%
G36*
X217504Y41207D02*
X217543Y41194D01*
X217575Y41188D01*
X217595Y41181D01*
X217602Y41175D01*
X217667Y41135D01*
X217739Y41076D01*
X217889Y40952D01*
X217955Y40900D01*
X218314Y40540D01*
X217458Y39684D01*
X217236Y39906D01*
X217111Y40044D01*
X217013Y40155D01*
X216935Y40259D01*
X216882Y40338D01*
X216850Y40410D01*
X216824Y40462D01*
X216811Y40488D01*
Y40501D01*
X216791Y40612D01*
X216804Y40717D01*
X216824Y40815D01*
X216856Y40887D01*
X216896Y40952D01*
X216928Y41011D01*
X216954Y41037D01*
X216968Y41050D01*
X217020Y41103D01*
X217072Y41129D01*
X217170Y41188D01*
X217209Y41201D01*
X217242Y41207D01*
X217262Y41214D01*
X217275D01*
X217399Y41220D01*
X217504Y41207D01*
D02*
G37*
G36*
X233864Y37281D02*
X231863Y36405D01*
X232740Y38406D01*
X233864Y37281D01*
D02*
G37*
G36*
X229330Y31433D02*
X226970Y30996D01*
X228369Y32394D01*
X229330Y31433D01*
D02*
G37*
G36*
X225859Y36592D02*
X225976Y36553D01*
X226094Y36500D01*
X226192Y36441D01*
X226277Y36383D01*
X226336Y36337D01*
X226388Y36284D01*
X226486Y36173D01*
X226565Y36056D01*
X226623Y35944D01*
X226656Y35846D01*
X226682Y35755D01*
X226695Y35689D01*
X226702Y35644D01*
Y35631D01*
X226689Y35500D01*
X226663Y35382D01*
X226623Y35278D01*
X226578Y35193D01*
X226532Y35121D01*
X226493Y35055D01*
X226467Y35029D01*
X226453Y35016D01*
X226355Y34931D01*
X226251Y34879D01*
X226146Y34840D01*
X226048Y34807D01*
X225963Y34800D01*
X225898Y34787D01*
X225833D01*
X225695Y34807D01*
X225571Y34840D01*
X225460Y34898D01*
X225362Y34944D01*
X225277Y35003D01*
X225218Y35049D01*
X225172Y35094D01*
X225081Y35199D01*
X225009Y35310D01*
X224956Y35428D01*
X224917Y35519D01*
X224891Y35611D01*
X224884Y35683D01*
X224878Y35729D01*
Y35742D01*
X224884Y35879D01*
X224911Y35997D01*
X224950Y36101D01*
X225002Y36193D01*
X225041Y36271D01*
X225081Y36324D01*
X225113Y36356D01*
X225126Y36369D01*
X225224Y36454D01*
X225329Y36520D01*
X225434Y36559D01*
X225525Y36585D01*
X225610Y36605D01*
X225676D01*
X225721Y36611D01*
X225734D01*
X225859Y36592D01*
D02*
G37*
G36*
X224074Y34532D02*
X224159Y34513D01*
X224237Y34474D01*
X224303Y34434D01*
X224361Y34402D01*
X224407Y34369D01*
X224440Y34336D01*
X224505Y34258D01*
X224558Y34179D01*
X224590Y34107D01*
X224617Y34029D01*
X224629Y33963D01*
X224636Y33918D01*
X224643Y33885D01*
Y33872D01*
X224636Y33774D01*
X224610Y33682D01*
X224571Y33604D01*
X224531Y33539D01*
X224499Y33480D01*
X224466Y33434D01*
X224440Y33408D01*
X224433Y33401D01*
X224355Y33336D01*
X224277Y33284D01*
X224198Y33244D01*
X224126Y33225D01*
X224067Y33205D01*
X224021Y33199D01*
X223989Y33192D01*
X223976D01*
X223878Y33199D01*
X223793Y33218D01*
X223714Y33258D01*
X223642Y33290D01*
X223597Y33323D01*
X223551Y33356D01*
X223518Y33388D01*
X223446Y33473D01*
X223394Y33552D01*
X223355Y33630D01*
X223329Y33709D01*
X223316Y33774D01*
X223309Y33820D01*
X223302Y33852D01*
Y33865D01*
X223309Y33963D01*
X223329Y34049D01*
X223355Y34127D01*
X223394Y34192D01*
X223427Y34251D01*
X223459Y34297D01*
X223486Y34323D01*
X223492Y34330D01*
X223577Y34402D01*
X223655Y34454D01*
X223740Y34486D01*
X223812Y34519D01*
X223878Y34532D01*
X223930D01*
X223963Y34539D01*
X223976D01*
X224074Y34532D01*
D02*
G37*
G36*
X233566Y25079D02*
X233580D01*
X233678Y25046D01*
X233782Y24994D01*
X233880Y24922D01*
X233978Y24850D01*
X234063Y24778D01*
X234142Y24713D01*
X234449Y24406D01*
X233593Y23549D01*
X233266Y23876D01*
X233181Y23974D01*
X233109Y24059D01*
X233057Y24124D01*
X233024Y24183D01*
X233004Y24216D01*
X232991Y24242D01*
X232985Y24249D01*
X232945Y24379D01*
X232932Y24484D01*
Y24562D01*
Y24589D01*
X232939Y24595D01*
X232952Y24660D01*
X232978Y24713D01*
X233030Y24817D01*
X233063Y24850D01*
X233076Y24876D01*
X233096Y24896D01*
X233102Y24902D01*
X233187Y24974D01*
X233279Y25027D01*
X233351Y25059D01*
X233423Y25079D01*
X233488D01*
X233534Y25085D01*
X233566Y25079D01*
D02*
G37*
%LPC*%
G36*
X115374Y91290D02*
X115125D01*
X114909Y91283D01*
X114726Y91257D01*
X114648Y91244D01*
X114589Y91224D01*
X114543Y91218D01*
X114504Y91205D01*
X114478D01*
X114472Y91198D01*
X114347Y91152D01*
X114210Y91093D01*
X114079Y91015D01*
X113942Y90930D01*
X113680Y90747D01*
X113426Y90557D01*
X113314Y90459D01*
X113216Y90374D01*
X113118Y90289D01*
X113046Y90217D01*
X112974Y90159D01*
X111948Y89132D01*
X116132Y84948D01*
X117230Y86046D01*
X117361Y86190D01*
X117485Y86314D01*
X117597Y86439D01*
X117682Y86550D01*
X117773Y86654D01*
X117845Y86739D01*
X117910Y86831D01*
X117963Y86896D01*
X118015Y86962D01*
X118048Y87020D01*
X118074Y87060D01*
X118100Y87099D01*
X118119Y87119D01*
Y87132D01*
X118126Y87138D01*
X118204Y87308D01*
X118257Y87478D01*
X118302Y87641D01*
X118329Y87798D01*
X118355Y87929D01*
X118368Y88034D01*
Y88099D01*
Y88125D01*
X118361Y88328D01*
X118342Y88531D01*
X118296Y88720D01*
X118257Y88890D01*
X118217Y89034D01*
X118172Y89145D01*
X118159Y89184D01*
X118152Y89217D01*
X118146Y89237D01*
X118139Y89243D01*
X118034Y89452D01*
X117923Y89642D01*
X117806Y89825D01*
X117688Y89982D01*
X117583Y90113D01*
X117531Y90165D01*
X117492Y90217D01*
X117289Y90420D01*
X117152Y90531D01*
X116897Y90721D01*
X116773Y90806D01*
X116649Y90878D01*
X116531Y90943D01*
X116420Y91002D01*
X116322Y91048D01*
X116230Y91087D01*
X116145Y91119D01*
X116080Y91146D01*
X116021Y91165D01*
X115975Y91185D01*
X115955Y91191D01*
X115942D01*
X115799Y91231D01*
X115655Y91257D01*
X115374Y91290D01*
D02*
G37*
G36*
X110987Y88171D02*
X110196Y87380D01*
X112955Y84621D01*
X108392Y85576D01*
X107640Y84824D01*
X111824Y80640D01*
X112615Y81431D01*
X109875Y84170D01*
X114406Y83222D01*
X115171Y83987D01*
X110987Y88171D01*
D02*
G37*
G36*
X107280Y83104D02*
X106992D01*
X106724Y83085D01*
X106496Y83052D01*
X106299Y83013D01*
X106136Y82967D01*
X106071Y82954D01*
X106012Y82934D01*
X105973Y82921D01*
X105940Y82915D01*
X105920Y82908D01*
X105914Y82902D01*
X105665Y82784D01*
X105436Y82660D01*
X105234Y82522D01*
X105051Y82392D01*
X104972Y82326D01*
X104900Y82268D01*
X104841Y82222D01*
X104783Y82176D01*
X104691Y82085D01*
X104508Y81888D01*
X104351Y81679D01*
X104214Y81476D01*
X104096Y81267D01*
X104005Y81058D01*
X103920Y80855D01*
X103867Y80659D01*
X103815Y80476D01*
X103776Y80306D01*
X103756Y80143D01*
X103737Y80006D01*
X103724Y79888D01*
Y79783D01*
Y79718D01*
Y79666D01*
Y79653D01*
X103743Y79437D01*
X103782Y79241D01*
X103835Y79044D01*
X103894Y78855D01*
X103966Y78678D01*
X104037Y78515D01*
X104122Y78365D01*
X104201Y78221D01*
X104279Y78103D01*
X104358Y77985D01*
X104436Y77894D01*
X104495Y77809D01*
X104554Y77750D01*
X104587Y77704D01*
X104626Y77665D01*
X104743Y77561D01*
X104861Y77456D01*
X105103Y77279D01*
X105345Y77129D01*
X105456Y77070D01*
X105567Y77024D01*
X105672Y76972D01*
X105763Y76933D01*
X105848Y76900D01*
X105914Y76874D01*
X105973Y76854D01*
X106012Y76841D01*
X106045Y76835D01*
X106051Y76828D01*
X106352Y76763D01*
X106646Y76730D01*
X106920D01*
X107156Y76743D01*
X107365Y76769D01*
X107457Y76782D01*
X107522Y76796D01*
X107581Y76815D01*
X107627Y76822D01*
X107646Y76828D01*
X107659D01*
X107810Y76874D01*
X107947Y76933D01*
X108222Y77064D01*
X108463Y77214D01*
X108686Y77358D01*
X108771Y77430D01*
X108862Y77495D01*
X108934Y77554D01*
X108986Y77606D01*
X109039Y77646D01*
X109104Y77711D01*
X109313Y77946D01*
X109490Y78175D01*
X109627Y78391D01*
X109686Y78502D01*
X109732Y78600D01*
X109777Y78685D01*
X109810Y78770D01*
X109843Y78842D01*
X109869Y78907D01*
X109889Y78953D01*
X109902Y78992D01*
Y79018D01*
X109908Y79025D01*
X109967Y79293D01*
X109987Y79561D01*
X109993Y79816D01*
X109974Y80045D01*
X109954Y80234D01*
X109941Y80313D01*
X109921Y80385D01*
X109915Y80444D01*
X109902Y80483D01*
Y80509D01*
X109895Y80515D01*
X109856Y80659D01*
X109810Y80797D01*
X109686Y81052D01*
X109562Y81280D01*
X109444Y81476D01*
X109379Y81555D01*
X109326Y81633D01*
X109274Y81699D01*
X109222Y81751D01*
X109189Y81797D01*
X109137Y81849D01*
X108954Y82019D01*
X106849Y79914D01*
X107594Y79169D01*
X108803Y80378D01*
X108862Y80176D01*
X108901Y79992D01*
X108914Y79823D01*
X108921Y79672D01*
X108914Y79548D01*
X108901Y79456D01*
X108895Y79398D01*
Y79384D01*
X108888Y79378D01*
X108836Y79208D01*
X108758Y79051D01*
X108679Y78907D01*
X108588Y78776D01*
X108503Y78665D01*
X108437Y78587D01*
X108365Y78515D01*
X108241Y78404D01*
X108117Y78306D01*
X107993Y78221D01*
X107868Y78149D01*
X107738Y78084D01*
X107620Y78031D01*
X107496Y77985D01*
X107385Y77953D01*
X107280Y77927D01*
X107182Y77907D01*
X107097Y77887D01*
X107025Y77881D01*
X106966Y77874D01*
X106920Y77868D01*
X106724D01*
X106574Y77887D01*
X106430Y77913D01*
X106293Y77959D01*
X106162Y77998D01*
X106045Y78051D01*
X105829Y78162D01*
X105744Y78221D01*
X105665Y78273D01*
X105587Y78325D01*
X105528Y78371D01*
X105482Y78404D01*
X105449Y78436D01*
X105430Y78456D01*
X105423Y78463D01*
X105325Y78574D01*
X105234Y78692D01*
X105155Y78809D01*
X105090Y78927D01*
X104985Y79162D01*
X104946Y79280D01*
X104920Y79384D01*
X104887Y79482D01*
X104874Y79574D01*
X104855Y79659D01*
X104848Y79731D01*
X104841Y79790D01*
Y79829D01*
Y79855D01*
Y79868D01*
X104848Y80019D01*
X104868Y80169D01*
X104900Y80306D01*
X104946Y80444D01*
X104985Y80574D01*
X105038Y80692D01*
X105155Y80901D01*
X105208Y80993D01*
X105267Y81078D01*
X105319Y81143D01*
X105365Y81202D01*
X105404Y81254D01*
X105463Y81313D01*
X105600Y81437D01*
X105744Y81542D01*
X105894Y81640D01*
X106051Y81718D01*
X106195Y81784D01*
X106345Y81843D01*
X106496Y81888D01*
X106633Y81921D01*
X106770Y81941D01*
X106888Y81967D01*
X106999Y81973D01*
X107091Y81987D01*
X107274D01*
X107280Y83104D01*
D02*
G37*
%LPD*%
G36*
X115334Y90152D02*
X115472Y90132D01*
X115603Y90106D01*
X115733Y90067D01*
X115851Y90015D01*
X115969Y89962D01*
X116178Y89845D01*
X116269Y89779D01*
X116354Y89720D01*
X116426Y89662D01*
X116485Y89616D01*
X116537Y89577D01*
X116577Y89537D01*
X116596Y89518D01*
X116603Y89511D01*
X116753Y89348D01*
X116871Y89191D01*
X116969Y89040D01*
X117047Y88910D01*
X117106Y88799D01*
X117145Y88707D01*
X117165Y88648D01*
Y88635D01*
X117171Y88629D01*
X117211Y88459D01*
X117230Y88308D01*
X117237Y88171D01*
X117230Y88047D01*
X117217Y87942D01*
X117198Y87870D01*
X117191Y87824D01*
X117185Y87805D01*
X117152Y87733D01*
X117119Y87661D01*
X117028Y87504D01*
X116917Y87354D01*
X116805Y87204D01*
X116694Y87079D01*
X116642Y87027D01*
X116603Y86975D01*
X116145Y86517D01*
X113517Y89145D01*
X113785Y89413D01*
X113929Y89544D01*
X114060Y89662D01*
X114197Y89760D01*
X114321Y89845D01*
X114445Y89917D01*
X114557Y89975D01*
X114668Y90021D01*
X114766Y90067D01*
X114864Y90100D01*
X114949Y90119D01*
X115021Y90139D01*
X115079Y90145D01*
X115132Y90159D01*
X115197D01*
X115334Y90152D01*
D02*
G37*
%LPC*%
G36*
X74599Y127783D02*
X73808Y126992D01*
X76567Y124233D01*
X72003Y125187D01*
X71251Y124436D01*
X75436Y120252D01*
X76227Y121042D01*
X73487Y123782D01*
X78018Y122834D01*
X78783Y123599D01*
X74599Y127783D01*
D02*
G37*
G36*
X70349Y123533D02*
X69558Y122742D01*
X73742Y118558D01*
X74533Y119349D01*
X70349Y123533D01*
D02*
G37*
G36*
X68970Y122154D02*
X68159Y121343D01*
X70062Y117296D01*
X66034Y119219D01*
X65217Y118401D01*
X70879Y115695D01*
X71644Y116460D01*
X68970Y122154D01*
D02*
G37*
G36*
X225263Y263447D02*
X221948Y260132D01*
X226132Y255948D01*
X227231Y257047D01*
X227361Y257190D01*
X227485Y257314D01*
X227596Y257439D01*
X227681Y257550D01*
X227773Y257654D01*
X227845Y257739D01*
X227910Y257831D01*
X227963Y257896D01*
X228015Y257962D01*
X228048Y258020D01*
X228074Y258060D01*
X228100Y258099D01*
X228120Y258118D01*
Y258132D01*
X228126Y258138D01*
X228204Y258308D01*
X228257Y258478D01*
X228302Y258641D01*
X228329Y258798D01*
X228355Y258929D01*
X228368Y259034D01*
Y259099D01*
Y259125D01*
X228361Y259328D01*
X228342Y259531D01*
X228296Y259720D01*
X228257Y259890D01*
X228218Y260034D01*
X228172Y260145D01*
X228159Y260184D01*
X228152Y260217D01*
X228146Y260237D01*
X228139Y260243D01*
X228034Y260452D01*
X227923Y260642D01*
X227806Y260825D01*
X227688Y260982D01*
X227583Y261113D01*
X227531Y261165D01*
X227492Y261217D01*
X227289Y261420D01*
X227152Y261531D01*
X226897Y261721D01*
X226773Y261806D01*
X226649Y261878D01*
X226531Y261943D01*
X226420Y262002D01*
X226322Y262048D01*
X226230Y262087D01*
X226145Y262120D01*
X226080Y262146D01*
X226021Y262165D01*
X225975Y262185D01*
X225956Y262191D01*
X225942D01*
X225799Y262231D01*
X225655Y262257D01*
X225374Y262289D01*
X225125D01*
X224909Y262283D01*
X224726Y262257D01*
X224648Y262244D01*
X224589Y262224D01*
X224543Y262218D01*
X224504Y262204D01*
X224478D01*
X224471Y262198D01*
X224347Y262152D01*
X224210Y262093D01*
X224079Y262015D01*
X223942Y261930D01*
X223680Y261747D01*
X223425Y261557D01*
X223314Y261459D01*
X223216Y261374D01*
X223118Y261289D01*
X223046Y261217D01*
X222974Y261159D01*
X225263Y263447D01*
X225263Y263447D01*
D02*
G37*
G36*
X220987Y259171D02*
X217640Y255824D01*
X221824Y251640D01*
X222615Y252431D01*
X219876Y255170D01*
X224406Y254222D01*
X225171Y254987D01*
X220987Y259171D01*
D02*
G37*
G36*
X216796Y255190D02*
X212449Y250842D01*
X212449Y250842D01*
X214691Y253085D01*
X214508Y252888D01*
X214351Y252679D01*
X214214Y252477D01*
X214096Y252267D01*
X214005Y252058D01*
X213920Y251855D01*
X213867Y251659D01*
X213815Y251476D01*
X213776Y251306D01*
X213756Y251143D01*
X213737Y251005D01*
X213724Y250888D01*
Y250783D01*
Y250718D01*
Y250666D01*
Y250653D01*
X213743Y250437D01*
X213783Y250241D01*
X213835Y250044D01*
X213894Y249855D01*
X213965Y249678D01*
X214037Y249515D01*
X214122Y249365D01*
X214201Y249221D01*
X214279Y249103D01*
X214358Y248985D01*
X214436Y248894D01*
X214495Y248809D01*
X214554Y248750D01*
X214587Y248704D01*
X214626Y248665D01*
X214743Y248560D01*
X214861Y248456D01*
X215103Y248279D01*
X215345Y248129D01*
X215456Y248070D01*
X215567Y248024D01*
X215672Y247972D01*
X215763Y247933D01*
X215848Y247900D01*
X215914Y247874D01*
X215972Y247854D01*
X216012Y247841D01*
X216045Y247835D01*
X216051Y247828D01*
X216352Y247763D01*
X216646Y247730D01*
X216921D01*
X217156Y247743D01*
X217365Y247769D01*
X217457Y247782D01*
X217522Y247796D01*
X217581Y247815D01*
X217627Y247822D01*
X217646Y247828D01*
X217659D01*
X217810Y247874D01*
X217947Y247933D01*
X218221Y248064D01*
X218463Y248214D01*
X218686Y248358D01*
X218771Y248430D01*
X218862Y248495D01*
X218934Y248554D01*
X218986Y248606D01*
X219039Y248645D01*
X219104Y248711D01*
X219313Y248946D01*
X219490Y249175D01*
X219627Y249391D01*
X219686Y249502D01*
X219732Y249600D01*
X219778Y249685D01*
X219810Y249770D01*
X219843Y249842D01*
X219869Y249907D01*
X219889Y249953D01*
X219902Y249992D01*
Y250018D01*
X219908Y250025D01*
X219967Y250293D01*
X219987Y250561D01*
X219993Y250816D01*
X219974Y251045D01*
X219954Y251234D01*
X219941Y251313D01*
X219921Y251385D01*
X219915Y251444D01*
X219902Y251483D01*
Y251509D01*
X219895Y251515D01*
X219856Y251659D01*
X219810Y251797D01*
X219686Y252052D01*
X219562Y252280D01*
X219444Y252477D01*
X219379Y252555D01*
X219326Y252633D01*
X219274Y252699D01*
X219222Y252751D01*
X219189Y252797D01*
X219137Y252849D01*
X218954Y253019D01*
X216849Y250914D01*
X217594Y250169D01*
X218803Y251378D01*
X218862Y251175D01*
X218901Y250992D01*
X218915Y250823D01*
X218921Y250672D01*
X218915Y250548D01*
X218901Y250456D01*
X218895Y250397D01*
Y250384D01*
X218888Y250378D01*
X218836Y250208D01*
X218758Y250051D01*
X218679Y249907D01*
X218588Y249776D01*
X218503Y249665D01*
X218437Y249587D01*
X218365Y249515D01*
X218241Y249404D01*
X218117Y249306D01*
X217993Y249221D01*
X217868Y249149D01*
X217738Y249083D01*
X217620Y249031D01*
X217496Y248985D01*
X217385Y248953D01*
X217280Y248927D01*
X217182Y248907D01*
X217097Y248887D01*
X217025Y248881D01*
X216966Y248874D01*
X216921Y248868D01*
X216724D01*
X216574Y248887D01*
X216430Y248913D01*
X216293Y248959D01*
X216162Y248999D01*
X216045Y249051D01*
X215829Y249162D01*
X215744Y249221D01*
X215665Y249273D01*
X215587Y249325D01*
X215528Y249371D01*
X215482Y249404D01*
X215450Y249436D01*
X215430Y249456D01*
X215423Y249463D01*
X215325Y249574D01*
X215234Y249691D01*
X215155Y249809D01*
X215090Y249927D01*
X214985Y250162D01*
X214946Y250280D01*
X214920Y250384D01*
X214887Y250483D01*
X214874Y250574D01*
X214855Y250659D01*
X214848Y250731D01*
X214842Y250790D01*
Y250829D01*
Y250855D01*
Y250868D01*
X214848Y251019D01*
X214868Y251169D01*
X214900Y251306D01*
X214946Y251444D01*
X214985Y251574D01*
X215038Y251692D01*
X215155Y251901D01*
X215208Y251993D01*
X215266Y252078D01*
X215319Y252143D01*
X215364Y252202D01*
X215404Y252254D01*
X215463Y252313D01*
X215600Y252437D01*
X215744Y252542D01*
X215894Y252640D01*
X216051Y252718D01*
X216195Y252784D01*
X216345Y252843D01*
X216496Y252888D01*
X216633Y252921D01*
X216770Y252941D01*
X216888Y252967D01*
X216999Y252973D01*
X217090Y252986D01*
X217274D01*
X217280Y254104D01*
X216992D01*
X216724Y254085D01*
X216496Y254052D01*
X216299Y254013D01*
X216136Y253967D01*
X216071Y253954D01*
X216012Y253934D01*
X215972Y253921D01*
X215940Y253915D01*
X215920Y253908D01*
X215914Y253902D01*
X215665Y253784D01*
X215436Y253660D01*
X215234Y253522D01*
X215051Y253392D01*
X214972Y253326D01*
X214900Y253267D01*
X214842Y253222D01*
X214783Y253176D01*
X216796Y255190D01*
X216796Y255190D01*
D02*
G37*
%LPD*%
G36*
X225334Y261152D02*
X225472Y261132D01*
X225602Y261106D01*
X225733Y261067D01*
X225851Y261015D01*
X225969Y260962D01*
X226178Y260845D01*
X226269Y260779D01*
X226354Y260720D01*
X226426Y260662D01*
X226485Y260616D01*
X226537Y260577D01*
X226577Y260537D01*
X226596Y260518D01*
X226603Y260511D01*
X226753Y260348D01*
X226871Y260191D01*
X226969Y260040D01*
X227047Y259910D01*
X227106Y259799D01*
X227145Y259707D01*
X227165Y259648D01*
Y259635D01*
X227171Y259629D01*
X227211Y259459D01*
X227230Y259308D01*
X227237Y259171D01*
X227230Y259047D01*
X227217Y258942D01*
X227198Y258870D01*
X227191Y258825D01*
X227185Y258805D01*
X227152Y258733D01*
X227119Y258661D01*
X227028Y258504D01*
X226917Y258354D01*
X226805Y258203D01*
X226694Y258079D01*
X226642Y258027D01*
X226603Y257975D01*
X226145Y257517D01*
X223517Y260145D01*
X223785Y260413D01*
X223929Y260544D01*
X224060Y260662D01*
X224197Y260760D01*
X224321Y260845D01*
X224445Y260917D01*
X224556Y260975D01*
X224668Y261021D01*
X224766Y261067D01*
X224864Y261100D01*
X224949Y261119D01*
X225021Y261139D01*
X225079Y261145D01*
X225132Y261159D01*
X225197D01*
X225334Y261152D01*
D02*
G37*
G36*
X222955Y255621D02*
X218391Y256576D01*
X220196Y258380D01*
X222955Y255621D01*
D02*
G37*
%LPC*%
G36*
X231202Y248732D02*
X231006Y248719D01*
X230836Y248693D01*
X230711Y248673D01*
X230613Y248654D01*
X230555Y248634D01*
X230542D01*
X230535Y248628D01*
X230378Y248575D01*
X230241Y248503D01*
X230110Y248425D01*
X229999Y248353D01*
X229907Y248288D01*
X229842Y248235D01*
X229790Y248183D01*
X229705Y248085D01*
X229626Y247994D01*
X229502Y247804D01*
X229417Y247614D01*
X229358Y247438D01*
X229319Y247281D01*
X229306Y247215D01*
X229293Y247163D01*
Y247111D01*
X229286Y247078D01*
Y247065D01*
Y247052D01*
Y246934D01*
X229306Y246823D01*
X229319Y246719D01*
X229345Y246614D01*
X229410Y246431D01*
X229489Y246274D01*
X229574Y246150D01*
X229607Y246104D01*
X229639Y246058D01*
X229666Y246019D01*
X229685Y246000D01*
X229698Y245986D01*
X229705Y245980D01*
X229822Y245875D01*
X229960Y245790D01*
X230097Y245718D01*
X230221Y245660D01*
X230339Y245620D01*
X230424Y245588D01*
X230489Y245575D01*
X230502D01*
X230509Y245568D01*
X230607Y245548D01*
X230725Y245535D01*
X230855D01*
X230993Y245529D01*
X231280D01*
X231568Y245542D01*
X231829Y245555D01*
X231947Y245568D01*
X232045Y245575D01*
X232130Y245581D01*
X232189Y245588D01*
X232235Y245594D01*
X232248D01*
X232477Y245614D01*
X232660Y245627D01*
X232934D01*
X233032Y245620D01*
X233098D01*
X233130Y245614D01*
X233144D01*
X233235Y245601D01*
X233314Y245575D01*
X233379Y245548D01*
X233431Y245522D01*
X233477Y245490D01*
X233510Y245470D01*
X233529Y245450D01*
X233536Y245444D01*
X233588Y245378D01*
X233627Y245313D01*
X233647Y245241D01*
X233660Y245176D01*
X233666Y245117D01*
Y245065D01*
Y245039D01*
Y245025D01*
X233654Y244934D01*
X233621Y244849D01*
X233588Y244764D01*
X233549Y244699D01*
X233510Y244646D01*
X233477Y244601D01*
X233444Y244568D01*
X233366Y244502D01*
X233274Y244450D01*
X233183Y244411D01*
X233085Y244378D01*
X232875Y244352D01*
X232673Y244359D01*
X232490Y244372D01*
X232333Y244398D01*
X232281Y244411D01*
X232235Y244417D01*
X232209Y244431D01*
X232196D01*
X231934Y243358D01*
X232189Y243286D01*
X232431Y243241D01*
X232640Y243214D01*
X232830Y243208D01*
X232973D01*
X233098Y243214D01*
X233163Y243228D01*
X233183Y243221D01*
X233189Y243228D01*
X233392Y243286D01*
X233575Y243365D01*
X233745Y243456D01*
X233895Y243554D01*
X234013Y243646D01*
X234065Y243685D01*
X234105Y243724D01*
X234137Y243744D01*
X234183Y243790D01*
X234281Y243901D01*
X234373Y244006D01*
X234516Y244228D01*
X234628Y244444D01*
X234660Y244542D01*
X234693Y244640D01*
X234726Y244725D01*
X234739Y244803D01*
X234758Y244875D01*
X234765Y244934D01*
X234771Y244980D01*
X234778Y245025D01*
Y245039D01*
Y245052D01*
Y245182D01*
X234765Y245300D01*
X234745Y245424D01*
X234713Y245535D01*
X234641Y245738D01*
X234543Y245914D01*
X234451Y246058D01*
X234412Y246111D01*
X234373Y246163D01*
X234346Y246202D01*
X234294Y246255D01*
X234189Y246346D01*
X234091Y246431D01*
X233987Y246496D01*
X233895Y246549D01*
X233817Y246588D01*
X233758Y246621D01*
X233719Y246634D01*
X233699Y246640D01*
X233568Y246679D01*
X233444Y246712D01*
X233307Y246732D01*
X233176Y246745D01*
X233065Y246764D01*
X232856D01*
X232797Y246758D01*
X232647Y246751D01*
X232483Y246745D01*
X232307Y246725D01*
X232137Y246712D01*
X231993Y246699D01*
X231941D01*
X231895Y246693D01*
X231875Y246686D01*
X231862D01*
X231705Y246673D01*
X231555Y246666D01*
X231424Y246653D01*
X231313Y246647D01*
X231208D01*
X231110Y246640D01*
X230744D01*
X230633Y246673D01*
X230548Y246719D01*
X230522Y246745D01*
X230496Y246758D01*
X230483Y246771D01*
X230476Y246777D01*
X230443Y246823D01*
X230417Y246863D01*
X230391Y246967D01*
X230385Y247039D01*
Y247052D01*
Y247065D01*
X230398Y247131D01*
X230411Y247196D01*
X230476Y247300D01*
X230509Y247346D01*
X230529Y247379D01*
X230555Y247405D01*
X230620Y247457D01*
X230692Y247503D01*
X230770Y247542D01*
X230855Y247575D01*
X231032Y247608D01*
X231202Y247621D01*
X231365Y247627D01*
X231496Y247614D01*
X231542Y247608D01*
X231581D01*
X231601Y247601D01*
X231614D01*
X231686Y248719D01*
X231431Y248726D01*
X231202Y248732D01*
D02*
G37*
G36*
X235373Y252289D02*
X235124D01*
X234909Y252282D01*
X234726Y252256D01*
X234647Y252243D01*
X234588Y252223D01*
X234543Y252217D01*
X234503Y252204D01*
X234477D01*
X234471Y252197D01*
X234346Y252151D01*
X234209Y252093D01*
X234078Y252014D01*
X233941Y251929D01*
X233680Y251746D01*
X233425Y251556D01*
X233314Y251458D01*
X233215Y251373D01*
X233117Y251288D01*
X233046Y251217D01*
X232973Y251158D01*
X231947Y250131D01*
X236131Y245947D01*
X237229Y247045D01*
X237360Y247189D01*
X237484Y247314D01*
X237596Y247438D01*
X237681Y247549D01*
X237772Y247654D01*
X237844Y247738D01*
X237910Y247830D01*
X237962Y247895D01*
X238014Y247961D01*
X238047Y248020D01*
X238073Y248059D01*
X238099Y248098D01*
X238119Y248118D01*
Y248131D01*
X238125Y248137D01*
X238204Y248307D01*
X238256Y248477D01*
X238302Y248641D01*
X238328Y248798D01*
X238354Y248928D01*
X238367Y249033D01*
Y249098D01*
Y249125D01*
X238361Y249327D01*
X238341Y249530D01*
X238295Y249719D01*
X238256Y249889D01*
X238217Y250033D01*
X238171Y250144D01*
X238158Y250184D01*
X238151Y250216D01*
X238145Y250236D01*
X238138Y250242D01*
X238034Y250452D01*
X237922Y250641D01*
X237805Y250824D01*
X237687Y250981D01*
X237583Y251112D01*
X237530Y251164D01*
X237491Y251217D01*
X237288Y251419D01*
X237151Y251530D01*
X236896Y251720D01*
X236772Y251805D01*
X236648Y251877D01*
X236530Y251942D01*
X236419Y252001D01*
X236321Y252047D01*
X236229Y252086D01*
X236144Y252119D01*
X236079Y252145D01*
X236020Y252164D01*
X235974Y252184D01*
X235955Y252191D01*
X235942D01*
X235798Y252230D01*
X235654Y252256D01*
X235373Y252289D01*
D02*
G37*
%LPD*%
G36*
X235334Y251151D02*
X235471Y251132D01*
X235602Y251105D01*
X235732Y251066D01*
X235850Y251014D01*
X235968Y250962D01*
X236177Y250844D01*
X236269Y250779D01*
X236353Y250720D01*
X236425Y250661D01*
X236484Y250615D01*
X236537Y250576D01*
X236576Y250537D01*
X236595Y250517D01*
X236602Y250511D01*
X236752Y250347D01*
X236870Y250190D01*
X236968Y250040D01*
X237047Y249909D01*
X237105Y249798D01*
X237145Y249706D01*
X237164Y249648D01*
Y249634D01*
X237171Y249628D01*
X237210Y249458D01*
X237229Y249308D01*
X237236Y249170D01*
X237229Y249046D01*
X237216Y248941D01*
X237197Y248869D01*
X237190Y248824D01*
X237184Y248804D01*
X237151Y248732D01*
X237118Y248660D01*
X237027Y248503D01*
X236916Y248353D01*
X236805Y248203D01*
X236693Y248078D01*
X236641Y248026D01*
X236602Y247974D01*
X236144Y247516D01*
X233516Y250144D01*
X233784Y250412D01*
X233928Y250543D01*
X234059Y250661D01*
X234196Y250759D01*
X234320Y250844D01*
X234445Y250916D01*
X234556Y250975D01*
X234667Y251020D01*
X234765Y251066D01*
X234863Y251099D01*
X234948Y251119D01*
X235020Y251138D01*
X235079Y251145D01*
X235131Y251158D01*
X235196D01*
X235334Y251151D01*
D02*
G37*
%LPC*%
G36*
X240937Y237467D02*
X240741Y237454D01*
X240571Y237428D01*
X240447Y237409D01*
X240349Y237389D01*
X240290Y237369D01*
X240277D01*
X240270Y237363D01*
X240113Y237311D01*
X239976Y237239D01*
X239845Y237160D01*
X239734Y237088D01*
X239643Y237023D01*
X239577Y236971D01*
X239525Y236918D01*
X239440Y236820D01*
X239361Y236729D01*
X239237Y236539D01*
X239152Y236350D01*
X239093Y236173D01*
X239054Y236016D01*
X239041Y235951D01*
X239028Y235898D01*
Y235846D01*
X239022Y235813D01*
Y235800D01*
Y235787D01*
Y235670D01*
X239041Y235558D01*
X239054Y235454D01*
X239080Y235349D01*
X239146Y235166D01*
X239224Y235009D01*
X239309Y234885D01*
X239342Y234839D01*
X239375Y234794D01*
X239401Y234754D01*
X239420Y234735D01*
X239433Y234722D01*
X239440Y234715D01*
X239558Y234611D01*
X239695Y234526D01*
X239832Y234454D01*
X239956Y234395D01*
X240074Y234356D01*
X240159Y234323D01*
X240224Y234310D01*
X240238D01*
X240244Y234303D01*
X240342Y234284D01*
X240460Y234270D01*
X240591D01*
X240728Y234264D01*
X241016D01*
X241303Y234277D01*
X241565Y234290D01*
X241682Y234303D01*
X241780Y234310D01*
X241866Y234316D01*
X241924Y234323D01*
X241970Y234329D01*
X241983D01*
X242212Y234349D01*
X242395Y234362D01*
X242670D01*
X242768Y234356D01*
X242833D01*
X242866Y234349D01*
X242879D01*
X242970Y234336D01*
X243049Y234310D01*
X243114Y234284D01*
X243166Y234258D01*
X243212Y234225D01*
X243245Y234205D01*
X243265Y234186D01*
X243271Y234179D01*
X243323Y234114D01*
X243363Y234048D01*
X243382Y233976D01*
X243395Y233911D01*
X243402Y233852D01*
Y233800D01*
Y233774D01*
Y233761D01*
X243389Y233669D01*
X243356Y233584D01*
X243323Y233499D01*
X243284Y233434D01*
X243245Y233381D01*
X243212Y233336D01*
X243179Y233303D01*
X243101Y233238D01*
X243009Y233185D01*
X242918Y233146D01*
X242820Y233113D01*
X242611Y233087D01*
X242408Y233094D01*
X242225Y233107D01*
X242068Y233133D01*
X242016Y233146D01*
X241970Y233153D01*
X241944Y233166D01*
X241931D01*
X241669Y232094D01*
X241924Y232022D01*
X242166Y231976D01*
X242375Y231950D01*
X242565Y231943D01*
X242709D01*
X242833Y231950D01*
X242898Y231963D01*
X242918Y231956D01*
X242925Y231963D01*
X243127Y232022D01*
X243310Y232100D01*
X243480Y232192D01*
X243631Y232290D01*
X243748Y232381D01*
X243801Y232420D01*
X243840Y232460D01*
X243873Y232479D01*
X243918Y232525D01*
X244016Y232636D01*
X244108Y232741D01*
X244252Y232963D01*
X244363Y233179D01*
X244396Y233277D01*
X244428Y233375D01*
X244461Y233460D01*
X244474Y233538D01*
X244494Y233610D01*
X244500Y233669D01*
X244507Y233715D01*
X244513Y233761D01*
Y233774D01*
Y233787D01*
Y233918D01*
X244500Y234035D01*
X244480Y234159D01*
X244448Y234270D01*
X244376Y234473D01*
X244278Y234650D01*
X244186Y234794D01*
X244147Y234846D01*
X244108Y234898D01*
X244082Y234937D01*
X244029Y234990D01*
X243925Y235081D01*
X243827Y235166D01*
X243722Y235232D01*
X243631Y235284D01*
X243552Y235323D01*
X243493Y235356D01*
X243454Y235369D01*
X243435Y235375D01*
X243304Y235415D01*
X243179Y235447D01*
X243042Y235467D01*
X242911Y235480D01*
X242800Y235500D01*
X242591D01*
X242532Y235493D01*
X242382Y235487D01*
X242218Y235480D01*
X242042Y235460D01*
X241872Y235447D01*
X241728Y235434D01*
X241676D01*
X241630Y235428D01*
X241611Y235421D01*
X241597D01*
X241441Y235408D01*
X241290Y235402D01*
X241159Y235389D01*
X241048Y235382D01*
X240944D01*
X240846Y235375D01*
X240480D01*
X240368Y235408D01*
X240283Y235454D01*
X240257Y235480D01*
X240231Y235493D01*
X240218Y235506D01*
X240211Y235513D01*
X240179Y235558D01*
X240153Y235598D01*
X240126Y235702D01*
X240120Y235774D01*
Y235787D01*
Y235800D01*
X240133Y235866D01*
X240146Y235931D01*
X240211Y236036D01*
X240244Y236082D01*
X240264Y236114D01*
X240290Y236140D01*
X240355Y236193D01*
X240427Y236238D01*
X240506Y236278D01*
X240591Y236310D01*
X240767Y236343D01*
X240937Y236356D01*
X241101Y236363D01*
X241231Y236350D01*
X241277Y236343D01*
X241316D01*
X241336Y236336D01*
X241349D01*
X241421Y237454D01*
X241166Y237461D01*
X240937Y237467D01*
D02*
G37*
G36*
X245984Y241978D02*
X245716Y241959D01*
X245474Y241926D01*
X245252Y241887D01*
X245069Y241835D01*
X244997Y241815D01*
X244925Y241795D01*
X244873Y241782D01*
X244840Y241763D01*
X244814D01*
X244807Y241756D01*
X244559Y241651D01*
X244317Y241527D01*
X244114Y241403D01*
X243938Y241279D01*
X243859Y241213D01*
X243794Y241161D01*
X243735Y241115D01*
X243683Y241076D01*
X243480Y240874D01*
X243382Y240749D01*
X243206Y240507D01*
X243062Y240259D01*
X243003Y240148D01*
X242944Y240037D01*
X242898Y239939D01*
X242859Y239847D01*
X242826Y239762D01*
X242800Y239684D01*
X242781Y239625D01*
X242768Y239586D01*
X242755Y239559D01*
Y239546D01*
X242683Y239239D01*
X242650Y238945D01*
X242643Y238677D01*
X242656Y238442D01*
X242676Y238239D01*
X242683Y238154D01*
X242702Y238082D01*
X242715Y238030D01*
X242722Y237984D01*
X242728Y237964D01*
Y237951D01*
X242768Y237807D01*
X242820Y237677D01*
X242944Y237409D01*
X243081Y237180D01*
X243212Y236971D01*
X243284Y236886D01*
X243343Y236801D01*
X243402Y236729D01*
X243454Y236676D01*
X243493Y236624D01*
X243552Y236565D01*
X243735Y236395D01*
X243925Y236245D01*
X244114Y236121D01*
X244304Y236010D01*
X244494Y235912D01*
X244677Y235833D01*
X244853Y235774D01*
X245023Y235722D01*
X245173Y235676D01*
X245317Y235650D01*
X245441Y235630D01*
X245553Y235611D01*
X245638Y235604D01*
X245710Y235598D01*
X245762D01*
X245991Y235604D01*
X246213Y235644D01*
X246429Y235689D01*
X246625Y235755D01*
X246821Y235833D01*
X247004Y235912D01*
X247174Y236003D01*
X247331Y236094D01*
X247468Y236180D01*
X247599Y236271D01*
X247710Y236356D01*
X247795Y236428D01*
X247873Y236493D01*
X247926Y236533D01*
X247972Y236578D01*
X248155Y236775D01*
X248318Y236977D01*
X248449Y237160D01*
X248554Y237330D01*
X248606Y237409D01*
X248638Y237481D01*
X248671Y237539D01*
X248697Y237592D01*
X248717Y237637D01*
X248730Y237664D01*
X248736Y237683D01*
X248743Y237690D01*
X248782Y237807D01*
X248822Y237925D01*
X248880Y238180D01*
X248926Y238435D01*
X248959Y238677D01*
X248978Y238880D01*
X248985Y238978D01*
Y239056D01*
X248992Y239115D01*
Y239167D01*
Y239193D01*
Y239207D01*
X247887Y239226D01*
X247880Y238984D01*
X247861Y238769D01*
X247834Y238572D01*
X247802Y238422D01*
X247775Y238291D01*
X247749Y238200D01*
X247730Y238141D01*
Y238128D01*
X247723Y238121D01*
X247658Y237977D01*
X247579Y237834D01*
X247488Y237703D01*
X247409Y237585D01*
X247331Y237494D01*
X247272Y237422D01*
X247213Y237363D01*
X247056Y237219D01*
X246899Y237101D01*
X246742Y237010D01*
X246599Y236931D01*
X246474Y236873D01*
X246376Y236840D01*
X246344Y236820D01*
X246311Y236814D01*
X246298D01*
X246291Y236807D01*
X246102Y236761D01*
X245912Y236742D01*
X245585D01*
X245461Y236761D01*
X245357Y236775D01*
X245291Y236787D01*
X245278D01*
X245272Y236794D01*
X245089Y236859D01*
X244912Y236945D01*
X244762Y237043D01*
X244618Y237134D01*
X244507Y237219D01*
X244461Y237265D01*
X244422Y237291D01*
X244389Y237324D01*
X244369Y237343D01*
X244356Y237356D01*
X244350Y237363D01*
X244245Y237481D01*
X244154Y237598D01*
X244075Y237716D01*
X244010Y237834D01*
X243899Y238076D01*
X243859Y238180D01*
X243827Y238291D01*
X243801Y238396D01*
X243781Y238481D01*
X243768Y238572D01*
X243755Y238638D01*
X243748Y238696D01*
Y238736D01*
Y238762D01*
Y238775D01*
X243755Y238925D01*
X243774Y239076D01*
X243807Y239213D01*
X243846Y239344D01*
X243886Y239475D01*
X243938Y239592D01*
X244049Y239795D01*
X244101Y239886D01*
X244160Y239971D01*
X244212Y240037D01*
X244258Y240096D01*
X244291Y240141D01*
X244350Y240200D01*
X244487Y240324D01*
X244637Y240436D01*
X244788Y240534D01*
X244945Y240612D01*
X245102Y240677D01*
X245259Y240730D01*
X245409Y240776D01*
X245559Y240808D01*
X245703Y240834D01*
X245827Y240854D01*
X245945Y240867D01*
X246043Y240874D01*
X246115Y240880D01*
X246233D01*
X246265Y241972D01*
X245984Y241978D01*
D02*
G37*
G36*
X265513Y229188D02*
X265448D01*
X265324Y229181D01*
X265200Y229161D01*
X265089Y229129D01*
X264977Y229096D01*
X264775Y229011D01*
X264605Y228920D01*
X264467Y228822D01*
X264402Y228782D01*
X264356Y228736D01*
X264317Y228710D01*
X264265Y228658D01*
X264167Y228547D01*
X264075Y228429D01*
X263997Y228312D01*
X263931Y228207D01*
X263827Y227972D01*
X263794Y227861D01*
X263761Y227762D01*
X263742Y227664D01*
X263729Y227573D01*
X263716Y227494D01*
X263703Y227429D01*
Y227377D01*
Y227337D01*
Y227311D01*
Y227298D01*
X263722Y227096D01*
X263775Y226899D01*
X263840Y226716D01*
X263918Y226560D01*
X263990Y226422D01*
X264016Y226370D01*
X264049Y226324D01*
X264075Y226285D01*
X264095Y226252D01*
X264108Y226239D01*
X264114Y226233D01*
X264879Y226998D01*
X264840Y227076D01*
X264814Y227154D01*
X264801Y227233D01*
X264794Y227305D01*
X264788Y227364D01*
X264794Y227409D01*
Y227435D01*
Y227449D01*
X264814Y227534D01*
X264847Y227619D01*
X264879Y227691D01*
X264912Y227749D01*
X264951Y227802D01*
X264977Y227841D01*
X265004Y227867D01*
X265082Y227932D01*
X265154Y227978D01*
X265226Y228011D01*
X265291Y228037D01*
X265350Y228057D01*
X265396Y228063D01*
X265435D01*
X265520Y228057D01*
X265599Y228043D01*
X265664Y228017D01*
X265729Y227991D01*
X265775Y227959D01*
X265814Y227932D01*
X265834Y227913D01*
X265840Y227906D01*
X265886Y227861D01*
X265919Y227802D01*
X265971Y227697D01*
X265991Y227651D01*
X266004Y227612D01*
X266010Y227592D01*
Y227579D01*
X266023Y227435D01*
X266010Y227305D01*
X265997Y227253D01*
X265984Y227213D01*
X265978Y227181D01*
X265971Y227174D01*
X265932Y227096D01*
X265886Y227011D01*
X265827Y226926D01*
X265768Y226841D01*
X265716Y226775D01*
X265670Y226716D01*
X265644Y226677D01*
X265631Y226664D01*
X266311Y225984D01*
X266488Y226134D01*
X266644Y226252D01*
X266801Y226344D01*
X266939Y226403D01*
X267050Y226448D01*
X267141Y226474D01*
X267200Y226481D01*
X267220Y226488D01*
X267383Y226494D01*
X267521Y226474D01*
X267651Y226435D01*
X267749Y226390D01*
X267834Y226344D01*
X267900Y226291D01*
X267939Y226265D01*
X267945Y226259D01*
X267952Y226252D01*
X268037Y226154D01*
X268102Y226050D01*
X268148Y225938D01*
X268174Y225847D01*
X268194Y225762D01*
X268200Y225690D01*
X268207Y225644D01*
Y225631D01*
X268194Y225500D01*
X268161Y225376D01*
X268109Y225272D01*
X268063Y225173D01*
X268011Y225095D01*
X267965Y225036D01*
X267919Y224991D01*
X267821Y224905D01*
X267717Y224840D01*
X267612Y224788D01*
X267527Y224755D01*
X267449Y224729D01*
X267383Y224716D01*
X267337Y224709D01*
X267324D01*
X267200Y224716D01*
X267069Y224742D01*
X266952Y224781D01*
X266847Y224834D01*
X266756Y224886D01*
X266684Y224932D01*
X266631Y224958D01*
X266625Y224964D01*
X266618Y224971D01*
X265827Y224180D01*
X265958Y224075D01*
X266082Y223977D01*
X266213Y223899D01*
X266331Y223833D01*
X266455Y223775D01*
X266572Y223722D01*
X266684Y223689D01*
X266788Y223650D01*
X266886Y223631D01*
X266971Y223611D01*
X267050Y223598D01*
X267122Y223591D01*
X267213D01*
X267233Y223585D01*
X267246D01*
X267383Y223591D01*
X267521Y223624D01*
X267651Y223650D01*
X267775Y223696D01*
X268004Y223794D01*
X268207Y223905D01*
X268292Y223964D01*
X268370Y224016D01*
X268442Y224075D01*
X268501Y224121D01*
X268547Y224154D01*
X268606Y224212D01*
X268717Y224337D01*
X268815Y224461D01*
X268913Y224585D01*
X268985Y224709D01*
X269044Y224834D01*
X269103Y224958D01*
X269148Y225069D01*
X269181Y225180D01*
X269214Y225278D01*
X269240Y225370D01*
X269253Y225448D01*
X269266Y225527D01*
X269273Y225585D01*
X269279Y225618D01*
Y225644D01*
Y225657D01*
X269273Y225808D01*
X269259Y225951D01*
X269240Y226089D01*
X269207Y226213D01*
X269168Y226331D01*
X269116Y226448D01*
X269018Y226651D01*
X268972Y226736D01*
X268920Y226814D01*
X268874Y226873D01*
X268828Y226932D01*
X268795Y226978D01*
X268743Y227030D01*
X268599Y227161D01*
X268442Y227266D01*
X268298Y227344D01*
X268161Y227403D01*
X268037Y227435D01*
X267945Y227462D01*
X267880Y227475D01*
X267861Y227481D01*
X267677Y227494D01*
X267494Y227481D01*
X267324Y227455D01*
X267174Y227409D01*
X267050Y227364D01*
X266952Y227331D01*
X266919Y227311D01*
X266893Y227298D01*
X266873Y227292D01*
X266867Y227285D01*
X266912Y227449D01*
X266939Y227592D01*
X266952Y227736D01*
Y227854D01*
X266945Y227952D01*
Y228030D01*
X266939Y228076D01*
X266932Y228096D01*
X266899Y228233D01*
X266847Y228364D01*
X266788Y228475D01*
X266730Y228573D01*
X266671Y228658D01*
X266625Y228717D01*
X266592Y228750D01*
X266579Y228763D01*
X266488Y228841D01*
X266403Y228913D01*
X266213Y229024D01*
X266023Y229096D01*
X265847Y229142D01*
X265683Y229174D01*
X265559Y229181D01*
X265513Y229188D01*
D02*
G37*
G36*
X265755Y222918D02*
X265742D01*
X265644Y222911D01*
X265559Y222892D01*
X265487Y222859D01*
X265422Y222833D01*
X265370Y222794D01*
X265330Y222768D01*
X265298Y222735D01*
X265239Y222663D01*
X265193Y222591D01*
X265160Y222519D01*
X265141Y222447D01*
X265128Y222382D01*
X265121Y222336D01*
X265115Y222304D01*
Y222290D01*
X265121Y222192D01*
X265141Y222107D01*
X265173Y222036D01*
X265206Y221977D01*
X265239Y221918D01*
X265265Y221879D01*
X265298Y221846D01*
X265370Y221787D01*
X265448Y221735D01*
X265520Y221702D01*
X265592Y221682D01*
X265657Y221669D01*
X265703Y221663D01*
X265736Y221656D01*
X265749D01*
X265840Y221669D01*
X265925Y221689D01*
X265997Y221722D01*
X266069Y221754D01*
X266115Y221787D01*
X266154Y221813D01*
X266187Y221846D01*
X266246Y221918D01*
X266291Y221990D01*
X266331Y222068D01*
X266350Y222140D01*
X266363Y222192D01*
X266370Y222238D01*
X266376Y222271D01*
Y222284D01*
X266370Y222382D01*
X266350Y222467D01*
X266324Y222545D01*
X266285Y222611D01*
X266252Y222670D01*
X266226Y222709D01*
X266193Y222742D01*
X266122Y222800D01*
X266049Y222846D01*
X265965Y222879D01*
X265899Y222905D01*
X265840Y222911D01*
X265788D01*
X265755Y222918D01*
D02*
G37*
G36*
X260623Y224298D02*
X260558D01*
X260434Y224291D01*
X260310Y224271D01*
X260198Y224239D01*
X260087Y224206D01*
X259885Y224121D01*
X259715Y224029D01*
X259577Y223931D01*
X259512Y223892D01*
X259466Y223846D01*
X259427Y223820D01*
X259375Y223768D01*
X259277Y223657D01*
X259185Y223539D01*
X259107Y223421D01*
X259041Y223317D01*
X258937Y223081D01*
X258904Y222970D01*
X258871Y222872D01*
X258852Y222774D01*
X258839Y222683D01*
X258825Y222604D01*
X258812Y222539D01*
Y222487D01*
Y222447D01*
Y222421D01*
Y222408D01*
X258832Y222205D01*
X258884Y222009D01*
X258950Y221826D01*
X259028Y221669D01*
X259100Y221532D01*
X259126Y221480D01*
X259159Y221434D01*
X259185Y221395D01*
X259205Y221362D01*
X259218Y221349D01*
X259224Y221343D01*
X259989Y222107D01*
X259950Y222186D01*
X259924Y222264D01*
X259911Y222343D01*
X259904Y222415D01*
X259898Y222474D01*
X259904Y222519D01*
Y222545D01*
Y222558D01*
X259924Y222644D01*
X259956Y222729D01*
X259989Y222800D01*
X260022Y222859D01*
X260061Y222911D01*
X260087Y222951D01*
X260113Y222977D01*
X260192Y223042D01*
X260264Y223088D01*
X260336Y223121D01*
X260401Y223147D01*
X260460Y223167D01*
X260506Y223173D01*
X260545D01*
X260630Y223167D01*
X260708Y223153D01*
X260774Y223127D01*
X260839Y223101D01*
X260885Y223068D01*
X260924Y223042D01*
X260944Y223023D01*
X260950Y223016D01*
X260996Y222970D01*
X261029Y222911D01*
X261081Y222807D01*
X261101Y222761D01*
X261114Y222722D01*
X261120Y222702D01*
Y222689D01*
X261133Y222545D01*
X261120Y222415D01*
X261107Y222362D01*
X261094Y222323D01*
X261087Y222290D01*
X261081Y222284D01*
X261042Y222205D01*
X260996Y222120D01*
X260937Y222036D01*
X260878Y221950D01*
X260826Y221885D01*
X260780Y221826D01*
X260754Y221787D01*
X260741Y221774D01*
X261421Y221094D01*
X261597Y221244D01*
X261754Y221362D01*
X261911Y221454D01*
X262048Y221513D01*
X262160Y221558D01*
X262251Y221584D01*
X262310Y221591D01*
X262330Y221597D01*
X262493Y221604D01*
X262630Y221584D01*
X262761Y221545D01*
X262859Y221499D01*
X262944Y221454D01*
X263010Y221401D01*
X263049Y221375D01*
X263055Y221369D01*
X263062Y221362D01*
X263147Y221264D01*
X263212Y221159D01*
X263258Y221048D01*
X263284Y220957D01*
X263304Y220872D01*
X263310Y220800D01*
X263317Y220754D01*
Y220741D01*
X263304Y220610D01*
X263271Y220486D01*
X263219Y220381D01*
X263173Y220283D01*
X263121Y220205D01*
X263075Y220146D01*
X263029Y220100D01*
X262931Y220015D01*
X262826Y219950D01*
X262722Y219898D01*
X262637Y219865D01*
X262558Y219839D01*
X262493Y219826D01*
X262447Y219819D01*
X262434D01*
X262310Y219826D01*
X262179Y219852D01*
X262062Y219891D01*
X261957Y219943D01*
X261866Y219996D01*
X261794Y220042D01*
X261741Y220068D01*
X261735Y220074D01*
X261728Y220081D01*
X260937Y219290D01*
X261068Y219185D01*
X261192Y219087D01*
X261323Y219009D01*
X261441Y218943D01*
X261565Y218884D01*
X261682Y218832D01*
X261794Y218799D01*
X261898Y218760D01*
X261996Y218741D01*
X262081Y218721D01*
X262160Y218708D01*
X262232Y218701D01*
X262323D01*
X262343Y218695D01*
X262356D01*
X262493Y218701D01*
X262630Y218734D01*
X262761Y218760D01*
X262885Y218806D01*
X263114Y218904D01*
X263317Y219015D01*
X263402Y219074D01*
X263480Y219126D01*
X263552Y219185D01*
X263611Y219231D01*
X263657Y219263D01*
X263716Y219322D01*
X263827Y219447D01*
X263925Y219571D01*
X264023Y219695D01*
X264095Y219819D01*
X264154Y219943D01*
X264212Y220068D01*
X264258Y220179D01*
X264291Y220290D01*
X264324Y220388D01*
X264350Y220480D01*
X264363Y220558D01*
X264376Y220636D01*
X264382Y220695D01*
X264389Y220728D01*
Y220754D01*
Y220767D01*
X264382Y220917D01*
X264369Y221061D01*
X264350Y221199D01*
X264317Y221323D01*
X264278Y221441D01*
X264226Y221558D01*
X264128Y221761D01*
X264082Y221846D01*
X264029Y221924D01*
X263984Y221983D01*
X263938Y222042D01*
X263905Y222088D01*
X263853Y222140D01*
X263709Y222271D01*
X263552Y222375D01*
X263408Y222454D01*
X263271Y222513D01*
X263147Y222545D01*
X263055Y222572D01*
X262990Y222585D01*
X262970Y222591D01*
X262787Y222604D01*
X262604Y222591D01*
X262434Y222565D01*
X262284Y222519D01*
X262160Y222474D01*
X262062Y222441D01*
X262029Y222421D01*
X262003Y222408D01*
X261983Y222402D01*
X261977Y222395D01*
X262022Y222558D01*
X262048Y222702D01*
X262062Y222846D01*
Y222964D01*
X262055Y223062D01*
Y223140D01*
X262048Y223186D01*
X262042Y223206D01*
X262009Y223343D01*
X261957Y223474D01*
X261898Y223585D01*
X261839Y223683D01*
X261780Y223768D01*
X261735Y223827D01*
X261702Y223859D01*
X261689Y223873D01*
X261597Y223951D01*
X261512Y224023D01*
X261323Y224134D01*
X261133Y224206D01*
X260957Y224252D01*
X260793Y224284D01*
X260669Y224291D01*
X260623Y224298D01*
D02*
G37*
%LPD*%
D10*
X232728Y80560D02*
G03*
X233403Y78261I2443J-531D01*
G01*
X236939Y81797D02*
G03*
X234641Y82472I-1768J-1768D01*
G01*
X79297Y105561D02*
G03*
X75761Y109097I-1768J1768D01*
G01*
X233403Y78261D02*
G03*
X236939Y81797I1768J1768D01*
G01*
X75761Y109097D02*
G03*
X79297Y105561I1768J-1768D01*
G01*
D11*
X256527Y231261D02*
G03*
X256527Y231261I-1250J0D01*
G01*
X198800Y82250D02*
G03*
X198800Y82250I-1250J0D01*
G01*
X205750Y215500D02*
G03*
X205750Y215500I-1250J0D01*
G01*
D12*
X171000Y275000D02*
G03*
X171000Y275000I-1000J0D01*
G01*
X216033Y288890D02*
X232473Y272450D01*
X269950Y234973D02*
X286390Y218533D01*
X216033Y288890D02*
X221866Y294724D01*
X145000Y39000D02*
Y71000D01*
X195000Y39000D02*
Y71000D01*
X145000Y39000D02*
X195000D01*
X257575Y302502D02*
X300002Y260075D01*
X286390Y218533D02*
X292224Y224366D01*
X145000Y71000D02*
X195000D01*
X142500Y147500D02*
X197500D01*
Y202500D01*
X142500Y147500D02*
Y202500D01*
X197500D01*
X196266Y96098D02*
Y106095D01*
X201264D01*
X202930Y104428D01*
Y101096D01*
X201264Y99430D01*
X196266D01*
X199598D02*
X202930Y96098D01*
X212927D02*
X206262D01*
X212927Y102762D01*
Y104428D01*
X211261Y106095D01*
X207928D01*
X206262Y104428D01*
X175837Y294998D02*
X182502D01*
Y293332D01*
X175837Y286668D01*
Y285002D01*
X182502D01*
X192498Y286668D02*
Y293332D01*
X190832Y294998D01*
X187500D01*
X185834Y293332D01*
Y286668D01*
X187500Y285002D01*
X190832D01*
X189166Y288334D02*
X192498Y285002D01*
X190832D02*
X192498Y286668D01*
X195831Y285002D02*
X199163D01*
X197497D01*
Y294998D01*
X195831Y293332D01*
X276041Y128109D02*
X287822Y125753D01*
X280753Y132822D02*
X283109Y121041D01*
X290178Y128109D02*
X283109Y135178D01*
X286644Y138713D01*
X289000Y138713D01*
X291356Y136356D01*
Y134000D01*
X287822Y130466D01*
X294891Y146959D02*
X290178Y142247D01*
X293713Y138713D01*
X294891Y142247D01*
X296069Y143425D01*
X298425D01*
X300781Y141069D01*
X300781Y138713D01*
X298425Y136356D01*
X296069D01*
X294541Y209109D02*
X306322Y206753D01*
X299253Y213822D02*
X301609Y202041D01*
X308678Y209109D02*
X301609Y216178D01*
X305144Y219713D01*
X307500Y219713D01*
X309856Y217356D01*
Y215000D01*
X306322Y211466D01*
X309856Y222069D02*
Y224425D01*
X312213Y226781D01*
X314569Y226781D01*
X315747Y225603D01*
Y223247D01*
X314569Y222069D01*
X315747Y223247D01*
X318103Y223247D01*
X319281Y222069D01*
X319281Y219713D01*
X316925Y217356D01*
X314569D01*
X97219Y32287D02*
X109000Y29931D01*
X101931Y37000D02*
X104288Y25219D01*
X111356Y32287D02*
X104288Y39356D01*
X107822Y42891D01*
X110178Y42891D01*
X112534Y40534D01*
Y38178D01*
X109000Y34644D01*
X118425Y39356D02*
X120781Y41712D01*
X119603Y40534D01*
X112534Y47603D01*
Y45247D01*
X275002Y186671D02*
X281666D01*
X284998Y190003D01*
X281666Y193335D01*
X275002D01*
Y196668D02*
Y203332D01*
Y200000D01*
X284998D01*
Y213329D02*
Y206665D01*
X278334Y213329D01*
X276668D01*
X275002Y211663D01*
Y208331D01*
X276668Y206665D01*
X20144Y222356D02*
X17787D01*
X15431Y220000D01*
Y217644D01*
X16609Y216466D01*
X18966Y216466D01*
X21322Y218822D01*
X23678Y218822D01*
X24856Y217644D01*
Y215287D01*
X22500Y212931D01*
X20144D01*
X28391Y218822D02*
X30747Y221178D01*
X29569Y220000D01*
X22500Y227069D01*
Y224713D01*
X97198Y227630D02*
X90130Y234698D01*
X93664Y238233D01*
X96020D01*
X98377Y235877D01*
Y233520D01*
X94842Y229986D01*
X97198Y232342D02*
X101911D01*
X104267Y234698D02*
X106623Y237055D01*
X105445Y235877D01*
X98377Y242945D01*
Y240589D01*
X107802Y252370D02*
X103089Y247658D01*
X106623Y244123D01*
X107802Y247658D01*
X108980Y248836D01*
X111336D01*
X113692Y246480D01*
X113692Y244123D01*
X111336Y241767D01*
X108980D01*
X125144Y273075D02*
X118075Y280144D01*
X121609Y283678D01*
X123966D01*
X126322Y281322D01*
Y278966D01*
X122788Y275431D01*
X125144Y277787D02*
X129856D01*
X131034Y281322D02*
X133391D01*
X135747Y283678D01*
Y286034D01*
X131034Y290747D01*
X128678Y290747D01*
X126322Y288391D01*
Y286034D01*
X127500Y284856D01*
X129856Y284856D01*
X133391Y288391D01*
X224169Y147502D02*
Y157498D01*
X229168D01*
X230834Y155832D01*
Y152500D01*
X229168Y150834D01*
X224169D01*
X227502D02*
X230834Y147502D01*
X234166Y155832D02*
X235832Y157498D01*
X239165D01*
X240831Y155832D01*
Y154166D01*
X239165Y152500D01*
X240831Y150834D01*
Y149168D01*
X239165Y147502D01*
X235832D01*
X234166Y149168D01*
Y150834D01*
X235832Y152500D01*
X234166Y154166D01*
Y155832D01*
X235832Y152500D02*
X239165D01*
X266669Y167502D02*
Y177498D01*
X271668D01*
X273334Y175832D01*
Y172500D01*
X271668Y170834D01*
X266669D01*
X270002D02*
X273334Y167502D01*
X283331Y177498D02*
X276666D01*
Y172500D01*
X279998Y174166D01*
X281665D01*
X283331Y172500D01*
Y169168D01*
X281665Y167502D01*
X278332D01*
X276666Y169168D01*
X21322Y114253D02*
X14253Y121322D01*
X17787Y124856D01*
X20144D01*
X22500Y122500D01*
Y120144D01*
X18966Y116609D01*
X21322Y118966D02*
X26034D01*
X28391Y121322D02*
X30747Y123678D01*
X29569Y122500D01*
X22500Y129569D01*
Y127212D01*
X28395Y201053D02*
X35463Y193985D01*
X31929Y197519D01*
X36641Y202231D01*
X33107Y205766D01*
X40176Y198697D01*
X35463Y208122D02*
X42532Y201053D01*
X47245Y205766D01*
X54314Y212835D02*
X49601Y208122D01*
Y217547D01*
X48423Y218725D01*
X46067Y218725D01*
X43710Y216369D01*
Y214013D01*
X28219Y140288D02*
X35287Y133219D01*
X31753Y136753D01*
X36466Y141466D01*
X32931Y145000D01*
X40000Y137931D01*
X35287Y147356D02*
X42356Y140288D01*
X47069Y145000D01*
X49425Y147356D02*
X51781Y149712D01*
X50603Y148534D01*
X43534Y155603D01*
Y153247D01*
X144171Y124998D02*
Y115002D01*
X149169D01*
X150836Y116668D01*
Y123332D01*
X149169Y124998D01*
X144171D01*
X154168D02*
Y115002D01*
X159166D01*
X160832Y116668D01*
Y123332D01*
X159166Y124998D01*
X154168D01*
X164165Y123332D02*
X165831Y124998D01*
X169163D01*
X170829Y123332D01*
Y121666D01*
X169163Y120000D01*
X167497D01*
X169163D01*
X170829Y118334D01*
Y116668D01*
X169163Y115002D01*
X165831D01*
X164165Y116668D01*
X130002Y42671D02*
X139998D01*
Y47669D01*
X138332Y49335D01*
X131668D01*
X130002Y47669D01*
Y42671D01*
Y52668D02*
X139998D01*
Y57666D01*
X138332Y59332D01*
X131668D01*
X130002Y57666D01*
Y52668D01*
X139998Y69329D02*
Y62664D01*
X133334Y69329D01*
X131668D01*
X130002Y67663D01*
Y64331D01*
X131668Y62664D01*
X256753Y146322D02*
X263822Y139253D01*
X267356Y142788D01*
Y145144D01*
X262644Y149856D01*
X260287D01*
X256753Y146322D01*
X270891D02*
X273247Y148678D01*
X272069Y147500D01*
X265000Y154569D01*
Y152212D01*
X137931Y302644D02*
X135575D01*
X133219Y300287D01*
Y297931D01*
X137931Y293219D01*
X140288D01*
X142644Y295575D01*
Y297931D01*
X150891Y303822D02*
X146178Y299109D01*
Y308534D01*
X145000Y309713D01*
X142644Y309713D01*
X140288Y307356D01*
Y305000D01*
X157959Y310891D02*
X153247Y306178D01*
Y315603D01*
X152069Y316781D01*
X149712Y316781D01*
X147356Y314425D01*
Y312069D01*
X119168Y252502D02*
X117502Y250835D01*
Y247503D01*
X119168Y245837D01*
X125832D01*
X127498Y247503D01*
Y250835D01*
X125832Y252502D01*
X127498Y262498D02*
Y255834D01*
X120834Y262498D01*
X119168D01*
X117502Y260832D01*
Y257500D01*
X119168Y255834D01*
X127498Y265831D02*
Y269163D01*
Y267497D01*
X117502D01*
X119168Y265831D01*
X119168Y215835D02*
X117502Y214169D01*
Y210837D01*
X119168Y209171D01*
X125832D01*
X127498Y210837D01*
Y214169D01*
X125832Y215835D01*
X127498Y225832D02*
Y219168D01*
X120834Y225832D01*
X119168D01*
X117502Y224166D01*
Y220834D01*
X119168Y219168D01*
Y229165D02*
X117502Y230831D01*
Y234163D01*
X119168Y235829D01*
X125832D01*
X127498Y234163D01*
Y230831D01*
X125832Y229165D01*
X119168D01*
X212169Y237332D02*
X210502Y238998D01*
X207170D01*
X205504Y237332D01*
Y230668D01*
X207170Y229002D01*
X210502D01*
X212169Y230668D01*
X215501Y229002D02*
X218833D01*
X217167D01*
Y238998D01*
X215501Y237332D01*
X223832Y230668D02*
X225498Y229002D01*
X228830D01*
X230496Y230668D01*
Y237332D01*
X228830Y238998D01*
X225498D01*
X223832Y237332D01*
Y235666D01*
X225498Y234000D01*
X230496D01*
X149169Y285832D02*
X147502Y287498D01*
X144170D01*
X142504Y285832D01*
Y279168D01*
X144170Y277502D01*
X147502D01*
X149169Y279168D01*
X152501Y277502D02*
X155833D01*
X154167D01*
Y287498D01*
X152501Y285832D01*
X160832D02*
X162498Y287498D01*
X165830D01*
X167496Y285832D01*
Y284166D01*
X165830Y282500D01*
X167496Y280834D01*
Y279168D01*
X165830Y277502D01*
X162498D01*
X160832Y279168D01*
Y280834D01*
X162498Y282500D01*
X160832Y284166D01*
Y285832D01*
X162498Y282500D02*
X165830D01*
X226668Y223332D02*
X225002Y224998D01*
X221670D01*
X220004Y223332D01*
Y216668D01*
X221670Y215002D01*
X225002D01*
X226668Y216668D01*
X230001Y215002D02*
X233333D01*
X231667D01*
Y224998D01*
X230001Y223332D01*
X238332Y224998D02*
X244996D01*
Y223332D01*
X238332Y216668D01*
Y215002D01*
X214168Y120832D02*
X212502Y122498D01*
X209170D01*
X207504Y120832D01*
Y114168D01*
X209170Y112502D01*
X212502D01*
X214168Y114168D01*
X217501Y112502D02*
X220833D01*
X219167D01*
Y122498D01*
X217501Y120832D01*
X232496Y122498D02*
X229164Y120832D01*
X225832Y117500D01*
Y114168D01*
X227498Y112502D01*
X230830D01*
X232496Y114168D01*
Y115834D01*
X230830Y117500D01*
X225832D01*
X117169Y120332D02*
X115502Y121998D01*
X112170D01*
X110504Y120332D01*
Y113668D01*
X112170Y112002D01*
X115502D01*
X117169Y113668D01*
X120501Y112002D02*
X123833D01*
X122167D01*
Y121998D01*
X120501Y120332D01*
X135496Y121998D02*
X128832D01*
Y117000D01*
X132164Y118666D01*
X133830D01*
X135496Y117000D01*
Y113668D01*
X133830Y112002D01*
X130498D01*
X128832Y113668D01*
X91669Y173332D02*
X90002Y174998D01*
X86670D01*
X85004Y173332D01*
Y166668D01*
X86670Y165002D01*
X90002D01*
X91669Y166668D01*
X95001Y165002D02*
X98333D01*
X96667D01*
Y174998D01*
X95001Y173332D01*
X108330Y165002D02*
Y174998D01*
X103331Y170000D01*
X109996D01*
X182000Y15332D02*
X180334Y16998D01*
X177002D01*
X175336Y15332D01*
Y8668D01*
X177002Y7002D01*
X180334D01*
X182000Y8668D01*
X185332Y7002D02*
X188664D01*
X186998D01*
Y16998D01*
X185332Y15332D01*
D13*
X188000Y61000D02*
G03*
X188000Y61000I-3000J0D01*
G01*
X190500Y192500D02*
G03*
X190500Y192500I-3000J0D01*
G01*
D14*
X50933Y226136D02*
X55529Y230732D01*
X50933Y226136D02*
X55529Y221540D01*
X60656Y235859D02*
X69141Y244344D01*
X86338Y259091D02*
X93409Y266162D01*
X96591Y248838D02*
X103662Y255909D01*
X35933Y128636D02*
X40529Y133232D01*
X75859Y220656D02*
X84344Y229141D01*
X66136Y210933D02*
X70732Y215529D01*
X61540D02*
X66136Y210933D01*
X272598Y124137D02*
X277746Y118989D01*
X256486Y140248D02*
X261637Y135098D01*
X256666Y121995D02*
X259495Y119166D01*
X198500Y22000D02*
X207500D01*
X210750Y17000D02*
Y27000D01*
X195250Y17000D02*
Y27000D01*
X76339Y306088D02*
X101088Y281339D01*
X72803Y288410D02*
X83410Y277803D01*
X51590Y267197D02*
X72803Y288410D01*
X51590Y267197D02*
X62197Y256590D01*
X33912Y263661D02*
X76339Y306088D01*
X33912Y263661D02*
X58661Y238912D01*
X101088Y281339D01*
X51136Y113433D02*
X55732Y118029D01*
X46540D02*
X51136Y113433D01*
X34091Y101338D02*
X41162Y108409D01*
X35933Y128636D02*
X40529Y124040D01*
X45656Y138359D02*
X54141Y146844D01*
X60859Y123156D02*
X69344Y131641D01*
X23838Y111591D02*
X30909Y118662D01*
X249217Y132979D02*
X256486Y140248D01*
X239966Y206530D02*
X247250D01*
X253000Y193750D02*
X257000D01*
X270031Y195750D02*
Y206530D01*
X239966Y196250D02*
Y206530D01*
X262750D02*
X270031D01*
X160000Y260500D02*
Y269500D01*
X140000Y242250D02*
X150000D01*
X140000Y257750D02*
X150000D01*
X155000Y257250D02*
X165000D01*
X155000Y272750D02*
X165000D01*
X223000Y197500D02*
X232000D01*
X219750Y192500D02*
Y202500D01*
X235250Y192500D02*
Y202500D01*
X190000Y230500D02*
Y239500D01*
X185000Y242750D02*
X195000D01*
X185000Y227250D02*
X195000D01*
X234750Y165000D02*
Y175000D01*
X247500Y165250D02*
X257500D01*
X247500Y179750D02*
X257500D01*
X223924Y100237D02*
X232763Y109076D01*
X235237Y88924D02*
X244076Y97763D01*
X220250Y165000D02*
Y175000D01*
X215000Y142750D02*
X225000D01*
X215000Y127250D02*
X225000D01*
X220000Y130500D02*
Y139500D01*
X106338Y294091D02*
X113409Y301162D01*
X116591Y283838D02*
X123662Y290909D01*
X270123Y111366D02*
X277746Y118989D01*
X115984Y313055D02*
X123055Y305984D01*
X126945Y324016D02*
X134016Y316945D01*
X121818Y311818D02*
X128182Y318182D01*
X145000Y228000D02*
Y237000D01*
X122750Y132500D02*
Y142500D01*
X107250Y132500D02*
Y142500D01*
X145000Y245500D02*
Y254500D01*
X140000Y224750D02*
X150000D01*
X140000Y240250D02*
X150000D01*
X95000Y135000D02*
X101000D01*
X104250Y127250D02*
Y142750D01*
X110500Y137500D02*
X119500D01*
X89000Y135000D02*
X95000D01*
X85750Y127250D02*
Y142750D01*
X62197Y256590D02*
X83410Y277803D01*
D15*
X52384Y110921D02*
X58491Y117028D01*
X96388Y79131D02*
X114528Y60991D01*
X58491Y117028D02*
X76631Y98888D01*
X108421Y54884D02*
X114528Y60991D01*
X46278Y73204D02*
X70704Y48778D01*
X269296D02*
X293722Y73204D01*
X225472Y60991D02*
X231579Y54884D01*
X263369Y98888D02*
X281509Y117028D01*
X225472Y60991D02*
X243612Y79131D01*
X281509Y117028D02*
X287616Y110921D01*
D16*
X176750Y263200D02*
Y264800D01*
X201750Y263200D02*
Y264800D01*
M02*
