G04*
G04 #@! TF.GenerationSoftware,Altium Limited,Altium Designer,25.5.2 (35)*
G04*
G04 Layer_Color=16776960*
%FSLAX44Y44*%
%MOMM*%
G71*
G04*
G04 #@! TF.SameCoordinates,78459730-5FDF-4622-8040-CD8E326CB214*
G04*
G04*
G04 #@! TF.FilePolarity,Positive*
G04*
G01*
G75*
%ADD10C,0.2000*%
%ADD11C,0.2500*%
%ADD14C,0.1500*%
%ADD15C,0.1270*%
%ADD16C,0.1524*%
%ADD87C,0.4200*%
D10*
X110010Y167300D02*
G03*
X110010Y167300I-1000J0D01*
G01*
X278694Y46845D02*
G03*
X278694Y46845I-1000J0D01*
G01*
X39788Y76287D02*
G03*
X39788Y76287I-1000J0D01*
G01*
X265632Y111918D02*
X270581Y116868D01*
X244419Y133132D02*
X249368Y138082D01*
X84163Y72498D02*
Y62502D01*
X79165D01*
X77498Y64168D01*
Y70832D01*
X79165Y72498D01*
X84163D01*
X74166Y62502D02*
Y69166D01*
X70834Y72498D01*
X67502Y69166D01*
Y62502D01*
Y67500D01*
X74166D01*
X64169Y62502D02*
X60837D01*
X62503D01*
Y72498D01*
X64169Y70832D01*
X301609Y212041D02*
X299253Y223822D01*
X306322Y216753D02*
X294541Y219109D01*
X301609Y226178D02*
X308678Y219109D01*
X312213Y222644D01*
X312213Y225000D01*
X309856Y227356D01*
X307500D01*
X303966Y223822D01*
X312213Y236781D02*
X319281Y229713D01*
X312213D01*
X316925Y234425D01*
X19541Y230891D02*
X31322Y233247D01*
X24253Y226178D02*
X26609Y237959D01*
X33678Y230891D02*
X26609Y223822D01*
X30144Y220287D01*
X32500Y220287D01*
X34856Y222644D01*
Y225000D01*
X31322Y228534D01*
X45459Y219109D02*
X40747Y223822D01*
Y214397D01*
X39569Y213219D01*
X37213Y213219D01*
X34856Y215575D01*
Y217931D01*
X31781Y145288D02*
X27069Y140575D01*
X22356D01*
Y145288D01*
X27069Y150000D01*
X24713Y152356D02*
X20000Y157069D01*
X22356Y154712D01*
X15287Y147644D01*
X10575Y152356D02*
X8219Y154712D01*
X9397Y153534D01*
X16466Y160603D01*
Y158247D01*
X94281Y115288D02*
X89569Y110575D01*
X84856D01*
Y115288D01*
X89569Y120000D01*
X87212Y122356D02*
X80144Y115288D01*
X76609Y118822D01*
Y121178D01*
X81322Y125891D01*
X83678Y125891D01*
X87212Y122356D01*
X73075D02*
X70719Y124712D01*
X71897Y123534D01*
X78966Y130603D01*
Y128247D01*
X205002Y167504D02*
X214998D01*
Y172502D01*
X213332Y174168D01*
X210000D01*
X208334Y172502D01*
Y167504D01*
Y170836D02*
X205002Y174168D01*
Y177501D02*
Y180833D01*
Y179167D01*
X214998D01*
X213332Y177501D01*
X205002Y190830D02*
X214998D01*
X210000Y185831D01*
Y192496D01*
X185002Y167504D02*
X194998D01*
Y172502D01*
X193332Y174168D01*
X190000D01*
X188334Y172502D01*
Y167504D01*
Y170836D02*
X185002Y174168D01*
Y177501D02*
Y180833D01*
Y179167D01*
X194998D01*
X193332Y177501D01*
Y185831D02*
X194998Y187498D01*
Y190830D01*
X193332Y192496D01*
X191666D01*
X190000Y190830D01*
Y189164D01*
Y190830D01*
X188334Y192496D01*
X186668D01*
X185002Y190830D01*
Y187498D01*
X186668Y185831D01*
X165002Y167504D02*
X174998D01*
Y172502D01*
X173332Y174168D01*
X170000D01*
X168334Y172502D01*
Y167504D01*
Y170836D02*
X165002Y174168D01*
Y177501D02*
Y180833D01*
Y179167D01*
X174998D01*
X173332Y177501D01*
X165002Y192496D02*
Y185831D01*
X171666Y192496D01*
X173332D01*
X174998Y190830D01*
Y187498D01*
X173332Y185831D01*
X145002Y169170D02*
X154998D01*
Y174168D01*
X153332Y175835D01*
X150000D01*
X148334Y174168D01*
Y169170D01*
Y172502D02*
X145002Y175835D01*
Y179167D02*
Y182499D01*
Y180833D01*
X154998D01*
X153332Y179167D01*
X145002Y187498D02*
Y190830D01*
Y189164D01*
X154998D01*
X153332Y187498D01*
X125002Y170004D02*
X134998D01*
Y175002D01*
X133332Y176668D01*
X130000D01*
X128334Y175002D01*
Y170004D01*
Y173336D02*
X125002Y176668D01*
Y180001D02*
Y183333D01*
Y181667D01*
X134998D01*
X133332Y180001D01*
Y188331D02*
X134998Y189998D01*
Y193330D01*
X133332Y194996D01*
X126668D01*
X125002Y193330D01*
Y189998D01*
X126668Y188331D01*
X133332D01*
X309021Y121952D02*
X301952Y129021D01*
X298418Y125487D01*
Y123131D01*
X300774Y120774D01*
X303131D01*
X306665Y124309D01*
X304309Y121952D02*
Y117240D01*
X290171D02*
X293706Y118418D01*
X298418D01*
X300774Y116062D01*
Y113706D01*
X298418Y111349D01*
X296062D01*
X294884Y112527D01*
X294884Y114884D01*
X298418Y118418D01*
X54425Y149856D02*
X47356Y156925D01*
X43822Y153391D01*
Y151034D01*
X46178Y148678D01*
X48534D01*
X52069Y152212D01*
X49713Y149856D02*
Y145144D01*
X43822Y139253D02*
X36753Y146322D01*
X43822D01*
X39109Y141609D01*
X231665Y34998D02*
Y25002D01*
X225000D01*
X221668D02*
X218335D01*
X220002D01*
Y34998D01*
X221668Y33332D01*
X245891Y157959D02*
X252959Y150891D01*
X249425Y147356D01*
X247069D01*
X242356Y152069D01*
Y154425D01*
X245891Y157959D01*
X238822Y150891D02*
X245891Y143822D01*
X242356Y140288D01*
X240000D01*
X235287Y145000D01*
X235287Y147356D01*
X238822Y150891D01*
X235287Y133219D02*
X228219Y140288D01*
X235287D01*
X230575Y135575D01*
X65002Y189163D02*
X74998D01*
Y184165D01*
X73332Y182498D01*
X66668D01*
X65002Y184165D01*
Y189163D01*
Y179166D02*
X74998D01*
Y174168D01*
X73332Y172502D01*
X66668D01*
X65002Y174168D01*
Y179166D01*
X74998Y169169D02*
Y165837D01*
Y167503D01*
X65002D01*
X66668Y169169D01*
X198329Y317498D02*
Y307502D01*
X193331D01*
X191665Y309168D01*
Y315832D01*
X193331Y317498D01*
X198329D01*
X188332Y307502D02*
Y314166D01*
X185000Y317498D01*
X181668Y314166D01*
Y307502D01*
Y312500D01*
X188332D01*
X178335Y315832D02*
X176669Y317498D01*
X173337D01*
X171671Y315832D01*
Y314166D01*
X173337Y312500D01*
X175003D01*
X173337D01*
X171671Y310834D01*
Y309168D01*
X173337Y307502D01*
X176669D01*
X178335Y309168D01*
X263391Y95459D02*
X270459Y88391D01*
X266925Y84856D01*
X264569D01*
X259856Y89569D01*
Y91925D01*
X263391Y95459D01*
Y81322D02*
X258678Y86034D01*
X253966Y86034D01*
X253966Y81322D01*
X258678Y76609D01*
X255144Y80144D01*
X259856Y84856D01*
X251609Y69541D02*
X256322Y74253D01*
X246897D01*
X245719Y75431D01*
X245719Y77787D01*
X248075Y80144D01*
X250431D01*
X229267Y83980D02*
Y86336D01*
X231623Y88692D01*
X233980D01*
X238692Y83980D01*
Y81623D01*
X236336Y79267D01*
X233980D01*
X232802Y75733D02*
X230445Y73376D01*
X231623Y74555D01*
X224555Y81623D01*
X226911D01*
X221020Y75733D02*
X218664D01*
X216308Y73376D01*
X216308Y71020D01*
X217486Y69842D01*
X219842D01*
X221020Y71020D01*
X219842Y69842D01*
X219842Y67486D01*
X221020Y66308D01*
X223377Y66308D01*
X225733Y68664D01*
Y71020D01*
X193332Y205832D02*
X194998Y207498D01*
X198330D01*
X199996Y205832D01*
Y199168D01*
X198330Y197502D01*
X194998D01*
X193332Y199168D01*
X189999Y197502D02*
X186667D01*
X188333D01*
Y207498D01*
X189999Y205832D01*
X175004Y197502D02*
X181668D01*
X175004Y204166D01*
Y205832D01*
X176670Y207498D01*
X180002D01*
X181668Y205832D01*
X161665D02*
X163331Y207498D01*
X166664D01*
X168330Y205832D01*
Y199168D01*
X166664Y197502D01*
X163331D01*
X161665Y199168D01*
X158333Y197502D02*
X155001D01*
X156667D01*
Y207498D01*
X158333Y205832D01*
X150002Y197502D02*
X146670D01*
X148336D01*
Y207498D01*
X150002Y205832D01*
X256480Y213233D02*
X258836D01*
X261192Y210877D01*
Y208520D01*
X256480Y203808D01*
X254123D01*
X251767Y206164D01*
Y208520D01*
X248233Y209698D02*
X245877Y212055D01*
X247055Y210877D01*
X254123Y217945D01*
Y215589D01*
X248233Y221480D02*
Y223836D01*
X245877Y226192D01*
X243520Y226192D01*
X238808Y221480D01*
X238808Y219123D01*
X241164Y216767D01*
X243520D01*
X248233Y221480D01*
X276322Y106034D02*
Y108391D01*
X278678Y110747D01*
X281034D01*
X285747Y106034D01*
Y103678D01*
X283391Y101322D01*
X281034D01*
X278678Y98966D02*
Y96609D01*
X276322Y94253D01*
X273966D01*
X269253Y98966D01*
X269253Y101322D01*
X271609Y103678D01*
X273966D01*
X275144Y102500D01*
X275144Y100144D01*
X271609Y96609D01*
X236322Y61034D02*
Y63391D01*
X238678Y65747D01*
X241034D01*
X245747Y61034D01*
Y58678D01*
X243391Y56322D01*
X241034D01*
X233966Y58678D02*
X231609D01*
X229253Y56322D01*
X229253Y53966D01*
X230431Y52787D01*
X232787D01*
X232787Y50431D01*
X233966Y49253D01*
X236322D01*
X238678Y51609D01*
Y53966D01*
X237500Y55144D01*
X235144D01*
X235144Y57500D01*
X233966Y58678D01*
X235144Y55144D02*
X232787Y52787D01*
X198332Y115834D02*
X199998Y114168D01*
Y110835D01*
X198332Y109169D01*
X191668D01*
X190002Y110835D01*
Y114168D01*
X191668Y115834D01*
X199998Y119166D02*
Y125831D01*
X198332D01*
X191668Y119166D01*
X190002D01*
X198332Y88334D02*
X199998Y86668D01*
Y83336D01*
X198332Y81669D01*
X191668D01*
X190002Y83336D01*
Y86668D01*
X191668Y88334D01*
X199998Y98331D02*
X198332Y94998D01*
X195000Y91666D01*
X191668D01*
X190002Y93332D01*
Y96664D01*
X191668Y98331D01*
X193334D01*
X195000Y96664D01*
Y91666D01*
X120666Y116332D02*
X122332Y117998D01*
X125665D01*
X127331Y116332D01*
Y109668D01*
X125665Y108002D01*
X122332D01*
X120666Y109668D01*
X110669Y117998D02*
X117334D01*
Y113000D01*
X114002Y114666D01*
X112336D01*
X110669Y113000D01*
Y109668D01*
X112336Y108002D01*
X115668D01*
X117334Y109668D01*
X69166Y210832D02*
X70832Y212498D01*
X74165D01*
X75831Y210832D01*
Y204168D01*
X74165Y202502D01*
X70832D01*
X69166Y204168D01*
X60835Y202502D02*
Y212498D01*
X65834Y207500D01*
X59169D01*
X69166Y158332D02*
X70832Y159998D01*
X74165D01*
X75831Y158332D01*
Y151668D01*
X74165Y150002D01*
X70832D01*
X69166Y151668D01*
X65834Y158332D02*
X64168Y159998D01*
X60835D01*
X59169Y158332D01*
Y156666D01*
X60835Y155000D01*
X62502D01*
X60835D01*
X59169Y153334D01*
Y151668D01*
X60835Y150002D01*
X64168D01*
X65834Y151668D01*
X76666Y55832D02*
X78332Y57498D01*
X81664D01*
X83331Y55832D01*
Y49168D01*
X81664Y47502D01*
X78332D01*
X76666Y49168D01*
X66669Y47502D02*
X73334D01*
X66669Y54166D01*
Y55832D01*
X68335Y57498D01*
X71668D01*
X73334Y55832D01*
D11*
X263346Y104847D02*
G03*
X263346Y104847I-1250J0D01*
G01*
D14*
X89000Y42500D02*
G03*
X89000Y42500I-500J0D01*
G01*
X142750Y147500D02*
Y157500D01*
X157250Y147500D02*
Y157500D01*
X122750Y147500D02*
Y157500D01*
X137250Y147500D02*
Y157500D01*
X182750Y147500D02*
Y157500D01*
X197250Y147500D02*
Y157500D01*
X162750Y147500D02*
Y157500D01*
X177250Y147500D02*
Y157500D01*
X202750Y147500D02*
Y157500D01*
X217250Y147500D02*
Y157500D01*
X220984Y233055D02*
X228055Y225984D01*
X231945Y244016D02*
X239016Y236945D01*
X226818Y231818D02*
X233182Y238182D01*
X182500Y212250D02*
X192500D01*
X182500Y227750D02*
X192500D01*
X187500Y215500D02*
Y224500D01*
X155000Y227750D02*
X165000D01*
X155000Y212250D02*
X165000D01*
X160000Y215500D02*
Y224500D01*
X87500Y157750D02*
X97500D01*
X87500Y142250D02*
X97500D01*
X92500Y145500D02*
Y154500D01*
X87500Y199750D02*
X97500D01*
X87500Y215250D02*
X97500D01*
X92500Y203000D02*
Y212000D01*
X106470Y177460D02*
Y182540D01*
X78530D02*
X106470D01*
X78530Y177460D02*
Y182540D01*
Y177460D02*
X106470D01*
X220984Y104445D02*
X228055Y111516D01*
X231945Y93484D02*
X239016Y100555D01*
X226818Y105682D02*
X233182Y99318D01*
X313687Y98434D02*
X320758Y105505D01*
X303434Y108687D02*
X310505Y115758D01*
X296945Y96516D02*
X304016Y89445D01*
X285984Y85555D02*
X293055Y78484D01*
X291818Y84318D02*
X298182Y90682D01*
X245984Y43056D02*
X253055Y35984D01*
X256945Y54016D02*
X264016Y46945D01*
X251818Y41818D02*
X258182Y48182D01*
X283082Y55826D02*
X286674Y59418D01*
X266918Y79174D02*
X286674Y59418D01*
X263326Y75582D02*
X266918Y79174D01*
X263326Y75582D02*
X283082Y55826D01*
X155000Y109750D02*
X170000D01*
X162500Y113250D02*
Y122500D01*
Y131750D01*
X155000Y135250D02*
X170000D01*
X155000Y79750D02*
X170000D01*
X162500Y83250D02*
Y92500D01*
Y101750D01*
X155000Y105250D02*
X170000D01*
X101500Y103250D02*
X116500D01*
X109000Y90500D02*
Y99750D01*
Y81250D02*
Y90500D01*
X101500Y77750D02*
X116500D01*
X112500Y25500D02*
Y34500D01*
X107500Y37750D02*
X117500D01*
X107500Y22250D02*
X117500D01*
X102500Y73250D02*
X112500D01*
X102500Y41750D02*
X112500D01*
X51338Y136591D02*
X58409Y143662D01*
X61591Y126338D02*
X68662Y133409D01*
X48829Y96934D02*
X60567Y108672D01*
X59436Y86328D02*
X71174Y98066D01*
X35505Y116666D02*
X38334Y119495D01*
X33363Y132598D02*
X38514Y137748D01*
X17254Y116489D02*
X22403Y121637D01*
X38514Y137748D02*
X45782Y130479D01*
X17254Y116489D02*
X24877Y108866D01*
D15*
X204850Y10150D02*
Y22155D01*
Y62845D02*
Y74850D01*
X140150Y62845D02*
Y74850D01*
Y10150D02*
Y22155D01*
Y74850D02*
X204850D01*
X140150Y10150D02*
X204850D01*
D16*
X147100Y264452D02*
G03*
X147100Y270548I0J3048D01*
G01*
X197900Y248704D02*
Y286296D01*
X147100Y248704D02*
Y264452D01*
Y270548D01*
Y286296D01*
X102315Y265704D02*
X119197Y282587D01*
X54899Y223317D02*
X57413Y220803D01*
X25803Y252413D02*
X87587Y314197D01*
X90101Y311683D01*
X57413Y220803D02*
X74296Y237686D01*
X116683Y285101D02*
X119197Y282587D01*
X25803Y252413D02*
X28317Y249899D01*
X265704Y237686D02*
X282587Y220803D01*
X220803Y282587D02*
X223317Y285101D01*
X252413Y314197D02*
X314197Y252413D01*
X311683Y249899D02*
X314197Y252413D01*
X220803Y282587D02*
X237686Y265704D01*
X282587Y220803D02*
X285101Y223317D01*
X249899Y311683D02*
X252413Y314197D01*
D87*
X77782Y224720D02*
G03*
X77782Y224720I-2100J0D01*
G01*
X226820Y264318D02*
G03*
X226820Y264318I-2100J0D01*
G01*
M02*
