G04*
G04 #@! TF.GenerationSoftware,Altium Limited,Altium Designer,25.5.2 (35)*
G04*
G04 Layer_Color=8388736*
%FSLAX44Y44*%
%MOMM*%
G71*
G04*
G04 #@! TF.SameCoordinates,78459730-5FDF-4622-8040-CD8E326CB214*
G04*
G04*
G04 #@! TF.FilePolarity,Negative*
G04*
G01*
G75*
G04:AMPARAMS|DCode=26|XSize=0.8mm|YSize=1.3mm|CornerRadius=0mm|HoleSize=0mm|Usage=FLASHONLY|Rotation=315.000|XOffset=0mm|YOffset=0mm|HoleType=Round|Shape=Rectangle|*
%AMROTATEDRECTD26*
4,1,4,-0.7425,-0.1768,0.1768,0.7425,0.7425,0.1768,-0.1768,-0.7425,-0.7425,-0.1768,0.0*
%
%ADD26ROTATEDRECTD26*%

G04:AMPARAMS|DCode=31|XSize=2.1mm|YSize=3mm|CornerRadius=0mm|HoleSize=0mm|Usage=FLASHONLY|Rotation=315.000|XOffset=0mm|YOffset=0mm|HoleType=Round|Shape=Rectangle|*
%AMROTATEDRECTD31*
4,1,4,-1.8031,-0.3182,0.3182,1.8031,1.8031,0.3182,-0.3182,-1.8031,-1.8031,-0.3182,0.0*
%
%ADD31ROTATEDRECTD31*%

%ADD38R,1.0000X0.8500*%
%ADD39R,0.8500X1.0000*%
%ADD40R,0.8120X0.8120*%
%ADD41R,0.9500X1.1000*%
%ADD42R,1.1000X1.3500*%
%ADD43R,1.1000X0.9500*%
%ADD44R,2.0500X1.4500*%
%ADD45O,0.3400X1.4500*%
%ADD46O,1.4500X0.3400*%
G04:AMPARAMS|DCode=47|XSize=1.1mm|YSize=0.95mm|CornerRadius=0mm|HoleSize=0mm|Usage=FLASHONLY|Rotation=45.000|XOffset=0mm|YOffset=0mm|HoleType=Round|Shape=Rectangle|*
%AMROTATEDRECTD47*
4,1,4,-0.0530,-0.7248,-0.7248,-0.0530,0.0530,0.7248,0.7248,0.0530,-0.0530,-0.7248,0.0*
%
%ADD47ROTATEDRECTD47*%

G04:AMPARAMS|DCode=48|XSize=1mm|YSize=0.85mm|CornerRadius=0mm|HoleSize=0mm|Usage=FLASHONLY|Rotation=315.000|XOffset=0mm|YOffset=0mm|HoleType=Round|Shape=Rectangle|*
%AMROTATEDRECTD48*
4,1,4,-0.6541,0.0530,-0.0530,0.6541,0.6541,-0.0530,0.0530,-0.6541,-0.6541,0.0530,0.0*
%
%ADD48ROTATEDRECTD48*%

%ADD49P,1.1483X4X90.0*%
%ADD50R,0.6500X1.5000*%
G04:AMPARAMS|DCode=51|XSize=2.2598mm|YSize=3.1488mm|CornerRadius=0mm|HoleSize=0mm|Usage=FLASHONLY|Rotation=225.000|XOffset=0mm|YOffset=0mm|HoleType=Round|Shape=Rectangle|*
%AMROTATEDRECTD51*
4,1,4,-0.3143,1.9122,1.9122,-0.3143,0.3143,-1.9122,-1.9122,0.3143,-0.3143,1.9122,0.0*
%
%ADD51ROTATEDRECTD51*%

G04:AMPARAMS|DCode=52|XSize=2.2598mm|YSize=3.1488mm|CornerRadius=0mm|HoleSize=0mm|Usage=FLASHONLY|Rotation=135.000|XOffset=0mm|YOffset=0mm|HoleType=Round|Shape=Rectangle|*
%AMROTATEDRECTD52*
4,1,4,1.9122,0.3143,-0.3143,-1.9122,-1.9122,-0.3143,0.3143,1.9122,1.9122,0.3143,0.0*
%
%ADD52ROTATEDRECTD52*%

G04:AMPARAMS|DCode=53|XSize=0.939mm|YSize=1.3454mm|CornerRadius=0mm|HoleSize=0mm|Usage=FLASHONLY|Rotation=135.000|XOffset=0mm|YOffset=0mm|HoleType=Round|Shape=Rectangle|*
%AMROTATEDRECTD53*
4,1,4,0.8077,0.1437,-0.1437,-0.8077,-0.8077,-0.1437,0.1437,0.8077,0.8077,0.1437,0.0*
%
%ADD53ROTATEDRECTD53*%

G04:AMPARAMS|DCode=54|XSize=2.23mm|YSize=1.65mm|CornerRadius=0mm|HoleSize=0mm|Usage=FLASHONLY|Rotation=225.000|XOffset=0mm|YOffset=0mm|HoleType=Round|Shape=Rectangle|*
%AMROTATEDRECTD54*
4,1,4,0.2051,1.3718,1.3718,0.2051,-0.2051,-1.3718,-1.3718,-0.2051,0.2051,1.3718,0.0*
%
%ADD54ROTATEDRECTD54*%

G04:AMPARAMS|DCode=55|XSize=1.55mm|YSize=1.45mm|CornerRadius=0mm|HoleSize=0mm|Usage=FLASHONLY|Rotation=315.000|XOffset=0mm|YOffset=0mm|HoleType=Round|Shape=Rectangle|*
%AMROTATEDRECTD55*
4,1,4,-1.0607,0.0354,-0.0354,1.0607,1.0607,-0.0354,0.0354,-1.0607,-1.0607,0.0354,0.0*
%
%ADD55ROTATEDRECTD55*%

G04:AMPARAMS|DCode=56|XSize=0.939mm|YSize=1.3454mm|CornerRadius=0mm|HoleSize=0mm|Usage=FLASHONLY|Rotation=225.000|XOffset=0mm|YOffset=0mm|HoleType=Round|Shape=Rectangle|*
%AMROTATEDRECTD56*
4,1,4,-0.1437,0.8077,0.8077,-0.1437,0.1437,-0.8077,-0.8077,0.1437,-0.1437,0.8077,0.0*
%
%ADD56ROTATEDRECTD56*%

%ADD57C,3.3500*%
D26*
X246438Y257777D02*
D03*
X237600Y266616D02*
D03*
X264116Y240100D02*
D03*
X255277Y248938D02*
D03*
D31*
X239014Y304093D02*
D03*
X301593Y241514D02*
D03*
D38*
X227500Y176500D02*
D03*
Y163500D02*
D03*
D39*
X246000Y172500D02*
D03*
X259000D02*
D03*
D40*
X255025Y211610D02*
D03*
X245500Y188750D02*
D03*
X264550D02*
D03*
D41*
X198000Y235000D02*
D03*
X182000D02*
D03*
X168000Y265000D02*
D03*
X152000D02*
D03*
X153000Y250000D02*
D03*
X137000D02*
D03*
X153000Y232500D02*
D03*
X137000D02*
D03*
X212000Y135000D02*
D03*
X228000D02*
D03*
X215500Y30000D02*
D03*
X199500D02*
D03*
D42*
X198500Y252000D02*
D03*
X180000Y275000D02*
D03*
X198500D02*
D03*
X180000Y252000D02*
D03*
D43*
X115000Y145500D02*
D03*
Y129500D02*
D03*
X227500Y205500D02*
D03*
Y189500D02*
D03*
D44*
X95000Y153000D02*
D03*
Y117000D02*
D03*
D45*
X197500Y215500D02*
D03*
X192500D02*
D03*
X187500D02*
D03*
X182500D02*
D03*
X177500D02*
D03*
X172500D02*
D03*
X167500D02*
D03*
X157500D02*
D03*
X152500D02*
D03*
X147500D02*
D03*
X142500D02*
D03*
Y134500D02*
D03*
X147500D02*
D03*
X152500D02*
D03*
X157500D02*
D03*
X162500D02*
D03*
X167500D02*
D03*
X172500D02*
D03*
X177500D02*
D03*
X182500D02*
D03*
X187500D02*
D03*
X197500D02*
D03*
X162500Y215500D02*
D03*
X192500Y134500D02*
D03*
D46*
X129500Y202500D02*
D03*
Y197500D02*
D03*
Y192500D02*
D03*
Y187500D02*
D03*
Y182500D02*
D03*
Y177500D02*
D03*
Y172500D02*
D03*
Y167500D02*
D03*
Y162500D02*
D03*
Y157500D02*
D03*
Y147500D02*
D03*
X210500D02*
D03*
Y152500D02*
D03*
Y157500D02*
D03*
Y162500D02*
D03*
Y167500D02*
D03*
Y172500D02*
D03*
Y177500D02*
D03*
Y182500D02*
D03*
Y187500D02*
D03*
Y192500D02*
D03*
Y202500D02*
D03*
X129500Y152500D02*
D03*
X210500Y197500D02*
D03*
D47*
X119343Y320657D02*
D03*
X130657Y309343D02*
D03*
D48*
X119596Y297096D02*
D03*
X110404Y287904D02*
D03*
X244596Y107096D02*
D03*
X235404Y97904D02*
D03*
X27904Y105404D02*
D03*
X99596Y262096D02*
D03*
X90404Y252904D02*
D03*
X37096Y114596D02*
D03*
D49*
X247827Y123763D02*
D03*
X261298Y110292D02*
D03*
X270727Y133192D02*
D03*
D50*
X163650Y27750D02*
D03*
X176350D02*
D03*
X150950Y82250D02*
D03*
X163650D02*
D03*
X176350D02*
D03*
X189050D02*
D03*
X150950Y27750D02*
D03*
X189050D02*
D03*
D51*
X250382Y47216D02*
D03*
X295284Y92118D02*
D03*
D52*
X44716D02*
D03*
X89618Y47216D02*
D03*
D53*
X91032Y84693D02*
D03*
X82193Y93532D02*
D03*
D54*
X34973Y239973D02*
D03*
X100027Y305027D02*
D03*
D55*
X65429Y225429D02*
D03*
X79571Y239571D02*
D03*
X50429Y127929D02*
D03*
X64571Y142071D02*
D03*
D56*
X257807Y93532D02*
D03*
X248968Y84693D02*
D03*
D57*
X305000Y175000D02*
D03*
X35000D02*
D03*
M02*
