G04*
G04 #@! TF.GenerationSoftware,Altium Limited,Altium Designer,25.5.2 (35)*
G04*
G04 Layer_Physical_Order=1*
G04 Layer_Color=255*
%FSLAX44Y44*%
%MOMM*%
G71*
G04*
G04 #@! TF.SameCoordinates,F1B542B9-2598-483C-8CF3-7BAA0FA54B51*
G04*
G04*
G04 #@! TF.FilePolarity,Positive*
G04*
G01*
G75*
%ADD11C,0.2500*%
%ADD12C,0.2000*%
G04:AMPARAMS|DCode=17|XSize=2.18mm|YSize=1.6mm|CornerRadius=0mm|HoleSize=0mm|Usage=FLASHONLY|Rotation=225.000|XOffset=0mm|YOffset=0mm|HoleType=Round|Shape=Rectangle|*
%AMROTATEDRECTD17*
4,1,4,0.2051,1.3364,1.3364,0.2051,-0.2051,-1.3364,-1.3364,-0.2051,0.2051,1.3364,0.0*
%
%ADD17ROTATEDRECTD17*%

G04:AMPARAMS|DCode=18|XSize=0.95mm|YSize=0.8mm|CornerRadius=0mm|HoleSize=0mm|Usage=FLASHONLY|Rotation=315.000|XOffset=0mm|YOffset=0mm|HoleType=Round|Shape=Rectangle|*
%AMROTATEDRECTD18*
4,1,4,-0.6187,0.0530,-0.0530,0.6187,0.6187,-0.0530,0.0530,-0.6187,-0.6187,0.0530,0.0*
%
%ADD18ROTATEDRECTD18*%

G04:AMPARAMS|DCode=19|XSize=1.05mm|YSize=0.9mm|CornerRadius=0mm|HoleSize=0mm|Usage=FLASHONLY|Rotation=45.000|XOffset=0mm|YOffset=0mm|HoleType=Round|Shape=Rectangle|*
%AMROTATEDRECTD19*
4,1,4,-0.0530,-0.6894,-0.6894,-0.0530,0.0530,0.6894,0.6894,0.0530,-0.0530,-0.6894,0.0*
%
%ADD19ROTATEDRECTD19*%

%ADD20O,0.2900X1.4000*%
%ADD21O,1.4000X0.2900*%
G04:AMPARAMS|DCode=22|XSize=1.5mm|YSize=1.4mm|CornerRadius=0mm|HoleSize=0mm|Usage=FLASHONLY|Rotation=315.000|XOffset=0mm|YOffset=0mm|HoleType=Round|Shape=Rectangle|*
%AMROTATEDRECTD22*
4,1,4,-1.0253,0.0354,-0.0354,1.0253,1.0253,-0.0354,0.0354,-1.0253,-1.0253,0.0354,0.0*
%
%ADD22ROTATEDRECTD22*%

%ADD23R,1.0500X0.9000*%
%ADD24R,0.9000X1.0500*%
%ADD25R,2.0000X1.4000*%
%ADD26R,0.7620X0.7620*%
%ADD27R,0.9500X0.8000*%
%ADD28R,0.8000X0.9500*%
%ADD29R,1.0500X1.3000*%
%ADD30P,1.0776X4X90.0*%
%ADD31R,0.6000X1.4500*%
G04:AMPARAMS|DCode=32|XSize=0.8mm|YSize=1.3mm|CornerRadius=0mm|HoleSize=0mm|Usage=FLASHONLY|Rotation=315.000|XOffset=0mm|YOffset=0mm|HoleType=Round|Shape=Rectangle|*
%AMROTATEDRECTD32*
4,1,4,-0.7425,-0.1768,0.1768,0.7425,0.7425,0.1768,-0.1768,-0.7425,-0.7425,-0.1768,0.0*
%
%ADD32ROTATEDRECTD32*%

G04:AMPARAMS|DCode=33|XSize=2.1mm|YSize=3mm|CornerRadius=0mm|HoleSize=0mm|Usage=FLASHONLY|Rotation=315.000|XOffset=0mm|YOffset=0mm|HoleType=Round|Shape=Rectangle|*
%AMROTATEDRECTD33*
4,1,4,-1.8031,-0.3182,0.3182,1.8031,1.8031,0.3182,-0.3182,-1.8031,-1.8031,-0.3182,0.0*
%
%ADD33ROTATEDRECTD33*%

G04:AMPARAMS|DCode=34|XSize=2.2098mm|YSize=3.0988mm|CornerRadius=0mm|HoleSize=0mm|Usage=FLASHONLY|Rotation=225.000|XOffset=0mm|YOffset=0mm|HoleType=Round|Shape=Rectangle|*
%AMROTATEDRECTD34*
4,1,4,-0.3143,1.8769,1.8769,-0.3143,0.3143,-1.8769,-1.8769,0.3143,-0.3143,1.8769,0.0*
%
%ADD34ROTATEDRECTD34*%

G04:AMPARAMS|DCode=35|XSize=2.2098mm|YSize=3.0988mm|CornerRadius=0mm|HoleSize=0mm|Usage=FLASHONLY|Rotation=135.000|XOffset=0mm|YOffset=0mm|HoleType=Round|Shape=Rectangle|*
%AMROTATEDRECTD35*
4,1,4,1.8769,0.3143,-0.3143,-1.8769,-1.8769,-0.3143,0.3143,1.8769,1.8769,0.3143,0.0*
%
%ADD35ROTATEDRECTD35*%

G04:AMPARAMS|DCode=36|XSize=0.889mm|YSize=1.2954mm|CornerRadius=0mm|HoleSize=0mm|Usage=FLASHONLY|Rotation=135.000|XOffset=0mm|YOffset=0mm|HoleType=Round|Shape=Rectangle|*
%AMROTATEDRECTD36*
4,1,4,0.7723,0.1437,-0.1437,-0.7723,-0.7723,-0.1437,0.1437,0.7723,0.7723,0.1437,0.0*
%
%ADD36ROTATEDRECTD36*%

G04:AMPARAMS|DCode=37|XSize=1.05mm|YSize=1.72mm|CornerRadius=0mm|HoleSize=0mm|Usage=FLASHONLY|Rotation=225.000|XOffset=0mm|YOffset=0mm|HoleType=Round|Shape=Rectangle|*
%AMROTATEDRECTD37*
4,1,4,-0.2369,0.9793,0.9793,-0.2369,0.2369,-0.9793,-0.9793,0.2369,-0.2369,0.9793,0.0*
%
%ADD37ROTATEDRECTD37*%

G04:AMPARAMS|DCode=38|XSize=0.889mm|YSize=1.2954mm|CornerRadius=0mm|HoleSize=0mm|Usage=FLASHONLY|Rotation=225.000|XOffset=0mm|YOffset=0mm|HoleType=Round|Shape=Rectangle|*
%AMROTATEDRECTD38*
4,1,4,-0.1437,0.7723,0.7723,-0.1437,0.1437,-0.7723,-0.7723,0.1437,-0.1437,0.7723,0.0*
%
%ADD38ROTATEDRECTD38*%

%ADD60C,0.4500*%
%ADD61C,3.3000*%
%ADD62C,0.6000*%
G36*
X115599Y317063D02*
X115409Y317209D01*
X115202Y317303D01*
X114978Y317344D01*
X114736Y317332D01*
X114478Y317268D01*
X114202Y317151D01*
X113908Y316982D01*
X113598Y316759D01*
X113270Y316485D01*
X112925Y316158D01*
X111158Y317925D01*
X111489Y318266D01*
X112220Y319126D01*
X112375Y319359D01*
X112486Y319566D01*
X112554Y319746D01*
X112577Y319900D01*
X112557Y320027D01*
X112492Y320126D01*
X115599Y317063D01*
D02*
G37*
G36*
X118392Y328898D02*
X111078Y321584D01*
X111040Y321558D01*
X111016Y321522D01*
X109620Y320126D01*
X110030Y319717D01*
X106805Y316492D01*
X102078Y321220D01*
X83834Y302976D01*
X97976Y288834D01*
X101382Y292240D01*
X103288Y290334D01*
X101388Y288434D01*
X110934Y278888D01*
X112834Y280788D01*
X115215Y278407D01*
X116290Y277689D01*
X117558Y277436D01*
X137750D01*
X139018Y277689D01*
X140093Y278407D01*
X153623Y291936D01*
X197769D01*
X198225Y291254D01*
X198395Y290436D01*
X198358Y290401D01*
X198346Y290373D01*
X198326Y290352D01*
X198191Y290008D01*
X198046Y289669D01*
X198015Y289518D01*
X197992Y289439D01*
X197959Y289351D01*
X197915Y289254D01*
X197858Y289147D01*
X197786Y289030D01*
X197712Y288925D01*
X197582Y288768D01*
X196157Y287343D01*
X195439Y286268D01*
X195186Y285000D01*
Y283500D01*
X191250D01*
Y276000D01*
X205750D01*
Y283500D01*
X205082D01*
X204725Y283963D01*
X204280Y285000D01*
X204319Y285115D01*
X204447Y285442D01*
X204446Y285490D01*
X204462Y285535D01*
X204444Y285806D01*
X205343Y286407D01*
X206061Y287482D01*
X206314Y288750D01*
X206109Y289777D01*
X206577Y290718D01*
X206998Y291291D01*
X207917Y291397D01*
X210186Y289127D01*
Y220676D01*
X202403Y212893D01*
X201018Y213467D01*
Y221050D01*
X200750Y222396D01*
X199987Y223537D01*
X198846Y224300D01*
X197500Y224568D01*
X196154Y224300D01*
X195910Y224140D01*
X194998Y224535D01*
X194670Y226234D01*
X195385Y226949D01*
X195514Y227059D01*
X195766Y227249D01*
X196002Y227404D01*
X196222Y227526D01*
X196425Y227620D01*
X196612Y227687D01*
X196785Y227733D01*
X196889Y227750D01*
X204500D01*
Y242250D01*
X205103Y243500D01*
X205750D01*
Y260500D01*
X191250D01*
Y243647D01*
X191250Y243500D01*
X191250Y243500D01*
X191500Y242250D01*
X191500D01*
Y233139D01*
X191483Y233035D01*
X191437Y232862D01*
X191370Y232675D01*
X191276Y232472D01*
X191154Y232252D01*
X190999Y232016D01*
X190809Y231764D01*
X190700Y231636D01*
X190000Y230936D01*
X188500Y231558D01*
Y234000D01*
X182000D01*
Y236000D01*
X188500D01*
Y242250D01*
X187854D01*
X187250Y243500D01*
Y251000D01*
X180000D01*
Y252000D01*
X179000D01*
Y260500D01*
X174500D01*
Y266500D01*
X187250D01*
Y283500D01*
X172750D01*
Y278314D01*
X170250D01*
X168982Y278061D01*
X167907Y277343D01*
X165657Y275093D01*
X164939Y274018D01*
X164686Y272750D01*
Y272250D01*
X161500D01*
Y257750D01*
X164686D01*
Y243272D01*
X164939Y242004D01*
X165657Y240929D01*
X169186Y237399D01*
Y225739D01*
X167686Y224531D01*
X167500Y224568D01*
X166154Y224300D01*
X165013Y223537D01*
X164987D01*
X163846Y224300D01*
X163500Y224369D01*
Y215500D01*
X161500D01*
Y225186D01*
X160814Y225739D01*
Y227250D01*
X160561Y228518D01*
X159843Y229593D01*
X159500Y229936D01*
Y239750D01*
X156314D01*
Y242750D01*
X159500D01*
Y257250D01*
X158500Y257750D01*
Y264000D01*
X152000D01*
X145500D01*
Y262492D01*
X144114Y261918D01*
X142593Y263439D01*
X141518Y264158D01*
X140250Y264410D01*
X137839D01*
X137750Y264426D01*
X137668Y264447D01*
X137613Y264467D01*
X137596Y264475D01*
X136332Y265739D01*
X134495Y266500D01*
X132505D01*
X130668Y265739D01*
X129261Y264332D01*
X128500Y262495D01*
Y260505D01*
X129261Y258668D01*
X129566Y258363D01*
X130500Y257250D01*
Y251000D01*
X137000D01*
X143500D01*
Y251864D01*
X144596Y252899D01*
X146199Y252814D01*
X146300Y252694D01*
X146425Y252526D01*
X146500Y252412D01*
Y242750D01*
X149686D01*
Y239750D01*
X146500D01*
X146500Y225250D01*
X146039Y224482D01*
X145000Y224157D01*
X143961Y224482D01*
X143500Y225250D01*
X143500Y225565D01*
Y231500D01*
X137000D01*
X130500D01*
Y229894D01*
X129114Y229320D01*
X110948Y247486D01*
Y254058D01*
X110696Y255326D01*
X109978Y256401D01*
X106712Y259666D01*
X108612Y261566D01*
X99066Y271112D01*
X90934Y262980D01*
X90581Y262626D01*
X89520Y261566D01*
X81388Y253434D01*
X85068Y249754D01*
X83592Y248278D01*
X79218Y252652D01*
X66490Y239925D01*
X79925Y226490D01*
X92653Y239217D01*
X88278Y243592D01*
X89754Y245068D01*
X90934Y243888D01*
X99066Y252020D01*
X99419Y252373D01*
X101276Y254230D01*
X102776D01*
X104321Y252685D01*
Y246113D01*
X104573Y244845D01*
X105292Y243770D01*
X108926Y240136D01*
X108283Y238658D01*
X106668Y237989D01*
X105261Y236582D01*
X104500Y234745D01*
Y233954D01*
X104462Y233795D01*
X104457Y233653D01*
X104451Y233607D01*
X104440Y233557D01*
X104420Y233497D01*
X104390Y233427D01*
X104346Y233343D01*
X104285Y233245D01*
X104220Y233156D01*
X92407Y221343D01*
X91689Y220268D01*
X91436Y219000D01*
Y190959D01*
X91689Y189691D01*
X92407Y188616D01*
X94521Y186502D01*
Y184154D01*
X94504Y184045D01*
X94478Y183932D01*
X94450Y183842D01*
X94421Y183770D01*
X94393Y183715D01*
X94365Y183671D01*
X94337Y183634D01*
X94241Y183530D01*
X94155Y183392D01*
X93596Y182832D01*
X92835Y180994D01*
Y179005D01*
X93596Y177168D01*
X95002Y175761D01*
X96840Y175000D01*
X98829D01*
X100667Y175761D01*
X102073Y177168D01*
X102834Y179005D01*
Y180994D01*
X102073Y182832D01*
X101514Y183392D01*
X101428Y183530D01*
X101332Y183634D01*
X101304Y183671D01*
X101276Y183715D01*
X101248Y183770D01*
X101219Y183842D01*
X101191Y183932D01*
X101165Y184045D01*
X101148Y184154D01*
Y185741D01*
X102534Y186315D01*
X104570Y184279D01*
X104635Y184190D01*
X104697Y184092D01*
X104741Y184008D01*
X104771Y183937D01*
X104790Y183878D01*
X104801Y183827D01*
X104808Y183781D01*
X104813Y183640D01*
X104850Y183481D01*
Y182690D01*
X105611Y180852D01*
X107018Y179446D01*
X107460Y179263D01*
X107812Y177493D01*
X103382Y173064D01*
X100000D01*
X98732Y172811D01*
X97657Y172093D01*
X92657Y167093D01*
X91939Y166018D01*
X91686Y164750D01*
Y162000D01*
X83000D01*
Y156314D01*
X75500D01*
X74232Y156061D01*
X73157Y155343D01*
X68592Y150778D01*
X64218Y155153D01*
X51490Y142425D01*
X64925Y128990D01*
X77653Y141718D01*
X73278Y146092D01*
X76873Y149686D01*
X83000D01*
Y144000D01*
X107000D01*
X107750Y142811D01*
Y139000D01*
X122250D01*
Y142725D01*
X122547Y143277D01*
X123750Y144022D01*
X123950Y143982D01*
X135050D01*
X136396Y144250D01*
X137537Y145013D01*
X138300Y146154D01*
X138568Y147500D01*
X138300Y148846D01*
X137546Y150000D01*
X138300Y151154D01*
X138369Y151500D01*
X129500D01*
Y153500D01*
X138369D01*
X138300Y153846D01*
X137546Y155000D01*
X138300Y156154D01*
X138568Y157500D01*
X138300Y158846D01*
X137546Y160000D01*
X138300Y161154D01*
X138568Y162500D01*
X138300Y163846D01*
X137546Y165000D01*
X138300Y166154D01*
X138568Y167500D01*
X138300Y168846D01*
X137546Y170000D01*
X138300Y171154D01*
X138568Y172500D01*
X138300Y173846D01*
X137546Y175000D01*
X138300Y176154D01*
X138568Y177500D01*
X139517Y178650D01*
X141104Y178710D01*
X142358Y177456D01*
Y174515D01*
X142342Y174323D01*
X142320Y174183D01*
X142289Y174039D01*
X142254Y173912D01*
X142217Y173803D01*
X142206Y173777D01*
X142103Y173674D01*
X141342Y171836D01*
Y169847D01*
X142103Y168009D01*
X143509Y166603D01*
X145347Y165842D01*
X147336D01*
X149174Y166603D01*
X150580Y168009D01*
X151342Y169847D01*
Y171836D01*
X150580Y173674D01*
X149174Y175080D01*
X149010Y175148D01*
X149000Y175185D01*
X148986Y175260D01*
Y178828D01*
X148733Y180096D01*
X148506Y180436D01*
X149671Y181393D01*
X156179Y174884D01*
X155500Y173245D01*
Y171255D01*
X156261Y169418D01*
X157668Y168011D01*
X159505Y167250D01*
X161495D01*
X163332Y168011D01*
X164739Y169418D01*
X165500Y171255D01*
Y171308D01*
X167000Y171929D01*
X167418Y171511D01*
X169255Y170750D01*
X171245D01*
X173082Y171511D01*
X174489Y172918D01*
X175250Y174755D01*
Y176745D01*
X174653Y178186D01*
X175345Y179686D01*
X178846D01*
X178955Y179669D01*
X179068Y179644D01*
X179158Y179615D01*
X179230Y179587D01*
X179285Y179559D01*
X179329Y179531D01*
X179366Y179502D01*
X179470Y179406D01*
X179608Y179321D01*
X180168Y178761D01*
X182005Y178000D01*
X183995D01*
X185832Y178761D01*
X187239Y180168D01*
X188000Y182005D01*
Y183995D01*
X187239Y185832D01*
X185832Y187239D01*
X183995Y188000D01*
X182005D01*
X180168Y187239D01*
X179608Y186679D01*
X179470Y186594D01*
X179366Y186497D01*
X179329Y186469D01*
X179285Y186441D01*
X179230Y186413D01*
X179158Y186385D01*
X179068Y186356D01*
X178955Y186331D01*
X178846Y186314D01*
X172873D01*
X165250Y193936D01*
X165871Y195436D01*
X199311D01*
X200579Y195689D01*
X201020Y195547D01*
X201700Y193846D01*
X201432Y192500D01*
X201700Y191154D01*
X202454Y190000D01*
X201700Y188846D01*
X201432Y187500D01*
X201700Y186154D01*
X202454Y185000D01*
X201700Y183846D01*
X201432Y182500D01*
X201700Y181154D01*
X202454Y180000D01*
X201700Y178846D01*
X201432Y177500D01*
X201700Y176154D01*
X202454Y175000D01*
X201700Y173846D01*
X201432Y172500D01*
X201700Y171154D01*
X202454Y170000D01*
X201700Y168846D01*
X201432Y167500D01*
X201700Y166154D01*
X202454Y165000D01*
X201700Y163846D01*
X201432Y162500D01*
X201700Y161154D01*
X202454Y160000D01*
X201700Y158846D01*
X201432Y157500D01*
X201700Y156154D01*
X202454Y155000D01*
X201700Y153846D01*
X201432Y152500D01*
X201700Y151154D01*
X202454Y150000D01*
X201700Y148846D01*
X201432Y147500D01*
X201700Y146154D01*
X202463Y145013D01*
X203604Y144250D01*
X204950Y143982D01*
X211872D01*
X212674Y142482D01*
X212519Y142250D01*
X205500D01*
Y138265D01*
X204598Y137814D01*
X201018D01*
Y140050D01*
X200750Y141396D01*
X199987Y142537D01*
X198846Y143300D01*
X197500Y143568D01*
X196154Y143300D01*
X195000Y142546D01*
X193846Y143300D01*
X193500Y143369D01*
Y134500D01*
X191500D01*
Y143369D01*
X191154Y143300D01*
X190000Y142546D01*
X188846Y143300D01*
X187500Y143568D01*
X186154Y143300D01*
X185000Y142546D01*
X183846Y143300D01*
X182500Y143568D01*
X181154Y143300D01*
X180000Y142546D01*
X178846Y143300D01*
X177500Y143568D01*
X176154Y143300D01*
X175000Y142546D01*
X173846Y143300D01*
X172500Y143568D01*
X171154Y143300D01*
X170000Y142546D01*
X168846Y143300D01*
X167500Y143568D01*
X166154Y143300D01*
X165000Y142546D01*
X163846Y143300D01*
X162500Y143568D01*
X161154Y143300D01*
X160000Y142546D01*
X158846Y143300D01*
X157500Y143568D01*
X156154Y143300D01*
X155000Y142546D01*
X153846Y143300D01*
X152500Y143568D01*
X151154Y143300D01*
X150000Y142546D01*
X148846Y143300D01*
X147500Y143568D01*
X146154Y143300D01*
X145000Y142546D01*
X143846Y143300D01*
X142500Y143568D01*
X141154Y143300D01*
X140013Y142537D01*
X139250Y141396D01*
X138982Y140050D01*
Y128950D01*
X139250Y127604D01*
X140013Y126463D01*
X141154Y125700D01*
X142500Y125432D01*
X143846Y125700D01*
X145000Y126454D01*
X146154Y125700D01*
X147500Y125432D01*
X148846Y125700D01*
X150000Y126454D01*
X151154Y125700D01*
X152500Y125432D01*
X153846Y125700D01*
X155000Y126454D01*
X156154Y125700D01*
X157500Y125432D01*
X157763Y125485D01*
X159263Y124312D01*
Y91500D01*
X158650D01*
Y89526D01*
X158641Y89484D01*
X158650Y89438D01*
Y73000D01*
X168650D01*
Y78936D01*
X171350D01*
Y73000D01*
X173698D01*
X174500Y71500D01*
X174375Y71314D01*
X156873D01*
X156494Y71693D01*
X155950Y73000D01*
X155950D01*
X155950Y73000D01*
Y91500D01*
X145950D01*
Y73000D01*
X147200D01*
X147779Y71834D01*
X147889Y71282D01*
X148607Y70207D01*
X153157Y65657D01*
X154232Y64939D01*
X155500Y64686D01*
X176946D01*
X178214Y64939D01*
X179289Y65657D01*
X184943Y71311D01*
X185661Y72386D01*
X185784Y73000D01*
X194050D01*
Y91500D01*
X192364D01*
Y94260D01*
X193679Y95338D01*
X194067D01*
X195905Y96100D01*
X197312Y97506D01*
X198073Y99344D01*
Y101333D01*
X197312Y103170D01*
X195905Y104577D01*
X195741Y104645D01*
X195731Y104682D01*
X195717Y104757D01*
Y106097D01*
X196458Y107000D01*
X196745D01*
X198582Y107761D01*
X199989Y109168D01*
X200750Y111005D01*
Y112995D01*
X199989Y114832D01*
X198582Y116239D01*
X196745Y117000D01*
X195954D01*
X195795Y117038D01*
X195653Y117043D01*
X195607Y117049D01*
X195557Y117060D01*
X195497Y117080D01*
X195427Y117110D01*
X195343Y117154D01*
X195245Y117215D01*
X195156Y117280D01*
X192886Y119551D01*
X193460Y120936D01*
X205905D01*
X206597Y119436D01*
X206000Y117995D01*
Y116005D01*
X206761Y114168D01*
X208168Y112761D01*
X210005Y112000D01*
X210671D01*
X210964Y111831D01*
X211786Y110500D01*
X211686Y110000D01*
Y101372D01*
X206657Y96343D01*
X205939Y95268D01*
X205686Y94000D01*
Y80873D01*
X174007Y49193D01*
X173289Y48118D01*
X173036Y46850D01*
Y37000D01*
X171350D01*
Y18500D01*
X170114Y17864D01*
X169886D01*
X168650Y18500D01*
Y37000D01*
X158650D01*
Y22289D01*
X157150Y21834D01*
X156843Y22293D01*
X155950Y23186D01*
Y26750D01*
X145950D01*
Y22946D01*
X144564Y22372D01*
X143593Y23343D01*
X142518Y24061D01*
X141250Y24314D01*
X122000D01*
X120732Y24061D01*
X119657Y23343D01*
X119564Y23250D01*
X118255D01*
X116418Y22489D01*
X115011Y21082D01*
X114250Y19245D01*
Y17255D01*
X115011Y15418D01*
X116023Y14406D01*
X115210Y13098D01*
X111234Y14447D01*
X101105Y18643D01*
X91272Y23492D01*
X81777Y28974D01*
X72661Y35065D01*
X63963Y41739D01*
X55720Y48968D01*
X47968Y56720D01*
X40739Y64963D01*
X34065Y73661D01*
X27974Y82777D01*
X22492Y92272D01*
X17643Y102105D01*
X13447Y112234D01*
X9923Y122615D01*
X7086Y133205D01*
X4947Y143959D01*
X3516Y154828D01*
X2945Y163542D01*
X4425Y163887D01*
X5789Y160595D01*
X7919Y156905D01*
X10513Y153525D01*
X13525Y150513D01*
X16905Y147919D01*
X20595Y145789D01*
X24531Y144159D01*
X28646Y143056D01*
X32870Y142500D01*
X37130D01*
X41354Y143056D01*
X45469Y144159D01*
X49405Y145789D01*
X53095Y147919D01*
X56475Y150513D01*
X59487Y153525D01*
X62081Y156905D01*
X64211Y160595D01*
X65841Y164531D01*
X66944Y168646D01*
X67500Y172870D01*
Y177130D01*
X66944Y181354D01*
X65841Y185469D01*
X64211Y189405D01*
X62081Y193095D01*
X59487Y196475D01*
X56475Y199487D01*
X53095Y202081D01*
X49405Y204211D01*
X45469Y205841D01*
X41354Y206944D01*
X37130Y207500D01*
X32870D01*
X28646Y206944D01*
X24531Y205841D01*
X20595Y204211D01*
X16905Y202081D01*
X13525Y199487D01*
X10513Y196475D01*
X7919Y193095D01*
X5789Y189405D01*
X5009Y187523D01*
X5006Y187523D01*
X3548Y187914D01*
X4947Y198542D01*
X7086Y209294D01*
X9923Y219884D01*
X13447Y230266D01*
X17643Y240395D01*
X22492Y250228D01*
X27974Y259723D01*
X34065Y268839D01*
X40739Y277537D01*
X47968Y285780D01*
X55720Y293532D01*
X63963Y300761D01*
X72661Y307435D01*
X81777Y313526D01*
X91271Y319008D01*
X101105Y323857D01*
X111234Y328052D01*
X117579Y330206D01*
X118392Y328898D01*
D02*
G37*
G36*
X110364Y313597D02*
X110037Y313252D01*
X109763Y312924D01*
X109541Y312614D01*
X109371Y312320D01*
X109254Y312045D01*
X109190Y311786D01*
X109178Y311544D01*
X109219Y311320D01*
X109313Y311113D01*
X109459Y310924D01*
X105924Y314459D01*
X106113Y314313D01*
X106320Y314219D01*
X106544Y314178D01*
X106786Y314190D01*
X107044Y314254D01*
X107320Y314371D01*
X107614Y314541D01*
X107924Y314763D01*
X108252Y315037D01*
X108597Y315364D01*
X110364Y313597D01*
D02*
G37*
G36*
X186672Y337984D02*
X197542Y336553D01*
X208295Y334414D01*
X218885Y331577D01*
X229266Y328052D01*
X239395Y323857D01*
X249228Y319008D01*
X258723Y313526D01*
X267839Y307435D01*
X276537Y300761D01*
X284780Y293532D01*
X292532Y285780D01*
X299761Y277537D01*
X306435Y268839D01*
X312526Y259723D01*
X318008Y250228D01*
X322857Y240395D01*
X327052Y230266D01*
X330577Y219885D01*
X333414Y209294D01*
X335553Y198541D01*
X336984Y187672D01*
X337065Y186434D01*
X335585Y186089D01*
X334211Y189405D01*
X332081Y193095D01*
X329487Y196475D01*
X326475Y199487D01*
X323095Y202081D01*
X319405Y204211D01*
X315469Y205841D01*
X311354Y206944D01*
X307130Y207500D01*
X302870D01*
X298646Y206944D01*
X294531Y205841D01*
X290595Y204211D01*
X286905Y202081D01*
X283525Y199487D01*
X280513Y196475D01*
X277919Y193095D01*
X275789Y189405D01*
X274159Y185469D01*
X273056Y181354D01*
X272500Y177130D01*
Y172870D01*
X273056Y168646D01*
X274159Y164531D01*
X275789Y160595D01*
X277919Y156905D01*
X280513Y153525D01*
X283525Y150513D01*
X286905Y147919D01*
X290595Y145789D01*
X294531Y144159D01*
X298646Y143056D01*
X302870Y142500D01*
X307130D01*
X311354Y143056D01*
X315469Y144159D01*
X319405Y145789D01*
X323095Y147919D01*
X326475Y150513D01*
X329487Y153525D01*
X332081Y156905D01*
X334211Y160595D01*
X335841Y164531D01*
X336201Y165874D01*
X337701Y165768D01*
X336984Y154828D01*
X335553Y143958D01*
X333414Y133205D01*
X330577Y122615D01*
X327052Y112234D01*
X322857Y102105D01*
X318008Y92272D01*
X312526Y82777D01*
X306435Y73661D01*
X299761Y64963D01*
X292532Y56720D01*
X284780Y48968D01*
X276537Y41739D01*
X267839Y35065D01*
X258723Y28974D01*
X249228Y23492D01*
X239395Y18643D01*
X229266Y14447D01*
X218885Y10923D01*
X211440Y8929D01*
X210250Y9842D01*
Y13000D01*
X203000D01*
Y14000D01*
X202000D01*
Y20500D01*
X201396D01*
X200822Y21886D01*
X201343Y22407D01*
X202061Y23482D01*
X202065Y23500D01*
X210250D01*
Y36500D01*
X204307D01*
X203686Y38000D01*
X217372Y51686D01*
X219998D01*
X221168Y50517D01*
X223005Y49756D01*
X224995D01*
X226832Y50517D01*
X228239Y51923D01*
X229000Y53761D01*
Y55750D01*
X228239Y57588D01*
X226832Y58994D01*
X224995Y59755D01*
X223005D01*
X221168Y58994D01*
X220487Y58314D01*
X216000D01*
X214732Y58061D01*
X213657Y57343D01*
X197157Y40843D01*
X196439Y39768D01*
X196186Y38500D01*
Y36500D01*
X195750D01*
Y36452D01*
X195063Y36127D01*
X194050Y37000D01*
Y37000D01*
X186114D01*
Y43927D01*
X222143Y79957D01*
X226045Y76054D01*
X236298Y86307D01*
X233055Y89551D01*
X233629Y90936D01*
X236877D01*
X240050Y87764D01*
X238417Y86130D01*
X250405Y74142D01*
X259244Y82980D01*
X268358Y92095D01*
X264707Y95746D01*
X268343Y99382D01*
X269061Y100457D01*
X269314Y101725D01*
Y105590D01*
X269061Y106858D01*
X268343Y107933D01*
X267749Y108527D01*
X269515Y110292D01*
X267749Y112057D01*
X273688Y117996D01*
X274108D01*
X274226Y117979D01*
X274357Y117952D01*
X274469Y117921D01*
X274562Y117888D01*
X274640Y117853D01*
X274704Y117818D01*
X274759Y117782D01*
X274877Y117689D01*
X274927Y117663D01*
X275269Y117321D01*
X277107Y116560D01*
X279096D01*
X280934Y117321D01*
X282340Y118728D01*
X283101Y120565D01*
Y122554D01*
X282340Y124392D01*
X280934Y125799D01*
X279096Y126560D01*
X277107D01*
X275269Y125799D01*
X274417Y124946D01*
X274289Y124853D01*
X274201Y124757D01*
X274184Y124742D01*
X274162Y124726D01*
X274130Y124708D01*
X274083Y124686D01*
X274014Y124663D01*
X273920Y124640D01*
X273823Y124623D01*
X272496D01*
X272162Y125049D01*
X271803Y126051D01*
X274128Y128377D01*
X270727Y131778D01*
X267326Y128377D01*
X270136Y125566D01*
X270097Y123736D01*
X269972Y123653D01*
X263063Y116744D01*
X261298Y118509D01*
X259123Y116334D01*
X257201Y116716D01*
Y116667D01*
X251889D01*
X250831Y116457D01*
X250310Y117040D01*
X249982Y117701D01*
X256044Y123763D01*
X254199Y125608D01*
X261237Y132646D01*
X262511Y133192D01*
X265912Y129791D01*
X269313Y133192D01*
X265912Y136593D01*
X265701Y136383D01*
X264360Y137071D01*
X264314Y137116D01*
Y142000D01*
X264061Y143268D01*
X263343Y144343D01*
X261010Y146677D01*
X260944Y146766D01*
X260883Y146864D01*
X260839Y146948D01*
X260809Y147018D01*
X260790Y147078D01*
X260778Y147128D01*
X260772Y147174D01*
X260767Y147316D01*
X260729Y147474D01*
Y148265D01*
X259968Y150103D01*
X258561Y151510D01*
X256724Y152271D01*
X254735D01*
X252897Y151510D01*
X251490Y150103D01*
X250729Y148265D01*
Y146276D01*
X251490Y144438D01*
X252897Y143032D01*
X254735Y142271D01*
X255526D01*
X255684Y142233D01*
X255826Y142228D01*
X255872Y142222D01*
X255922Y142210D01*
X255982Y142191D01*
X256052Y142161D01*
X256136Y142117D01*
X256234Y142056D01*
X256323Y141990D01*
X257686Y140627D01*
Y138468D01*
X254778Y135559D01*
X253278Y136180D01*
Y136199D01*
X252517Y138036D01*
X251110Y139443D01*
X249272Y140204D01*
X247283D01*
X245446Y139443D01*
X244520Y138518D01*
X243592D01*
X242323Y138266D01*
X241248Y137547D01*
X235886Y132185D01*
X234500Y132759D01*
Y134000D01*
X228000D01*
Y136000D01*
X234500D01*
Y142250D01*
X235923Y142436D01*
X241589D01*
X242857Y142689D01*
X243932Y143407D01*
X247593Y147068D01*
X248311Y148143D01*
X248564Y149411D01*
Y152725D01*
X250525Y154686D01*
X257846D01*
X257955Y154670D01*
X258068Y154644D01*
X258158Y154615D01*
X258230Y154587D01*
X258285Y154558D01*
X258329Y154531D01*
X258366Y154502D01*
X258470Y154406D01*
X258608Y154320D01*
X259168Y153761D01*
X261005Y153000D01*
X261796D01*
X261955Y152962D01*
X262097Y152957D01*
X262143Y152951D01*
X262193Y152940D01*
X262253Y152920D01*
X262323Y152890D01*
X262407Y152846D01*
X262505Y152785D01*
X262594Y152720D01*
X288470Y126844D01*
X288535Y126755D01*
X288596Y126657D01*
X288640Y126573D01*
X288670Y126503D01*
X288690Y126443D01*
X288701Y126393D01*
X288707Y126347D01*
X288712Y126205D01*
X288750Y126046D01*
Y125255D01*
X289511Y123418D01*
X290918Y122011D01*
X292755Y121250D01*
X294745D01*
X296582Y122011D01*
X297989Y123418D01*
X298750Y125255D01*
Y127245D01*
X297989Y129082D01*
X296582Y130489D01*
X294745Y131250D01*
X293954D01*
X293795Y131288D01*
X293653Y131293D01*
X293607Y131299D01*
X293557Y131310D01*
X293497Y131330D01*
X293427Y131360D01*
X293343Y131404D01*
X293245Y131465D01*
X293156Y131530D01*
X267501Y157185D01*
Y158814D01*
X269593Y160907D01*
X270311Y161982D01*
X270564Y163250D01*
Y177596D01*
X270311Y178864D01*
X269593Y179939D01*
X268092Y181440D01*
X268416Y182940D01*
X270360D01*
Y194560D01*
X267864D01*
Y199700D01*
X267611Y200968D01*
X266893Y202043D01*
X262140Y206796D01*
X262177Y207207D01*
X262643Y208296D01*
X266949D01*
X268217Y208549D01*
X269292Y209267D01*
X277343Y217318D01*
X278061Y218393D01*
X278314Y219661D01*
Y229216D01*
X278061Y230484D01*
X277343Y231559D01*
X270702Y238200D01*
X274369Y241867D01*
X266591Y249646D01*
X265530Y250706D01*
X265530Y250706D01*
X257045Y259191D01*
X256691Y259545D01*
X248206Y268030D01*
X248206D01*
X247853Y268384D01*
X244317Y271919D01*
X238307Y265909D01*
X237600Y266616D01*
X236893Y265909D01*
X232650Y270152D01*
X227576Y265078D01*
X225947Y265091D01*
X225583Y265970D01*
X224176Y267377D01*
X222338Y268138D01*
X220349D01*
X218512Y267377D01*
X218314Y267179D01*
X216814Y267801D01*
Y290500D01*
X216561Y291768D01*
X215843Y292843D01*
X211093Y297593D01*
X210018Y298311D01*
X208750Y298564D01*
X152250D01*
X150982Y298311D01*
X149907Y297593D01*
X139205Y286891D01*
X137933Y287741D01*
X138250Y288505D01*
Y290495D01*
X137489Y292332D01*
X136082Y293739D01*
X134245Y294500D01*
X132255D01*
X130418Y293739D01*
X130314Y293636D01*
X130289Y293625D01*
X130180Y293588D01*
X130053Y293553D01*
X129909Y293522D01*
X129769Y293500D01*
X129576Y293483D01*
X127895D01*
X126712Y294666D01*
X128612Y296566D01*
X119066Y306112D01*
X110934Y297980D01*
X110581Y297627D01*
X108724Y295770D01*
X107224D01*
X106068Y296926D01*
X116220Y307078D01*
X111492Y311805D01*
X114717Y315030D01*
X118813Y310934D01*
X129066Y321187D01*
X120604Y329649D01*
X121005Y331369D01*
X121615Y331577D01*
X132205Y334414D01*
X142959Y336553D01*
X153828Y337984D01*
X164768Y338701D01*
X175732D01*
X186672Y337984D01*
D02*
G37*
G36*
X103889Y297618D02*
X103796Y297411D01*
X103755Y297187D01*
X103766Y296945D01*
X103830Y296687D01*
X103947Y296411D01*
X104117Y296118D01*
X104339Y295807D01*
X104614Y295480D01*
X104941Y295135D01*
X103173Y293367D01*
X102828Y293694D01*
X102500Y293969D01*
X102190Y294191D01*
X101897Y294360D01*
X101621Y294477D01*
X101362Y294541D01*
X101121Y294553D01*
X100897Y294512D01*
X100689Y294419D01*
X100500Y294272D01*
X104035Y297808D01*
X103889Y297618D01*
D02*
G37*
G36*
X124534Y295359D02*
X124440Y295152D01*
X124399Y294928D01*
X124411Y294686D01*
X124475Y294427D01*
X124592Y294151D01*
X124761Y293858D01*
X124983Y293548D01*
X125258Y293220D01*
X125585Y292875D01*
X123817Y291107D01*
X123472Y291435D01*
X123145Y291709D01*
X122834Y291931D01*
X122541Y292101D01*
X122265Y292218D01*
X122006Y292282D01*
X121765Y292293D01*
X121541Y292253D01*
X121334Y292159D01*
X121144Y292013D01*
X124680Y295548D01*
X124534Y295359D01*
D02*
G37*
G36*
X106528Y293565D02*
X106855Y293291D01*
X107166Y293069D01*
X107459Y292899D01*
X107735Y292782D01*
X107994Y292718D01*
X108235Y292707D01*
X108459Y292747D01*
X108666Y292841D01*
X108856Y292987D01*
X105320Y289452D01*
X105467Y289641D01*
X105560Y289848D01*
X105601Y290073D01*
X105590Y290314D01*
X105525Y290573D01*
X105408Y290849D01*
X105239Y291142D01*
X105017Y291452D01*
X104742Y291780D01*
X104415Y292125D01*
X106183Y293893D01*
X106528Y293565D01*
D02*
G37*
G36*
X130693Y287931D02*
X130562Y288119D01*
X130411Y288287D01*
X130241Y288435D01*
X130052Y288564D01*
X129843Y288673D01*
X129615Y288762D01*
X129367Y288831D01*
X129100Y288880D01*
X128813Y288910D01*
X128507Y288920D01*
X129145Y291420D01*
X129447Y291426D01*
X130016Y291474D01*
X130282Y291517D01*
X130537Y291571D01*
X130779Y291638D01*
X131010Y291716D01*
X131229Y291807D01*
X131436Y291910D01*
X131630Y292025D01*
X130693Y287931D01*
D02*
G37*
G36*
X202440Y285803D02*
X202210Y285833D01*
X201981Y285837D01*
X201753Y285814D01*
X201525Y285765D01*
X201299Y285689D01*
X201073Y285586D01*
X200848Y285457D01*
X200623Y285301D01*
X200400Y285118D01*
X200177Y284909D01*
X198761Y287029D01*
X198970Y287247D01*
X199334Y287686D01*
X199489Y287907D01*
X199626Y288129D01*
X199745Y288352D01*
X199846Y288575D01*
X199930Y288799D01*
X199995Y289025D01*
X200042Y289251D01*
X202440Y285803D01*
D02*
G37*
G36*
X115341Y286166D02*
X115247Y285959D01*
X115207Y285735D01*
X115218Y285494D01*
X115282Y285235D01*
X115399Y284959D01*
X115569Y284666D01*
X115791Y284355D01*
X116065Y284028D01*
X116393Y283683D01*
X114625Y281915D01*
X114280Y282242D01*
X113952Y282517D01*
X113642Y282739D01*
X113349Y282908D01*
X113073Y283025D01*
X112814Y283090D01*
X112573Y283101D01*
X112348Y283060D01*
X112141Y282967D01*
X111952Y282820D01*
X115487Y286356D01*
X115341Y286166D01*
D02*
G37*
G36*
X199762Y283494D02*
X199800Y283068D01*
X199862Y282692D01*
X199950Y282365D01*
X200063Y282087D01*
X200200Y281859D01*
X200362Y281680D01*
X200550Y281550D01*
X200763Y281470D01*
X201000Y281439D01*
X196000D01*
X196238Y281470D01*
X196450Y281550D01*
X196637Y281680D01*
X196800Y281859D01*
X196938Y282087D01*
X197050Y282365D01*
X197138Y282692D01*
X197200Y283068D01*
X197237Y283494D01*
X197250Y283969D01*
X199750D01*
X199762Y283494D01*
D02*
G37*
G36*
X174811Y272500D02*
X174780Y272738D01*
X174700Y272950D01*
X174571Y273137D01*
X174391Y273300D01*
X174163Y273438D01*
X173885Y273550D01*
X173558Y273638D01*
X173182Y273700D01*
X172756Y273738D01*
X172281Y273750D01*
Y276250D01*
X172756Y276262D01*
X173182Y276300D01*
X173558Y276362D01*
X173885Y276450D01*
X174163Y276562D01*
X174391Y276700D01*
X174571Y276863D01*
X174700Y277050D01*
X174780Y277262D01*
X174811Y277500D01*
Y272500D01*
D02*
G37*
G36*
X169263Y272244D02*
X169300Y271818D01*
X169363Y271442D01*
X169450Y271115D01*
X169562Y270837D01*
X169700Y270609D01*
X169862Y270430D01*
X170050Y270300D01*
X170263Y270220D01*
X170500Y270189D01*
X165500D01*
X165737Y270220D01*
X165950Y270300D01*
X166138Y270430D01*
X166300Y270609D01*
X166437Y270837D01*
X166550Y271115D01*
X166637Y271442D01*
X166700Y271818D01*
X166737Y272244D01*
X166750Y272719D01*
X169250D01*
X169263Y272244D01*
D02*
G37*
G36*
X136055Y263113D02*
X136222Y262952D01*
X136406Y262810D01*
X136608Y262687D01*
X136826Y262583D01*
X137062Y262498D01*
X137315Y262431D01*
X137586Y262384D01*
X137873Y262356D01*
X138178Y262346D01*
X137803Y259846D01*
X137501Y259839D01*
X136934Y259782D01*
X136669Y259732D01*
X136417Y259667D01*
X136177Y259589D01*
X135949Y259496D01*
X135734Y259388D01*
X135531Y259267D01*
X135340Y259131D01*
X135906Y263293D01*
X136055Y263113D01*
D02*
G37*
G36*
X223543Y261071D02*
X223419Y260869D01*
X223309Y260655D01*
X223213Y260428D01*
X223133Y260189D01*
X223067Y259937D01*
X223015Y259673D01*
X222979Y259396D01*
X222957Y259106D01*
X222949Y258804D01*
X220449Y258475D01*
X220440Y258779D01*
X220412Y259067D01*
X220365Y259338D01*
X220299Y259592D01*
X220215Y259829D01*
X220112Y260050D01*
X219990Y260253D01*
X219850Y260440D01*
X219690Y260609D01*
X219513Y260762D01*
X223683Y261260D01*
X223543Y261071D01*
D02*
G37*
G36*
X170263Y259780D02*
X170050Y259700D01*
X169862Y259570D01*
X169700Y259391D01*
X169562Y259163D01*
X169450Y258885D01*
X169363Y258558D01*
X169300Y258182D01*
X169263Y257756D01*
X169250Y257281D01*
X166750D01*
X166737Y257756D01*
X166700Y258182D01*
X166637Y258558D01*
X166550Y258885D01*
X166437Y259163D01*
X166300Y259391D01*
X166138Y259570D01*
X165950Y259700D01*
X165737Y259780D01*
X165500Y259811D01*
X170500D01*
X170263Y259780D01*
D02*
G37*
G36*
X104533Y260359D02*
X104440Y260152D01*
X104399Y259927D01*
X104410Y259686D01*
X104475Y259427D01*
X104592Y259151D01*
X104761Y258858D01*
X104983Y258548D01*
X105258Y258220D01*
X105585Y257875D01*
X103817Y256107D01*
X103472Y256435D01*
X103145Y256709D01*
X102834Y256931D01*
X102541Y257101D01*
X102265Y257218D01*
X102006Y257282D01*
X101765Y257293D01*
X101541Y257253D01*
X101334Y257159D01*
X101144Y257013D01*
X104680Y260548D01*
X104533Y260359D01*
D02*
G37*
G36*
X148874Y256651D02*
X149789Y255851D01*
X150055Y255654D01*
X150301Y255491D01*
X150528Y255364D01*
X150735Y255271D01*
X150923Y255212D01*
X151091Y255189D01*
X148561Y252659D01*
X148538Y252827D01*
X148479Y253015D01*
X148386Y253222D01*
X148259Y253449D01*
X148096Y253695D01*
X147899Y253961D01*
X147400Y254551D01*
X146763Y255219D01*
X148531Y256987D01*
X148874Y256651D01*
D02*
G37*
G36*
X243632Y251435D02*
X240980Y250551D01*
X239212Y252319D01*
X240096Y254970D01*
X243632Y251435D01*
D02*
G37*
G36*
X90636Y247101D02*
X90447Y247247D01*
X90240Y247340D01*
X90015Y247381D01*
X89774Y247370D01*
X89515Y247306D01*
X89239Y247189D01*
X88946Y247019D01*
X88636Y246797D01*
X88308Y246523D01*
X87963Y246195D01*
X86195Y247963D01*
X86523Y248308D01*
X86797Y248636D01*
X87019Y248946D01*
X87189Y249239D01*
X87305Y249515D01*
X87370Y249774D01*
X87381Y250015D01*
X87340Y250240D01*
X87247Y250446D01*
X87101Y250636D01*
X90636Y247101D01*
D02*
G37*
G36*
X87151Y245383D02*
X86824Y245038D01*
X86549Y244711D01*
X86327Y244400D01*
X86158Y244107D01*
X86041Y243831D01*
X85976Y243572D01*
X85965Y243331D01*
X86006Y243107D01*
X86099Y242900D01*
X86245Y242710D01*
X82710Y246245D01*
X82900Y246099D01*
X83107Y246006D01*
X83331Y245965D01*
X83572Y245976D01*
X83831Y246041D01*
X84107Y246157D01*
X84400Y246327D01*
X84711Y246549D01*
X85038Y246824D01*
X85383Y247151D01*
X87151Y245383D01*
D02*
G37*
G36*
X221688Y247183D02*
X221544Y246994D01*
X221416Y246792D01*
X221306Y246575D01*
X221213Y246343D01*
X221136Y246098D01*
X221077Y245838D01*
X221034Y245563D01*
X221008Y245275D01*
X221000Y244972D01*
X218500D01*
X218491Y245275D01*
X218466Y245563D01*
X218424Y245838D01*
X218364Y246098D01*
X218288Y246343D01*
X218194Y246575D01*
X218083Y246792D01*
X217956Y246994D01*
X217812Y247183D01*
X217650Y247356D01*
X221850D01*
X221688Y247183D01*
D02*
G37*
G36*
X199750Y243030D02*
X197250D01*
X196000Y245530D01*
X201000D01*
X199750Y243030D01*
D02*
G37*
G36*
X155262Y244780D02*
X155050Y244700D01*
X154862Y244570D01*
X154700Y244391D01*
X154563Y244163D01*
X154450Y243885D01*
X154362Y243558D01*
X154300Y243182D01*
X154263Y242756D01*
X154250Y242281D01*
X151750D01*
X151737Y242756D01*
X151700Y243182D01*
X151637Y243558D01*
X151550Y243885D01*
X151438Y244163D01*
X151300Y244391D01*
X151138Y244570D01*
X150950Y244700D01*
X150737Y244780D01*
X150500Y244811D01*
X155500D01*
X155262Y244780D01*
D02*
G37*
G36*
X255214Y243236D02*
X255119Y243066D01*
X255034Y242857D01*
X254961Y242609D01*
X254900Y242322D01*
X254849Y241997D01*
X254782Y241229D01*
X254760Y240307D01*
X252260D01*
X252254Y240788D01*
X252170Y241997D01*
X252119Y242322D01*
X252058Y242609D01*
X251985Y242857D01*
X251901Y243066D01*
X251805Y243236D01*
X251699Y243368D01*
X255320D01*
X255214Y243236D01*
D02*
G37*
G36*
X199762Y242244D02*
X199800Y241818D01*
X199862Y241442D01*
X199950Y241115D01*
X200063Y240837D01*
X200200Y240609D01*
X200362Y240430D01*
X200550Y240300D01*
X200763Y240220D01*
X201000Y240189D01*
X196000D01*
X196238Y240220D01*
X196450Y240300D01*
X196637Y240430D01*
X196800Y240609D01*
X196938Y240837D01*
X197050Y241115D01*
X197138Y241442D01*
X197200Y241818D01*
X197237Y242244D01*
X197250Y242719D01*
X199750D01*
X199762Y242244D01*
D02*
G37*
G36*
X154263Y239744D02*
X154300Y239318D01*
X154362Y238942D01*
X154450Y238615D01*
X154563Y238337D01*
X154700Y238109D01*
X154862Y237930D01*
X155050Y237800D01*
X155262Y237720D01*
X155500Y237689D01*
X150500D01*
X150737Y237720D01*
X150950Y237800D01*
X151138Y237930D01*
X151300Y238109D01*
X151438Y238337D01*
X151550Y238615D01*
X151637Y238942D01*
X151700Y239318D01*
X151737Y239744D01*
X151750Y240219D01*
X154250D01*
X154263Y239744D01*
D02*
G37*
G36*
X268523Y238892D02*
X268430Y238685D01*
X268389Y238461D01*
X268400Y238220D01*
X268464Y237961D01*
X268581Y237685D01*
X268751Y237392D01*
X268973Y237082D01*
X269247Y236754D01*
X269575Y236409D01*
X267807Y234641D01*
X267462Y234968D01*
X267134Y235243D01*
X266824Y235465D01*
X266531Y235634D01*
X266255Y235751D01*
X265996Y235816D01*
X265755Y235827D01*
X265530Y235786D01*
X265323Y235693D01*
X265134Y235546D01*
X268669Y239082D01*
X268523Y238892D01*
D02*
G37*
G36*
X109470Y230750D02*
X109233Y230741D01*
X108998Y230711D01*
X108764Y230658D01*
X108533Y230582D01*
X108303Y230485D01*
X108075Y230365D01*
X107849Y230223D01*
X107625Y230059D01*
X107403Y229873D01*
X107183Y229665D01*
X105415Y231433D01*
X105623Y231653D01*
X105809Y231875D01*
X105973Y232099D01*
X106115Y232325D01*
X106235Y232553D01*
X106332Y232783D01*
X106407Y233014D01*
X106461Y233248D01*
X106491Y233483D01*
X106500Y233720D01*
X109470Y230750D01*
D02*
G37*
G36*
X197066Y229811D02*
X196712Y229788D01*
X196359Y229729D01*
X196005Y229636D01*
X195652Y229509D01*
X195298Y229346D01*
X194945Y229149D01*
X194591Y228917D01*
X194238Y228650D01*
X193884Y228349D01*
X193531Y228013D01*
X191763Y229781D01*
X192099Y230134D01*
X192400Y230488D01*
X192667Y230841D01*
X192899Y231195D01*
X193096Y231548D01*
X193259Y231902D01*
X193386Y232255D01*
X193479Y232609D01*
X193538Y232962D01*
X193561Y233316D01*
X197066Y229811D01*
D02*
G37*
G36*
X117794Y227944D02*
X118167Y227641D01*
X118341Y227526D01*
X118508Y227437D01*
X118667Y227374D01*
X118818Y227335D01*
X118962Y227321D01*
X119097Y227332D01*
X119225Y227369D01*
X117338Y224360D01*
X117318Y224474D01*
X117274Y224602D01*
X117207Y224744D01*
X117116Y224900D01*
X117001Y225069D01*
X116699Y225450D01*
X116513Y225661D01*
X116069Y226125D01*
X117596Y228134D01*
X117794Y227944D01*
D02*
G37*
G36*
X173883Y221421D02*
X171117D01*
X171142Y221507D01*
X171165Y221636D01*
X171185Y221809D01*
X171229Y222590D01*
X171250Y224242D01*
X173750D01*
X173883Y221421D01*
D02*
G37*
G36*
X158883D02*
X156117D01*
X156142Y221507D01*
X156165Y221636D01*
X156185Y221809D01*
X156229Y222590D01*
X156250Y224242D01*
X158750D01*
X158883Y221421D01*
D02*
G37*
G36*
X265768Y225322D02*
X265991Y225137D01*
X266215Y224975D01*
X266441Y224837D01*
X266669Y224722D01*
X266899Y224630D01*
X267131Y224561D01*
X267364Y224516D01*
X267599Y224494D01*
X267836Y224496D01*
X265002Y221395D01*
X264983Y221632D01*
X264943Y221866D01*
X264882Y222099D01*
X264800Y222330D01*
X264697Y222558D01*
X264573Y222786D01*
X264428Y223011D01*
X264262Y223234D01*
X264075Y223456D01*
X263866Y223676D01*
X265547Y225531D01*
X265768Y225322D01*
D02*
G37*
G36*
X256590Y224939D02*
X256811Y224752D01*
X257034Y224585D01*
X257259Y224439D01*
X257486Y224313D01*
X257715Y224208D01*
X257945Y224124D01*
X258177Y224061D01*
X258411Y224018D01*
X258647Y223996D01*
X255507Y221207D01*
X255512Y221443D01*
X255493Y221678D01*
X255450Y221911D01*
X255383Y222142D01*
X255293Y222372D01*
X255179Y222600D01*
X255042Y222826D01*
X254881Y223051D01*
X254696Y223274D01*
X254487Y223495D01*
X256370Y225148D01*
X256590Y224939D01*
D02*
G37*
G36*
X245653Y223377D02*
X245875Y223191D01*
X246099Y223027D01*
X246325Y222885D01*
X246553Y222765D01*
X246783Y222668D01*
X247014Y222593D01*
X247248Y222539D01*
X247483Y222509D01*
X247720Y222500D01*
X244750Y219530D01*
X244741Y219767D01*
X244711Y220002D01*
X244657Y220236D01*
X244582Y220467D01*
X244485Y220697D01*
X244365Y220925D01*
X244223Y221151D01*
X244059Y221375D01*
X243873Y221597D01*
X243665Y221817D01*
X245433Y223585D01*
X245653Y223377D01*
D02*
G37*
G36*
X220634Y216778D02*
X220452Y216589D01*
X220160Y216241D01*
X220050Y216082D01*
X219963Y215932D01*
X219900Y215792D01*
X219860Y215662D01*
X219844Y215541D01*
X219851Y215431D01*
X219883Y215329D01*
X217051Y217106D01*
X217137Y217120D01*
X217240Y217160D01*
X217361Y217224D01*
X217499Y217313D01*
X217654Y217427D01*
X218016Y217729D01*
X218447Y218130D01*
X218688Y218368D01*
X220634Y216778D01*
D02*
G37*
G36*
X126470Y214250D02*
X126233Y214242D01*
X125998Y214211D01*
X125764Y214158D01*
X125533Y214082D01*
X125303Y213985D01*
X125075Y213865D01*
X124849Y213723D01*
X124625Y213559D01*
X124403Y213373D01*
X124183Y213165D01*
X122415Y214933D01*
X122623Y215153D01*
X122809Y215375D01*
X122973Y215599D01*
X123115Y215825D01*
X123235Y216053D01*
X123332Y216283D01*
X123407Y216514D01*
X123461Y216748D01*
X123491Y216983D01*
X123500Y217220D01*
X126470Y214250D01*
D02*
G37*
G36*
X238136Y215252D02*
X238359Y215069D01*
X238584Y214912D01*
X238810Y214781D01*
X239036Y214676D01*
X239264Y214597D01*
X239492Y214544D01*
X239722Y214517D01*
X239953Y214516D01*
X240185Y214541D01*
X237700Y211155D01*
X237658Y211384D01*
X237597Y211612D01*
X237518Y211839D01*
X237420Y212064D01*
X237304Y212289D01*
X237169Y212512D01*
X237016Y212734D01*
X236845Y212955D01*
X236654Y213175D01*
X236446Y213393D01*
X237913Y215461D01*
X238136Y215252D01*
D02*
G37*
G36*
X258829Y213873D02*
X258904Y213660D01*
X259030Y213472D01*
X259205Y213310D01*
X259429Y213172D01*
X259704Y213060D01*
X260030Y212973D01*
X260404Y212910D01*
X260830Y212873D01*
X261304Y212860D01*
Y210360D01*
X260830Y210347D01*
X260404Y210310D01*
X260030Y210247D01*
X259704Y210160D01*
X259429Y210047D01*
X259205Y209910D01*
X259030Y209748D01*
X258904Y209560D01*
X258829Y209347D01*
X258804Y209110D01*
Y214110D01*
X258829Y213873D01*
D02*
G37*
G36*
X158872Y209529D02*
X158863Y209430D01*
X158841Y208852D01*
X158827Y206943D01*
X156327Y206647D01*
X156324Y207114D01*
X156192Y209300D01*
X156157Y209459D01*
X156117Y209579D01*
X158883D01*
X158872Y209529D01*
D02*
G37*
G36*
X232720Y207763D02*
X232800Y207550D01*
X232930Y207362D01*
X233109Y207200D01*
X233337Y207062D01*
X233615Y206950D01*
X233942Y206863D01*
X234318Y206800D01*
X234744Y206763D01*
X235219Y206750D01*
Y204250D01*
X234744Y204237D01*
X234318Y204200D01*
X233942Y204137D01*
X233615Y204050D01*
X233337Y203937D01*
X233109Y203800D01*
X232930Y203638D01*
X232800Y203450D01*
X232720Y203237D01*
X232689Y203000D01*
Y208000D01*
X232720Y207763D01*
D02*
G37*
G36*
X222311Y203000D02*
X222280Y203237D01*
X222200Y203450D01*
X222070Y203638D01*
X221891Y203800D01*
X221663Y203937D01*
X221385Y204050D01*
X221058Y204137D01*
X220682Y204200D01*
X220256Y204237D01*
X219781Y204250D01*
Y206750D01*
X220256Y206763D01*
X220682Y206800D01*
X221058Y206863D01*
X221385Y206950D01*
X221663Y207062D01*
X221891Y207200D01*
X222070Y207362D01*
X222200Y207550D01*
X222280Y207763D01*
X222311Y208000D01*
Y203000D01*
D02*
G37*
G36*
X219225Y204457D02*
X218899Y204126D01*
X217922Y203020D01*
X217759Y202798D01*
X217628Y202598D01*
X217531Y202420D01*
X217465Y202264D01*
X217433Y202129D01*
X213427Y203901D01*
X213781Y203932D01*
X214150Y204010D01*
X214534Y204137D01*
X214931Y204313D01*
X215343Y204537D01*
X215769Y204810D01*
X216209Y205131D01*
X216664Y205500D01*
X217616Y206384D01*
X219225Y204457D01*
D02*
G37*
G36*
X123579Y201117D02*
X123493Y201142D01*
X123364Y201165D01*
X123191Y201185D01*
X122410Y201229D01*
X120758Y201250D01*
Y203750D01*
X123579Y203883D01*
Y201117D01*
D02*
G37*
G36*
X118475Y204558D02*
X118620Y204389D01*
X118785Y204239D01*
X118971Y204109D01*
X119177Y203999D01*
X119403Y203910D01*
X119649Y203840D01*
X119915Y203790D01*
X120201Y203760D01*
X120508Y203750D01*
X119786Y201250D01*
X119483Y201244D01*
X118914Y201199D01*
X118647Y201159D01*
X118150Y201045D01*
X117919Y200971D01*
X117701Y200886D01*
X117494Y200789D01*
X117299Y200681D01*
X118349Y204748D01*
X118475Y204558D01*
D02*
G37*
G36*
X216807Y198727D02*
X216897Y198716D01*
X217035Y198706D01*
X218877Y198674D01*
X219352Y198673D01*
X219057Y196173D01*
X216420Y196117D01*
X216766Y198740D01*
X216807Y198727D01*
D02*
G37*
G36*
X135506Y198858D02*
X135636Y198835D01*
X135809Y198815D01*
X136590Y198771D01*
X138242Y198750D01*
Y196250D01*
X135421Y196117D01*
Y198883D01*
X135506Y198858D01*
D02*
G37*
G36*
X237593Y201489D02*
X238861Y201236D01*
X258327D01*
X261236Y198328D01*
Y194560D01*
X258740D01*
Y182940D01*
X261236D01*
Y180394D01*
X260170Y179250D01*
X260000D01*
Y172500D01*
Y165750D01*
X263037D01*
X263564Y164250D01*
X262594Y163280D01*
X262505Y163215D01*
X262407Y163154D01*
X262323Y163110D01*
X262253Y163080D01*
X262193Y163060D01*
X262143Y163049D01*
X262097Y163043D01*
X261955Y163038D01*
X261796Y163000D01*
X261005D01*
X259168Y162239D01*
X258608Y161679D01*
X258470Y161594D01*
X258366Y161497D01*
X258329Y161469D01*
X258285Y161441D01*
X258230Y161413D01*
X258158Y161385D01*
X258068Y161356D01*
X257955Y161331D01*
X257846Y161314D01*
X249153D01*
X247885Y161061D01*
X246810Y160343D01*
X243329Y156863D01*
X241832Y156239D01*
X239995Y157000D01*
X238005D01*
X236168Y156239D01*
X235608Y155680D01*
X235470Y155594D01*
X235366Y155498D01*
X235329Y155469D01*
X235285Y155442D01*
X235230Y155413D01*
X235158Y155385D01*
X235068Y155356D01*
X234955Y155330D01*
X234846Y155314D01*
X224290D01*
X223022Y155061D01*
X221947Y154343D01*
X220932Y153329D01*
X219305Y153822D01*
X219300Y153846D01*
X218546Y155000D01*
X219300Y156154D01*
X219464Y156982D01*
X220750Y157500D01*
X220980Y157500D01*
X226500D01*
Y163500D01*
X227500D01*
Y164500D01*
X234250D01*
Y169000D01*
X234250Y170500D01*
X234250Y171000D01*
Y181707D01*
X234750Y183000D01*
X234750D01*
X234750Y183000D01*
Y188500D01*
X227500D01*
Y189500D01*
X226500D01*
Y193927D01*
X222281Y191184D01*
X222263Y191537D01*
X222210Y191891D01*
X222121Y192245D01*
X221998Y192598D01*
X221838Y192952D01*
X221644Y193305D01*
X221414Y193659D01*
X221149Y194012D01*
X220849Y194366D01*
X220513Y194720D01*
X222147Y196621D01*
X222668Y196117D01*
X223658Y195269D01*
X224126Y194924D01*
X224577Y194632D01*
X225010Y194394D01*
X225426Y194208D01*
X225824Y194076D01*
X226204Y193996D01*
X226500Y193974D01*
Y196019D01*
X226488Y196020D01*
X226357Y196047D01*
X226166Y196111D01*
X225920Y196221D01*
X225625Y196384D01*
X225285Y196603D01*
X224928Y196866D01*
X224188Y197500D01*
X224175Y197695D01*
X225060Y199000D01*
X234750D01*
Y202186D01*
X236549D01*
X237593Y201489D01*
D02*
G37*
G36*
X265812Y194554D02*
X265850Y194128D01*
X265912Y193752D01*
X266000Y193425D01*
X266112Y193147D01*
X266250Y192919D01*
X266413Y192740D01*
X266600Y192610D01*
X266812Y192530D01*
X267050Y192499D01*
X262050D01*
X262288Y192530D01*
X262500Y192610D01*
X262687Y192740D01*
X262850Y192919D01*
X262987Y193147D01*
X263100Y193425D01*
X263188Y193752D01*
X263250Y194128D01*
X263288Y194554D01*
X263300Y195030D01*
X265800D01*
X265812Y194554D01*
D02*
G37*
G36*
X135506Y193858D02*
X135636Y193835D01*
X135809Y193815D01*
X136590Y193771D01*
X138242Y193750D01*
Y191250D01*
X135421Y191117D01*
Y193883D01*
X135506Y193858D01*
D02*
G37*
G36*
X115330Y223895D02*
Y223585D01*
X116091Y221747D01*
X117497Y220341D01*
X119335Y219580D01*
X120429D01*
X121492Y218254D01*
X121500Y218194D01*
Y217454D01*
X121462Y217295D01*
X121457Y217153D01*
X121451Y217107D01*
X121440Y217057D01*
X121420Y216997D01*
X121390Y216927D01*
X121346Y216843D01*
X121285Y216745D01*
X121220Y216656D01*
X119087Y214523D01*
X114871D01*
X113603Y214271D01*
X112528Y213553D01*
X107157Y208182D01*
X106439Y207107D01*
X106186Y205839D01*
Y196768D01*
X106439Y195499D01*
X107157Y194424D01*
X111576Y190005D01*
X110953Y188879D01*
X110775Y188685D01*
X110054D01*
X109895Y188722D01*
X109754Y188728D01*
X109708Y188734D01*
X109657Y188745D01*
X109598Y188764D01*
X109527Y188794D01*
X109443Y188838D01*
X109345Y188900D01*
X109256Y188965D01*
X103814Y194408D01*
Y215128D01*
X112623Y223936D01*
X115297D01*
X115330Y223895D01*
D02*
G37*
G36*
X135541Y188843D02*
X135700Y188808D01*
X135897Y188776D01*
X136406Y188726D01*
X137459Y188682D01*
X138352Y188673D01*
X138057Y186173D01*
X135421Y186117D01*
Y188883D01*
X135541Y188843D01*
D02*
G37*
G36*
X107753Y187561D02*
X107976Y187375D01*
X108200Y187211D01*
X108426Y187069D01*
X108653Y186950D01*
X108883Y186852D01*
X109115Y186777D01*
X109348Y186724D01*
X109583Y186693D01*
X109820Y186684D01*
X106851Y183715D01*
X106842Y183952D01*
X106811Y184187D01*
X106758Y184420D01*
X106683Y184652D01*
X106585Y184882D01*
X106466Y185109D01*
X106324Y185335D01*
X106160Y185559D01*
X105974Y185782D01*
X105765Y186002D01*
X107533Y187770D01*
X107753Y187561D01*
D02*
G37*
G36*
X266812Y184970D02*
X266600Y184890D01*
X266413Y184760D01*
X266250Y184582D01*
X266112Y184353D01*
X266000Y184075D01*
X265912Y183748D01*
X265850Y183372D01*
X265812Y182946D01*
X265800Y182470D01*
X263300D01*
X263288Y182946D01*
X263250Y183372D01*
X263188Y183748D01*
X263100Y184075D01*
X262987Y184353D01*
X262850Y184582D01*
X262687Y184760D01*
X262500Y184890D01*
X262288Y184970D01*
X262050Y185001D01*
X267050D01*
X266812Y184970D01*
D02*
G37*
G36*
X99093Y184224D02*
X99118Y183935D01*
X99161Y183661D01*
X99221Y183401D01*
X99297Y183155D01*
X99390Y182924D01*
X99501Y182707D01*
X99628Y182504D01*
X99773Y182316D01*
X99934Y182142D01*
X95735D01*
X95896Y182316D01*
X96040Y182504D01*
X96168Y182707D01*
X96278Y182924D01*
X96372Y183155D01*
X96448Y183401D01*
X96508Y183661D01*
X96551Y183935D01*
X96576Y184224D01*
X96584Y184527D01*
X99085D01*
X99093Y184224D01*
D02*
G37*
G36*
X216507Y183858D02*
X216636Y183835D01*
X216809Y183815D01*
X217590Y183771D01*
X219242Y183750D01*
Y181250D01*
X216420Y181117D01*
Y183883D01*
X216507Y183858D01*
D02*
G37*
G36*
X135541Y183843D02*
X135700Y183808D01*
X135897Y183776D01*
X136406Y183726D01*
X137459Y183682D01*
X138352Y183673D01*
X138057Y181173D01*
X135421Y181117D01*
Y183883D01*
X135541Y183843D01*
D02*
G37*
G36*
X180858Y180900D02*
X180684Y181061D01*
X180496Y181206D01*
X180293Y181334D01*
X180076Y181444D01*
X179845Y181537D01*
X179599Y181614D01*
X179339Y181674D01*
X179065Y181716D01*
X178776Y181742D01*
X178473Y181750D01*
Y184250D01*
X178776Y184258D01*
X179065Y184284D01*
X179339Y184326D01*
X179599Y184386D01*
X179845Y184463D01*
X180076Y184556D01*
X180293Y184667D01*
X180496Y184794D01*
X180684Y184939D01*
X180858Y185100D01*
Y180900D01*
D02*
G37*
G36*
X222538Y181901D02*
X222891Y181600D01*
X223245Y181333D01*
X223598Y181101D01*
X223952Y180904D01*
X224306Y180741D01*
X224659Y180614D01*
X225013Y180521D01*
X225366Y180462D01*
X225720Y180439D01*
X222811Y176338D01*
X222779Y176700D01*
X222694Y177080D01*
X222557Y177478D01*
X222367Y177893D01*
X222125Y178326D01*
X221831Y178777D01*
X221484Y179246D01*
X220633Y180236D01*
X220129Y180757D01*
X222184Y182237D01*
X222538Y181901D01*
D02*
G37*
G36*
X167689Y179405D02*
X167913Y179223D01*
X168137Y179066D01*
X168363Y178936D01*
X168589Y178832D01*
X168816Y178754D01*
X169044Y178703D01*
X169274Y178677D01*
X169504Y178678D01*
X169735Y178705D01*
X167285Y175294D01*
X167241Y175522D01*
X167178Y175749D01*
X167097Y175975D01*
X166998Y176199D01*
X166881Y176423D01*
X166745Y176646D01*
X166591Y176867D01*
X166419Y177088D01*
X166020Y177526D01*
X167466Y179615D01*
X167689Y179405D01*
D02*
G37*
G36*
X146932Y175279D02*
X146961Y174992D01*
X147011Y174725D01*
X147080Y174477D01*
X147169Y174249D01*
X147278Y174040D01*
X147406Y173850D01*
X147555Y173680D01*
X147723Y173530D01*
X147910Y173399D01*
X143816Y172461D01*
X143932Y172656D01*
X144034Y172863D01*
X144125Y173081D01*
X144204Y173312D01*
X144271Y173555D01*
X144325Y173809D01*
X144368Y174076D01*
X144416Y174645D01*
X144422Y174947D01*
X146922Y175585D01*
X146932Y175279D01*
D02*
G37*
G36*
X96263Y161994D02*
X96300Y161568D01*
X96362Y161192D01*
X96450Y160865D01*
X96562Y160587D01*
X96700Y160359D01*
X96862Y160180D01*
X97050Y160050D01*
X97262Y159970D01*
X97500Y159939D01*
X92500D01*
X92738Y159970D01*
X92950Y160050D01*
X93138Y160180D01*
X93300Y160359D01*
X93438Y160587D01*
X93550Y160865D01*
X93638Y161192D01*
X93700Y161568D01*
X93737Y161994D01*
X93750Y162470D01*
X96250D01*
X96263Y161994D01*
D02*
G37*
G36*
X266085Y160317D02*
X265877Y160097D01*
X265691Y159875D01*
X265527Y159651D01*
X265385Y159425D01*
X265265Y159197D01*
X265168Y158967D01*
X265093Y158736D01*
X265039Y158502D01*
X265009Y158267D01*
X265000Y158030D01*
X262030Y161000D01*
X262267Y161008D01*
X262502Y161039D01*
X262736Y161092D01*
X262967Y161168D01*
X263197Y161265D01*
X263425Y161385D01*
X263651Y161527D01*
X263875Y161691D01*
X264097Y161877D01*
X264317Y162085D01*
X266085Y160317D01*
D02*
G37*
G36*
X259858Y155900D02*
X259684Y156061D01*
X259496Y156206D01*
X259293Y156334D01*
X259076Y156444D01*
X258845Y156538D01*
X258599Y156614D01*
X258339Y156673D01*
X258065Y156716D01*
X257776Y156742D01*
X257473Y156750D01*
Y159250D01*
X257776Y159258D01*
X258065Y159284D01*
X258339Y159326D01*
X258599Y159386D01*
X258845Y159462D01*
X259076Y159556D01*
X259293Y159667D01*
X259496Y159794D01*
X259684Y159938D01*
X259858Y160100D01*
Y155900D01*
D02*
G37*
G36*
X265009Y157733D02*
X265039Y157498D01*
X265093Y157264D01*
X265168Y157033D01*
X265265Y156803D01*
X265385Y156575D01*
X265527Y156349D01*
X265691Y156125D01*
X265877Y155903D01*
X266085Y155683D01*
X264317Y153915D01*
X264097Y154123D01*
X263875Y154309D01*
X263651Y154473D01*
X263425Y154615D01*
X263197Y154735D01*
X262967Y154832D01*
X262736Y154908D01*
X262502Y154960D01*
X262267Y154991D01*
X262030Y155000D01*
X265000Y157970D01*
X265009Y157733D01*
D02*
G37*
G36*
X121121Y179490D02*
X120700Y178846D01*
X120432Y177500D01*
X120700Y176154D01*
X121454Y175000D01*
X120700Y173846D01*
X120432Y172500D01*
X120700Y171154D01*
X121454Y170000D01*
X120700Y168846D01*
X120432Y167500D01*
X120700Y166154D01*
X121454Y165000D01*
X120700Y163846D01*
X120432Y162500D01*
X120700Y161154D01*
X121454Y160000D01*
X120700Y158846D01*
X120432Y157500D01*
X120700Y156154D01*
X121454Y155000D01*
X120700Y153846D01*
X120619Y153440D01*
X120358Y152474D01*
X119003Y152000D01*
X114227D01*
X114215Y152003D01*
X113988Y152020D01*
X113857Y152047D01*
X113666Y152111D01*
X113420Y152221D01*
X113125Y152384D01*
X112786Y152603D01*
X112428Y152866D01*
X111673Y153513D01*
X109843Y155343D01*
X108768Y156061D01*
X107500Y156314D01*
X107000D01*
Y162000D01*
X98610D01*
X98436Y163500D01*
X101373Y166436D01*
X104754D01*
X106023Y166689D01*
X107098Y167407D01*
X118443Y178753D01*
X119162Y179828D01*
X120745Y180098D01*
X121121Y179490D01*
D02*
G37*
G36*
X104994Y155262D02*
X105070Y155050D01*
X105195Y154862D01*
X105370Y154700D01*
X105595Y154563D01*
X105870Y154450D01*
X106194Y154362D01*
X106569Y154300D01*
X106994Y154263D01*
X107470Y154250D01*
Y151750D01*
X106994Y151737D01*
X106569Y151700D01*
X106194Y151637D01*
X105870Y151550D01*
X105595Y151438D01*
X105370Y151300D01*
X105195Y151138D01*
X105070Y150950D01*
X104994Y150737D01*
X104970Y150500D01*
Y155500D01*
X104994Y155262D01*
D02*
G37*
G36*
X85061Y150500D02*
X85030Y150737D01*
X84950Y150950D01*
X84820Y151138D01*
X84641Y151300D01*
X84413Y151438D01*
X84135Y151550D01*
X83808Y151637D01*
X83432Y151700D01*
X83006Y151737D01*
X82530Y151750D01*
Y154250D01*
X83006Y154263D01*
X83432Y154300D01*
X83808Y154362D01*
X84135Y154450D01*
X84413Y154563D01*
X84641Y154700D01*
X84820Y154862D01*
X84950Y155050D01*
X85030Y155262D01*
X85061Y155500D01*
Y150500D01*
D02*
G37*
G36*
X236858Y149900D02*
X236684Y150062D01*
X236496Y150206D01*
X236293Y150333D01*
X236076Y150444D01*
X235845Y150538D01*
X235599Y150614D01*
X235339Y150674D01*
X235065Y150716D01*
X234776Y150742D01*
X234473Y150750D01*
Y153250D01*
X234776Y153258D01*
X235065Y153284D01*
X235339Y153327D01*
X235599Y153386D01*
X235845Y153462D01*
X236076Y153556D01*
X236293Y153666D01*
X236496Y153794D01*
X236684Y153939D01*
X236858Y154100D01*
Y149900D01*
D02*
G37*
G36*
X72151Y147883D02*
X71824Y147538D01*
X71549Y147211D01*
X71327Y146900D01*
X71157Y146607D01*
X71041Y146331D01*
X70976Y146072D01*
X70965Y145831D01*
X71006Y145607D01*
X71099Y145400D01*
X71245Y145210D01*
X67710Y148745D01*
X67900Y148599D01*
X68107Y148506D01*
X68331Y148465D01*
X68572Y148476D01*
X68831Y148541D01*
X69107Y148658D01*
X69400Y148827D01*
X69711Y149049D01*
X70038Y149324D01*
X70383Y149651D01*
X72151Y147883D01*
D02*
G37*
G36*
X110168Y152117D02*
X111158Y151269D01*
X111627Y150924D01*
X112077Y150632D01*
X112510Y150394D01*
X112926Y150208D01*
X113323Y150076D01*
X113704Y149996D01*
X114066Y149970D01*
X109781Y147184D01*
X109763Y147537D01*
X109710Y147891D01*
X109621Y148245D01*
X109498Y148598D01*
X109339Y148952D01*
X109144Y149305D01*
X108914Y149659D01*
X108649Y150012D01*
X108349Y150366D01*
X108013Y150719D01*
X109647Y152621D01*
X110168Y152117D01*
D02*
G37*
G36*
X216507Y148858D02*
X216636Y148835D01*
X216809Y148815D01*
X217590Y148771D01*
X219242Y148750D01*
Y146250D01*
X216420Y146117D01*
Y148883D01*
X216507Y148858D01*
D02*
G37*
G36*
X120245Y149738D02*
X120319Y149530D01*
X120444Y149348D01*
X120619Y149189D01*
X120844Y149055D01*
X121119Y148945D01*
X121445Y148860D01*
X121814Y148800D01*
X123579Y148883D01*
Y146117D01*
X123493Y146142D01*
X123364Y146165D01*
X123191Y146185D01*
X122410Y146229D01*
X122178Y146232D01*
X121818Y146200D01*
X121442Y146138D01*
X121115Y146050D01*
X120837Y145938D01*
X120609Y145800D01*
X120430Y145638D01*
X120300Y145450D01*
X120220Y145238D01*
X120189Y145000D01*
X120219Y149970D01*
X120245Y149738D01*
D02*
G37*
G36*
X258738Y147004D02*
X258769Y146768D01*
X258822Y146535D01*
X258897Y146304D01*
X258994Y146074D01*
X259114Y145846D01*
X259256Y145620D01*
X259420Y145396D01*
X259606Y145174D01*
X259814Y144953D01*
X258046Y143186D01*
X257826Y143394D01*
X257604Y143580D01*
X257380Y143744D01*
X257154Y143886D01*
X256926Y144006D01*
X256696Y144103D01*
X256465Y144178D01*
X256231Y144231D01*
X255996Y144262D01*
X255759Y144271D01*
X258729Y147241D01*
X258738Y147004D01*
D02*
G37*
G36*
X207530Y132000D02*
X205030Y133250D01*
Y135750D01*
X207530Y137000D01*
Y132000D01*
D02*
G37*
G36*
X198932Y136763D02*
X199012Y136550D01*
X199142Y136362D01*
X199321Y136200D01*
X199549Y136062D01*
X199827Y135950D01*
X200154Y135863D01*
X200530Y135800D01*
X200956Y135763D01*
X201432Y135750D01*
Y133250D01*
X200956Y133237D01*
X200530Y133200D01*
X200154Y133138D01*
X199827Y133050D01*
X199549Y132937D01*
X199321Y132800D01*
X199142Y132638D01*
X199012Y132450D01*
X198932Y132238D01*
X198901Y132000D01*
Y137000D01*
X198932Y136763D01*
D02*
G37*
G36*
X253072Y127399D02*
X252745Y127054D01*
X252470Y126726D01*
X252248Y126416D01*
X252078Y126123D01*
X251961Y125847D01*
X251897Y125588D01*
X251886Y125347D01*
X251927Y125122D01*
X252020Y124915D01*
X252166Y124726D01*
X248631Y128261D01*
X248820Y128115D01*
X249028Y128021D01*
X249252Y127981D01*
X249493Y127992D01*
X249752Y128056D01*
X250028Y128173D01*
X250321Y128343D01*
X250631Y128565D01*
X250959Y128839D01*
X251304Y129167D01*
X253072Y127399D01*
D02*
G37*
G36*
X291653Y130127D02*
X291875Y129941D01*
X292099Y129777D01*
X292325Y129635D01*
X292553Y129515D01*
X292783Y129418D01*
X293014Y129342D01*
X293248Y129289D01*
X293483Y129258D01*
X293720Y129250D01*
X290750Y126280D01*
X290742Y126517D01*
X290711Y126752D01*
X290658Y126986D01*
X290582Y127217D01*
X290485Y127447D01*
X290365Y127675D01*
X290223Y127901D01*
X290059Y128125D01*
X289873Y128347D01*
X289665Y128567D01*
X291433Y130335D01*
X291653Y130127D01*
D02*
G37*
G36*
X178858Y128493D02*
X178835Y128364D01*
X178815Y128191D01*
X178771Y127410D01*
X178750Y125758D01*
X176250D01*
X176117Y128579D01*
X178883D01*
X178858Y128493D01*
D02*
G37*
G36*
X173858D02*
X173835Y128364D01*
X173815Y128191D01*
X173771Y127410D01*
X173750Y125758D01*
X171250D01*
X171117Y128579D01*
X173883D01*
X173858Y128493D01*
D02*
G37*
G36*
X168858D02*
X168835Y128364D01*
X168815Y128191D01*
X168771Y127410D01*
X168750Y125758D01*
X166250D01*
X166117Y128579D01*
X168883D01*
X168858Y128493D01*
D02*
G37*
G36*
X163872Y128528D02*
X163863Y128430D01*
X163841Y127852D01*
X163827Y125943D01*
X161327Y125648D01*
X161324Y126114D01*
X161192Y128300D01*
X161157Y128459D01*
X161117Y128579D01*
X163883D01*
X163872Y128528D01*
D02*
G37*
G36*
X276142Y119288D02*
X275956Y119435D01*
X275758Y119566D01*
X275547Y119682D01*
X275322Y119782D01*
X275085Y119867D01*
X274835Y119936D01*
X274571Y119990D01*
X274295Y120029D01*
X274006Y120052D01*
X273703Y120059D01*
X273473Y122559D01*
X273777Y122569D01*
X274065Y122596D01*
X274337Y122642D01*
X274593Y122706D01*
X274833Y122788D01*
X275057Y122889D01*
X275264Y123007D01*
X275456Y123145D01*
X275632Y123300D01*
X275791Y123474D01*
X276142Y119288D01*
D02*
G37*
G36*
X266622Y113849D02*
X266295Y113504D01*
X266020Y113176D01*
X265798Y112866D01*
X265629Y112572D01*
X265512Y112296D01*
X265448Y112038D01*
X265436Y111796D01*
X265477Y111572D01*
X265571Y111365D01*
X265717Y111175D01*
X262181Y114711D01*
X262371Y114565D01*
X262578Y114471D01*
X262802Y114430D01*
X263043Y114442D01*
X263302Y114506D01*
X263578Y114623D01*
X263871Y114792D01*
X264182Y115014D01*
X264509Y115289D01*
X264854Y115616D01*
X266622Y113849D01*
D02*
G37*
G36*
X193653Y115877D02*
X193875Y115691D01*
X194099Y115527D01*
X194325Y115385D01*
X194553Y115265D01*
X194783Y115168D01*
X195014Y115092D01*
X195248Y115039D01*
X195483Y115009D01*
X195720Y115000D01*
X192750Y112030D01*
X192741Y112267D01*
X192711Y112502D01*
X192658Y112736D01*
X192582Y112967D01*
X192485Y113197D01*
X192365Y113425D01*
X192223Y113651D01*
X192059Y113875D01*
X191873Y114097D01*
X191665Y114317D01*
X193433Y116085D01*
X193653Y115877D01*
D02*
G37*
G36*
X257650Y114470D02*
X259451Y114045D01*
X259602Y114037D01*
X259712Y114047D01*
X259778Y114075D01*
X257448Y111744D01*
X257479Y111789D01*
X257498Y111832D01*
X257504Y111872D01*
X257497Y111911D01*
X257479Y111948D01*
X257448Y111983D01*
X257405Y112016D01*
X257349Y112047D01*
X257281Y112076D01*
X257201Y112104D01*
Y114604D01*
X257650Y114470D01*
D02*
G37*
G36*
X193663Y104775D02*
X193693Y104489D01*
X193742Y104221D01*
X193811Y103974D01*
X193900Y103745D01*
X194009Y103536D01*
X194138Y103347D01*
X194286Y103177D01*
X194454Y103026D01*
X194642Y102895D01*
X190548Y101958D01*
X190663Y102153D01*
X190766Y102359D01*
X190856Y102578D01*
X190935Y102809D01*
X191002Y103051D01*
X191056Y103306D01*
X191099Y103573D01*
X191147Y104141D01*
X191153Y104444D01*
X193653Y105082D01*
X193663Y104775D01*
D02*
G37*
G36*
X190312Y91494D02*
X190350Y91068D01*
X190413Y90692D01*
X190500Y90365D01*
X190613Y90087D01*
X190750Y89859D01*
X190912Y89680D01*
X191100Y89550D01*
X191313Y89470D01*
X191550Y89439D01*
X186550D01*
X186787Y89470D01*
X187000Y89550D01*
X187188Y89680D01*
X187350Y89859D01*
X187488Y90087D01*
X187600Y90365D01*
X187687Y90692D01*
X187750Y91068D01*
X187787Y91494D01*
X187800Y91969D01*
X190300D01*
X190312Y91494D01*
D02*
G37*
G36*
X163839D02*
X163876Y91068D01*
X163939Y90692D01*
X164027Y90365D01*
X164139Y90087D01*
X164277Y89859D01*
X164439Y89680D01*
X164627Y89550D01*
X164839Y89470D01*
X165077Y89439D01*
X160681Y89469D01*
X160803Y89494D01*
X160913Y89570D01*
X161010Y89694D01*
X161094Y89869D01*
X161165Y90094D01*
X161223Y90370D01*
X161268Y90695D01*
X161320Y91495D01*
X161327Y91969D01*
X163827D01*
X163839Y91494D01*
D02*
G37*
G36*
X173411Y79750D02*
X173380Y79988D01*
X173300Y80200D01*
X173170Y80387D01*
X172991Y80550D01*
X172763Y80688D01*
X172485Y80800D01*
X172158Y80887D01*
X171782Y80950D01*
X171356Y80988D01*
X170881Y81000D01*
Y83500D01*
X171356Y83512D01*
X171782Y83550D01*
X172158Y83612D01*
X172485Y83700D01*
X172763Y83813D01*
X172991Y83950D01*
X173170Y84113D01*
X173300Y84300D01*
X173380Y84513D01*
X173411Y84750D01*
Y79750D01*
D02*
G37*
G36*
X166620Y84513D02*
X166700Y84300D01*
X166830Y84113D01*
X167008Y83950D01*
X167237Y83813D01*
X167515Y83700D01*
X167842Y83612D01*
X168218Y83550D01*
X168644Y83512D01*
X169119Y83500D01*
Y81000D01*
X168644Y80988D01*
X168218Y80950D01*
X167842Y80887D01*
X167515Y80800D01*
X167237Y80688D01*
X167008Y80550D01*
X166830Y80387D01*
X166700Y80200D01*
X166620Y79988D01*
X166589Y79750D01*
Y84750D01*
X166620Y84513D01*
D02*
G37*
G36*
X152200Y72550D02*
X149700D01*
X148469Y75030D01*
X153431D01*
X152200Y72550D01*
D02*
G37*
G36*
X177612Y36994D02*
X177650Y36568D01*
X177712Y36192D01*
X177800Y35865D01*
X177913Y35587D01*
X178050Y35359D01*
X178213Y35180D01*
X178400Y35050D01*
X178612Y34970D01*
X178850Y34939D01*
X173850D01*
X174088Y34970D01*
X174300Y35050D01*
X174487Y35180D01*
X174650Y35359D01*
X174788Y35587D01*
X174900Y35865D01*
X174988Y36192D01*
X175050Y36568D01*
X175088Y36994D01*
X175100Y37469D01*
X177600D01*
X177612Y36994D01*
D02*
G37*
G36*
X195030Y27500D02*
X192925Y28553D01*
X192915Y28550D01*
X192637Y28438D01*
X192409Y28300D01*
X192230Y28138D01*
X192100Y27950D01*
X192020Y27738D01*
X191989Y27500D01*
Y32500D01*
X192020Y32262D01*
X192100Y32050D01*
X192230Y31862D01*
X192409Y31700D01*
X192637Y31562D01*
X192915Y31450D01*
X192925Y31447D01*
X195030Y32500D01*
Y27500D01*
D02*
G37*
G36*
X155751Y19744D02*
X155809Y18861D01*
X155823Y18847D01*
X153307Y18271D01*
X153250Y19950D01*
X155750D01*
X155751Y19744D01*
D02*
G37*
G36*
X164900Y18031D02*
X162400D01*
X161150Y20531D01*
X166150D01*
X164900Y18031D01*
D02*
G37*
G36*
X151187Y6377D02*
X150487Y4956D01*
X142958Y5947D01*
X132205Y8086D01*
X121615Y10923D01*
X119180Y11750D01*
X119428Y13250D01*
X120245D01*
X122082Y14011D01*
X123489Y15418D01*
X124250Y17255D01*
Y17686D01*
X139878D01*
X151187Y6377D01*
D02*
G37*
%LPC*%
G36*
X205750Y274000D02*
X199500D01*
Y266500D01*
X205750D01*
Y274000D01*
D02*
G37*
G36*
X197500D02*
X191250D01*
Y266500D01*
X197500D01*
Y274000D01*
D02*
G37*
G36*
X158500Y272250D02*
X153000D01*
Y266000D01*
X158500D01*
Y272250D01*
D02*
G37*
G36*
X151000D02*
X145500D01*
Y266000D01*
X151000D01*
Y272250D01*
D02*
G37*
G36*
X187250Y260500D02*
X181000D01*
Y253000D01*
X187250D01*
Y260500D01*
D02*
G37*
G36*
X143500Y249000D02*
X138000D01*
Y242750D01*
X143500D01*
Y249000D01*
D02*
G37*
G36*
X136000D02*
X130500D01*
Y242750D01*
X136000D01*
Y249000D01*
D02*
G37*
G36*
X37024Y256166D02*
X28609Y247751D01*
X34973Y241387D01*
X43388Y249802D01*
X37024Y256166D01*
D02*
G37*
G36*
X44802Y248388D02*
X36387Y239973D01*
X42751Y233609D01*
X51166Y242024D01*
X44802Y248388D01*
D02*
G37*
G36*
X143500Y239750D02*
X138000D01*
Y233500D01*
X143500D01*
Y239750D01*
D02*
G37*
G36*
X136000D02*
X130500D01*
Y233500D01*
X136000D01*
Y239750D01*
D02*
G37*
G36*
X27195Y246337D02*
X18780Y237922D01*
X25144Y231558D01*
X33559Y239973D01*
X27195Y246337D01*
D02*
G37*
G36*
X65075Y238510D02*
X59419Y232854D01*
X65429Y226843D01*
X71086Y232500D01*
X65075Y238510D01*
D02*
G37*
G36*
X34973Y238559D02*
X26558Y230144D01*
X32922Y223780D01*
X41337Y232195D01*
X34973Y238559D01*
D02*
G37*
G36*
X58004Y231439D02*
X52347Y225783D01*
X58358Y219772D01*
X64015Y225429D01*
X58004Y231439D01*
D02*
G37*
G36*
X72500Y231086D02*
X66843Y225429D01*
X72853Y219419D01*
X78510Y225075D01*
X72500Y231086D01*
D02*
G37*
G36*
X65429Y224015D02*
X59772Y218358D01*
X65782Y212348D01*
X71439Y218004D01*
X65429Y224015D01*
D02*
G37*
G36*
X122250Y136000D02*
X116000D01*
Y130500D01*
X122250D01*
Y136000D01*
D02*
G37*
G36*
X114000D02*
X107750D01*
Y130500D01*
X114000D01*
Y136000D01*
D02*
G37*
G36*
X122250Y128500D02*
X116000D01*
Y123000D01*
X122250D01*
Y128500D01*
D02*
G37*
G36*
X50075Y141010D02*
X37348Y128282D01*
X41403Y124227D01*
X41084Y123270D01*
X38996Y121182D01*
X36566Y123612D01*
X28434Y115480D01*
X28081Y115127D01*
X27020Y114066D01*
X23838Y110884D01*
X28611Y106111D01*
X33384Y101338D01*
X36566Y104520D01*
X36920Y104874D01*
X37980Y105934D01*
X46112Y114066D01*
X43682Y116496D01*
X45770Y118584D01*
X46727Y118903D01*
X50782Y114847D01*
X63510Y127575D01*
X50075Y141010D01*
D02*
G37*
G36*
X114000Y128500D02*
X107750D01*
Y127189D01*
X107000Y126000D01*
X106250Y126000D01*
X96000D01*
Y118000D01*
X107000D01*
Y121811D01*
X107750Y123000D01*
X108500Y123000D01*
X114000D01*
Y128500D01*
D02*
G37*
G36*
X94000Y126000D02*
X83000D01*
Y118000D01*
X94000D01*
Y126000D01*
D02*
G37*
G36*
X107000Y116000D02*
X96000D01*
Y108000D01*
X107000D01*
Y116000D01*
D02*
G37*
G36*
X94000D02*
X83000D01*
Y108000D01*
X94000D01*
Y116000D01*
D02*
G37*
G36*
X22424Y109470D02*
X18888Y105934D01*
X22954Y101868D01*
X26490Y105404D01*
X22424Y109470D01*
D02*
G37*
G36*
X27904Y103990D02*
X24368Y100454D01*
X28434Y96388D01*
X31970Y99924D01*
X27904Y103990D01*
D02*
G37*
G36*
X97733Y89980D02*
X92446Y84693D01*
X96296Y80843D01*
X101583Y86130D01*
X97733Y89980D01*
D02*
G37*
G36*
X63653Y108158D02*
X61664D01*
X59826Y107397D01*
X58420Y105991D01*
X57659Y104153D01*
Y102164D01*
X58420Y100326D01*
X59826Y98920D01*
X61664Y98159D01*
X63653D01*
X65263Y98825D01*
X70772D01*
X73540Y96057D01*
X73768Y95785D01*
X74064Y95371D01*
X74254Y95041D01*
X74351Y94812D01*
X74352Y94806D01*
X71642Y92095D01*
X80480Y83256D01*
X84331Y79406D01*
X90325Y85400D01*
X96319Y91394D01*
X92469Y95245D01*
X83630Y104083D01*
X80919Y101373D01*
X80913Y101374D01*
X80684Y101471D01*
X80353Y101662D01*
X79940Y101957D01*
X79668Y102185D01*
X75630Y106222D01*
X74225Y107162D01*
X72566Y107492D01*
X65263D01*
X63653Y108158D01*
D02*
G37*
G36*
X91032Y83279D02*
X85745Y77992D01*
X89595Y74142D01*
X94882Y79429D01*
X91032Y83279D01*
D02*
G37*
G36*
X155950Y37000D02*
X151950D01*
Y28750D01*
X155950D01*
Y37000D01*
D02*
G37*
G36*
X149950D02*
X145950D01*
Y28750D01*
X149950D01*
Y37000D01*
D02*
G37*
%LPD*%
G36*
X47269Y121233D02*
X44617Y120349D01*
X42849Y122117D01*
X43733Y124768D01*
X47269Y121233D01*
D02*
G37*
G36*
X42555Y118287D02*
X42228Y117942D01*
X41953Y117614D01*
X41731Y117304D01*
X41561Y117011D01*
X41445Y116735D01*
X41380Y116476D01*
X41369Y116235D01*
X41410Y116010D01*
X41503Y115803D01*
X41649Y115614D01*
X38114Y119149D01*
X38303Y119003D01*
X38510Y118910D01*
X38735Y118869D01*
X38976Y118880D01*
X39235Y118945D01*
X39511Y119061D01*
X39804Y119231D01*
X40114Y119453D01*
X40442Y119727D01*
X40787Y120055D01*
X42555Y118287D01*
D02*
G37*
G36*
X78101Y100837D02*
X78691Y100344D01*
X79248Y99945D01*
X79775Y99641D01*
X80270Y99432D01*
X80734Y99319D01*
X81166Y99300D01*
X81567Y99376D01*
X81937Y99548D01*
X82275Y99814D01*
X75911Y93450D01*
X76177Y93788D01*
X76349Y94158D01*
X76425Y94559D01*
X76406Y94991D01*
X76293Y95455D01*
X76084Y95950D01*
X75780Y96476D01*
X75381Y97034D01*
X74887Y97624D01*
X74299Y98244D01*
X77481Y101426D01*
X78101Y100837D01*
D02*
G37*
%LPC*%
G36*
X131187Y319066D02*
X126768Y314646D01*
X130657Y310757D01*
X135076Y315177D01*
X131187Y319066D01*
D02*
G37*
G36*
X136490Y313763D02*
X132071Y309343D01*
X135960Y305454D01*
X140380Y309874D01*
X136490Y313763D01*
D02*
G37*
G36*
X125353Y313232D02*
X120934Y308813D01*
X124823Y304924D01*
X129243Y309343D01*
X125353Y313232D01*
D02*
G37*
G36*
X130657Y307929D02*
X126237Y303510D01*
X130126Y299620D01*
X134546Y304040D01*
X130657Y307929D01*
D02*
G37*
G36*
X239367Y276869D02*
X234064Y271566D01*
X237600Y268030D01*
X242903Y273334D01*
X239367Y276869D01*
D02*
G37*
G36*
X270727Y141408D02*
X267326Y138007D01*
X270727Y134606D01*
X274128Y138007D01*
X270727Y141408D01*
D02*
G37*
G36*
X275543Y136593D02*
X272141Y133192D01*
X275543Y129791D01*
X278944Y133192D01*
X275543Y136593D01*
D02*
G37*
G36*
X210250Y20500D02*
X204000D01*
Y15000D01*
X210250D01*
Y20500D01*
D02*
G37*
G36*
X234750Y196000D02*
X228500D01*
Y190500D01*
X234750D01*
Y196000D01*
D02*
G37*
G36*
X251310Y194560D02*
X239690D01*
Y182940D01*
X242686D01*
Y179250D01*
X240000D01*
Y165750D01*
X251500D01*
X253000Y165750D01*
X253500Y165750D01*
X258000D01*
Y172500D01*
Y179250D01*
X253500D01*
X252000Y179250D01*
X251500Y179250D01*
X249314D01*
Y182940D01*
X251310D01*
Y194560D01*
D02*
G37*
G36*
X234250Y162500D02*
X228500D01*
Y157500D01*
X234250D01*
Y162500D01*
D02*
G37*
%LPD*%
G36*
X248263Y184970D02*
X248050Y184890D01*
X247862Y184760D01*
X247700Y184582D01*
X247563Y184353D01*
X247450Y184075D01*
X247362Y183748D01*
X247300Y183372D01*
X247262Y182946D01*
X247250Y182470D01*
X244750D01*
X244737Y182946D01*
X244700Y183372D01*
X244638Y183748D01*
X244550Y184075D01*
X244438Y184353D01*
X244300Y184582D01*
X244137Y184760D01*
X243950Y184890D01*
X243738Y184970D01*
X243500Y185001D01*
X248500D01*
X248263Y184970D01*
D02*
G37*
G36*
X247262Y179244D02*
X247300Y178818D01*
X247362Y178442D01*
X247450Y178115D01*
X247563Y177837D01*
X247700Y177609D01*
X247862Y177430D01*
X248050Y177300D01*
X248263Y177220D01*
X248500Y177189D01*
X243500D01*
X243738Y177220D01*
X243950Y177300D01*
X244137Y177430D01*
X244300Y177609D01*
X244438Y177837D01*
X244550Y178115D01*
X244638Y178442D01*
X244700Y178818D01*
X244737Y179244D01*
X244750Y179720D01*
X247250D01*
X247262Y179244D01*
D02*
G37*
D11*
X220465Y142343D02*
G03*
X221660Y143007I-569J2434D01*
G01*
X218716Y141934D02*
G03*
X217524Y141274I569J-2434D01*
G01*
X258962Y112628D02*
G03*
X257201Y113354I-1761J-1774D01*
G01*
X100027Y298281D02*
X110404Y287904D01*
X100027Y298281D02*
Y305027D01*
X115657Y320657D02*
X119343D01*
X100027Y305027D02*
X115657Y320657D01*
X167500Y215500D02*
X167577Y215424D01*
Y208227D02*
Y215424D01*
X110404Y287904D02*
X110404D01*
X117558Y280750D01*
X137750D01*
X152250Y295250D01*
X167577Y208227D02*
X170553Y205250D01*
X199447D01*
X152250Y295250D02*
X208750D01*
X213500Y219303D02*
Y290500D01*
X201120Y206924D02*
X213500Y219303D01*
X208750Y295250D02*
X213500Y290500D01*
X201120Y206924D02*
X201120D01*
X199447Y205250D02*
X201120Y206924D01*
X145672Y171511D02*
X146342Y170842D01*
X129500Y182500D02*
X129577Y182423D01*
X142077D01*
X145672Y178828D01*
Y171511D02*
Y178828D01*
X129500Y187500D02*
X129577Y187423D01*
X159830Y172920D02*
Y175920D01*
Y172920D02*
X160500Y172250D01*
X148327Y187423D02*
X159830Y175920D01*
X129577Y187423D02*
X148327D01*
X117000Y147500D02*
X129500D01*
X115000Y145500D02*
X117000Y147500D01*
X95000Y153000D02*
X107500D01*
X111000Y149500D01*
Y148750D02*
Y149500D01*
Y148750D02*
X114250Y145500D01*
X115000D01*
X75500Y153000D02*
X95000D01*
X64571Y142071D02*
X75500Y153000D01*
X64571Y142071D02*
X64571D01*
X197500Y134500D02*
X211500D01*
X126523Y290170D02*
X132580D01*
X119596Y297096D02*
X126523Y290170D01*
X132580D02*
X133250Y289500D01*
X120460Y211210D02*
X126500Y217250D01*
X114871Y211210D02*
X120460D01*
X109500Y205839D02*
X114871Y211210D01*
X109500Y196768D02*
Y205839D01*
Y196768D02*
X116100Y190167D01*
Y181096D02*
Y190167D01*
X104754Y169750D02*
X116100Y181096D01*
X100000Y169750D02*
X104754D01*
X95000Y164750D02*
X100000Y169750D01*
X95000Y153000D02*
Y164750D01*
X157500Y215500D02*
X157577Y215424D01*
X210424Y202423D02*
X210500Y202500D01*
X245250Y154097D02*
X249153Y158000D01*
X245250Y149411D02*
Y154097D01*
X249153Y158000D02*
X262000D01*
X264550Y180296D02*
X267250Y177596D01*
X262000Y158000D02*
X267250Y163250D01*
Y177596D01*
X262000Y158000D02*
X293750Y126250D01*
X264550Y188750D02*
Y199700D01*
Y180296D02*
Y188750D01*
X259700Y204550D02*
X264550Y199700D01*
X202984Y202423D02*
X210424D01*
X157577Y205924D02*
X164750Y198750D01*
X199311D02*
X202984Y202423D01*
X157577Y205924D02*
Y215424D01*
X164750Y198750D02*
X199311D01*
X157500Y215500D02*
Y227250D01*
X153000Y231750D02*
X157500Y227250D01*
X153000Y231750D02*
Y232500D01*
X133500Y261500D02*
X133904Y261096D01*
X140250D01*
X153000Y232500D02*
Y250750D01*
X144846Y256500D02*
X147250D01*
X153000Y250750D01*
X140250Y261096D02*
X144846Y256500D01*
X238861Y204550D02*
X259700D01*
X216126Y203127D02*
X218500Y205500D01*
X216126Y202685D02*
Y203127D01*
X215942Y202500D02*
X216126Y202685D01*
X210500Y202500D02*
X215942D01*
X237911Y205500D02*
X238861Y204550D01*
X211500Y134500D02*
X215250Y139000D01*
X217524Y141274D01*
X221660Y143007D02*
X224404Y145750D01*
X218716Y141934D02*
X220465Y142343D01*
X218500Y205500D02*
X237911D01*
X241589Y145750D02*
X245250Y149411D01*
X224404Y145750D02*
X241589D01*
X219576Y197423D02*
X223500Y193500D01*
Y192750D02*
Y193500D01*
X210576Y197423D02*
X219576D01*
X223500Y192750D02*
X226750Y189500D01*
X227500D01*
X210500Y197500D02*
X210576Y197423D01*
X198500Y285000D02*
X202250Y288750D01*
X203000D01*
X198500Y275000D02*
Y285000D01*
X150950Y23500D02*
Y27750D01*
X154500Y16589D02*
X155169Y15919D01*
X154500Y16589D02*
Y19950D01*
X150950Y23500D02*
X154500Y19950D01*
X115750Y203250D02*
X116697D01*
X117447Y202500D01*
X129500D01*
Y197500D02*
X157000D01*
X171500Y183000D01*
X183000D01*
X129500Y192500D02*
X152813D01*
X169563Y175750D02*
X170250D01*
X152813Y192500D02*
X169563Y175750D01*
X152423Y215424D02*
X152500Y215500D01*
X149197Y205000D02*
X152423Y208227D01*
X140803Y205000D02*
X149197D01*
X152423Y208227D02*
Y215424D01*
X132750Y213053D02*
X140803Y205000D01*
X132750Y213053D02*
Y220998D01*
X99596Y262096D02*
X107635Y254058D01*
Y246113D02*
X132750Y220998D01*
X107635Y246113D02*
Y254058D01*
X257807Y93532D02*
Y93532D01*
X266000Y101725D01*
Y105590D01*
X261298Y110292D02*
X266000Y105590D01*
X261298Y110292D02*
Y110292D01*
X229250Y94250D02*
X238250D01*
X223676Y88676D02*
X229250Y94250D01*
X223676Y88676D02*
X223676D01*
X238250Y94250D02*
X247807Y84693D01*
X248968D01*
X223763Y108737D02*
X238250Y94250D01*
X244324Y109324D02*
X247859D01*
X251889Y113354D01*
X223676Y86176D02*
Y88676D01*
X182800Y45300D02*
X223676Y86176D01*
X242558Y109324D02*
X244324D01*
X235882Y116000D02*
X242558Y109324D01*
X221000Y116000D02*
X235882D01*
X215000Y110000D02*
X221000Y116000D01*
X215000Y100000D02*
Y110000D01*
X209000Y94000D02*
X215000Y100000D01*
X209000Y79500D02*
Y94000D01*
X234714Y126327D02*
X243592Y135204D01*
X248278D01*
X216166Y126327D02*
X234714D01*
X241589Y123763D02*
X247827D01*
X238577Y120750D02*
X241589Y123763D01*
X261000Y137095D02*
Y142000D01*
X255729Y147271D02*
X261000Y142000D01*
X247827Y123923D02*
X261000Y137095D01*
X247827Y123923D02*
Y123923D01*
X216952Y120750D02*
X238577D01*
X213872Y117670D02*
X216952Y120750D01*
X211000Y117000D02*
X211670Y117670D01*
X213872D01*
X182800Y16014D02*
Y45300D01*
X181336Y14550D02*
X182800Y16014D01*
X163650Y27750D02*
Y32000D01*
Y16350D02*
Y27750D01*
Y16350D02*
X165450Y14550D01*
X181336D01*
X277851Y121309D02*
X278101Y121560D01*
X272315Y121309D02*
X277851D01*
X261298Y110292D02*
X272315Y121309D01*
X261298Y110292D02*
Y110292D01*
X251889Y113354D02*
X257201D01*
X259488Y112102D02*
X261298Y110292D01*
X258962Y112628D02*
X259488Y112102D01*
X176350Y27750D02*
Y46850D01*
X209000Y79500D01*
X202250Y30000D02*
X203000D01*
X199000Y26750D02*
X202250Y30000D01*
X199000Y24750D02*
Y26750D01*
X182500Y8250D02*
X199000Y24750D01*
X154000Y8250D02*
X182500D01*
X210500Y147500D02*
X219790D01*
X224290Y152000D02*
X239000D01*
X219790Y147500D02*
X224290Y152000D01*
X214088Y124250D02*
X216166Y126327D01*
X240026Y211581D02*
X240669D01*
X235575Y216032D02*
X240026Y211581D01*
X233468Y216032D02*
X235575D01*
X226000Y223500D02*
X233468Y216032D01*
X226000Y223500D02*
Y252087D01*
X217143Y214107D02*
Y215054D01*
X219750Y217661D01*
Y249499D01*
X186823Y96488D02*
Y102498D01*
X177500Y121000D02*
X192403Y106097D01*
X189050Y82250D02*
Y94261D01*
X192403Y101008D02*
Y106097D01*
Y101008D02*
X193073Y100338D01*
X172500Y116821D02*
X186823Y102498D01*
Y96488D02*
X189050Y94261D01*
X177500Y121000D02*
Y134500D01*
X167500Y108759D02*
Y134500D01*
X182600Y73654D02*
Y93659D01*
X167500Y108759D02*
X182600Y93659D01*
X111250Y227250D02*
X116712D01*
X119382Y224580D01*
X120330D01*
X228215Y257764D02*
Y258711D01*
Y257764D02*
X230500Y255479D01*
X221699Y256388D02*
Y262783D01*
X221344Y263138D02*
X221699Y262783D01*
X230500Y236750D02*
Y255479D01*
X221699Y256388D02*
X226000Y252087D01*
X230500Y236750D02*
X247750Y219500D01*
X122000Y21000D02*
X141250D01*
X154000Y8250D01*
X119250Y18250D02*
X122000Y21000D01*
X223755Y55000D02*
X224000Y54755D01*
X199500Y38500D02*
X216000Y55000D01*
X223755D01*
X100500Y193035D02*
Y216500D01*
Y193035D02*
X109850Y183685D01*
X94750Y190959D02*
X97835Y187874D01*
Y180000D02*
Y187874D01*
X94750Y190959D02*
Y219000D01*
X190553Y124250D02*
X214088D01*
X187577Y127227D02*
X190553Y124250D01*
X187577Y127227D02*
Y134424D01*
X187500Y134500D02*
X187577Y134424D01*
X247665Y232085D02*
X258500Y221250D01*
Y221000D02*
Y221250D01*
X245415Y232085D02*
X247665D01*
X267810Y221500D02*
X268000D01*
X253442Y235868D02*
X267810Y221500D01*
X255025Y211610D02*
X266949D01*
X275000Y219661D01*
Y229216D01*
X253442Y235868D02*
Y239678D01*
X253510Y239746D01*
Y247171D01*
X255277Y248938D01*
X237250Y240250D02*
X245415Y232085D01*
X237250Y240250D02*
Y248589D01*
X246438Y257777D01*
Y257777D01*
X264116Y240100D02*
X275000Y229216D01*
X94750Y219000D02*
X109500Y233750D01*
X100500Y216500D02*
X111250Y227250D01*
X182500Y125250D02*
X195750Y112000D01*
X182500Y125250D02*
Y134500D01*
X168000Y265000D02*
Y272750D01*
X170250Y275000D01*
X180000D01*
X172500Y215500D02*
Y238772D01*
X168000Y243272D02*
X172500Y238772D01*
X168000Y243272D02*
Y265000D01*
X198000Y235000D02*
X198500Y235500D01*
Y252000D01*
X198000Y234250D02*
Y235000D01*
X190250Y226500D02*
X198000Y234250D01*
X181303Y226500D02*
X190250D01*
X177577Y222773D02*
X181303Y226500D01*
X177577Y215576D02*
Y222773D01*
X177500Y215500D02*
X177577Y215576D01*
X79571Y239571D02*
X90404Y250404D01*
Y252904D01*
X37096Y114596D02*
X50429Y127929D01*
X155500Y68000D02*
X176946D01*
X150950Y72550D02*
Y82250D01*
Y72550D02*
X155500Y68000D01*
X176946D02*
X182600Y73654D01*
X172500Y116821D02*
Y134500D01*
X162577Y83323D02*
X163650Y82250D01*
X162577Y83323D02*
Y134424D01*
X162500Y134500D02*
X162577Y134424D01*
X163650Y82250D02*
X176350D01*
X246000Y172500D02*
Y188250D01*
X224750Y179250D02*
X227500Y176500D01*
X223404Y179250D02*
X224750D01*
X220154Y182500D02*
X223404Y179250D01*
X210500Y182500D02*
X220154D01*
X199500Y30000D02*
Y38500D01*
X189050Y27750D02*
Y28250D01*
X190800Y30000D01*
X199500D01*
D12*
X245500Y188750D02*
X246000Y188250D01*
D17*
X100027Y305027D02*
D03*
X34973Y239973D02*
D03*
D18*
X110404Y287904D02*
D03*
X119596Y297096D02*
D03*
X27904Y105404D02*
D03*
X99596Y262096D02*
D03*
X90404Y252904D02*
D03*
X37096Y114596D02*
D03*
D19*
X119343Y320657D02*
D03*
X130657Y309343D02*
D03*
D20*
X167500Y215500D02*
D03*
X197500Y134500D02*
D03*
X157500Y215500D02*
D03*
X162500D02*
D03*
X192500Y134500D02*
D03*
X152500Y215500D02*
D03*
X197500D02*
D03*
X192500D02*
D03*
X187500D02*
D03*
X182500D02*
D03*
X177500D02*
D03*
X172500D02*
D03*
X147500D02*
D03*
X142500D02*
D03*
Y134500D02*
D03*
X147500D02*
D03*
X152500D02*
D03*
X157500D02*
D03*
X162500D02*
D03*
X167500D02*
D03*
X172500D02*
D03*
X177500D02*
D03*
X182500D02*
D03*
X187500D02*
D03*
D21*
X129500Y182500D02*
D03*
Y187500D02*
D03*
X210500Y202500D02*
D03*
X129500Y147500D02*
D03*
Y152500D02*
D03*
X210500Y197500D02*
D03*
X129500Y202500D02*
D03*
Y197500D02*
D03*
Y192500D02*
D03*
Y177500D02*
D03*
Y172500D02*
D03*
Y167500D02*
D03*
Y162500D02*
D03*
Y157500D02*
D03*
X210500Y147500D02*
D03*
Y152500D02*
D03*
Y157500D02*
D03*
Y162500D02*
D03*
Y167500D02*
D03*
Y172500D02*
D03*
Y177500D02*
D03*
Y182500D02*
D03*
Y187500D02*
D03*
Y192500D02*
D03*
D22*
X64571Y142071D02*
D03*
X65429Y225429D02*
D03*
X79571Y239571D02*
D03*
X50429Y127929D02*
D03*
D23*
X227500Y205500D02*
D03*
X115000Y145500D02*
D03*
Y129500D02*
D03*
X227500Y189500D02*
D03*
X203000Y14000D02*
D03*
Y30000D02*
D03*
D24*
X212000Y135000D02*
D03*
X153000Y232500D02*
D03*
Y250000D02*
D03*
X182000Y235000D02*
D03*
X152000Y265000D02*
D03*
X137000Y250000D02*
D03*
Y232500D02*
D03*
X228000Y135000D02*
D03*
X198000Y235000D02*
D03*
X168000Y265000D02*
D03*
D25*
X95000Y153000D02*
D03*
Y117000D02*
D03*
D26*
X264550Y188750D02*
D03*
X255025Y211610D02*
D03*
X245500Y188750D02*
D03*
D27*
X227500Y163500D02*
D03*
Y176500D02*
D03*
D28*
X259000Y172500D02*
D03*
X246000D02*
D03*
D29*
X198500Y275000D02*
D03*
X180000Y252000D02*
D03*
X198500D02*
D03*
X180000Y275000D02*
D03*
D30*
X270727Y133192D02*
D03*
X247827Y123763D02*
D03*
X261298Y110292D02*
D03*
D31*
X150950Y27750D02*
D03*
X163650D02*
D03*
X176350D02*
D03*
X150950Y82250D02*
D03*
X163650D02*
D03*
X176350D02*
D03*
X189050D02*
D03*
Y27750D02*
D03*
D32*
X237600Y266616D02*
D03*
X246438Y257777D02*
D03*
X264116Y240100D02*
D03*
X255277Y248938D02*
D03*
D33*
X239014Y304093D02*
D03*
X301593Y241514D02*
D03*
D34*
X250382Y47216D02*
D03*
X295284Y92118D02*
D03*
D35*
X44716D02*
D03*
X89618Y47216D02*
D03*
D36*
X91032Y84693D02*
D03*
X82193Y93532D02*
D03*
D37*
X244324Y109324D02*
D03*
X223676Y88676D02*
D03*
D38*
X248968Y84693D02*
D03*
X257807Y93532D02*
D03*
D60*
X62658Y103158D02*
X72566D01*
X82193Y93532D01*
D61*
X305000Y175000D02*
D03*
X35000D02*
D03*
D62*
X146342Y170842D02*
D03*
X160500Y172250D02*
D03*
X133250Y289500D02*
D03*
X133500Y261500D02*
D03*
X126500Y217250D02*
D03*
X293750Y126250D02*
D03*
X262000Y158000D02*
D03*
X207000Y107500D02*
D03*
X284000Y76750D02*
D03*
X114750Y263250D02*
D03*
X205929Y220571D02*
D03*
X127750Y237250D02*
D03*
X254500Y195750D02*
D03*
X268669Y204419D02*
D03*
X163750Y53250D02*
D03*
X70250Y160500D02*
D03*
X63500Y53500D02*
D03*
X73500Y65500D02*
D03*
X52500Y63500D02*
D03*
X18750Y119000D02*
D03*
X71000Y189250D02*
D03*
X65750Y208000D02*
D03*
X26000Y215750D02*
D03*
X10750Y211500D02*
D03*
X19250Y227000D02*
D03*
X66500Y255250D02*
D03*
Y271750D02*
D03*
X76500Y286500D02*
D03*
X140250Y321500D02*
D03*
X156000Y328000D02*
D03*
X192250Y323250D02*
D03*
X177500Y328500D02*
D03*
X207000Y326500D02*
D03*
X223750Y319250D02*
D03*
X276250Y261000D02*
D03*
X262250Y284750D02*
D03*
X303750Y215750D02*
D03*
X323000Y220000D02*
D03*
X325250Y138000D02*
D03*
X223000Y20000D02*
D03*
X132000Y11750D02*
D03*
X203000Y288750D02*
D03*
X155169Y15919D02*
D03*
X128500Y73000D02*
D03*
X118750Y109000D02*
D03*
X135750Y124000D02*
D03*
Y80750D02*
D03*
X135500Y105250D02*
D03*
X174250Y58750D02*
D03*
X115750Y203250D02*
D03*
X183000Y183000D02*
D03*
X170250Y175750D02*
D03*
X255729Y147271D02*
D03*
X211000Y117000D02*
D03*
X223763Y108737D02*
D03*
X278101Y121560D02*
D03*
X240669Y211581D02*
D03*
X217143Y214107D02*
D03*
X248278Y135204D02*
D03*
X239000Y152000D02*
D03*
X193073Y100338D02*
D03*
X120330Y224580D02*
D03*
X228215Y258711D02*
D03*
X219750Y249499D02*
D03*
X119250Y18250D02*
D03*
X224000Y54755D02*
D03*
X109850Y183685D02*
D03*
X97835Y180000D02*
D03*
X258500Y221000D02*
D03*
X268000Y221500D02*
D03*
X221344Y263138D02*
D03*
X247750Y219500D02*
D03*
X109500Y233750D02*
D03*
X195750Y112000D02*
D03*
X62658Y103158D02*
D03*
M02*
