G04*
G04 #@! TF.GenerationSoftware,Altium Limited,Altium Designer,25.5.2 (35)*
G04*
G04 Layer_Color=128*
%FSLAX44Y44*%
%MOMM*%
G71*
G04*
G04 #@! TF.SameCoordinates,91E826F0-7666-4492-806E-905594E7F360*
G04*
G04*
G04 #@! TF.FilePolarity,Positive*
G04*
G01*
G75*
G04:AMPARAMS|DCode=18|XSize=0.95mm|YSize=0.8mm|CornerRadius=0mm|HoleSize=0mm|Usage=FLASHONLY|Rotation=315.000|XOffset=0mm|YOffset=0mm|HoleType=Round|Shape=Rectangle|*
%AMROTATEDRECTD18*
4,1,4,-0.6187,0.0530,-0.0530,0.6187,0.6187,-0.0530,0.0530,-0.6187,-0.6187,0.0530,0.0*
%
%ADD18ROTATEDRECTD18*%

G04:AMPARAMS|DCode=19|XSize=1.05mm|YSize=0.9mm|CornerRadius=0mm|HoleSize=0mm|Usage=FLASHONLY|Rotation=45.000|XOffset=0mm|YOffset=0mm|HoleType=Round|Shape=Rectangle|*
%AMROTATEDRECTD19*
4,1,4,-0.0530,-0.6894,-0.6894,-0.0530,0.0530,0.6894,0.6894,0.0530,-0.0530,-0.6894,0.0*
%
%ADD19ROTATEDRECTD19*%

%ADD24R,0.9000X1.0500*%
%ADD27R,0.9500X0.8000*%
G04:AMPARAMS|DCode=34|XSize=2.2098mm|YSize=3.0988mm|CornerRadius=0mm|HoleSize=0mm|Usage=FLASHONLY|Rotation=225.000|XOffset=0mm|YOffset=0mm|HoleType=Round|Shape=Rectangle|*
%AMROTATEDRECTD34*
4,1,4,-0.3143,1.8769,1.8769,-0.3143,0.3143,-1.8769,-1.8769,0.3143,-0.3143,1.8769,0.0*
%
%ADD34ROTATEDRECTD34*%

G04:AMPARAMS|DCode=35|XSize=2.2098mm|YSize=3.0988mm|CornerRadius=0mm|HoleSize=0mm|Usage=FLASHONLY|Rotation=135.000|XOffset=0mm|YOffset=0mm|HoleType=Round|Shape=Rectangle|*
%AMROTATEDRECTD35*
4,1,4,1.8769,0.3143,-0.3143,-1.8769,-1.8769,-0.3143,0.3143,1.8769,1.8769,0.3143,0.0*
%
%ADD35ROTATEDRECTD35*%

%ADD63P,1.0776X4X180.0*%
G04:AMPARAMS|DCode=64|XSize=1.32mm|YSize=0.59mm|CornerRadius=0mm|HoleSize=0mm|Usage=FLASHONLY|Rotation=45.000|XOffset=0mm|YOffset=0mm|HoleType=Round|Shape=Rectangle|*
%AMROTATEDRECTD64*
4,1,4,-0.2581,-0.6753,-0.6753,-0.2581,0.2581,0.6753,0.6753,0.2581,-0.2581,-0.6753,0.0*
%
%ADD64ROTATEDRECTD64*%

%ADD65R,0.3556X1.4732*%
%ADD66R,0.5900X1.3200*%
G04:AMPARAMS|DCode=67|XSize=0.8128mm|YSize=1.7018mm|CornerRadius=0mm|HoleSize=0mm|Usage=FLASHONLY|Rotation=225.000|XOffset=0mm|YOffset=0mm|HoleType=Round|Shape=Rectangle|*
%AMROTATEDRECTD67*
4,1,4,-0.3143,0.8891,0.8891,-0.3143,0.3143,-0.8891,-0.8891,0.3143,-0.3143,0.8891,0.0*
%
%ADD67ROTATEDRECTD67*%

G04:AMPARAMS|DCode=68|XSize=0.8128mm|YSize=1.7018mm|CornerRadius=0mm|HoleSize=0mm|Usage=FLASHONLY|Rotation=135.000|XOffset=0mm|YOffset=0mm|HoleType=Round|Shape=Rectangle|*
%AMROTATEDRECTD68*
4,1,4,0.8891,0.3143,-0.3143,-0.8891,-0.8891,-0.3143,0.3143,0.8891,0.8891,0.3143,0.0*
%
%ADD68ROTATEDRECTD68*%

G04:AMPARAMS|DCode=69|XSize=0.45mm|YSize=1.3mm|CornerRadius=0mm|HoleSize=0mm|Usage=FLASHONLY|Rotation=315.000|XOffset=0mm|YOffset=0mm|HoleType=Round|Shape=Round|*
%AMOVALD69*
21,1,0.8500,0.4500,0.0000,0.0000,45.0*
1,1,0.4500,-0.3005,-0.3005*
1,1,0.4500,0.3005,0.3005*
%
%ADD69OVALD69*%

G04:AMPARAMS|DCode=70|XSize=1.05mm|YSize=0.9mm|CornerRadius=0mm|HoleSize=0mm|Usage=FLASHONLY|Rotation=315.000|XOffset=0mm|YOffset=0mm|HoleType=Round|Shape=Rectangle|*
%AMROTATEDRECTD70*
4,1,4,-0.6894,0.0530,-0.0530,0.6894,0.6894,-0.0530,0.0530,-0.6894,-0.6894,0.0530,0.0*
%
%ADD70ROTATEDRECTD70*%

%ADD71R,0.9542X2.7062*%
%ADD72R,0.9000X0.6450*%
%ADD73R,2.4130X3.4290*%
G04:AMPARAMS|DCode=74|XSize=1.11mm|YSize=1.73mm|CornerRadius=0mm|HoleSize=0mm|Usage=FLASHONLY|Rotation=45.000|XOffset=0mm|YOffset=0mm|HoleType=Round|Shape=Rectangle|*
%AMROTATEDRECTD74*
4,1,4,0.2192,-1.0041,-1.0041,0.2192,-0.2192,1.0041,1.0041,-0.2192,0.2192,-1.0041,0.0*
%
%ADD74ROTATEDRECTD74*%

D18*
X307500Y102500D02*
D03*
X64596Y139596D02*
D03*
X316692Y111692D02*
D03*
X55404Y130404D02*
D03*
D19*
X300657Y81843D02*
D03*
X235657Y229343D02*
D03*
X289343Y93157D02*
D03*
X260657Y39343D02*
D03*
X224343Y240657D02*
D03*
X249343Y50657D02*
D03*
D24*
X104500Y30000D02*
D03*
X120500D02*
D03*
X168000Y220000D02*
D03*
X195500D02*
D03*
X152000D02*
D03*
X100500Y150000D02*
D03*
X100500Y207500D02*
D03*
X179500Y220000D02*
D03*
X84500Y150000D02*
D03*
X84500Y207500D02*
D03*
D27*
X130000Y159000D02*
D03*
X150000D02*
D03*
X210000D02*
D03*
X190000D02*
D03*
X170000D02*
D03*
X150000Y146000D02*
D03*
X130000D02*
D03*
X190000D02*
D03*
X170000D02*
D03*
X210000D02*
D03*
D34*
X99402Y294338D02*
D03*
X45662Y240598D02*
D03*
D35*
X294338D02*
D03*
X240598Y294338D02*
D03*
D63*
X24273Y130692D02*
D03*
X47172Y121263D02*
D03*
X33702Y107792D02*
D03*
D64*
X289814Y68879D02*
D03*
X266904Y59404D02*
D03*
X276379Y82314D02*
D03*
X273621Y52686D02*
D03*
X260186Y66121D02*
D03*
D65*
X169198Y238290D02*
D03*
X162848Y296710D02*
D03*
X169198D02*
D03*
X175802D02*
D03*
X195360D02*
D03*
X149640D02*
D03*
X156244D02*
D03*
X182152D02*
D03*
X188756D02*
D03*
X195360Y238290D02*
D03*
X188756D02*
D03*
X182152D02*
D03*
X175802D02*
D03*
X162848D02*
D03*
X156244D02*
D03*
X149640D02*
D03*
D66*
X92500Y168550D02*
D03*
X102000D02*
D03*
X83000Y191450D02*
D03*
X102000D02*
D03*
X83000Y168550D02*
D03*
D67*
X101877Y255801D02*
D03*
X84199Y238123D02*
D03*
X93038Y246962D02*
D03*
D68*
X255801Y238123D02*
D03*
X238123Y255801D02*
D03*
X246962Y246962D02*
D03*
D69*
X252020Y114924D02*
D03*
X262980Y135076D02*
D03*
X267576Y130480D02*
D03*
X256616Y110328D02*
D03*
X242827Y124116D02*
D03*
X272173Y125884D02*
D03*
X258384Y139672D02*
D03*
X247424Y119520D02*
D03*
D70*
X224343Y96843D02*
D03*
X235657Y108157D02*
D03*
D71*
X146250Y122500D02*
D03*
Y92500D02*
D03*
X125250Y90500D02*
D03*
X92750D02*
D03*
X178750Y122500D02*
D03*
Y92500D02*
D03*
D72*
X119000Y67000D02*
D03*
X96000Y48000D02*
D03*
X119000Y57500D02*
D03*
X96000Y67000D02*
D03*
Y57500D02*
D03*
X119000Y48000D02*
D03*
D73*
X143290Y42500D02*
D03*
X201710D02*
D03*
D74*
X47945Y85444D02*
D03*
X72057Y109556D02*
D03*
M02*
